<svg width="68" height="28" viewBox="0 0 68 28" fill="none" xmlns="http://www.w3.org/2000/svg">
<path d="M67.9965 13.9969C67.9965 6.18467 61.8414 0 50.2358 0C38.6301 0 32.4375 6.18467 32.4375 13.9969C32.4375 21.7747 38.5518 27.9938 50.2358 27.9938C53.9645 27.9938 57.1172 27.3646 59.6812 26.2567L61.3593 27.9938H67.9965L63.842 23.6213C66.597 21.1236 67.9965 17.7402 67.9965 13.9969ZM50.2358 23.0642C42.0176 23.0642 37.813 19.0047 37.813 13.9969C37.813 8.95149 42.0958 4.85446 50.2358 4.85446C58.3757 4.85446 62.621 8.95149 62.621 13.9969C62.621 16.2034 61.8101 18.2254 60.2041 19.7966L56.5755 15.9812L56.4973 15.9781L54.0741 13.446H47.3117L55.8461 22.2848C54.2557 22.7856 52.3835 23.0642 50.2358 23.0642Z" fill="#350587"/>
<path d="M31.5516 9.61779C31.5516 4.71011 27.6163 0.738281 22.6697 0.738281H0V27.9965H5.25965V18.5755H19.946L29.0032 27.9996H35.6404L26.0447 17.9057C29.2912 16.5599 31.5516 13.3361 31.5516 9.61779ZM5.25965 5.80245H22.2439C24.3854 5.80245 26.101 7.55519 26.101 9.65847C26.101 11.7993 24.3885 13.5145 22.2439 13.5145H5.25965V5.80245Z" fill="#350587"/>
</svg>
