<svg width="191" height="227" viewBox="0 0 191 227" fill="none" xmlns="http://www.w3.org/2000/svg">
<path d="M124.825 0H26.4904C11.8537 0 0 11.8498 0 26.4817V166.206C0 180.838 11.8537 192.687 26.4904 192.687H130.906C145.543 192.687 157.396 180.838 157.396 166.206V32.5611C157.396 29.9851 156.366 27.6151 154.614 25.7603L131.628 2.78219C129.772 1.03049 127.299 0 124.825 0Z" fill="#8B8DFD"/>
<mask id="mask0_1_58776" style="mask-type:luminance" maskUnits="userSpaceOnUse" x="33" y="33" width="158" height="194">
<path d="M190.49 66.6695V200.108C190.49 214.74 178.637 226.59 164 226.59H59.5841C44.9474 226.59 33.0938 214.74 33.0938 200.108V60.384C33.0938 45.7522 44.9474 33.9023 59.5841 33.9023H157.712C170.597 46.7825 177.709 53.8924 190.49 66.6695Z" fill="white"/>
</mask>
<g mask="url(#mask0_1_58776)">
<path opacity="0.01" d="M124.83 -14.2188C131.221 -14.2188 137.2 -11.7458 141.632 -7.21202L164.618 15.7662C169.153 20.3001 171.627 26.2765 171.627 32.562V166.207C171.627 188.67 153.382 206.908 130.912 206.908H26.4961C4.02564 206.908 -14.2188 188.67 -14.2188 166.207V26.4826C-14.2188 4.01956 4.02564 -14.2188 26.4961 -14.2188H124.83Z" fill="#FEFEFF"/>
<path opacity="0.017094" d="M124.829 -14.1172C131.116 -14.1172 137.095 -11.6442 141.63 -7.21347L164.616 15.7648C169.048 20.1956 171.522 26.172 171.522 32.5606V166.205C171.522 188.565 153.278 206.803 130.91 206.803H26.4945C4.12711 206.803 -14.1172 188.565 -14.1172 166.205V26.4811C-14.1172 4.12115 4.12711 -14.1172 26.4945 -14.1172H124.829Z" fill="#FDFDFF"/>
<path opacity="0.025641" d="M124.835 -14.0117C131.123 -14.0117 137.101 -11.5387 141.533 -7.10788L164.519 15.8703C168.951 20.301 171.425 26.2775 171.425 32.563V166.208C171.425 188.567 153.284 206.703 130.916 206.703H26.5007C4.1333 206.703 -14.0078 188.567 -14.0078 166.208V26.4836C-14.0078 4.1236 4.1333 -14.0117 26.5007 -14.0117H124.835Z" fill="#FCFCFF"/>
<path opacity="0.034188" d="M124.834 -13.9102C131.121 -13.9102 136.996 -11.4371 141.429 -7.00631L164.415 15.9718C168.847 20.4026 171.321 26.2761 171.321 32.5616V166.206C171.321 188.463 153.179 206.598 130.915 206.598H26.4994C4.23501 206.598 -13.9062 188.463 -13.9062 166.206V26.4821C-13.9062 4.22519 4.23501 -13.9102 26.4994 -13.9102H124.834Z" fill="#FBFBFF"/>
<path opacity="0.042735" d="M124.831 -13.8047C131.015 -13.8047 136.891 -11.3317 141.323 -7.00399L164.309 15.9741C168.741 20.4049 171.112 26.2783 171.112 32.4608V166.105C171.112 188.259 153.073 206.291 130.912 206.291H26.4964C4.33512 206.291 -13.7031 188.259 -13.7031 166.105V26.3814C-13.7031 4.22754 4.33512 -13.8047 26.4964 -13.8047H124.831Z" fill="#FAFAFF"/>
<path opacity="0.051282" d="M124.829 -13.6016C131.014 -13.6016 136.889 -11.2316 141.218 -6.80086L164.204 16.1774C168.636 20.6082 171.007 26.3785 171.007 32.561V166.205C171.007 188.359 152.969 206.289 130.91 206.289H26.4948C4.3335 206.289 -13.6016 188.256 -13.6016 166.205V26.4815C-13.6016 4.32764 4.43658 -13.6016 26.4948 -13.6016H124.829Z" fill="#F9F9FF"/>
<path opacity="0.059829" d="M124.835 -13.4961C131.02 -13.4961 136.792 -11.1262 141.121 -6.69539L164.107 16.2829C168.436 20.6106 170.91 26.484 170.91 32.5634V166.208C170.91 188.259 152.975 206.188 130.917 206.188H26.501C4.44278 206.188 -13.4922 188.259 -13.4922 166.208V26.484C-13.4922 4.43314 4.44278 -13.4961 26.501 -13.4961H124.835Z" fill="#F8F8FF"/>
<path opacity="0.068376" d="M124.834 -13.3945C130.915 -13.3945 136.688 -11.0246 141.12 -6.69685L164.106 16.2814C168.435 20.6091 170.806 26.3795 170.806 32.562V166.206C170.806 188.154 152.87 206.083 130.915 206.083H26.4996C4.54449 206.083 -13.3906 188.154 -13.3906 166.206V26.4825C-13.3906 4.53473 4.54449 -13.3945 26.4996 -13.3945H124.834Z" fill="#F7F7FF"/>
<path opacity="0.076923" d="M124.832 -13.2891C130.914 -13.2891 136.686 -10.9191 141.015 -6.59138L164.001 16.3868C168.33 20.7145 170.701 26.4849 170.701 32.5643V166.209C170.701 188.157 152.869 205.983 130.914 205.983H26.498C4.54288 205.983 -13.2891 188.157 -13.2891 166.209V26.4849C-13.2891 4.53706 4.54288 -13.2891 26.498 -13.2891H124.832Z" fill="#F6F6FF"/>
<path opacity="0.08547" d="M124.828 -13.1875C130.909 -13.1875 136.578 -10.8176 140.907 -6.48982L163.893 16.4883C168.222 20.8161 170.593 26.4834 170.593 32.5629V166.207C170.593 188.052 152.864 205.775 131.012 205.775H26.5966C4.74454 205.775 -12.9844 188.052 -12.9844 166.207V26.4834C-12.9844 4.63864 4.74454 -13.0845 26.5966 -13.0845H124.828V-13.1875Z" fill="#F5F5FF"/>
<path opacity="0.094017" d="M124.828 -13.0859C130.909 -13.0859 136.578 -10.716 140.804 -6.49127L163.79 16.4869C168.017 20.7116 170.387 26.3788 170.387 32.4583V166.103C170.387 187.845 152.658 205.568 130.909 205.568H26.4934C4.74444 205.568 -12.9844 187.845 -12.9844 166.103V26.3789C-12.9844 4.63721 4.74444 -13.0859 26.4934 -13.0859H124.828Z" fill="#F4F4FF"/>
<path opacity="0.1026" d="M124.834 -12.8789C130.813 -12.8789 136.482 -10.5089 140.708 -6.28424L163.694 16.694C167.92 20.9187 170.29 26.586 170.29 32.5624V166.207C170.29 187.949 152.665 205.569 130.916 205.569H26.4999C4.75089 205.569 -12.875 187.949 -12.875 166.207V26.4829C-12.875 4.74123 4.75089 -12.8789 26.4999 -12.8789H124.834Z" fill="#F3F3FF"/>
<path opacity="0.1111" d="M124.833 -12.7773C130.811 -12.7773 136.377 -10.4075 140.603 -6.1828L163.589 16.7955C167.815 21.0202 170.186 26.5844 170.186 32.5608V166.205C170.186 187.844 152.56 205.464 130.914 205.464H26.4982C4.85235 205.464 -12.7734 187.844 -12.7734 166.205V26.4814C-12.7734 4.84269 4.85235 -12.7773 26.4982 -12.7773H124.833Z" fill="#F2F2FF"/>
<path opacity="0.1197" d="M124.833 -12.6743C130.811 -12.6743 136.377 -10.4075 140.5 -6.1828L163.486 16.7955C167.712 21.0201 169.98 26.5843 169.98 32.4577V166.102C169.98 187.638 152.457 205.258 130.811 205.258H26.3953C4.8525 205.258 -12.7734 187.741 -12.7734 166.102V26.3783C-12.7734 4.84272 4.74942 -12.7773 26.3953 -12.7773H124.833V-12.6743Z" fill="#F1F1FF"/>
<path opacity="0.1282" d="M124.827 -12.5703C130.702 -12.5703 136.268 -10.3034 140.494 -6.07866L163.48 16.8995C167.603 21.0211 169.974 26.5854 169.974 32.5618V166.206C169.974 187.742 152.451 205.156 131.011 205.156H26.5955C5.05265 205.156 -12.3672 187.639 -12.3672 166.206V26.4824C-12.3672 4.94673 5.15573 -12.4673 26.5955 -12.4673H124.827V-12.5703Z" fill="#F0F0FF"/>
<path opacity="0.1368" d="M124.827 -12.4688C130.702 -12.4688 136.268 -10.2018 140.391 -6.08011L163.377 16.898C167.5 21.0197 169.768 26.5839 169.768 32.4572V166.102C169.768 187.534 152.348 204.948 130.908 204.948H26.4923C5.05255 204.948 -12.3672 187.534 -12.3672 166.102V26.3779C-12.3672 4.94531 5.05255 -12.4688 26.4923 -12.4688H124.827Z" fill="#EFEFFF"/>
<path opacity="0.1453" d="M124.825 -12.2617C130.7 -12.2617 136.163 -9.99486 140.286 -5.87321L163.272 17.105C167.395 21.2267 169.663 26.6879 169.663 32.5612V166.206C169.663 187.535 152.243 204.949 130.906 204.949H26.4907C5.15401 204.949 -12.2656 187.535 -12.2656 166.206V26.4818C-12.2656 5.15223 5.15401 -12.2617 26.4907 -12.2617H124.825Z" fill="#EEEEFF"/>
<path opacity="0.1538" d="M124.831 -12.1562C130.604 -12.1562 136.067 -9.88939 140.19 -5.76774L163.176 17.2105C167.299 21.3322 169.566 26.7934 169.566 32.5637V166.208C169.566 187.538 152.249 204.849 130.913 204.849H26.4971C5.16046 204.849 -12.1562 187.538 -12.1562 166.208V26.4842C-12.1562 5.15469 5.16046 -12.1562 26.4971 -12.1562H124.831Z" fill="#EDEDFF"/>
<path opacity="0.1624" d="M124.831 -12.0532C130.604 -12.0532 136.067 -9.78635 140.087 -5.76774L163.072 17.2105C167.195 21.3322 169.36 26.6902 169.36 32.4605V166.105C169.36 187.332 152.044 204.643 130.81 204.643H26.3942C5.16061 204.643 -12.1562 187.332 -12.1562 166.105V26.3812C-12.1562 5.15471 5.16061 -12.1562 26.3942 -12.1562H124.831V-12.0532Z" fill="#ECECFF"/>
<path opacity="0.1709" d="M124.83 -11.9517C130.602 -11.9517 135.962 -9.68479 139.982 -5.66618L162.968 17.3121C166.988 21.3307 169.255 26.7918 169.255 32.4591V166.104C169.255 187.227 152.042 204.538 130.808 204.538H26.3926C5.26207 204.538 -12.0547 187.33 -12.0547 166.104V26.3798C-12.0547 5.2563 5.159 -12.0547 26.3926 -12.0547H124.83V-11.9517Z" fill="#EBECFF"/>
<path opacity="0.1795" d="M124.832 -11.8477C130.501 -11.8477 135.861 -9.58065 139.984 -5.56204L162.97 17.4161C166.99 21.4347 169.257 26.7929 169.257 32.5632V166.208C169.257 187.331 152.044 204.436 131.016 204.436H26.6005C5.47004 204.436 -11.6406 187.228 -11.6406 166.208V26.4838C-11.6406 5.36032 5.57311 -11.7445 26.6005 -11.7445H124.832V-11.8477Z" fill="#EAEBFF"/>
<path opacity="0.188" d="M124.832 -11.6406C130.501 -11.6406 135.861 -9.47676 139.881 -5.45815L162.867 17.52C166.886 21.5386 169.051 26.8968 169.051 32.5641V166.209C169.051 187.229 151.941 204.334 130.913 204.334H26.4974C5.46994 204.334 -11.6406 187.229 -11.6406 166.209V26.4847C-11.6406 5.46423 5.46994 -11.6406 26.4974 -11.6406H124.832Z" fill="#E9EAFF"/>
<path opacity="0.1966" d="M124.83 -11.5391C130.499 -11.5391 135.756 -9.3752 139.776 -5.35659L162.762 17.6217C166.782 21.6403 168.947 26.8954 168.947 32.5627V166.207C168.947 187.125 151.939 204.229 130.911 204.229H26.4958C5.5714 204.229 -11.5391 187.228 -11.5391 166.207V26.4832C-11.5391 5.56582 5.46832 -11.5391 26.4958 -11.5391H124.83Z" fill="#E8E9FF"/>
<path opacity="0.2051" d="M124.828 -11.4375C130.395 -11.4375 135.754 -9.27363 139.671 -5.25502L162.657 17.7232C166.574 21.6388 168.842 26.997 168.842 32.5612V166.206C168.842 187.123 151.834 204.125 130.91 204.125H26.4941C5.56978 204.125 -11.4375 187.123 -11.4375 166.206V26.4818C-11.4375 5.56437 5.56978 -11.4375 26.4941 -11.4375H124.828Z" fill="#E7E8FF"/>
<path opacity="0.2137" d="M124.828 -11.3345C130.395 -11.3345 135.651 -9.17059 139.568 -5.25502L162.554 17.7232C166.471 21.6388 168.636 26.8938 168.636 32.4581V166.103C168.636 186.917 151.731 203.919 130.807 203.919H26.3912C5.56993 203.919 -11.4375 187.02 -11.4375 166.103V26.3787C-11.4375 5.56439 5.46686 -11.4375 26.3912 -11.4375H124.828V-11.3345Z" fill="#E6E7FF"/>
<path opacity="0.2222" d="M124.832 -11.2305C130.398 -11.2305 135.552 -9.0667 139.469 -5.15113L162.455 17.8271C166.371 21.7427 168.536 26.9978 168.536 32.4589V166.104C168.536 186.918 151.632 203.714 130.913 203.714H26.4976C5.67633 203.714 -11.125 186.815 -11.125 166.104V26.3796C-11.125 5.56526 5.77941 -11.2305 26.4976 -11.2305H124.832Z" fill="#E5E6FF"/>
<path opacity="0.2308" d="M124.83 -11.0234C130.293 -11.0234 135.55 -8.85955 139.364 -4.94398L162.35 18.0342C166.267 21.9497 168.431 27.1019 168.431 32.5631V166.208C168.431 186.919 151.63 203.715 130.912 203.715H26.496C5.7778 203.715 -11.0234 186.919 -11.0234 166.208V26.4836C-11.0234 5.77232 5.7778 -11.0234 26.496 -11.0234H124.83Z" fill="#E4E5FF"/>
<path opacity="0.2393" d="M124.829 -10.9219C130.292 -10.9219 135.445 -8.75796 139.362 -4.94543L162.348 18.0327C166.265 21.9483 168.327 27.1004 168.327 32.5616V166.206C168.327 186.814 151.525 203.61 130.91 203.61H26.4944C5.87926 203.61 -10.9219 186.814 -10.9219 166.206V26.4822C-10.9219 5.87391 5.87926 -10.9219 26.4944 -10.9219H124.829Z" fill="#E3E4FF"/>
<path opacity="0.2479" d="M124.835 -10.8164C130.298 -10.8164 135.349 -8.65249 139.266 -4.83996L162.252 18.1383C166.066 21.9508 168.23 27.1029 168.23 32.5641V166.209C168.23 186.817 151.532 203.509 130.917 203.509H26.5008C5.88571 203.509 -10.8125 186.817 -10.8125 166.209V26.4846C-10.8125 5.87636 5.88571 -10.8164 26.5008 -10.8164H124.835Z" fill="#E2E3FF"/>
<path opacity="0.2564" d="M124.826 -10.7148C130.186 -10.7148 135.339 -8.65409 139.153 -4.73852L162.139 18.2397C165.953 22.0523 168.118 27.2044 168.118 32.5625V166.207C168.118 186.712 151.419 203.405 130.907 203.405H26.4914C5.97936 203.405 -10.7188 186.712 -10.7188 166.207V26.483C-10.7188 5.97782 5.97936 -10.7148 26.4914 -10.7148H124.826Z" fill="#E1E2FE"/>
<path opacity="0.265" d="M124.831 -10.6133C130.191 -10.6133 135.241 -8.55251 139.055 -4.73998L162.041 18.2383C165.855 22.0508 167.916 27.0998 167.916 32.4579V166.103C167.916 186.505 151.321 203.094 130.912 203.094H26.4963C6.08727 203.094 -10.5078 186.505 -10.5078 166.103V26.3786C-10.5078 5.97639 6.08727 -10.6133 26.4963 -10.6133H124.831Z" fill="#E0E1FE"/>
<path opacity="0.2735" d="M124.829 -10.4062C130.189 -10.4062 135.24 -8.34535 138.95 -4.53282L161.936 18.4453C165.75 22.2578 167.811 27.2039 167.811 32.562V166.207C167.811 186.609 151.216 203.095 130.91 203.095H26.4946C6.08566 203.095 -10.4062 186.506 -10.4062 166.207V26.4826C-10.4062 6.08041 6.18873 -10.4062 26.4946 -10.4062H124.829Z" fill="#DFE0FE"/>
<path opacity="0.2821" d="M124.835 -10.3047C130.092 -10.3047 135.143 -8.24379 138.854 -4.43126L161.839 18.5469C165.55 22.2564 167.715 27.3055 167.715 32.5606V166.205C167.715 186.504 151.223 202.991 130.917 202.991H26.5011C6.19518 202.991 -10.2969 186.504 -10.2969 166.205V26.4811C-10.2969 6.182 6.19518 -10.3047 26.5011 -10.3047H124.835Z" fill="#DEDFFE"/>
<path opacity="0.2906" d="M124.834 -10.1992C130.091 -10.1992 135.038 -8.13842 138.852 -4.42893L161.838 18.5492C165.549 22.2587 167.61 27.2048 167.61 32.5629V166.207C167.61 186.403 151.118 202.89 130.915 202.89H26.4995C6.29664 202.89 -10.1953 186.403 -10.1953 166.207V26.4835C-10.1953 6.28736 6.29664 -10.1992 26.4995 -10.1992H124.834Z" fill="#DDDEFE"/>
<path opacity="0.2991" d="M124.832 -10.0977C130.089 -10.0977 135.037 -8.03686 138.748 -4.32737L161.734 18.6509C165.444 22.3604 167.506 27.3064 167.506 32.5615V166.206C167.506 186.402 151.117 202.786 130.914 202.786H26.4981C6.29528 202.786 -10.0938 186.402 -10.0938 166.206V26.482C-10.0938 6.28591 6.29528 -10.0977 26.4981 -10.0977H124.832Z" fill="#DCDDFE"/>
<path opacity="0.3077" d="M124.829 -9.99609C130.086 -9.99609 134.931 -7.93527 138.641 -4.32882L161.627 18.6494C165.338 22.3589 167.296 27.2018 167.296 32.4569V166.101C167.296 186.195 151.01 202.475 130.911 202.475H26.4949C6.39513 202.475 -9.89062 186.195 -9.89062 166.101V26.3775C-9.89062 6.28448 6.39513 -9.99609 26.4949 -9.99609H124.829Z" fill="#DBDCFE"/>
<path opacity="0.3162" d="M124.828 -9.78906C129.982 -9.78906 134.929 -7.72824 138.537 -4.12179L161.523 18.8565C165.233 22.566 167.192 27.4089 167.192 32.561V166.206C167.192 186.196 150.906 202.476 130.909 202.476H26.4935C6.49684 202.476 -9.78906 186.196 -9.78906 166.206V26.4815C-9.78906 6.49154 6.49684 -9.78906 26.4935 -9.78906H124.828Z" fill="#DADBFE"/>
<path opacity="0.3248" d="M124.834 -9.68359C129.988 -9.68359 134.832 -7.72581 138.44 -4.01632L161.426 18.9618C165.034 22.5683 167.095 27.4113 167.095 32.5633V166.208C167.095 186.198 150.912 202.375 130.915 202.375H26.4997C6.50304 202.375 -9.67969 186.198 -9.67969 166.208V26.4839C-9.67969 6.49387 6.50304 -9.68359 26.4997 -9.68359H124.834Z" fill="#D9DAFE"/>
<path opacity="0.3333" d="M124.834 -9.58058C129.988 -9.58058 134.729 -7.62277 138.337 -4.01632L161.323 18.9618C164.93 22.5683 166.889 27.4112 166.889 32.4602V166.105C166.889 185.992 150.706 202.169 130.812 202.169H26.3968C6.50319 202.169 -9.67969 185.992 -9.67969 166.105V26.3809C-9.67969 6.49389 6.50319 -9.68359 26.3968 -9.68359H124.834V-9.58058Z" fill="#D8D9FE"/>
<path opacity="0.3419" d="M124.831 -9.48047C129.882 -9.48047 134.726 -7.52266 138.334 -3.91621L161.32 19.0619C164.927 22.6684 166.886 27.4084 166.886 32.5604V166.205C166.886 185.989 150.806 202.166 130.912 202.166H26.4967C6.70622 202.166 -9.47656 186.092 -9.47656 166.205V26.481C-9.47656 6.69704 6.60314 -9.48047 26.4967 -9.48047H124.831Z" fill="#D7D8FE"/>
<path opacity="0.3504" d="M124.834 -9.375C129.885 -9.375 134.626 -7.41719 138.234 -3.81075L161.22 19.1675C164.828 22.774 166.786 27.5139 166.786 32.5629V166.207C166.786 185.991 150.706 201.963 131.019 201.963H26.6031C6.81262 201.963 -9.16406 185.888 -9.16406 166.207V26.4834C-9.16406 6.69949 6.91569 -9.27198 26.6031 -9.27198H124.834V-9.375Z" fill="#D6D7FE"/>
<path opacity="0.359" d="M124.834 -9.27344C129.885 -9.27344 134.523 -7.3156 138.131 -3.8122L161.117 19.1661C164.621 22.6695 166.58 27.4093 166.58 32.4583V166.103C166.58 185.784 150.603 201.755 130.916 201.755H26.5C6.81252 201.755 -9.16406 185.784 -9.16406 166.103V26.379C-9.16406 6.69806 6.81252 -9.27344 26.5 -9.27344H124.834Z" fill="#D5D6FE"/>
<path opacity="0.3675" d="M124.833 -9.06641C129.781 -9.06641 134.522 -7.1087 138.027 -3.60529L161.012 19.373C164.517 22.8764 166.475 27.6163 166.475 32.5623V166.207C166.475 185.785 150.499 201.756 130.914 201.756H26.4986C6.91423 201.756 -9.0625 185.785 -9.0625 166.207V26.4828C-9.0625 6.90499 6.91423 -9.06641 26.4986 -9.06641H124.833Z" fill="#D4D5FE"/>
<path opacity="0.3761" d="M124.831 -8.96484C129.779 -8.96484 134.417 -7.00701 137.922 -3.5036L160.908 19.4745C164.412 22.9779 166.371 27.6149 166.371 32.5608V166.205C166.371 185.783 150.497 201.652 130.913 201.652H26.497C6.91261 201.652 -8.96094 185.783 -8.96094 166.205V26.4814C-8.96094 6.90354 6.91261 -8.96484 26.497 -8.96484H124.831Z" fill="#D3D4FE"/>
<path opacity="0.3846" d="M124.831 -8.86183C129.779 -8.86183 134.417 -6.90397 137.819 -3.5036L160.805 19.4745C164.309 22.9779 166.165 27.6148 166.165 32.4577V166.102C166.165 185.577 150.291 201.445 130.81 201.445H26.3941C6.91277 201.445 -8.96094 185.577 -8.96094 166.102V26.3784C-8.96094 6.90357 6.91277 -8.96484 26.3941 -8.96484H124.831V-8.86183Z" fill="#D2D3FE"/>
<path opacity="0.3932" d="M124.827 -8.75781C129.671 -8.75781 134.31 -6.79995 137.711 -3.39959L160.697 19.5785C164.099 22.9789 166.057 27.6158 166.057 32.4587V166.103C166.057 185.475 150.286 201.24 130.908 201.24H26.4924C7.11418 201.24 -8.65625 185.475 -8.65625 166.103V26.3794C-8.65625 7.0076 7.11418 -8.75781 26.4924 -8.75781H124.827Z" fill="#D1D2FE"/>
<path opacity="0.4017" d="M124.832 -8.65234C129.676 -8.65234 134.211 -6.79765 137.716 -3.29425L160.702 19.684C164.103 23.0844 166.062 27.7212 166.062 32.5642V166.209C166.062 185.58 150.291 201.243 131.016 201.243H26.6004C7.22219 201.243 -8.44531 185.477 -8.44531 166.209V26.4847C-8.44531 7.11295 7.32526 -8.54933 26.6004 -8.54933H124.832V-8.65234Z" fill="#D0D1FE"/>
<path opacity="0.4103" d="M124.832 -8.44922C129.676 -8.44922 134.211 -6.5945 137.613 -3.19414L160.599 19.7841C164 23.1845 165.856 27.7183 165.856 32.5613V166.206C165.856 185.474 150.188 201.137 130.913 201.137H26.4972C7.22209 201.137 -8.44531 185.474 -8.44531 166.206V26.4818C-8.44531 7.21308 7.22209 -8.44922 26.4972 -8.44922H124.832Z" fill="#CFD0FE"/>
<path opacity="0.4188" d="M124.83 -8.34375C129.571 -8.34375 134.107 -6.48903 137.508 -3.08867L160.494 19.8896C163.895 23.29 165.751 27.8238 165.751 32.5637V166.208C165.751 185.374 150.186 201.036 130.911 201.036H26.4956C7.32355 201.036 -8.34375 185.477 -8.34375 166.208V26.4843C-8.34375 7.31858 7.22047 -8.34375 26.4956 -8.34375H124.83Z" fill="#CECFFE"/>
<path opacity="0.4274" d="M124.836 -8.24219C129.578 -8.24219 134.113 -6.38734 137.412 -2.98698L160.398 19.9912C163.799 23.3915 165.654 27.8224 165.654 32.5623V166.207C165.654 185.372 150.09 200.932 130.918 200.932H26.5021C7.33 200.932 -8.23438 185.372 -8.23438 166.207V26.4828C-8.23438 7.31712 7.33 -8.24219 26.5021 -8.24219H124.836Z" fill="#CDCEFE"/>
<path opacity="0.4359" d="M124.836 -8.13905C129.578 -8.13905 134.01 -6.2843 137.308 -2.98698L160.294 19.9912C163.593 23.2885 165.448 27.8223 165.448 32.4591V166.104C165.448 185.166 149.987 200.726 130.815 200.726H26.3991C7.33015 200.726 -8.23438 185.269 -8.23438 166.104V26.3798C-8.23438 7.31715 7.22707 -8.24219 26.3991 -8.24219H124.836V-8.13905Z" fill="#CCCDFE"/>
<path opacity="0.4444" d="M124.832 -8.03516C129.47 -8.03516 133.902 -6.18041 137.201 -2.88309L160.187 20.095C163.485 23.3924 165.341 27.8231 165.341 32.46V166.105C165.341 185.064 149.879 200.52 130.913 200.52H26.4975C7.53156 200.52 -7.92969 185.064 -7.92969 166.105V26.3807C-7.92969 7.42106 7.53156 -8.03516 26.4975 -8.03516H124.832Z" fill="#CBCCFE"/>
<path opacity="0.453" d="M124.829 -7.82812C129.467 -7.82812 133.9 -5.97338 137.198 -2.67606L160.184 20.3022C163.482 23.5995 165.338 27.9273 165.338 32.6672V166.312C165.338 185.271 149.979 200.624 131.013 200.624H26.5977C7.63176 200.624 -7.72656 185.271 -7.72656 166.312V26.5877C-7.72656 7.6281 7.63176 -7.72511 26.5977 -7.72511H124.829V-7.82812Z" fill="#CACBFE"/>
<path opacity="0.4615" d="M124.829 -7.72656C129.467 -7.72656 133.796 -5.87179 137.095 -2.67751L160.081 20.3007C163.379 23.5981 165.131 27.9258 165.131 32.5627V166.207C165.131 185.064 149.773 200.417 130.91 200.417H26.4945C7.63166 200.417 -7.72656 185.064 -7.72656 166.207V26.4832C-7.72656 7.62667 7.63166 -7.72656 26.4945 -7.72656H124.829Z" fill="#C9CAFE"/>
<path opacity="0.4701" d="M124.835 -7.625C129.37 -7.625 133.7 -5.8734 136.998 -2.57608L159.984 20.4022C163.179 23.5965 165.035 27.9242 165.035 32.5611V166.206C165.035 184.959 149.779 200.312 130.916 200.312H26.5007C7.74094 200.312 -7.61719 185.062 -7.61719 166.206V26.4816C-7.61719 7.72813 7.63786 -7.625 26.5007 -7.625H124.835Z" fill="#C8C9FE"/>
<path opacity="0.4786" d="M124.835 -7.52198C129.37 -7.52198 133.699 -5.77036 136.895 -2.57608L159.881 20.4022C163.076 23.5965 164.828 27.9241 164.828 32.458V166.103C164.828 184.856 149.573 200.106 130.813 200.106H26.3978C7.63801 200.106 -7.61719 184.856 -7.61719 166.103V26.3786C-7.61719 7.62511 7.63801 -7.625 26.3978 -7.625H124.835V-7.52198Z" fill="#C7C8FE"/>
<path opacity="0.4872" d="M124.83 -7.41797C129.366 -7.41797 133.592 -5.66622 136.787 -2.47194L159.773 20.5062C162.968 23.7005 164.721 27.9251 164.721 32.459V166.104C164.721 184.754 149.568 199.901 130.912 199.901H26.4961C7.83942 199.901 -7.3125 184.754 -7.3125 166.104V26.3796C-7.3125 7.72915 7.83942 -7.41797 26.4961 -7.41797H124.83Z" fill="#C6C7FE"/>
<path opacity="0.4957" d="M124.829 -7.21094C129.261 -7.21094 133.591 -5.45919 136.683 -2.2649L159.669 20.7134C162.864 23.9076 164.616 28.1323 164.616 32.5631V166.208C164.616 184.858 149.464 199.902 130.91 199.902H26.4948C7.83806 199.902 -7.21094 184.755 -7.21094 166.208V26.4836C-7.21094 7.83317 7.94114 -7.21094 26.4948 -7.21094H124.829Z" fill="#C5C6FE"/>
<path opacity="0.5043" d="M124.829 -7.1078C129.261 -7.1078 133.487 -5.35614 136.58 -2.2649L159.566 20.7134C162.761 23.9076 164.41 28.0292 164.41 32.46V166.105C164.41 184.652 149.361 199.696 130.808 199.696H26.3918C7.83821 199.696 -7.21094 184.652 -7.21094 166.105V26.3806C-7.21094 7.83319 7.83821 -7.21094 26.3918 -7.21094H124.829V-7.1078Z" fill="#C5C6FE"/>
<path opacity="0.5128" d="M124.834 -7.00781C129.266 -7.00781 133.389 -5.25616 136.584 -2.16492L159.57 20.8133C162.663 23.9046 164.415 28.1293 164.415 32.5601V166.205C164.415 184.649 149.366 199.693 130.915 199.693H26.4996C8.04905 199.693 -7 184.649 -7 166.205V26.4806C-7 8.03622 8.04905 -7.00781 26.4996 -7.00781H124.834Z" fill="#C4C5FE"/>
<path opacity="0.5214" d="M124.832 -6.90234C129.265 -6.90234 133.388 -5.15069 136.48 -2.05945L159.466 20.9188C162.558 24.01 164.31 28.1317 164.31 32.5625V166.207C164.31 184.651 149.364 199.592 130.914 199.592H26.498C8.04743 199.592 -6.89844 184.651 -6.89844 166.207V26.4831C-6.89844 8.03867 8.04743 -6.90234 26.498 -6.90234H124.832Z" fill="#C3C4FE"/>
<path opacity="0.5299" d="M124.837 -6.80078C129.166 -6.80078 133.289 -5.0491 136.382 -2.06091L159.368 20.9174C162.46 24.0086 164.109 28.1302 164.109 32.4579V166.103C164.109 184.444 149.163 199.282 130.919 199.282H26.5028C8.15535 199.282 -6.6875 184.341 -6.6875 166.103V26.3786C-6.6875 8.03724 8.25842 -6.80078 26.5028 -6.80078H124.837Z" fill="#C2C3FE"/>
<path opacity="0.5385" d="M124.828 -6.59375C129.157 -6.59375 133.177 -4.94511 136.269 -1.85388L159.255 21.1243C162.347 24.2155 163.996 28.2342 163.996 32.5619V166.206C163.996 184.445 149.153 199.283 130.909 199.283H26.4934C8.24899 199.283 -6.59375 184.445 -6.59375 166.206V26.4825C-6.59375 8.24417 8.24899 -6.59375 26.4934 -6.59375H124.828Z" fill="#C1C2FE"/>
<path opacity="0.547" d="M124.834 -6.49219C129.163 -6.49219 133.183 -4.84355 136.173 -1.75231L159.158 21.2259C162.148 24.2141 163.9 28.3358 163.9 32.5605V166.205C163.9 184.443 149.16 199.178 130.916 199.178H26.4998C8.25545 199.178 -6.48438 184.443 -6.48438 166.205V26.481C-6.48438 8.24272 8.25545 -6.49219 26.4998 -6.49219H124.834Z" fill="#C0C1FE"/>
<path opacity="0.5556" d="M124.834 -6.38917C129.06 -6.38917 133.08 -4.74051 136.069 -1.75231L159.055 21.2259C162.044 24.2141 163.694 28.2326 163.694 32.4573V166.102C163.694 184.237 148.954 198.972 130.813 198.972H26.3969C8.2556 198.972 -6.48438 184.237 -6.48438 166.102V26.378C-6.48438 8.24274 8.2556 -6.49219 26.3969 -6.49219H124.834V-6.38917Z" fill="#BFC0FE"/>
<path opacity="0.5641" d="M124.831 -6.28516C129.057 -6.28516 133.077 -4.6365 136.066 -1.6483L159.052 21.33C162.041 24.3182 163.69 28.3368 163.69 32.5615V166.206C163.69 184.238 149.054 198.973 130.912 198.973H26.4966C8.45837 198.973 -6.28125 184.341 -6.28125 166.206V26.482C-6.28125 8.4498 8.35529 -6.28516 26.4966 -6.28516H124.831Z" fill="#BEBFFE"/>
<path opacity="0.5727" d="M124.834 -6.17969C129.061 -6.17969 132.977 -4.53103 135.967 -1.54283L158.952 21.4354C161.941 24.4236 163.591 28.3392 163.591 32.5639V166.208C163.591 184.241 148.954 198.769 131.019 198.769H26.6033C8.56502 198.769 -5.96875 184.138 -5.96875 166.208V26.4845C-5.96875 8.45225 8.66809 -6.07655 26.6033 -6.07655H124.834V-6.17969Z" fill="#BDBEFE"/>
<path opacity="0.5812" d="M124.834 -5.97656C128.957 -5.97656 132.874 -4.32788 135.863 -1.44272L158.849 21.5354C161.736 24.4206 163.385 28.4393 163.385 32.5609V166.205C163.385 184.135 148.851 198.663 130.916 198.663H26.5001C8.56492 198.663 -5.96875 184.135 -5.96875 166.205V26.4814C-5.96875 8.55226 8.56492 -5.97656 26.5001 -5.97656H124.834Z" fill="#BCBDFE"/>
<path opacity="0.5897" d="M124.825 -5.87109C128.948 -5.87109 132.865 -4.22241 135.751 -1.33725L158.737 21.6409C161.623 24.526 163.272 28.4417 163.272 32.5634V166.208C163.272 184.034 148.738 198.563 130.906 198.563H26.4907C8.65857 198.563 -5.875 184.034 -5.875 166.208V26.4839C-5.875 8.65775 8.65857 -5.87109 26.4907 -5.87109H124.825Z" fill="#BBBCFE"/>
<path opacity="0.5983" d="M124.831 -5.76953C128.954 -5.76953 132.768 -4.12085 135.654 -1.23569L158.64 21.7426C161.526 24.6277 163.175 28.5433 163.175 32.5619V166.206C163.175 184.033 148.745 198.458 130.913 198.458H26.4969C8.66477 198.458 -5.76562 184.033 -5.76562 166.206V26.4824C-5.76562 8.6563 8.66477 -5.76953 26.4969 -5.76953H124.831Z" fill="#BABBFE"/>
<path opacity="0.6068" d="M124.831 -5.66652C128.851 -5.66652 132.768 -4.12085 135.551 -1.23569L158.537 21.7426C161.423 24.6277 162.969 28.4402 162.969 32.4588V166.103C162.969 183.827 148.539 198.252 130.81 198.252H26.3939C8.66492 198.252 -5.76562 183.827 -5.76562 166.103V26.3794C-5.76562 8.65633 8.66492 -5.76953 26.3939 -5.76953H124.831V-5.66652Z" fill="#B9BAFE"/>
<path opacity="0.6154" d="M124.833 -5.5625C128.853 -5.5625 132.667 -4.01696 135.553 -1.1318L158.539 21.8465C161.425 24.7316 162.971 28.5442 162.971 32.5628V166.207C162.971 183.827 148.644 198.15 131.018 198.15H26.6019C8.97596 198.15 -5.35156 183.827 -5.35156 166.207V26.4833C-5.35156 8.86326 8.97596 -5.45948 26.6019 -5.45948H124.833V-5.5625Z" fill="#B8B9FE"/>
<path opacity="0.6239" d="M124.831 -5.46094C128.851 -5.46094 132.562 -3.91539 135.448 -1.03024L158.434 21.948C161.217 24.7301 162.866 28.5427 162.866 32.5613V166.206C162.866 183.826 148.539 198.046 131.016 198.046H26.6003C8.97434 198.046 -5.25 183.723 -5.25 166.206V26.4819C-5.25 8.8618 9.07742 -5.35792 26.6003 -5.35792H124.831V-5.46094Z" fill="#B7B8FE"/>
<path opacity="0.6325" d="M124.831 -5.25391C128.748 -5.25391 132.562 -3.70821 135.345 -0.926096L158.331 22.052C161.114 24.8342 162.66 28.5437 162.66 32.5623V166.207C162.66 183.724 148.436 197.944 130.913 197.944H26.4971C8.97424 197.944 -5.25 183.724 -5.25 166.207V26.4829C-5.25 8.96584 8.97424 -5.25391 26.4971 -5.25391H124.831Z" fill="#B6B7FE"/>
<path opacity="0.641" d="M124.83 -5.15234C128.747 -5.15234 132.458 -3.60665 135.241 -0.824533L158.226 22.1536C161.01 24.9357 162.556 28.6453 162.556 32.5609V166.205C162.556 183.619 148.331 197.839 130.911 197.839H26.4957C9.07595 197.839 -5.14844 183.619 -5.14844 166.205V26.4814C-5.14844 9.06743 9.07595 -5.15234 26.4957 -5.15234H124.83Z" fill="#B5B6FE"/>
<path opacity="0.6496" d="M124.83 -5.0492C128.747 -5.0492 132.355 -3.50361 135.138 -0.824533L158.124 22.1536C160.907 24.9357 162.35 28.5422 162.35 32.4577V166.102C162.35 183.516 148.228 197.633 130.809 197.633H26.3928C8.97303 197.633 -5.14844 183.516 -5.14844 166.102V26.3784C-5.14844 8.96442 8.97303 -5.15234 26.3928 -5.15234H124.83V-5.0492Z" fill="#B4B5FE"/>
<path opacity="0.6581" d="M124.826 -4.94531C128.639 -4.94531 132.35 -3.39972 135.03 -0.720645L158.016 22.2576C160.696 24.9367 162.242 28.6461 162.242 32.4586V166.103C162.242 183.414 148.224 197.428 130.907 197.428H26.4912C9.17444 197.428 -4.84375 183.414 -4.84375 166.103V26.3793C-4.84375 9.06833 9.17444 -4.94531 26.4912 -4.94531H124.826Z" fill="#B3B4FE"/>
<path opacity="0.6667" d="M124.832 -4.83984C128.645 -4.83984 132.253 -3.29425 134.933 -0.615175L157.919 22.3631C160.599 25.0422 162.145 28.6485 162.145 32.4611V166.106C162.145 183.314 148.127 197.327 130.913 197.327H26.4974C9.28371 197.327 -4.73438 183.314 -4.73438 166.106V26.3817C-4.73438 9.17382 9.28371 -4.83984 26.4974 -4.83984H124.832Z" fill="#B2B3FE"/>
<path opacity="0.6752" d="M124.83 -4.63672C128.644 -4.63672 132.252 -3.19414 134.932 -0.515067L157.917 22.4632C160.597 25.1423 162.04 28.7488 162.04 32.5613V166.206C162.04 183.414 148.125 197.324 130.912 197.324H26.496C9.28235 197.324 -4.63281 183.414 -4.63281 166.206V26.4818C-4.63281 9.27393 9.28235 -4.63672 26.496 -4.63672H124.83Z" fill="#B1B2FE"/>
<path opacity="0.6838" d="M124.829 -4.53125C128.539 -4.53125 132.147 -3.08867 134.827 -0.409598L157.813 22.5685C160.493 25.2476 161.936 28.7511 161.936 32.5636V166.208C161.936 183.313 148.021 197.224 130.91 197.224H26.4944C9.38381 197.224 -4.53125 183.313 -4.53125 166.208V26.4842C-4.53125 9.3793 9.38381 -4.53125 26.4944 -4.53125H124.829Z" fill="#B0B1FE"/>
<path opacity="0.6923" d="M124.835 -4.42969C128.546 -4.42969 132.05 -2.98711 134.73 -0.308035L157.716 22.6701C160.396 25.3492 161.839 28.8527 161.839 32.5622V166.207C161.839 183.209 148.027 197.119 130.917 197.119H26.5008C9.49334 197.119 -4.42188 183.312 -4.42188 166.207V26.4827C-4.42188 9.48089 9.39026 -4.42969 26.5008 -4.42969H124.835Z" fill="#AFB0FE"/>
<path opacity="0.7009" d="M124.835 -4.32667C128.546 -4.32667 132.05 -2.88407 134.627 -0.308036L157.613 22.6701C160.19 25.2461 161.633 28.7495 161.633 32.459V166.104C161.633 183.105 147.821 196.913 130.814 196.913H26.3979C9.39042 196.913 -4.42188 183.105 -4.42188 166.104V26.3797C-4.42188 9.37787 9.39042 -4.42969 26.3979 -4.42969H124.835V-4.32667Z" fill="#AEAFFE"/>
<path opacity="0.7094" d="M124.838 -4.22266C128.446 -4.22266 131.951 -2.78005 134.527 -0.204021L157.513 22.7742C160.09 25.3503 161.533 28.8536 161.533 32.46V166.105C161.533 183.003 147.824 196.708 130.92 196.708H26.504C9.59964 196.708 -4.10938 183.003 -4.10938 166.105V26.3807C-4.10938 9.48191 9.59964 -4.22266 26.504 -4.22266H124.838Z" fill="#ADAEFE"/>
<path opacity="0.7179" d="M124.829 -4.01953C128.437 -4.01953 131.941 -2.57705 134.415 -0.00102139L157.401 22.9772C159.978 25.5533 161.421 28.9537 161.421 32.5601V166.205C161.421 183 147.712 196.705 130.91 196.705H26.4946C9.69329 196.705 -4.01562 183 -4.01562 166.205V26.4807C-4.01562 9.68494 9.69329 -4.01953 26.4946 -4.01953H124.829Z" fill="#ACADFE"/>
<path opacity="0.7265" d="M124.835 -3.91406C128.443 -3.91406 131.845 -2.47156 134.421 0.00143147L157.407 22.9797C159.984 25.5557 161.324 28.9561 161.324 32.5626V166.207C161.324 183.003 147.718 196.604 130.917 196.604H26.5011C9.69974 196.604 -3.90625 183.003 -3.90625 166.207V26.4831C-3.90625 9.68739 9.69974 -3.91406 26.5011 -3.91406H124.835Z" fill="#ABACFE"/>
<path opacity="0.735" d="M124.834 -3.8125C128.441 -3.8125 131.74 -2.36987 134.317 0.103119L157.303 23.0813C159.776 25.5542 161.22 28.9547 161.22 32.5611V166.206C161.22 182.898 147.613 196.5 130.915 196.5H26.4995C9.8012 196.5 -3.80469 182.898 -3.80469 166.206V26.4817C-3.80469 9.78897 9.8012 -3.8125 26.4995 -3.8125H124.834Z" fill="#AAABFE"/>
<path opacity="0.7436" d="M124.832 -3.70703C128.337 -3.70703 131.738 -2.36744 134.212 0.208588L157.198 23.1867C159.672 25.6597 161.115 29.0602 161.115 32.5636V166.208C161.115 182.798 147.612 196.399 130.914 196.399H26.4978C9.90266 196.399 -3.70312 182.901 -3.70312 166.208V26.4841C-3.70312 9.89447 9.79958 -3.70703 26.4978 -3.70703H124.832Z" fill="#A9AAFE"/>
<path opacity="0.7521" d="M124.829 -3.60547C128.334 -3.60547 131.632 -2.26586 134.106 0.207134L157.092 23.1853C159.566 25.6583 160.906 28.9556 160.906 32.459V166.104C160.906 182.693 147.403 196.089 130.911 196.089H26.4949C9.89968 196.089 -3.5 182.59 -3.5 166.104V26.3796C-3.5 9.79 10.0028 -3.60547 26.4949 -3.60547H124.829Z" fill="#A8A9FD"/>
<path opacity="0.7607" d="M124.836 -3.39844C128.34 -3.39844 131.535 -2.05895 134.009 0.41404L156.995 23.3923C159.469 25.8653 160.809 29.1626 160.809 32.563V166.208C160.809 182.694 147.409 196.089 130.917 196.089H26.5013C10.0092 196.089 -3.39062 182.694 -3.39062 166.208V26.4835C-3.39062 9.99693 10.0092 -3.39844 26.5013 -3.39844H124.836Z" fill="#A7A8FD"/>
<path opacity="0.7692" d="M124.826 -3.29688C128.228 -3.29688 131.526 -1.95739 133.897 0.515602L156.883 23.4939C159.356 25.9669 160.697 29.1612 160.697 32.5615V166.206C160.697 182.693 147.4 195.985 130.908 195.985H26.4919C9.99978 195.985 -3.29688 182.693 -3.29688 166.206V26.4821C-3.29688 9.99548 9.99978 -3.29688 26.4919 -3.29688H124.826Z" fill="#A6A7FD"/>
<path opacity="0.7778" d="M124.826 -3.19386C128.228 -3.19386 131.423 -1.85435 133.794 0.515602L156.78 23.4939C159.15 25.8638 160.49 29.1611 160.49 32.4584V166.103C160.49 182.487 147.194 195.779 130.805 195.779H26.389C9.99994 195.779 -3.29688 182.487 -3.29688 166.103V26.3791C-3.29688 9.9955 9.99994 -3.29688 26.389 -3.29688H124.826V-3.19386Z" fill="#A5A6FD"/>
<path opacity="0.7863" d="M124.831 -3.08984C128.233 -3.08984 131.428 -1.75021 133.799 0.619744L156.785 23.5979C159.155 25.9678 160.495 29.1622 160.495 32.5625V166.207C160.495 182.488 147.301 195.78 130.912 195.78H26.4967C10.2108 195.78 -3.08594 182.591 -3.08594 166.207V26.4831C-3.08594 10.2026 10.1077 -3.08984 26.4967 -3.08984H124.831Z" fill="#A4A5FD"/>
<path opacity="0.7949" d="M124.834 -2.98828C128.133 -2.98828 131.328 -1.64877 133.699 0.72118L156.685 23.6993C159.055 26.0693 160.395 29.2636 160.395 32.561V166.205C160.395 182.486 147.202 195.572 131.019 195.572H26.6031C10.3172 195.572 -2.77344 182.383 -2.77344 166.205V26.4815C-2.77344 10.201 10.4202 -2.88527 26.6031 -2.88527H124.834V-2.98828Z" fill="#A3A4FD"/>
<path opacity="0.8034" d="M124.834 -2.78125C128.133 -2.78125 131.225 -1.44171 133.596 0.825195L156.582 23.8034C158.952 26.1734 160.189 29.2646 160.189 32.562V166.206C160.189 182.384 147.099 195.47 130.916 195.47H26.5C10.3171 195.47 -2.77344 182.384 -2.77344 166.206V26.4825C-2.77344 10.305 10.3171 -2.78125 26.5 -2.78125H124.834Z" fill="#A2A3FD"/>
<path opacity="0.812" d="M124.833 -2.67969C128.131 -2.67969 131.223 -1.44319 133.491 0.926758L156.477 23.905C158.745 26.1719 160.084 29.2632 160.084 32.5605V166.205C160.084 182.279 146.994 195.366 130.914 195.366H26.4983C10.4185 195.366 -2.67188 182.279 -2.67188 166.205V26.481C-2.67188 10.4066 10.4185 -2.67969 26.4983 -2.67969H124.833Z" fill="#A1A2FD"/>
<path opacity="0.8205" d="M124.833 -2.57667C128.028 -2.57667 131.12 -1.34015 133.388 0.926757L156.374 23.905C158.641 26.1719 159.878 29.2631 159.878 32.4574V166.102C159.878 182.176 146.891 195.16 130.811 195.16H26.3954C10.3156 195.16 -2.67188 182.176 -2.67188 166.102V26.378C-2.67188 10.3036 10.3156 -2.67969 26.3954 -2.67969H124.833V-2.57667Z" fill="#A0A1FD"/>
<path opacity="0.8291" d="M124.831 -2.47108C128.027 -2.47108 131.119 -1.23468 133.283 1.03223L156.269 24.0105C158.537 26.2774 159.774 29.2655 159.774 32.4598V166.104C159.774 182.076 146.786 195.059 130.81 195.059H26.3941C10.4173 195.059 -2.57031 182.076 -2.57031 166.104V26.3805C-2.57031 10.4091 10.4173 -2.57422 26.3941 -2.57422H124.831V-2.47108Z" fill="#9FA0FD"/>
<path opacity="0.8376" d="M124.833 -2.37109C128.028 -2.37109 131.017 -1.13457 133.285 1.13234L156.271 24.1105C158.539 26.3774 159.775 29.3657 159.775 32.5599V166.204C159.775 182.073 146.891 194.953 131.017 194.953H26.6018C10.7281 194.953 -2.15625 182.073 -2.15625 166.204V26.4805C-2.15625 10.6121 10.7281 -2.26808 26.6018 -2.26808H124.833V-2.37109Z" fill="#9EA0FD"/>
<path opacity="0.8462" d="M124.833 -2.16406C127.925 -2.16406 130.914 -0.927516 133.182 1.23635L156.168 24.2145C158.332 26.3784 159.569 29.3667 159.569 32.5609V166.205C159.569 182.074 146.685 194.851 130.914 194.851H26.4986C10.6249 194.851 -2.15625 181.971 -2.15625 166.205V26.4815C-2.15625 10.6131 10.728 -2.16406 26.4986 -2.16406H124.833Z" fill="#9D9FFD"/>
<path opacity="0.8547" d="M124.839 -2.05859C127.932 -2.05859 130.921 -0.822048 133.085 1.34182L156.071 24.3201C158.236 26.4839 159.473 29.4721 159.473 32.5634V166.208C159.473 181.973 146.691 194.75 130.921 194.75H26.505C10.7345 194.75 -2.04688 181.973 -2.04688 166.208V26.4839C-2.04688 10.7186 10.7345 -2.05859 26.505 -2.05859H124.839Z" fill="#9C9EFD"/>
<path opacity="0.8632" d="M124.83 -1.95703C127.922 -1.95703 130.808 -0.720611 132.973 1.44326L155.959 24.4215C158.123 26.5854 159.36 29.4706 159.36 32.5618V166.206C159.36 181.869 146.579 194.646 130.911 194.646H26.4956C10.8281 194.646 -1.95312 181.869 -1.95312 166.206V26.4823C-1.95312 10.8201 10.8281 -1.95703 26.4956 -1.95703H124.83Z" fill="#9B9DFD"/>
<path opacity="0.8718" d="M124.83 -1.85402C127.819 -1.85402 130.705 -0.61757 132.87 1.44326L155.856 24.4215C158.02 26.5854 159.154 29.4705 159.154 32.4587V166.103C159.154 181.766 146.476 194.44 130.808 194.44H26.3927C10.7252 194.44 -1.95312 181.766 -1.95312 166.103V26.3793C-1.95312 10.717 10.7252 -1.95703 26.3927 -1.95703H124.83V-1.85402Z" fill="#9A9CFD"/>
<path opacity="0.8803" d="M124.833 -1.75C127.822 -1.75 130.708 -0.616596 132.77 1.54727L155.756 24.5255C157.92 26.6894 159.054 29.4715 159.054 32.4597V166.104C159.054 181.664 146.479 194.234 130.915 194.234H26.4988C10.9344 194.234 -1.64062 181.664 -1.64062 166.104V26.3803C-1.64062 10.8211 10.9344 -1.75 26.4988 -1.75H124.833Z" fill="#999BFD"/>
<path opacity="0.8889" d="M124.83 -1.64844C127.819 -1.64844 130.602 -0.514908 132.767 1.64896L155.753 24.6271C157.814 26.6879 159.051 29.5732 159.051 32.5614V166.206C159.051 181.662 146.476 194.233 131.015 194.233H26.599C11.1377 194.233 -1.4375 181.662 -1.4375 166.206V26.4819C-1.4375 11.0257 11.1377 -1.54542 26.599 -1.54542H124.83V-1.64844Z" fill="#989AFD"/>
<path opacity="0.8974" d="M124.83 -1.44141C127.716 -1.44141 130.602 -0.307977 132.664 1.75285L155.65 24.731C157.711 26.7918 158.845 29.574 158.845 32.5622V166.207C158.845 181.663 146.373 194.131 130.912 194.131H26.4959C11.0345 194.131 -1.4375 181.663 -1.4375 166.207V26.4828C-1.4375 11.0266 11.0345 -1.44141 26.4959 -1.44141H124.83Z" fill="#9799FD"/>
<path opacity="0.906" d="M124.837 -1.33984C127.723 -1.33984 130.506 -0.206415 132.567 1.85441L155.553 24.8327C157.615 26.8935 158.748 29.6756 158.748 32.5608V166.205C158.748 181.558 146.276 194.026 130.918 194.026H26.5023C11.144 194.026 -1.32812 181.558 -1.32812 166.205V26.4813C-1.32812 11.1282 11.144 -1.33984 26.5023 -1.33984H124.837Z" fill="#9698FD"/>
<path opacity="0.9145" d="M124.827 -1.23438C127.713 -1.23438 130.393 -0.100946 132.455 1.95988L155.441 24.9381C157.502 26.999 158.636 29.6781 158.636 32.5632V166.208C158.636 181.458 146.267 193.926 130.909 193.926H26.4929C11.2377 193.926 -1.23438 181.561 -1.23438 166.208V26.4838C-1.23438 11.2336 11.1346 -1.23438 26.4929 -1.23438H124.827Z" fill="#9597FD"/>
<path opacity="0.9231" d="M124.827 -1.13136C127.61 -1.13136 130.393 0.00209534 132.352 1.95988L155.337 24.9381C157.296 26.8959 158.43 29.678 158.43 32.4601V166.105C158.43 181.355 146.061 193.72 130.806 193.72H26.39C11.1348 193.72 -1.23438 181.355 -1.23438 166.105V26.3807C-1.23438 11.1306 11.1348 -1.23438 26.39 -1.23438H124.827V-1.13136Z" fill="#9496FD"/>
<path opacity="0.9316" d="M124.83 -1.03125C127.613 -1.03125 130.293 0.102204 132.252 2.05999L155.238 25.0382C157.196 26.996 158.33 29.6751 158.33 32.4572V166.102C158.33 181.249 146.064 193.511 130.912 193.511H26.4961C11.344 193.511 -0.921875 181.249 -0.921875 166.102V26.3778C-0.921875 11.2308 11.344 -1.03125 26.4961 -1.03125H124.83Z" fill="#9395FD"/>
<path opacity="0.9402" d="M124.829 -0.824219C127.612 -0.824219 130.189 0.309236 132.147 2.26702L155.133 25.2452C157.092 27.2029 158.225 29.8821 158.225 32.5612V166.206C158.225 181.25 145.959 193.512 130.91 193.512H26.4947C11.4457 193.512 -0.820312 181.25 -0.820312 166.206V26.4817C-0.820312 11.4377 11.4457 -0.824219 26.4947 -0.824219H124.829Z" fill="#9294FD"/>
<path opacity="0.9487" d="M124.835 -0.71875C127.618 -0.71875 130.195 0.414729 132.153 2.26947L155.139 25.2476C157.098 27.2054 158.129 29.7815 158.129 32.5636V166.208C158.129 181.252 145.966 193.411 130.917 193.411H26.5009C11.4519 193.411 -0.710938 181.252 -0.710938 166.208V26.4842C-0.710938 11.4401 11.4519 -0.71875 26.5009 -0.71875H124.835Z" fill="#9193FD"/>
<path opacity="0.9573" d="M124.826 -0.617188C127.506 -0.617188 130.083 0.413251 132.041 2.37104L155.027 25.3493C156.985 27.3071 158.016 29.8831 158.016 32.5622V166.207C158.016 181.148 145.853 193.307 130.907 193.307H26.4915C11.5455 193.307 -0.617188 181.148 -0.617188 166.207V26.4827C-0.617188 11.5417 11.5455 -0.617188 26.4915 -0.617188H124.826Z" fill="#9092FD"/>
<path opacity="0.9658" d="M124.832 -0.515625C127.512 -0.515625 130.089 0.514813 131.944 2.4726L154.93 25.4509C156.786 27.3056 157.919 29.8817 157.919 32.5607V166.205C157.919 181.043 145.86 193.202 130.914 193.202H26.498C11.6551 193.202 -0.507812 181.146 -0.507812 166.205V26.4813C-0.507812 11.6433 11.552 -0.515625 26.498 -0.515625H124.832Z" fill="#8F91FD"/>
<path opacity="0.9744" d="M124.829 -0.410156C127.509 -0.410156 129.983 0.620181 131.839 2.47492L154.824 25.4532C156.68 27.3079 157.71 29.8839 157.71 32.4599V166.105C157.71 180.942 145.651 192.895 130.911 192.895H26.495C11.6521 192.895 -0.304688 180.839 -0.304688 166.105V26.3806C-0.304688 11.5426 11.7552 -0.410156 26.495 -0.410156H124.829Z" fill="#8E90FD"/>
<path opacity="0.9829" d="M124.828 -0.203125C127.405 -0.203125 129.878 0.827338 131.734 2.68208L154.72 25.6602C156.575 27.515 157.606 29.988 157.606 32.5641V166.209C157.606 180.943 145.649 192.896 130.909 192.896H26.4934C11.7536 192.896 -0.203125 180.943 -0.203125 166.209V26.4846C-0.203125 11.7497 11.7536 -0.203125 26.4934 -0.203125H124.828Z" fill="#8D8FFD"/>
<path opacity="0.9915" d="M124.834 -0.101562C127.411 -0.101562 129.884 0.928901 131.637 2.78364L154.623 25.7618C156.478 27.6165 157.509 29.9866 157.509 32.5626V166.207C157.509 180.839 145.655 192.792 130.915 192.792H26.4996C11.8628 192.792 -0.09375 180.942 -0.09375 166.207V26.4831C-0.09375 11.8513 11.7597 -0.101562 26.4996 -0.101562H124.834Z" fill="#8C8EFD"/>
<path d="M124.833 0H26.4982C11.8615 0 0.0078125 11.8498 0.0078125 26.4817V166.206C0.0078125 180.838 11.8615 192.687 26.4982 192.687H130.914C145.551 192.687 157.404 180.838 157.404 166.206V32.5611C157.404 29.9851 156.374 27.6151 154.621 25.7603L131.635 2.78219C129.78 1.03049 127.306 0 124.833 0Z" fill="#8B8DFD"/>
</g>
<g opacity="0.8">
<path opacity="0.8" d="M190.49 66.6695V200.108C190.49 214.74 178.637 226.59 164 226.59H59.5841C44.9474 226.59 33.0938 214.74 33.0938 200.108V60.384C33.0938 45.7522 44.9474 33.9023 59.5841 33.9023H157.712C170.597 46.7825 177.709 53.8924 190.49 66.6695Z" fill="url(#paint0_linear_1_58776)"/>
</g>
<path d="M132.961 75.2218H63.4885C59.1593 75.2218 55.7578 71.7184 55.7578 67.4937C55.7578 63.166 59.2624 59.7656 63.4885 59.7656H132.961C137.291 59.7656 140.692 63.269 140.692 67.4937C140.795 71.7184 137.291 75.2218 132.961 75.2218Z" fill="white"/>
<path d="M160.07 104.073H63.4885C59.1593 104.073 55.7578 100.57 55.7578 96.3453C55.7578 92.0176 59.2624 88.6172 63.4885 88.6172H160.07C164.4 88.6172 167.801 92.1206 167.801 96.3453C167.904 100.673 164.4 104.073 160.07 104.073Z" fill="white"/>
<path d="M160.07 133.027H63.4885C59.1593 133.027 55.7578 129.523 55.7578 125.298C55.7578 120.971 59.2624 117.57 63.4885 117.57H160.07C164.4 117.57 167.801 121.074 167.801 125.298C167.904 129.523 164.4 133.027 160.07 133.027Z" fill="white"/>
<path d="M160.07 162.085H63.4885C59.1593 162.085 55.7578 158.582 55.7578 154.357C55.7578 150.029 59.2624 146.629 63.4885 146.629H160.07C164.4 146.629 167.801 150.132 167.801 154.357C167.904 158.582 164.4 162.085 160.07 162.085Z" fill="white"/>
<path d="M160.07 191.042H63.4885C59.1593 191.042 55.7578 187.539 55.7578 183.314C55.7578 178.986 59.2624 175.586 63.4885 175.586H160.07C164.4 175.586 167.801 179.089 167.801 183.314C167.904 187.539 164.4 191.042 160.07 191.042Z" fill="white"/>
<path d="M157.812 33.9023L190.487 66.6695H157.812V33.9023Z" fill="#8B8DFD"/>
<path d="M164.1 227H59.6841C44.8412 227 32.7812 214.944 32.7812 200.106V60.3822C32.7812 45.5442 44.8412 33.4883 59.6841 33.4883H158.018L158.121 33.5914L191.002 66.4615V200.106C190.899 214.944 178.839 227 164.1 227ZM59.6841 34.4157C45.3566 34.4157 33.6059 46.0594 33.6059 60.4852V200.209C33.6059 214.532 45.2535 226.279 59.6841 226.279H164.1C178.427 226.279 190.178 214.635 190.178 200.209V66.8737L157.709 34.4157H59.6841Z" fill="url(#paint1_linear_1_58776)"/>
<defs>
<linearGradient id="paint0_linear_1_58776" x1="111.854" y1="226.635" x2="111.854" y2="33.9532" gradientUnits="userSpaceOnUse">
<stop stop-color="#F2F8FF"/>
<stop offset="1" stop-color="#D9F0FF"/>
</linearGradient>
<linearGradient id="paint1_linear_1_58776" x1="111.851" y1="227.048" x2="111.851" y2="33.5364" gradientUnits="userSpaceOnUse">
<stop stop-color="#E6F1FF"/>
<stop offset="1" stop-color="#F7FBFF"/>
</linearGradient>
</defs>
</svg>
