<svg width="81" height="96" viewBox="0 0 81 96" fill="none" xmlns="http://www.w3.org/2000/svg">
<path d="M52.7584 0H11.1964C5.01006 0 0 5.01139 0 11.1993V70.2898C0 76.4777 5.01006 81.4891 11.1964 81.4891H55.3288C61.5151 81.4891 66.5252 76.4777 66.5252 70.2898V13.7704C66.5252 12.681 66.0896 11.6786 65.3489 10.8943L55.6337 1.17661C54.8495 0.435802 53.804 0 52.7584 0Z" fill="#8B8DFD"/>
<mask id="mask0_1_74799" style="mask-type:luminance" maskUnits="userSpaceOnUse" x="13" y="14" width="68" height="82">
<path d="M80.5096 28.1935V84.6257C80.5096 90.8137 75.4995 95.825 69.3131 95.825H25.1808C18.9944 95.825 13.9844 90.8137 13.9844 84.6257V25.5353C13.9844 19.3473 18.9944 14.3359 25.1808 14.3359H66.6556C72.1013 19.7831 75.1074 22.7899 80.5096 28.1935Z" fill="white"/>
</mask>
<g mask="url(#mask0_1_74799)">
<path opacity="0.01" d="M52.7627 -6.01562C55.4638 -6.01562 57.9907 -4.96981 59.864 -3.05242L69.5791 6.66528C71.496 8.58267 72.5416 11.1102 72.5416 13.7684V70.2878C72.5416 79.7875 64.8305 87.5007 55.3331 87.5007H11.2007C1.70336 87.5007 -6.00781 79.7875 -6.00781 70.2878V11.1973C-6.00781 1.69751 1.70336 -6.01562 11.2007 -6.01562H52.7627Z" fill="#FEFEFF"/>
<path opacity="0.017094" d="M52.7582 -5.97266C55.4157 -5.97266 57.9426 -4.92683 59.8595 -3.05302L69.5746 6.66468C71.4479 8.5385 72.4936 11.066 72.4936 13.7678V70.2872C72.4936 79.7434 64.7823 87.4565 55.3285 87.4565H11.1962C1.74238 87.4565 -5.96875 79.7434 -5.96875 70.2872V11.1967C-5.96875 1.74049 1.74238 -5.97266 11.1962 -5.97266H52.7582Z" fill="#FDFDFF"/>
<path opacity="0.025641" d="M52.7615 -5.92969C55.419 -5.92969 57.9458 -4.88381 59.8191 -3.00999L69.5344 6.70765C71.4077 8.58147 72.4533 11.109 72.4533 13.7672V70.2866C72.4533 79.7428 64.7856 87.4124 55.3318 87.4124H11.1995C1.74565 87.4124 -5.92188 79.7428 -5.92188 70.2866V11.1961C-5.92188 1.73989 1.74565 -5.92969 11.1995 -5.92969H52.7615Z" fill="#FCFCFF"/>
<path opacity="0.034188" d="M52.757 -5.88672C55.4145 -5.88672 57.8977 -4.84084 59.7711 -2.96703L69.4863 6.75062C71.3596 8.62443 72.4052 11.1084 72.4052 13.7666V70.286C72.4052 79.6986 64.7376 87.3681 55.3274 87.3681H11.195C1.78478 87.3681 -5.88281 79.6986 -5.88281 70.286V11.1955C-5.88281 1.78287 1.78478 -5.88672 11.195 -5.88672H52.757Z" fill="#FBFBFF"/>
<path opacity="0.042735" d="M52.7558 -5.83984C55.3698 -5.83984 57.8531 -4.79401 59.7264 -2.96377L69.4416 6.75388C71.315 8.62769 72.3169 11.1116 72.3169 13.7262V70.2457C72.3169 79.6147 64.6929 87.2407 55.3262 87.2407H11.1939C1.82717 87.2407 -5.79688 79.6147 -5.79688 70.2457V11.1552C-5.79688 1.78614 1.82717 -5.83984 11.1939 -5.83984H52.7558Z" fill="#FAFAFF"/>
<path opacity="0.051282" d="M52.7591 -5.75391C55.3731 -5.75391 57.8563 -4.75165 59.6861 -2.87783L69.4013 6.83987C71.2746 8.71368 72.2767 11.154 72.2767 13.7686V70.288C72.2767 79.6571 64.6526 87.2395 55.3295 87.2395H11.1971C1.83043 87.2395 -5.75 79.6135 -5.75 70.288V11.1976C-5.75 1.82851 1.874 -5.75391 11.1971 -5.75391H52.7591Z" fill="#F9F9FF"/>
<path opacity="0.059829" d="M52.7624 -5.71094C55.3763 -5.71094 57.8161 -4.70868 59.6458 -2.83486L69.3609 6.88284C71.1907 8.71307 72.2363 11.197 72.2363 13.768V70.2874C72.2363 79.6129 64.6558 87.1953 55.3327 87.1953H11.2004C1.87727 87.1953 -5.70312 79.6129 -5.70312 70.2874V11.197C-5.70312 1.87149 1.87727 -5.71094 11.2004 -5.71094H52.7624Z" fill="#F8F8FF"/>
<path opacity="0.068376" d="M52.7579 -5.66797C55.3283 -5.66797 57.768 -4.6657 59.6414 -2.83546L69.3565 6.88224C71.1863 8.71247 72.1883 11.1528 72.1883 13.7674V70.2868C72.1883 79.5687 64.6078 87.1511 55.3283 87.1511H11.1959C1.91639 87.1511 -5.66406 79.5687 -5.66406 70.2868V11.1964C-5.66406 1.91447 1.91639 -5.66797 11.1959 -5.66797H52.7579Z" fill="#F7F7FF"/>
<path opacity="0.076923" d="M52.7612 -5.625C55.3316 -5.625 57.7713 -4.62273 59.601 -2.79249L69.3163 6.92515C71.146 8.75539 72.1481 11.1957 72.1481 13.7668V70.2862C72.1481 79.5681 64.6111 87.1069 55.3316 87.1069H11.1992C1.91966 87.1069 -5.61719 79.5681 -5.61719 70.2862V11.1957C-5.61719 1.91382 1.91966 -5.625 11.1992 -5.625H52.7612Z" fill="#F6F6FF"/>
<path opacity="0.08547" d="M52.7633 -5.57812C55.3337 -5.57812 57.7298 -4.57585 59.5595 -2.74562L69.2747 6.97203C71.1045 8.80227 72.1065 11.199 72.1065 13.7701V70.2895C72.1065 79.5278 64.6132 87.0231 55.3773 87.0231H11.2449C2.00893 87.0231 -5.48438 79.5278 -5.48438 70.2895V11.199C-5.48438 1.9607 2.00893 -5.53456 11.2449 -5.53456H52.7633V-5.57812Z" fill="#F5F5FF"/>
<path opacity="0.094017" d="M52.7633 -5.53516C55.3337 -5.53516 57.7298 -4.53287 59.516 -2.74622L69.2313 6.97143C71.0175 8.75809 72.0194 11.1548 72.0194 13.7259V70.2453C72.0194 79.4401 64.5261 86.9353 55.3337 86.9353H11.2013C2.00889 86.9353 -5.48438 79.4401 -5.48438 70.2453V11.1549C-5.48438 1.96011 2.00889 -5.53516 11.2013 -5.53516H52.7633Z" fill="#F4F4FF"/>
<path opacity="0.1026" d="M52.7589 -5.44922C55.2857 -5.44922 57.6818 -4.44694 59.468 -2.66028L69.1832 7.05742C70.9694 8.84408 71.9714 11.2408 71.9714 13.7683V70.2877C71.9714 79.4824 64.5216 86.9341 55.3292 86.9341H11.1969C2.00445 86.9341 -5.44531 79.4824 -5.44531 70.2877V11.1972C-5.44531 2.00249 2.00445 -5.44922 11.1969 -5.44922H52.7589Z" fill="#F3F3FF"/>
<path opacity="0.1111" d="M52.7621 -5.40625C55.2889 -5.40625 57.6415 -4.40402 59.4277 -2.61736L69.1429 7.10034C70.9291 8.887 71.9311 11.2402 71.9311 13.7676V70.287C71.9311 79.4382 64.4813 86.8899 55.3325 86.8899H11.2001C2.05128 86.8899 -5.39844 79.4382 -5.39844 70.287V11.1966C-5.39844 2.04541 2.05128 -5.40625 11.2001 -5.40625H52.7621Z" fill="#F2F2FF"/>
<path opacity="0.1197" d="M52.7621 -5.36268C55.289 -5.36268 57.6415 -4.40402 59.3841 -2.61736L69.0994 7.10034C70.8856 8.887 71.844 11.2401 71.844 13.724V70.2435C71.844 79.3511 64.4378 86.8027 55.289 86.8027H11.1566C2.05134 86.8027 -5.39844 79.3946 -5.39844 70.2435V11.153C-5.39844 2.04542 2.00778 -5.40625 11.1566 -5.40625H52.7621V-5.36268Z" fill="#F1F1FF"/>
<path opacity="0.1282" d="M52.7598 -5.31641C55.243 -5.31641 57.5956 -4.35769 59.3818 -2.57103L69.097 7.14662C70.8397 8.8897 71.8417 11.2429 71.8417 13.7704V70.2897C71.8417 79.3974 64.4355 86.7619 55.3737 86.7619H11.2414C2.13611 86.7619 -5.22656 79.3538 -5.22656 70.2897V11.1993C-5.22656 2.0917 2.17967 -5.27284 11.2414 -5.27284H52.7598V-5.31641Z" fill="#F0F0FF"/>
<path opacity="0.1368" d="M52.7598 -5.27344C55.243 -5.27344 57.5955 -4.31471 59.3382 -2.57163L69.0534 7.14602C70.796 8.8891 71.7545 11.2422 71.7545 13.7261V70.2456C71.7545 79.3096 64.3918 86.6741 55.3301 86.6741H11.1978C2.13606 86.6741 -5.22656 79.3096 -5.22656 70.2456V11.1551C-5.22656 2.09111 2.13606 -5.27344 11.1978 -5.27344H52.7598Z" fill="#EFEFFF"/>
<path opacity="0.1453" d="M52.763 -5.1875C55.2463 -5.1875 57.5553 -4.22883 59.2979 -2.48574L69.0132 7.23196C70.7558 8.97504 71.7142 11.2846 71.7142 13.7685V70.2879C71.7142 79.3083 64.3515 86.6729 55.3334 86.6729H11.2011C2.1829 86.6729 -5.17969 79.3083 -5.17969 70.2879V11.1975C-5.17969 2.17701 2.1829 -5.1875 11.2011 -5.1875H52.763Z" fill="#EEEEFF"/>
<path opacity="0.1538" d="M52.7586 -5.14453C55.1983 -5.14453 57.5073 -4.18586 59.2499 -2.44278L68.9651 7.27492C70.7078 9.018 71.6662 11.3276 71.6662 13.7679V70.2873C71.6662 79.3077 64.3471 86.6287 55.329 86.6287H11.1966C2.17846 86.6287 -5.14062 79.3077 -5.14062 70.2873V11.1969C-5.14062 2.17641 2.17846 -5.14453 11.1966 -5.14453H52.7586Z" fill="#EDEDFF"/>
<path opacity="0.1624" d="M52.7586 -5.10096C55.1983 -5.10096 57.5073 -4.14228 59.2064 -2.44278L68.9215 7.27492C70.6641 9.01801 71.5791 11.284 71.5791 13.7243V70.2437C71.5791 79.2206 64.26 86.5416 55.2854 86.5416H11.1531C2.17852 86.5416 -5.14062 79.2206 -5.14062 70.2437V11.1533C-5.14062 2.17642 2.17852 -5.14453 11.1531 -5.14453H52.7586V-5.10096Z" fill="#ECECFF"/>
<path opacity="0.1709" d="M52.7619 -5.058C55.2016 -5.058 57.467 -4.09931 59.1661 -2.39981L68.8813 7.31789C70.5804 9.0174 71.5387 11.327 71.5387 13.7237V70.2431C71.5387 79.1764 64.2633 86.4973 55.2887 86.4973H11.1564C2.22535 86.4973 -5.09375 79.22 -5.09375 70.2431V11.1527C-5.09375 2.2194 2.18179 -5.10156 11.1564 -5.10156H52.7619V-5.058Z" fill="#EBECFF"/>
<path opacity="0.1795" d="M52.7595 -5.01172C55.1557 -5.01172 57.4211 -4.05298 59.1637 -2.35348L68.8789 7.36417C70.578 9.06367 71.5364 11.3297 71.5364 13.77V70.2894C71.5364 79.2227 64.2609 86.4565 55.3735 86.4565H11.2411C2.31012 86.4565 -4.92188 79.1791 -4.92188 70.2894V11.199C-4.92188 2.26568 2.35368 -4.9681 11.2411 -4.9681H52.7595V-5.01172Z" fill="#EAEBFF"/>
<path opacity="0.188" d="M52.7595 -4.92578C55.1557 -4.92578 57.421 -4.01066 59.1201 -2.31116L68.8353 7.40649C70.5344 9.10599 71.4493 11.372 71.4493 13.7688V70.2882C71.4493 79.1779 64.2173 86.4117 55.3299 86.4117H11.1975C2.31008 86.4117 -4.92188 79.1779 -4.92188 70.2882V11.1977C-4.92188 2.30801 2.31008 -4.92578 11.1975 -4.92578H52.7595Z" fill="#E9EAFF"/>
<path opacity="0.1966" d="M52.7628 -4.88281C55.1589 -4.88281 57.3808 -3.96769 59.0799 -2.26819L68.7951 7.44951C70.4942 9.14901 71.409 11.3714 71.409 13.7682V70.2876C71.409 79.1337 64.2206 86.3675 55.3331 86.3675H11.2008C2.35691 86.3675 -4.875 79.1773 -4.875 70.2876V11.1971C-4.875 2.35099 2.31334 -4.88281 11.2008 -4.88281H52.7628Z" fill="#E8E9FF"/>
<path opacity="0.2051" d="M52.7582 -4.83984C55.1108 -4.83984 57.3762 -3.92473 59.0317 -2.22522L68.7469 7.49248C70.4024 9.14841 71.3609 11.4144 71.3609 13.7676V70.287C71.3609 79.1331 64.1725 86.3233 55.3286 86.3233H11.1963C2.35236 86.3233 -4.83594 79.1331 -4.83594 70.287V11.1965C-4.83594 2.35039 2.35236 -4.83984 11.1963 -4.83984H52.7582Z" fill="#E7E8FF"/>
<path opacity="0.2137" d="M52.7582 -4.79628C55.1108 -4.79628 57.3327 -3.88115 58.9882 -2.22522L68.7033 7.49248C70.3588 9.14841 71.2738 11.3708 71.2738 13.724V70.2434C71.2738 79.046 64.129 86.2362 55.2851 86.2362H11.1528C2.35243 86.2362 -4.83594 79.0896 -4.83594 70.2434V11.153C-4.83594 2.3504 2.30886 -4.83984 11.1528 -4.83984H52.7582V-4.79628Z" fill="#E6E7FF"/>
<path opacity="0.2222" d="M52.7604 -4.75C55.113 -4.75 57.2913 -3.83492 58.9468 -2.179L68.662 7.5387C70.3175 9.19463 71.2324 11.417 71.2324 13.7266V70.2461C71.2324 79.0486 64.0875 86.1517 55.3308 86.1517H11.1985C2.39813 86.1517 -4.70312 79.0051 -4.70312 70.2461V11.1556C-4.70312 2.35306 2.44169 -4.75 11.1985 -4.75H52.7604Z" fill="#E5E6FF"/>
<path opacity="0.2308" d="M52.7559 -4.66406C55.0649 -4.66406 57.2867 -3.74893 58.8986 -2.09301L68.6139 7.62464C70.2694 9.28057 71.1843 11.4595 71.1843 13.769V70.2884C71.1843 79.0474 64.083 86.1505 55.3262 86.1505H11.1939C2.43715 86.1505 -4.66406 79.0474 -4.66406 70.2884V11.198C-4.66406 2.439 2.43715 -4.66406 11.1939 -4.66406H52.7559Z" fill="#E4E5FF"/>
<path opacity="0.2393" d="M52.7592 -4.62109C55.0682 -4.62109 57.2464 -3.70595 58.9019 -2.0936L68.6171 7.62404C70.2726 9.27997 71.144 11.4589 71.144 13.7684V70.2878C71.144 79.0033 64.0427 86.1063 55.3295 86.1063H11.1972C2.48398 86.1063 -4.61719 79.0033 -4.61719 70.2878V11.1974C-4.61719 2.48199 2.48398 -4.62109 11.1972 -4.62109H52.7592Z" fill="#E3E4FF"/>
<path opacity="0.2479" d="M52.7625 -4.57812C55.0715 -4.57812 57.2063 -3.66299 58.8618 -2.05064L68.577 7.66707C70.1889 9.27942 71.1037 11.4583 71.1037 13.7679V70.2872C71.1037 79.0027 64.0461 86.0621 55.3329 86.0621H11.2005C2.48735 86.0621 -4.57031 79.0027 -4.57031 70.2872V11.1968C-4.57031 2.48139 2.48735 -4.57812 11.2005 -4.57812H52.7625Z" fill="#E2E3FF"/>
<path opacity="0.2564" d="M52.758 -4.53516C55.0234 -4.53516 57.2017 -3.66365 58.8136 -2.00772L68.5288 7.70998C70.1408 9.32233 71.0557 11.5012 71.0557 13.7672V70.2866C71.0557 78.9584 63.998 86.0179 55.3283 86.0179H11.196C2.52637 86.0179 -4.53125 78.9584 -4.53125 70.2866V11.1961C-4.53125 2.52431 2.52637 -4.53516 11.196 -4.53516H52.758Z" fill="#E1E2FE"/>
<path opacity="0.265" d="M52.7568 -4.49219C55.0223 -4.49219 57.157 -3.62067 58.7689 -2.00832L68.4841 7.70938C70.096 9.32173 70.9674 11.457 70.9674 13.723V70.2424C70.9674 78.8707 63.9532 85.8866 55.3272 85.8866H11.1948C2.56877 85.8866 -4.44531 78.8707 -4.44531 70.2424V11.152C-4.44531 2.52373 2.56877 -4.49219 11.1948 -4.49219H52.7568Z" fill="#E0E1FE"/>
<path opacity="0.2735" d="M52.7601 -4.40234C55.0255 -4.40234 57.1602 -3.53077 58.7286 -1.91842L68.4438 7.79923C70.0558 9.41158 70.9271 11.5033 70.9271 13.7693V70.2887C70.9271 78.917 63.9129 85.8893 55.3304 85.8893H11.1981C2.57203 85.8893 -4.39844 78.8734 -4.39844 70.2887V11.1983C-4.39844 2.57 2.6156 -4.40234 11.1981 -4.40234H52.7601Z" fill="#DFE0FE"/>
<path opacity="0.2821" d="M52.7635 -4.35938C54.9853 -4.35938 57.12 -3.4878 58.6884 -1.87545L68.4036 7.8422C69.972 9.41097 70.8868 11.5463 70.8868 13.7687V70.2881C70.8868 78.8728 63.9163 85.8451 55.3338 85.8451H11.2015C2.61897 85.8451 -4.35156 78.8728 -4.35156 70.2881V11.1977C-4.35156 2.61298 2.61897 -4.35938 11.2015 -4.35938H52.7635Z" fill="#DEDFFE"/>
<path opacity="0.2906" d="M52.7589 -4.31641C54.9808 -4.31641 57.0719 -3.44488 58.6838 -1.8761L68.3991 7.84154C69.9674 9.41032 70.8388 11.5021 70.8388 13.7681V70.2875C70.8388 78.8286 63.8682 85.8009 55.3293 85.8009H11.1969C2.65799 85.8009 -4.3125 78.8286 -4.3125 70.2875V11.197C-4.3125 2.65591 2.65799 -4.31641 11.1969 -4.31641H52.7589Z" fill="#DDDEFE"/>
<path opacity="0.2991" d="M52.7623 -4.27344C54.9841 -4.27344 57.0753 -3.40191 58.6437 -1.83313L68.3589 7.88457C69.9273 9.45334 70.7986 11.545 70.7986 13.7675V70.2869C70.7986 78.828 63.8716 85.7567 55.3326 85.7567H11.2003C2.66136 85.7567 -4.26562 78.828 -4.26562 70.2869V11.1964C-4.26562 2.65531 2.66136 -4.27344 11.2003 -4.27344H52.7623Z" fill="#DCDDFE"/>
<path opacity="0.3077" d="M52.761 -4.23047C54.9829 -4.23047 57.0304 -3.35893 58.5988 -1.83373L68.314 7.88397C69.8824 9.45274 70.7102 11.5008 70.7102 13.7232V70.2427C70.7102 78.7402 63.8267 85.6254 55.3314 85.6254H11.199C2.70365 85.6254 -4.17969 78.7402 -4.17969 70.2427V11.1522C-4.17969 2.65472 2.70365 -4.23047 11.199 -4.23047H52.761Z" fill="#DBDCFE"/>
<path opacity="0.3162" d="M52.7566 -4.14062C54.9349 -4.14062 57.0261 -3.26908 58.5509 -1.74389L68.266 7.97381C69.8344 9.54259 70.6621 11.5907 70.6621 13.7696V70.289C70.6621 78.7429 63.7787 85.6281 55.3269 85.6281H11.1946C2.74278 85.6281 -4.14062 78.7429 -4.14062 70.289V11.1985C-4.14062 2.74458 2.74278 -4.14062 11.1946 -4.14062H52.7566Z" fill="#DADBFE"/>
<path opacity="0.3248" d="M52.7598 -4.09766C54.9381 -4.09766 56.9857 -3.26969 58.5105 -1.70092L68.2258 8.01673C69.7506 9.54192 70.6219 11.5901 70.6219 13.7689V70.2883C70.6219 78.7423 63.782 85.5839 55.3302 85.5839H11.1978C2.74604 85.5839 -4.09375 78.7423 -4.09375 70.2883V11.1979C-4.09375 2.74393 2.74604 -4.09766 11.1978 -4.09766H52.7598Z" fill="#D9DAFE"/>
<path opacity="0.3333" d="M52.7598 -4.05409C54.9381 -4.05409 56.9421 -3.22612 58.4669 -1.70092L68.1821 8.01673C69.707 9.54193 70.5348 11.59 70.5348 13.7253V70.2448C70.5348 78.6551 63.6949 85.4967 55.2867 85.4967H11.1543C2.74611 85.4967 -4.09375 78.6551 -4.09375 70.2448V11.1543C-4.09375 2.74394 2.74611 -4.09766 11.1543 -4.09766H52.7598V-4.05409Z" fill="#D8D9FE"/>
<path opacity="0.3419" d="M52.7587 -4.01172C54.8934 -4.01172 56.9409 -3.18374 58.4657 -1.65855L68.181 8.0591C69.7058 9.5843 70.5336 11.5889 70.5336 13.7677V70.2871C70.5336 78.6539 63.7372 85.4955 55.329 85.4955H11.1967C2.832 85.4955 -4.00781 78.6975 -4.00781 70.2871V11.1967C-4.00781 2.82989 2.78844 -4.01172 11.1967 -4.01172H52.7587Z" fill="#D7D8FE"/>
<path opacity="0.3504" d="M52.7608 -3.96875C54.8955 -3.96875 56.8995 -3.14078 58.4243 -1.61558L68.1396 8.10212C69.6644 9.62732 70.4921 11.6319 70.4921 13.7671V70.2865C70.4921 78.6533 63.6958 85.4077 55.3747 85.4077H11.2424C2.8777 85.4077 -3.875 78.6097 -3.875 70.2865V11.1961C-3.875 2.82929 2.92127 -3.92518 11.2424 -3.92518H52.7608V-3.96875Z" fill="#D6D7FE"/>
<path opacity="0.359" d="M52.7607 -3.92188C54.8955 -3.92188 56.8559 -3.09389 58.3807 -1.61227L68.0959 8.10543C69.5772 9.58705 70.405 11.5916 70.405 13.7268V70.2463C70.405 78.5695 63.6522 85.3239 55.3311 85.3239H11.1988C2.87766 85.3239 -3.875 78.5695 -3.875 70.2463V11.1558C-3.875 2.83261 2.87766 -3.92188 11.1988 -3.92188H52.7607Z" fill="#D5D6FE"/>
<path opacity="0.3675" d="M52.7563 -3.83594C54.8475 -3.83594 56.8515 -3.00801 58.3328 -1.52639L68.0479 8.19131C69.5291 9.67293 70.3569 11.6775 70.3569 13.7692V70.2886C70.3569 78.5682 63.6042 85.3227 55.3267 85.3227H11.1943C2.91679 85.3227 -3.83594 78.5682 -3.83594 70.2886V11.1981C-3.83594 2.9185 2.91679 -3.83594 11.1943 -3.83594H52.7563Z" fill="#D4D5FE"/>
<path opacity="0.3761" d="M52.7596 -3.79297C54.8507 -3.79297 56.8112 -2.96498 58.2924 -1.48336L68.0077 8.23428C69.4889 9.7159 70.3167 11.6769 70.3167 13.7686V70.288C70.3167 78.5676 63.6075 85.2785 55.3299 85.2785H11.1976C2.92005 85.2785 -3.78906 78.5676 -3.78906 70.288V11.1975C-3.78906 2.91791 2.92005 -3.79297 11.1976 -3.79297H52.7596Z" fill="#D3D4FE"/>
<path opacity="0.3846" d="M52.7596 -3.7494C54.8507 -3.7494 56.8112 -2.92141 58.2488 -1.48336L67.9641 8.23428C69.4453 9.7159 70.2295 11.6769 70.2295 13.725V70.2444C70.2295 78.4805 63.5204 85.1913 55.2864 85.1913H11.1541C2.92012 85.1913 -3.78906 78.4805 -3.78906 70.2444V11.154C-3.78906 2.91792 2.92012 -3.79297 11.1541 -3.79297H52.7596V-3.7494Z" fill="#D2D3FE"/>
<path opacity="0.3932" d="M52.7617 -3.70703C54.8093 -3.70703 56.7697 -2.87904 58.2074 -1.44099L67.9226 8.27665C69.3603 9.7147 70.1881 11.6757 70.1881 13.7238V70.2432C70.1881 78.4357 63.5224 85.103 55.332 85.103H11.1997C3.00928 85.103 -3.65625 78.4357 -3.65625 70.2432V11.1528C-3.65625 2.9603 3.00928 -3.70703 11.1997 -3.70703H52.7617Z" fill="#D1D2FE"/>
<path opacity="0.4017" d="M52.7605 -3.66406C54.8081 -3.66406 56.725 -2.8797 58.2062 -1.39808L67.9215 8.31962C69.3592 9.75766 70.1869 11.7186 70.1869 13.7668V70.2861C70.1869 78.4786 63.5213 85.1023 55.3745 85.1023H11.2421C3.05171 85.1023 -3.57031 78.4351 -3.57031 70.2861V11.1957C-3.57031 3.00321 3.09528 -3.6205 11.2421 -3.6205H52.7605V-3.66406Z" fill="#D0D1FE"/>
<path opacity="0.4103" d="M52.7605 -3.57422C54.8081 -3.57422 56.725 -2.78984 58.1626 -1.3518L67.8779 8.3659C69.3155 9.80394 70.0998 11.7213 70.0998 13.7695V70.2889C70.0998 78.4378 63.4777 85.0615 55.3308 85.0615H11.1985C3.05167 85.0615 -3.57031 78.4378 -3.57031 70.2889V11.1984C-3.57031 3.0495 3.05167 -3.57422 11.1985 -3.57422H52.7605Z" fill="#CFD0FE"/>
<path opacity="0.4188" d="M52.7638 -3.53125C54.7678 -3.53125 56.6847 -2.74687 58.1224 -1.30883L67.8375 8.40887C69.2752 9.84691 70.0594 11.7643 70.0594 13.7689V70.2883C70.0594 78.3936 63.4809 85.0173 55.3341 85.0173H11.2018C3.0985 85.0173 -3.52344 78.4372 -3.52344 70.2883V11.1978C-3.52344 3.09248 3.05494 -3.53125 11.2018 -3.53125H52.7638Z" fill="#CECFFE"/>
<path opacity="0.4274" d="M52.7593 -3.48828C54.7634 -3.48828 56.6802 -2.70385 58.0743 -1.26581L67.7896 8.45184C69.2273 9.88988 70.0114 11.7637 70.0114 13.7683V70.2877C70.0114 78.393 63.4329 84.9731 55.3297 84.9731H11.1973C3.09406 84.9731 -3.48438 78.393 -3.48438 70.2877V11.1972C-3.48438 3.09188 3.09406 -3.48828 11.1973 -3.48828H52.7593Z" fill="#CDCEFE"/>
<path opacity="0.4359" d="M52.7593 -3.44466C54.7634 -3.44466 56.6366 -2.66028 58.0307 -1.26581L67.746 8.45184C69.1401 9.8463 69.9243 11.7637 69.9243 13.7246V70.2441C69.9243 78.3058 63.3894 84.886 55.2862 84.886H11.1538C3.09413 84.886 -3.48438 78.3494 -3.48438 70.2441V11.1536C-3.48438 3.09189 3.05056 -3.48828 11.1538 -3.48828H52.7593V-3.44466Z" fill="#CCCDFE"/>
<path opacity="0.4444" d="M52.7614 -3.40234C54.7219 -3.40234 56.5952 -2.61796 57.9893 -1.22349L67.7046 8.49416C69.0987 9.88862 69.8829 11.7624 69.8829 13.7234V70.2429C69.8829 78.261 63.3479 84.7976 55.3318 84.7976H11.1994C3.18329 84.7976 -3.35156 78.261 -3.35156 70.2429V11.1524C-3.35156 3.13422 3.18329 -3.40234 11.1994 -3.40234H52.7614Z" fill="#CBCCFE"/>
<path opacity="0.453" d="M52.7602 -3.3125C54.7207 -3.3125 56.594 -2.52811 57.9882 -1.13365L67.7034 8.58405C69.0975 9.97852 69.8817 11.8088 69.8817 13.8133V70.3327C69.8817 78.3509 63.3903 84.8439 55.3742 84.8439H11.2419C3.22572 84.8439 -3.26562 78.3509 -3.26562 70.3327V11.2422C-3.26562 3.22407 3.22572 -3.26893 11.2419 -3.26893H52.7602V-3.3125Z" fill="#CACBFE"/>
<path opacity="0.4615" d="M52.7603 -3.26953C54.7207 -3.26953 56.5504 -2.48513 57.9446 -1.13425L67.6598 8.58346C69.0539 9.97792 69.7945 11.8082 69.7945 13.7691V70.2885C69.7945 78.2631 63.3032 84.7561 55.3306 84.7561H11.1983C3.22568 84.7561 -3.26562 78.2631 -3.26562 70.2885V11.1981C-3.26562 3.22348 3.22568 -3.26953 11.1983 -3.26953H52.7603Z" fill="#C9CAFE"/>
<path opacity="0.4701" d="M52.7635 -3.22656C54.6804 -3.22656 56.5102 -2.4858 57.9043 -1.09133L67.6194 8.62637C68.97 9.97726 69.7542 11.8075 69.7542 13.7685V70.2879C69.7542 78.2189 63.3064 84.7119 55.3339 84.7119H11.2015C3.27251 84.7119 -3.21875 78.2625 -3.21875 70.2879V11.1974C-3.21875 3.26641 3.22895 -3.22656 11.2015 -3.22656H52.7635Z" fill="#C8C9FE"/>
<path opacity="0.4786" d="M52.7635 -3.183C54.6804 -3.183 56.5102 -2.44222 57.8607 -1.09133L67.5759 8.62637C68.9265 9.97726 69.6671 11.8075 69.6671 13.7249V70.2443C69.6671 78.1753 63.2194 84.6247 55.2904 84.6247H11.158C3.22901 84.6247 -3.21875 78.1753 -3.21875 70.2443V11.1539C-3.21875 3.22284 3.22901 -3.22656 11.158 -3.22656H52.7635V-3.183Z" fill="#C7C8FE"/>
<path opacity="0.4872" d="M52.7578 -3.14062C54.6747 -3.14062 56.4608 -2.39979 57.8114 -1.04891L67.5266 8.66874C68.8772 10.0196 69.6178 11.8063 69.6178 13.7237V70.2431C69.6178 78.1306 63.2136 84.5363 55.3281 84.5363H11.1958C3.31036 84.5363 -3.09375 78.1306 -3.09375 70.2431V11.1527C-3.09375 3.26522 3.31036 -3.14062 11.1958 -3.14062H52.7578Z" fill="#C6C7FE"/>
<path opacity="0.4957" d="M52.7612 -3.05078C54.6345 -3.05078 56.4643 -2.30995 57.7713 -0.959062L67.4865 8.75864C68.837 10.1095 69.5776 11.8962 69.5776 13.77V70.2894C69.5776 78.1768 63.1734 84.5391 55.3315 84.5391H11.1992C3.31373 84.5391 -3.04688 78.1333 -3.04688 70.2894V11.1989C-3.04688 3.3115 3.3573 -3.05078 11.1992 -3.05078H52.7612Z" fill="#C5C6FE"/>
<path opacity="0.5043" d="M52.7612 -3.00716C54.6345 -3.00716 56.4207 -2.26637 57.7276 -0.959062L67.4429 8.75864C68.7934 10.1095 69.4905 11.8526 69.4905 13.7264V70.2458C69.4905 78.0897 63.1299 84.4519 55.288 84.4519H11.1557C3.3138 84.4519 -3.04688 78.0897 -3.04688 70.2458V11.1554C-3.04688 3.31151 3.3138 -3.05078 11.1557 -3.05078H52.7612V-3.00716Z" fill="#C5C6FE"/>
<path opacity="0.5128" d="M52.76 -2.96484C54.6333 -2.96484 56.3759 -2.22406 57.7265 -0.916744L67.4417 8.80095C68.7487 10.1083 69.4893 11.8949 69.4893 13.7687V70.2881C69.4893 78.0884 63.1287 84.4507 55.3303 84.4507H11.198C3.39969 84.4507 -2.96094 78.0884 -2.96094 70.2881V11.1977C-2.96094 3.3974 3.39969 -2.96484 11.198 -2.96484H52.76Z" fill="#C4C5FE"/>
<path opacity="0.5214" d="M52.7554 -2.92188C54.6288 -2.92188 56.3714 -2.18109 57.6784 -0.873775L67.3935 8.84392C68.7005 10.1512 69.4412 11.8943 69.4412 13.7682V70.2875C69.4412 78.0878 63.1241 84.4065 55.3258 84.4065H11.1935C3.39515 84.4065 -2.92188 78.0878 -2.92188 70.2875V11.1971C-2.92188 3.39681 3.39515 -2.92188 11.1935 -2.92188H52.7554Z" fill="#C3C4FE"/>
<path opacity="0.5299" d="M52.7621 -2.87891C54.5919 -2.87891 56.3345 -2.13811 57.6414 -0.874373L67.3567 8.84333C68.6637 10.1506 69.3606 11.8937 69.3606 13.7239V70.2434C69.3606 78.0001 63.0436 84.2752 55.3324 84.2752H11.2001C3.44535 84.2752 -2.82812 77.9565 -2.82812 70.2434V11.1529C-2.82812 3.39622 3.48892 -2.87891 11.2001 -2.87891H52.7621Z" fill="#C2C3FE"/>
<path opacity="0.5385" d="M52.7575 -2.78906C54.5873 -2.78906 56.2863 -2.09184 57.5933 -0.784529L67.3085 8.93312C68.6155 10.2404 69.3126 11.94 69.3126 13.7702V70.2896C69.3126 78.0027 63.0391 84.2778 55.3279 84.2778H11.1955C3.48437 84.2778 -2.78906 78.0027 -2.78906 70.2896V11.1992C-2.78906 3.48602 3.48437 -2.78906 11.1955 -2.78906H52.7575Z" fill="#C1C2FE"/>
<path opacity="0.547" d="M52.7609 -2.74609C54.5907 -2.74609 56.2898 -2.04887 57.5532 -0.741561L67.2684 8.97614C68.5318 10.2399 69.2724 11.983 69.2724 13.7696V70.289C69.2724 78.0021 63.0424 84.2337 55.3313 84.2337H11.1989C3.48774 84.2337 -2.74219 78.0021 -2.74219 70.289V11.1986C-2.74219 3.48542 3.48774 -2.74609 11.1989 -2.74609H52.7609Z" fill="#C0C1FE"/>
<path opacity="0.5556" d="M52.7609 -2.70253C54.5471 -2.70253 56.2462 -2.00529 57.5096 -0.741561L67.2248 8.97614C68.4882 10.2399 69.1853 11.9393 69.1853 13.726V70.2454C69.1853 77.915 62.9554 84.1465 55.2878 84.1465H11.1554C3.48781 84.1465 -2.74219 77.915 -2.74219 70.2454V11.155C-2.74219 3.48543 3.48781 -2.74609 11.1554 -2.74609H52.7609V-2.70253Z" fill="#BFC0FE"/>
<path opacity="0.5641" d="M52.7596 -2.66016C54.5458 -2.66016 56.2449 -1.96292 57.5083 -0.69919L67.2235 9.01851C68.4869 10.2822 69.184 11.9818 69.184 13.7684V70.2878C69.184 77.9138 62.9976 84.1453 55.33 84.1453H11.1976C3.5736 84.1453 -2.65625 77.9574 -2.65625 70.2878V11.1974C-2.65625 3.57138 3.53003 -2.66016 11.1976 -2.66016H52.7596Z" fill="#BEBFFE"/>
<path opacity="0.5727" d="M52.7618 -2.61719C54.548 -2.61719 56.2036 -1.91995 57.467 -0.656221L67.1821 9.06148C68.4455 10.3252 69.1426 11.9812 69.1426 13.7678V70.2872C69.1426 77.9132 62.9563 84.0575 55.3758 84.0575H11.2434C3.61941 84.0575 -2.52344 77.8696 -2.52344 70.2872V11.1968C-2.52344 3.57078 3.66297 -2.57357 11.2434 -2.57357H52.7618V-2.61719Z" fill="#BDBEFE"/>
<path opacity="0.5812" d="M52.7618 -2.53125C54.5045 -2.53125 56.16 -1.83401 57.4234 -0.61385L67.1386 9.1038C68.3585 10.324 69.0555 12.0235 69.0555 13.7666V70.286C69.0555 77.8684 62.9127 84.0127 55.3322 84.0127H11.1998C3.61936 84.0127 -2.52344 77.8684 -2.52344 70.286V11.1955C-2.52344 3.61311 3.61936 -2.53125 11.1998 -2.53125H52.7618Z" fill="#BCBDFE"/>
<path opacity="0.5897" d="M52.7573 -2.48438C54.4999 -2.48438 56.1554 -1.78713 57.3752 -0.566975L67.0904 9.15067C68.3103 10.3708 69.0074 12.0268 69.0074 13.7699V70.2893C69.0074 77.8281 62.8645 83.9725 55.3276 83.9725H11.1953C3.65838 83.9725 -2.48438 77.8281 -2.48438 70.2893V11.1988C-2.48438 3.66 3.65838 -2.48438 11.1953 -2.48438H52.7573Z" fill="#BBBCFE"/>
<path opacity="0.5983" d="M52.7606 -2.44141C54.5032 -2.44141 56.1151 -1.74416 57.335 -0.524006L67.0502 9.19369C68.2701 10.4139 68.9671 12.0698 68.9671 13.7693V70.2887C68.9671 77.8275 62.8678 83.9283 55.3309 83.9283H11.1986C3.66165 83.9283 -2.4375 77.8275 -2.4375 70.2887V11.1982C-2.4375 3.6594 3.66165 -2.44141 11.1986 -2.44141H52.7606Z" fill="#BABBFE"/>
<path opacity="0.6068" d="M52.7606 -2.39784C54.4596 -2.39784 56.1151 -1.74416 57.2914 -0.524006L67.0066 9.19369C68.2264 10.4139 68.88 12.0262 68.88 13.7257V70.2451C68.88 77.7404 62.7807 83.8411 55.2874 83.8411H11.1551C3.66171 83.8411 -2.4375 77.7404 -2.4375 70.2451V11.1547C-2.4375 3.65941 3.66171 -2.44141 11.1551 -2.44141H52.7606V-2.39784Z" fill="#B9BAFE"/>
<path opacity="0.6154" d="M52.7582 -2.35547C54.4573 -2.35547 56.0692 -1.70185 57.289 -0.481688L67.0043 9.23601C68.2241 10.4562 68.8776 12.0685 68.8776 13.768V70.2874C68.8776 77.7391 62.8219 83.7963 55.3722 83.7963H11.2398C3.79004 83.7963 -2.26562 77.7391 -2.26562 70.2874V11.197C-2.26562 3.74531 3.79004 -2.3119 11.2398 -2.3119H52.7582V-2.35547Z" fill="#B8B9FE"/>
<path opacity="0.6239" d="M52.7615 -2.3125C54.4605 -2.3125 56.0289 -1.65888 57.2488 -0.438719L66.9639 9.27898C68.1402 10.4556 68.8373 12.0679 68.8373 13.7674V70.2868C68.8373 77.7385 62.7816 83.7522 55.3754 83.7522H11.2431C3.79331 83.7522 -2.21875 77.6949 -2.21875 70.2868V11.1964C-2.21875 3.74471 3.83688 -2.26893 11.2431 -2.26893H52.7615V-2.3125Z" fill="#B7B8FE"/>
<path opacity="0.6325" d="M52.7615 -2.22266C54.417 -2.22266 56.0289 -1.56897 57.2052 -0.392389L66.9204 9.32526C68.0967 10.5018 68.7502 12.0706 68.7502 13.7701V70.2896C68.7502 77.6976 62.738 83.7113 55.3318 83.7113H11.1995C3.79327 83.7113 -2.21875 77.6976 -2.21875 70.2896V11.1991C-2.21875 3.791 3.79327 -2.22266 11.1995 -2.22266H52.7615Z" fill="#B6B7FE"/>
<path opacity="0.641" d="M52.757 -2.17969C54.4125 -2.17969 55.9809 -1.526 57.1571 -0.34942L66.8724 9.36823C68.0486 10.5448 68.7021 12.1136 68.7021 13.7695V70.2889C68.7021 77.6535 62.69 83.6671 55.3274 83.6671H11.195C3.83239 83.6671 -2.17969 77.6535 -2.17969 70.2889V11.1985C-2.17969 3.83398 3.83239 -2.17969 11.195 -2.17969H52.757Z" fill="#B5B6FE"/>
<path opacity="0.6496" d="M52.757 -2.13607C54.4125 -2.13607 55.9374 -1.48242 57.1136 -0.34942L66.8289 9.36823C68.0051 10.5448 68.615 12.07 68.615 13.7259V70.2454C68.615 77.6099 62.6465 83.5799 55.2839 83.5799H11.1515C3.78889 83.5799 -2.17969 77.6099 -2.17969 70.2454V11.1549C-2.17969 3.79041 3.78889 -2.17969 11.1515 -2.17969H52.757V-2.13607Z" fill="#B4B5FE"/>
<path opacity="0.6581" d="M52.7591 -2.09375C54.3711 -2.09375 55.9394 -1.44011 57.0721 -0.307102L66.7873 9.4106C67.9201 10.5436 68.5736 12.1123 68.5736 13.7247V70.2441C68.5736 77.5651 62.6486 83.4916 55.3295 83.4916H11.1971C3.87805 83.4916 -2.04688 77.5651 -2.04688 70.2441V11.1537C-2.04688 3.83274 3.87805 -2.09375 11.1971 -2.09375H52.7591Z" fill="#B3B4FE"/>
<path opacity="0.6667" d="M52.7624 -2.05078C54.3743 -2.05078 55.8992 -1.39714 57.0319 -0.264133L66.747 9.45357C67.8797 10.5866 68.5333 12.1117 68.5333 13.7241V70.2435C68.5333 77.5209 62.6083 83.4473 55.3327 83.4473H11.2004C3.92489 83.4473 -2 77.5209 -2 70.2435V11.1531C-2 3.87572 3.92489 -2.05078 11.2004 -2.05078H52.7624Z" fill="#B2B3FE"/>
<path opacity="0.6752" d="M52.758 -1.96094C54.3699 -1.96094 55.8947 -1.35086 57.0274 -0.217856L66.7426 9.49984C67.8753 10.6328 68.4852 12.1581 68.4852 13.7704V70.2898C68.4852 77.5672 62.6038 83.4501 55.3283 83.4501H11.196C3.92045 83.4501 -1.96094 77.5672 -1.96094 70.2898V11.1994C-1.96094 3.92199 3.92045 -1.96094 11.196 -1.96094H52.758Z" fill="#B1B2FE"/>
<path opacity="0.6838" d="M52.7612 -1.91797C54.3296 -1.91797 55.8544 -1.30789 56.9871 -0.174887L66.7023 9.54276C67.835 10.6758 68.445 12.1574 68.445 13.7698V70.2892C68.445 77.5229 62.5635 83.4058 55.3316 83.4058H11.1992C3.96728 83.4058 -1.91406 77.5229 -1.91406 70.2892V11.1987C-1.91406 3.96492 3.96728 -1.91797 11.1992 -1.91797H52.7612Z" fill="#B0B1FE"/>
<path opacity="0.6923" d="M52.7568 -1.875C54.3252 -1.875 55.8063 -1.26492 56.939 -0.131919L66.6543 9.58573C67.787 10.7187 68.3969 12.2004 68.3969 13.7692V70.2886C68.3969 77.4788 62.5591 83.3617 55.3271 83.3617H11.1948C4.0064 83.3617 -1.875 77.5223 -1.875 70.2886V11.1981C-1.875 4.0079 3.96284 -1.875 11.1948 -1.875H52.7568Z" fill="#AFB0FE"/>
<path opacity="0.7009" d="M52.7568 -1.83143C54.3252 -1.83143 55.8064 -1.22134 56.8955 -0.131918L66.6108 9.58573C67.6999 10.6752 68.3098 12.1568 68.3098 13.7255V70.245C68.3098 77.4352 62.472 83.2745 55.2836 83.2745H11.1513C3.9629 83.2745 -1.875 77.4352 -1.875 70.245V11.1545C-1.875 3.96433 3.9629 -1.875 11.1513 -1.875H52.7568V-1.83143Z" fill="#AEAFFE"/>
<path opacity="0.7094" d="M52.7589 -1.78906C54.2837 -1.78906 55.7649 -1.17897 56.854 -0.0895474L66.5693 9.62815C67.6584 10.7176 68.2683 12.1992 68.2683 13.7244V70.2438C68.2683 77.3904 62.474 83.1862 55.3292 83.1862H11.1969C4.05206 83.1862 -1.74219 77.3904 -1.74219 70.2438V11.1533C-1.74219 4.00672 4.05206 -1.78906 11.1969 -1.78906H52.7589Z" fill="#ADAEFE"/>
<path opacity="0.7179" d="M52.7621 -1.70312C54.2869 -1.70312 55.7682 -1.09309 56.8138 -0.0036633L66.5289 9.71404C67.6181 10.8035 68.2281 12.2415 68.2281 13.7667V70.2861C68.2281 77.3892 62.4337 83.1849 55.3325 83.1849H11.2001C4.0989 83.1849 -1.69531 77.3892 -1.69531 70.2861V11.1957C-1.69531 4.09261 4.0989 -1.70312 11.2001 -1.70312H52.7621Z" fill="#ACADFE"/>
<path opacity="0.7265" d="M52.7577 -1.65625C54.2825 -1.65625 55.7202 -1.0462 56.8094 -0.000354528L66.5245 9.71735C67.6136 10.8068 68.18 12.2448 68.18 13.77V70.2894C68.18 77.3925 62.4293 83.1447 55.3281 83.1447H11.1957C4.09446 83.1447 -1.65625 77.3925 -1.65625 70.2894V11.199C-1.65625 4.09592 4.09446 -1.65625 11.1957 -1.65625H52.7577Z" fill="#ABACFE"/>
<path opacity="0.735" d="M52.761 -1.61328C54.2858 -1.61328 55.6799 -1.00318 56.769 0.0426675L66.4842 9.76031C67.5298 10.8062 68.1398 12.2442 68.1398 13.7694V70.2888C68.1398 77.3483 62.389 83.1005 55.3313 83.1005H11.199C4.14129 83.1005 -1.60938 77.3483 -1.60938 70.2888V11.1984C-1.60938 4.1389 4.14129 -1.61328 11.199 -1.61328H52.761Z" fill="#AAABFE"/>
<path opacity="0.7436" d="M52.7564 -1.57031C54.2377 -1.57031 55.6753 -1.00379 56.7209 0.0856363L66.4361 9.80328C67.4817 10.8491 68.0916 12.2872 68.0916 13.7688V70.2882C68.0916 77.3041 62.3845 83.0563 55.3268 83.0563H11.1944C4.18031 83.0563 -1.57031 77.3477 -1.57031 70.2882V11.1978C-1.57031 4.18188 4.13674 -1.57031 11.1944 -1.57031H52.7564Z" fill="#A9AAFE"/>
<path opacity="0.7521" d="M52.7553 -1.52734C54.2365 -1.52734 55.6306 -0.96081 56.6762 0.0850385L66.3914 9.80269C67.437 10.8485 68.0033 12.243 68.0033 13.7246V70.2441C68.0033 77.26 62.2962 82.925 55.3256 82.925H11.1933C4.17914 82.925 -1.48438 77.2164 -1.48438 70.2441V11.1536C-1.48438 4.13771 4.2227 -1.52734 11.1933 -1.52734H52.7553Z" fill="#A8A9FD"/>
<path opacity="0.7607" d="M52.7586 -1.44141C54.2399 -1.44141 55.5904 -0.874926 56.636 0.170923L66.3512 9.88862C67.3968 10.9345 67.9631 12.3289 67.9631 13.767V70.2864C67.9631 77.2587 62.2995 82.9237 55.329 82.9237H11.1966C4.22608 82.9237 -1.4375 77.2587 -1.4375 70.2864V11.1959C-1.4375 4.22361 4.22608 -1.44141 11.1966 -1.44141H52.7586Z" fill="#A7A8FD"/>
<path opacity="0.7692" d="M52.7619 -1.39844C54.1996 -1.39844 55.5937 -0.831957 56.5957 0.213892L66.3108 9.93159C67.3564 10.9774 67.9229 12.3284 67.9229 13.7664V70.2858C67.9229 77.2581 62.3028 82.8796 55.3322 82.8796H11.1999C4.22934 82.8796 -1.39062 77.2581 -1.39062 70.2858V11.1953C-1.39062 4.22301 4.22934 -1.39844 11.1999 -1.39844H52.7619Z" fill="#A6A7FD"/>
<path opacity="0.7778" d="M52.7619 -1.35487C54.1996 -1.35487 55.5501 -0.78838 56.5521 0.213892L66.2673 9.93159C67.2693 10.9339 67.8356 12.3283 67.8356 13.7228V70.2422C67.8356 77.171 62.2157 82.7924 55.2887 82.7924H11.1564C4.22941 82.7924 -1.39062 77.171 -1.39062 70.2422V11.1518C-1.39062 4.22302 4.22941 -1.39844 11.1564 -1.39844H52.7619V-1.35487Z" fill="#A5A6FD"/>
<path opacity="0.7863" d="M52.7607 -1.30859C54.1984 -1.30859 55.5489 -0.74205 56.5509 0.260222L66.2662 9.97787C67.2682 10.9801 67.8345 12.3311 67.8345 13.7691V70.2885C67.8345 77.1737 62.2581 82.7951 55.3311 82.7951H11.1987C4.3153 82.7951 -1.30469 77.2173 -1.30469 70.2885V11.198C-1.30469 4.31288 4.27174 -1.30859 11.1987 -1.30859H52.7607Z" fill="#A4A5FD"/>
<path opacity="0.7949" d="M52.7628 -1.26562C54.1569 -1.26562 55.5074 -0.699134 56.5094 0.303138L66.2246 10.0208C67.2267 11.0231 67.7931 12.374 67.7931 13.7685V70.2878C67.7931 77.173 62.2166 82.7073 55.3768 82.7073H11.2444C4.361 82.7073 -1.17188 77.1294 -1.17188 70.2878V11.1974C-1.17188 4.31223 4.40457 -1.22206 11.2444 -1.22206H52.7628V-1.26562Z" fill="#A3A4FD"/>
<path opacity="0.8034" d="M52.7628 -1.17969C54.1569 -1.17969 55.4639 -0.613186 56.4659 0.345509L66.1812 10.0632C67.1832 11.0655 67.706 12.3728 67.706 13.7673V70.2866C67.706 77.1282 62.173 82.6625 55.3332 82.6625H11.2008C4.36096 82.6625 -1.17188 77.1282 -1.17188 70.2866V11.1962C-1.17188 4.35461 4.36096 -1.17969 11.2008 -1.17969H52.7628Z" fill="#A2A3FD"/>
<path opacity="0.812" d="M52.7583 -1.13672C54.1524 -1.13672 55.4593 -0.613794 56.4178 0.388478L66.133 10.1062C67.0914 11.0649 67.6578 12.3722 67.6578 13.7667V70.2861C67.6578 77.0841 62.1249 82.6184 55.3286 82.6184H11.1963C4.39998 82.6184 -1.13281 77.0841 -1.13281 70.2861V11.1956C-1.13281 4.39759 4.39998 -1.13672 11.1963 -1.13672H52.7583Z" fill="#A1A2FD"/>
<path opacity="0.8205" d="M52.7583 -1.09315C54.1088 -1.09315 55.4158 -0.570217 56.3743 0.388478L66.0894 10.1062C67.0478 11.0649 67.5707 12.3722 67.5707 13.723V70.2425C67.5707 77.0405 62.0814 82.5312 55.2851 82.5312H11.1528C4.35648 82.5312 -1.13281 77.0405 -1.13281 70.2425V11.152C-1.13281 4.35402 4.35648 -1.13672 11.1528 -1.13672H52.7583V-1.09315Z" fill="#A0A1FD"/>
<path opacity="0.8291" d="M52.7616 -1.04622C54.1122 -1.04622 55.4191 -0.523342 56.334 0.435352L66.0493 10.1531C67.0077 11.1117 67.5305 12.3755 67.5305 13.7263V70.2458C67.5305 77.0002 62.0412 82.4909 55.2885 82.4909H11.1561C4.40342 82.4909 -1.08594 77.0002 -1.08594 70.2458V11.1553C-1.08594 4.40091 4.40342 -1.08984 11.1561 -1.08984H52.7616V-1.04622Z" fill="#9FA0FD"/>
<path opacity="0.8376" d="M52.7592 -1.00391C54.1097 -1.00391 55.3731 -0.480971 56.3316 0.477723L66.0468 10.1954C67.0053 11.1541 67.528 12.4178 67.528 13.7687V70.2881C67.528 76.999 62.0823 82.4461 55.3731 82.4461H11.2408C4.53164 82.4461 -0.914062 76.999 -0.914062 70.2881V11.1977C-0.914062 4.4868 4.53164 -0.96034 11.2408 -0.96034H52.7592V-1.00391Z" fill="#9EA0FD"/>
<path opacity="0.8462" d="M52.7592 -0.917969C54.0662 -0.917969 55.3295 -0.395023 56.288 0.520095L66.0032 10.2377C66.9181 11.1529 67.4409 12.4166 67.4409 13.7675V70.2869C67.4409 76.9978 61.9951 82.4014 55.3295 82.4014H11.1972C4.48803 82.4014 -0.914062 76.9542 -0.914062 70.2869V11.1965C-0.914062 4.48561 4.5316 -0.917969 11.1972 -0.917969H52.7592Z" fill="#9D9FFD"/>
<path opacity="0.8547" d="M52.7626 -0.875C54.0695 -0.875 55.333 -0.352054 56.2478 0.563063L65.9631 10.2808C66.878 11.1959 67.4007 12.4596 67.4007 13.7669V70.2863C67.4007 76.9536 61.9985 82.3571 55.3329 82.3571H11.2006C4.53497 82.3571 -0.867188 76.9536 -0.867188 70.2863V11.1959C-0.867188 4.52858 4.53497 -0.875 11.2006 -0.875H52.7626Z" fill="#9C9EFD"/>
<path opacity="0.8632" d="M52.758 -0.828125C54.065 -0.828125 55.2848 -0.305232 56.1997 0.609885L65.9149 10.3276C66.8298 11.2427 67.3526 12.4629 67.3526 13.7702V70.2896C67.3526 76.9133 61.9504 82.3168 55.3284 82.3168H11.196C4.57399 82.3168 -0.828125 76.9133 -0.828125 70.2896V11.1991C-0.828125 4.57542 4.57399 -0.828125 11.196 -0.828125H52.758Z" fill="#9B9DFD"/>
<path opacity="0.8718" d="M52.758 -0.784559C54.0214 -0.784559 55.2413 -0.261655 56.1562 0.609885L65.8713 10.3276C66.7862 11.2427 67.2655 12.4628 67.2655 13.7266V70.246C67.2655 76.8697 61.9069 82.2297 55.2849 82.2297H11.1525C4.53049 82.2297 -0.828125 76.8697 -0.828125 70.246V11.1556C-0.828125 4.53185 4.53049 -0.828125 11.1525 -0.828125H52.758V-0.784559Z" fill="#9A9CFD"/>
<path opacity="0.8803" d="M52.7601 -0.742188C54.0235 -0.742188 55.2433 -0.262861 56.1147 0.652256L65.8299 10.37C66.7448 11.2851 67.224 12.4616 67.224 13.7254V70.2448C67.224 76.825 61.9089 82.1413 55.3305 82.1413H11.1981C4.61965 82.1413 -0.695312 76.825 -0.695312 70.2448V11.1544C-0.695312 4.57423 4.61965 -0.742188 11.1981 -0.742188H52.7601Z" fill="#999BFD"/>
<path opacity="0.8889" d="M52.7589 -0.699219C54.0223 -0.699219 55.1986 -0.219839 56.1135 0.695278L65.8287 10.4129C66.7 11.2845 67.2228 12.5047 67.2228 13.7684V70.2878C67.2228 76.8243 61.9078 82.1407 55.3729 82.1407H11.2405C4.70565 82.1407 -0.609375 76.8243 -0.609375 70.2878V11.1973C-0.609375 4.66078 4.70565 -0.655652 11.2405 -0.655652H52.7589V-0.699219Z" fill="#989AFD"/>
<path opacity="0.8974" d="M52.7589 -0.613281C53.9788 -0.613281 55.1986 -0.133944 56.0699 0.737596L65.7851 10.4552C66.6564 11.3268 67.1357 12.5034 67.1357 13.7671V70.2865C67.1357 76.8231 61.8642 82.0959 55.3293 82.0959H11.1969C4.66204 82.0959 -0.609375 76.8231 -0.609375 70.2865V11.1961C-0.609375 4.65953 4.66204 -0.613281 11.1969 -0.613281H52.7589Z" fill="#9799FD"/>
<path opacity="0.906" d="M52.7623 -0.570312C53.9822 -0.570312 55.1584 -0.0909757 56.0298 0.780565L65.745 10.4983C66.6163 11.3698 67.0955 12.5464 67.0955 13.7665V70.2859C67.0955 76.7789 61.824 82.0517 55.3327 82.0517H11.2003C4.70898 82.0517 -0.5625 76.7789 -0.5625 70.2859V11.1955C-0.5625 4.70251 4.70898 -0.570312 11.2003 -0.570312H52.7623Z" fill="#9698FD"/>
<path opacity="0.9145" d="M52.7578 -0.523438C53.9776 -0.523438 55.1103 -0.0441007 55.9816 0.82744L65.6968 10.5451C66.5681 11.4167 67.0474 12.5497 67.0474 13.7699V70.2892C67.0474 76.7386 61.8194 82.0115 55.3281 82.0115H11.1958C4.748 82.0115 -0.523438 76.7822 -0.523438 70.2892V11.1988C-0.523438 4.74939 4.70444 -0.523438 11.1958 -0.523438H52.7578Z" fill="#9597FD"/>
<path opacity="0.9231" d="M52.7578 -0.479871C53.934 -0.479871 55.1103 -0.000523686 55.9381 0.82744L65.6532 10.5451C66.481 11.3731 66.9602 12.5497 66.9602 13.7262V70.2457C66.9602 76.6951 61.7324 81.9243 55.2846 81.9243H11.1523C4.7045 81.9243 -0.523438 76.6951 -0.523438 70.2457V11.1552C-0.523438 4.70583 4.7045 -0.523438 11.1523 -0.523438H52.7578V-0.479871Z" fill="#9496FD"/>
<path opacity="0.9316" d="M52.7599 -0.4375C53.9361 -0.4375 55.0688 0.0418474 55.8966 0.869811L65.6118 10.5875C66.4396 11.4155 66.9188 12.5485 66.9188 13.725V70.2445C66.9188 76.6503 61.7344 81.836 55.3302 81.836H11.1979C4.79366 81.836 -0.390625 76.6503 -0.390625 70.2445V11.154C-0.390625 4.74821 4.79366 -0.4375 11.1979 -0.4375H52.7599Z" fill="#9395FD"/>
<path opacity="0.9402" d="M52.7632 -0.351562C53.9395 -0.351562 55.0286 0.127785 55.8563 0.955749L65.5716 10.6734C66.3993 11.5014 66.8786 12.6344 66.8786 13.7674V70.2868C66.8786 76.649 61.6942 81.8347 55.3336 81.8347H11.2012C4.8406 81.8347 -0.34375 76.649 -0.34375 70.2868V11.1964C-0.34375 4.8341 4.8406 -0.351562 11.2012 -0.351562H52.7632Z" fill="#9294FD"/>
<path opacity="0.9487" d="M52.7587 -0.308594C53.935 -0.308594 55.024 0.170764 55.8518 0.955151L65.567 10.6728C66.3948 11.5008 66.8305 12.5902 66.8305 13.7668V70.2862C66.8305 76.6484 61.6897 81.7906 55.329 81.7906H11.1967C4.83605 81.7906 -0.304688 76.6484 -0.304688 70.2862V11.1958C-0.304688 4.83351 4.83605 -0.308594 11.1967 -0.308594H52.7587Z" fill="#9193FD"/>
<path opacity="0.9573" d="M52.7619 -0.261719C53.8947 -0.261719 54.9838 0.174062 55.8116 1.00203L65.5268 10.7197C66.3546 11.5477 66.7902 12.6371 66.7902 13.7701V70.2895C66.7902 76.6082 61.6494 81.7503 55.3323 81.7503H11.2C4.88289 81.7503 -0.257812 76.6082 -0.257812 70.2895V11.1991C-0.257812 4.88039 4.88289 -0.261719 11.2 -0.261719H52.7619Z" fill="#9092FD"/>
<path opacity="0.9658" d="M52.7575 -0.21875C53.8902 -0.21875 54.9793 0.217031 55.7635 1.04499L65.4788 10.7627C66.2629 11.5471 66.7421 12.6365 66.7421 13.7695V70.2889C66.7421 76.564 61.6449 81.7061 55.3279 81.7061H11.1955C4.92201 81.7061 -0.21875 76.6076 -0.21875 70.2889V11.1985C-0.21875 4.92337 4.87845 -0.21875 11.1955 -0.21875H52.7575Z" fill="#8F91FD"/>
<path opacity="0.9744" d="M52.7563 -0.175781C53.889 -0.175781 54.9347 0.259957 55.7188 1.04434L65.434 10.762C66.2182 11.5464 66.6538 12.6358 66.6538 13.7253V70.2447C66.6538 76.5198 61.5566 81.5747 55.3267 81.5747H11.1943C4.92084 81.5747 -0.132812 76.4762 -0.132812 70.2447V11.1542C-0.132812 4.87915 4.96441 -0.175781 11.1943 -0.175781H52.7563Z" fill="#8E90FD"/>
<path opacity="0.9829" d="M52.7596 -0.0898438C53.8487 -0.0898438 54.8943 0.345948 55.6785 1.13033L65.3937 10.848C66.1779 11.6324 66.6136 12.6783 66.6136 13.7677V70.2871C66.6136 76.5186 61.5599 81.5735 55.3299 81.5735H11.1976C4.96767 81.5735 -0.0859375 76.5186 -0.0859375 70.2871V11.1966C-0.0859375 4.9651 4.96767 -0.0898438 11.1976 -0.0898438H52.7596Z" fill="#8D8FFD"/>
<path opacity="0.9915" d="M52.7551 -0.046875C53.8442 -0.046875 54.8897 0.388917 55.6303 1.1733L65.3456 10.8909C66.1298 11.6753 66.5654 12.6777 66.5654 13.7671V70.2865C66.5654 76.4744 61.5553 81.5294 55.3254 81.5294H11.1931C5.00669 81.5294 -0.046875 76.518 -0.046875 70.2865V11.196C-0.046875 5.00808 4.96313 -0.046875 11.1931 -0.046875H52.7551Z" fill="#8C8EFD"/>
<path d="M52.7584 0H11.1964C5.01006 0 0 5.01139 0 11.1993V70.2898C0 76.4777 5.01006 81.4891 11.1964 81.4891H55.3288C61.5151 81.4891 66.5252 76.4777 66.5252 70.2898V13.7704C66.5252 12.681 66.0896 11.6786 65.3489 10.8943L55.6337 1.17661C54.8495 0.435802 53.804 0 52.7584 0Z" fill="#8B8DFD"/>
</g>
<g opacity="0.8">
<path opacity="0.8" d="M80.5096 28.1935V84.6257C80.5096 90.8137 75.4995 95.825 69.3131 95.825H25.1808C18.9944 95.825 13.9844 90.8137 13.9844 84.6257V25.5353C13.9844 19.3473 18.9944 14.3359 25.1808 14.3359H66.6556C72.1013 19.7831 75.1074 22.7899 80.5096 28.1935Z" fill="url(#paint0_linear_1_74799)"/>
</g>
<path d="M56.2012 31.81H26.8378C25.008 31.81 23.5703 30.3284 23.5703 28.5417C23.5703 26.7115 25.0516 25.2734 26.8378 25.2734H56.2012C58.0309 25.2734 59.4686 26.7551 59.4686 28.5417C59.5122 30.3284 58.0309 31.81 56.2012 31.81Z" fill="white"/>
<path d="M67.659 44.0131H26.8378C25.008 44.0131 23.5703 42.5315 23.5703 40.7448C23.5703 38.9146 25.0516 37.4766 26.8378 37.4766H67.659C69.4888 37.4766 70.9265 38.9582 70.9265 40.7448C70.9701 42.5751 69.4888 44.0131 67.659 44.0131Z" fill="white"/>
<path d="M67.659 56.2553H26.8378C25.008 56.2553 23.5703 54.7737 23.5703 52.987C23.5703 51.1568 25.0516 49.7188 26.8378 49.7188H67.659C69.4888 49.7188 70.9265 51.2004 70.9265 52.987C70.9701 54.7737 69.4888 56.2553 67.659 56.2553Z" fill="white"/>
<path d="M67.659 68.5444H26.8378C25.008 68.5444 23.5703 67.0627 23.5703 65.2761C23.5703 63.4459 25.0516 62.0078 26.8378 62.0078H67.659C69.4888 62.0078 70.9265 63.4894 70.9265 65.2761C70.9701 67.0627 69.4888 68.5444 67.659 68.5444Z" fill="white"/>
<path d="M67.659 80.7905H26.8378C25.008 80.7905 23.5703 79.3088 23.5703 77.5222C23.5703 75.6919 25.0516 74.2539 26.8378 74.2539H67.659C69.4888 74.2539 70.9265 75.7355 70.9265 77.5222C70.9701 79.3088 69.4888 80.7905 67.659 80.7905Z" fill="white"/>
<path d="M66.6953 14.3359L80.5057 28.1935H66.6953V14.3359Z" fill="#8B8DFD"/>
<path d="M69.3546 96.0018H25.2223C18.9488 96.0018 13.8516 90.9033 13.8516 84.6282V25.5377C13.8516 19.2626 18.9488 14.1641 25.2223 14.1641H66.7842L66.8278 14.2077L80.7253 28.1087V84.6282C80.6817 90.9033 75.5845 96.0018 69.3546 96.0018ZM25.2223 14.5563C19.1667 14.5563 14.2001 19.4805 14.2001 25.5813V84.6717C14.2001 90.7289 19.1231 95.6967 25.2223 95.6967H69.3546C75.4102 95.6967 80.3768 90.7725 80.3768 84.6717V28.283L66.6535 14.5563H25.2223Z" fill="url(#paint1_linear_1_74799)"/>
<defs>
<linearGradient id="paint0_linear_1_74799" x1="47.273" y1="95.8442" x2="47.273" y2="14.3574" gradientUnits="userSpaceOnUse">
<stop stop-color="#F2F8FF"/>
<stop offset="1" stop-color="#D9F0FF"/>
</linearGradient>
<linearGradient id="paint1_linear_1_74799" x1="47.271" y1="96.0222" x2="47.271" y2="14.1844" gradientUnits="userSpaceOnUse">
<stop stop-color="#E6F1FF"/>
<stop offset="1" stop-color="#F7FBFF"/>
</linearGradient>
</defs>
</svg>
