<svg width="151" height="132" viewBox="0 0 151 132" fill="none" xmlns="http://www.w3.org/2000/svg">
<path d="M120.043 77.1176C120.043 85.5294 113.219 92.3529 104.807 92.3529H1.39567C-0.133739 92.3529 -0.545733 90.2353 0.866031 89.7059C5.16015 88 7.98373 83.8823 7.98373 79.2353V33.2353C7.98373 24.8235 14.8072 18 23.219 18H104.807C113.219 18 120.043 24.8235 120.043 33.2353V77.1176Z" fill="#8B8DFD"/>
<mask id="mask0_1_60938" style="mask-type:luminance" maskUnits="userSpaceOnUse" x="30" y="39" width="121" height="75">
<path d="M30.5156 98.5278C30.5156 106.94 37.3391 113.763 45.7509 113.763H149.162C150.692 113.763 151.104 111.645 149.692 111.116C145.398 109.41 142.574 105.292 142.574 100.645V54.6454C142.574 46.2337 135.751 39.4102 127.339 39.4102H45.7509C37.3391 39.4102 30.5156 46.2337 30.5156 54.6454V98.5278Z" fill="white"/>
</mask>
<g mask="url(#mask0_1_60938)">
<path opacity="0.052632" d="M1.3998 100.113C-3.01196 100.113 -6.77678 96.8777 -7.54148 92.5836C-8.30619 88.2895 -6.01207 84.0542 -1.95325 82.4071C-0.60031 81.8777 0.223334 80.6424 0.223334 79.1718V33.1719C0.223334 20.466 10.5172 10.1719 23.2231 10.1719H104.811C117.517 10.1719 127.811 20.466 127.811 33.1719V77.113C127.811 89.8189 117.517 100.113 104.811 100.113H1.3998Z" fill="#F9F9FF"/>
<path opacity="0.1053" d="M1.3997 99.6445C-2.89441 99.6445 -6.36523 96.468 -7.07111 92.4092C-7.77699 88.3504 -5.60052 84.3504 -1.777 82.821C-0.306407 82.2327 0.693707 80.821 0.693707 79.2327V33.2328C0.693707 20.7622 10.8113 10.6445 23.2819 10.6445H104.811C117.282 10.6445 127.399 20.7622 127.399 33.2328V77.1151C127.399 89.5857 117.282 99.7033 104.811 99.7033H1.3997V99.6445Z" fill="#F3F3FF"/>
<path opacity="0.1579" d="M1.40096 99.2311C-2.71668 99.2311 -6.01086 96.1135 -6.59909 92.2311C-7.18733 88.4076 -5.24621 84.6429 -1.65798 83.2311C-0.0109172 82.5841 1.04796 80.9958 1.04796 79.2311V33.2312C1.04796 20.9959 10.989 11.0547 23.2243 11.0547H104.813C117.048 11.0547 126.989 20.9959 126.989 33.2312V77.1135C126.989 89.3488 117.048 99.2899 104.813 99.2899H1.40096V99.2311Z" fill="#EDEDFF"/>
<path opacity="0.2105" d="M1.40138 98.8214C-2.53979 98.8214 -5.59879 95.7626 -6.1282 92.1155C-6.65761 88.5273 -4.83414 84.9979 -1.4812 83.645C0.342328 82.9391 1.51886 81.1744 1.51886 79.2332V33.2332C1.51886 21.2332 11.2835 11.5273 23.2247 11.5273H104.813C116.813 11.5273 126.519 21.2921 126.519 33.2332V77.1156C126.519 89.1155 116.754 98.8214 104.813 98.8214H1.40138Z" fill="#E7E7FF"/>
<path opacity="0.2632" d="M1.40371 98.3495C-2.361 98.3495 -5.24335 95.3495 -5.65512 91.8789C-6.1257 88.5259 -4.4787 85.2318 -1.30223 83.9966C0.697766 83.2318 1.99194 81.2907 1.99194 79.173V33.173C1.99194 21.4083 11.5212 11.8789 23.2859 11.8789H104.815C116.58 11.8789 126.11 21.4083 126.11 33.173V77.1142C126.11 88.8789 116.58 98.4083 104.815 98.4083H1.40371V98.3495Z" fill="#E0E1FE"/>
<path opacity="0.3158" d="M1.40553 97.9398C-2.24153 97.9398 -4.82987 94.9986 -5.18282 91.7633C-5.53576 88.6456 -4.06523 85.5868 -1.12405 84.4104C0.993595 83.5868 2.40536 81.4692 2.40536 79.175V33.1751C2.40536 21.6457 11.7582 12.3516 23.2288 12.3516H104.817C116.347 12.3516 125.641 21.7045 125.641 33.1751V77.1162C125.641 88.6456 116.288 97.9398 104.817 97.9398H1.40553Z" fill="#DADBFE"/>
<path opacity="0.3684" d="M1.40105 97.5262C-2.06954 97.5262 -4.42271 94.6438 -4.71683 91.6438C-5.01094 88.7615 -3.71665 85.9379 -1.01077 84.8791C1.28334 83.9379 2.81275 81.7614 2.81275 79.232V33.2321C2.81275 21.9968 11.989 12.8203 23.2243 12.8203H104.813C116.048 12.8203 125.225 21.9968 125.225 33.2321V77.1144C125.225 88.3497 116.048 97.5262 104.813 97.5262H1.40105Z" fill="#D4D5FE"/>
<path opacity="0.4211" d="M1.39535 97.0579C-1.89877 97.0579 -4.0753 94.2931 -4.25177 91.4108C-4.48706 88.7637 -3.31071 86.1755 -0.840118 85.2343C1.63047 84.2343 3.27753 81.8814 3.27753 79.2343V33.2344C3.27753 22.2344 12.2187 13.2344 23.2775 13.2344H104.807C115.807 13.2344 124.807 22.1755 124.807 33.2344V77.1167C124.807 88.1167 115.866 97.1167 104.807 97.1167H1.39535V97.0579Z" fill="#CECFFE"/>
<path opacity="0.4737" d="M1.39733 96.6443C-1.72031 96.6443 -3.66166 93.9384 -3.77931 91.2913C-3.89696 88.8795 -2.95561 86.5266 -0.661492 85.6443C1.98557 84.5854 3.69139 82.056 3.69139 79.2325V33.2325C3.69139 22.4678 12.4559 13.7031 23.2206 13.7031H104.809C115.574 13.7031 124.338 22.4678 124.338 33.2325V77.1149C124.338 87.8796 115.574 96.6443 104.809 96.6443H1.39733Z" fill="#C8C9FE"/>
<path opacity="0.5263" d="M1.40412 96.2309C-1.59587 96.2309 -3.24293 93.5838 -3.30176 91.1132C-3.36058 88.9368 -2.53722 86.8191 -0.537224 86.0544C2.2863 84.9368 4.10978 82.2309 4.10978 79.2309V33.2309C4.10978 22.7015 12.698 14.1133 23.2274 14.1133H104.816C115.345 14.1133 123.933 22.7015 123.933 33.2309V77.1132C123.933 87.6427 115.345 96.2309 104.816 96.2309H1.40412Z" fill="#C2C3FE"/>
<path opacity="0.5789" d="M1.40122 95.7628C-1.42231 95.7628 -3.30477 93.1746 -2.83419 90.9393C-3.18713 89.057 -2.12819 87.1158 -0.363484 86.4099C2.57769 85.2334 4.57763 82.3511 4.57763 79.1746V33.1746C4.57763 22.8805 12.9305 14.4688 23.2834 14.4688H104.813C115.107 14.4688 123.519 22.8217 123.519 33.1746V77.1158C123.519 87.4099 115.166 95.8217 104.813 95.8217H1.40122V95.7628Z" fill="#BCBDFE"/>
<path opacity="0.6316" d="M1.3967 95.349C-1.25036 95.349 -2.95647 92.8196 -2.36824 90.8196C-2.66236 89.1725 -1.77989 87.4666 -0.191653 86.8784C2.92599 85.6431 4.9847 82.6431 4.9847 79.2313V33.2314C4.9847 23.1726 13.1612 14.9961 23.22 14.9961H104.808C114.867 14.9961 123.044 23.1726 123.044 33.2314V77.1137C123.044 87.1725 114.867 95.349 104.808 95.349H1.3967Z" fill="#B6B7FE"/>
<path opacity="0.6842" d="M1.40433 94.9398C-1.06626 94.9398 -2.59572 92.4692 -1.88984 90.6457C-2.18396 89.2339 -1.3606 87.8221 -0.00766253 87.2339C3.28645 85.9398 5.4631 82.7633 5.4631 79.1751V33.1751C5.4631 23.3516 13.463 15.3516 23.2865 15.3516H104.816C114.639 15.3516 122.639 23.3516 122.639 33.1751V77.1162C122.639 86.9398 114.639 94.9398 104.816 94.9398H1.40433Z" fill="#B0B1FE"/>
<path opacity="0.7368" d="M1.39934 94.4673C-0.953599 94.4673 -2.24795 92.0556 -1.48324 90.4674C-1.71853 89.2909 -1.07142 88.1144 0.0462282 87.6438C3.51681 86.2909 5.75222 82.9379 5.75222 79.232V33.2321C5.75222 23.6439 13.517 15.8203 23.164 15.8203H104.811C114.399 15.8203 122.223 23.585 122.223 33.2321V77.1144C122.223 86.7026 114.458 94.5262 104.811 94.5262H1.39934V94.4673Z" fill="#AAABFE"/>
<path opacity="0.7895" d="M1.40225 94.0537C-0.77422 94.0537 -1.89192 91.7008 -1.00957 90.2891C-1.18604 89.3479 -0.656573 88.4067 0.22578 88.0537C3.87284 86.642 6.2256 83.1126 6.2256 79.2302V33.2303C6.2256 23.8773 13.814 16.2891 23.1669 16.2891H104.814C114.167 16.2891 121.755 23.8773 121.755 33.2303V77.1126C121.755 86.4655 114.167 94.0537 104.814 94.0537H1.40225Z" fill="#A3A5FD"/>
<path opacity="0.8421" d="M1.39895 93.6443C-0.60105 93.6443 -1.5424 91.3502 -0.542398 90.1737C-0.660045 89.4678 -0.307047 88.7619 0.398835 88.4678C4.16354 86.9384 6.69307 83.2913 6.69307 79.2325V33.2326C6.69307 24.1149 14.1046 16.7031 23.2222 16.7031H104.811C113.928 16.7031 121.34 24.1149 121.34 33.2326V77.1149C121.34 86.2325 113.928 93.6443 104.811 93.6443H1.39895Z" fill="#9D9FFD"/>
<path opacity="0.8947" d="M1.40118 93.176C-0.422348 93.176 -1.24588 90.9407 -0.0694074 89.9995C-0.187054 89.5289 0.106833 89.0583 0.577421 88.8819C4.5186 87.2936 7.10689 83.4701 7.10689 79.2348V33.2348C7.10689 24.3525 14.3421 17.1172 23.2245 17.1172H104.813C113.695 17.1172 120.93 24.3525 120.93 33.2348V77.1172C120.93 85.9995 113.695 93.2348 104.813 93.2348H1.40118V93.176Z" fill="#9799FD"/>
<path opacity="0.9474" d="M1.39753 92.7626C-0.308352 92.7626 -0.896702 90.5861 0.397415 89.8214C0.338592 89.5861 0.456239 89.3508 0.691533 89.2332C4.80918 87.5861 7.51512 83.645 7.51512 79.1744V33.1744C7.51512 24.5273 14.5152 17.5273 23.1622 17.5273H104.809C113.456 17.5273 120.456 24.5273 120.456 33.1744V77.1155C120.456 85.7626 113.456 92.7626 104.809 92.7626H1.39753Z" fill="#9193FD"/>
<path d="M120.043 77.1137C120.043 85.5255 113.219 92.349 104.807 92.349H1.39567C-0.133739 92.349 -0.545733 90.2314 0.866031 89.702C5.16015 87.9961 7.98373 83.8784 7.98373 79.2313V33.2314C7.98373 24.8196 14.8072 17.9961 23.219 17.9961H104.807C113.219 17.9961 120.043 24.8196 120.043 33.2314V77.1137Z" fill="#8B8DFD"/>
</g>
<g opacity="0.8">
<path opacity="0.8" d="M30.5156 98.5278C30.5156 106.94 37.3391 113.763 45.7509 113.763H149.162C150.692 113.763 151.104 111.645 149.692 111.116C145.398 109.41 142.574 105.292 142.574 100.645V54.6454C142.574 46.2337 135.751 39.4102 127.339 39.4102H45.7509C37.3391 39.4102 30.5156 46.2337 30.5156 54.6454V98.5278Z" fill="url(#paint0_linear_1_60938)"/>
</g>
<path d="M120.164 62.3548H53.693C51.2224 62.3548 49.2812 60.3548 49.2812 57.943C49.2812 55.4724 51.2812 53.5312 53.693 53.5312H120.164C122.634 53.5312 124.575 55.5312 124.575 57.943C124.575 60.4136 122.575 62.3548 120.164 62.3548Z" fill="white"/>
<path d="M94.3401 78.8821H53.693C51.2224 78.8821 49.2812 76.8821 49.2812 74.4704C49.2812 71.9998 51.2812 70.0586 53.693 70.0586H94.3401C96.8107 70.0586 98.7519 72.0586 98.7519 74.4704C98.8107 76.8821 96.8107 78.8821 94.3401 78.8821Z" fill="white"/>
<path d="M149.156 113.999H45.7442C37.2148 113.999 30.2734 107.058 30.2734 98.5287V54.6464C30.2734 46.1169 37.2148 39.1758 45.7442 39.1758H127.332C135.862 39.1758 142.803 46.1169 142.803 54.6464V100.646C142.803 105.176 145.509 109.176 149.744 110.882C150.626 111.235 150.862 112.058 150.744 112.705C150.627 113.352 150.097 113.999 149.156 113.999ZM45.7442 39.7052C37.4501 39.7052 30.7442 46.4111 30.7442 54.7052V98.5875C30.7442 106.882 37.4501 113.588 45.7442 113.588H149.156C149.862 113.588 150.215 113.117 150.273 112.646C150.332 112.235 150.215 111.646 149.568 111.352C145.156 109.587 142.332 105.411 142.332 100.705V54.7052C142.332 46.4111 135.626 39.7052 127.332 39.7052H45.7442Z" fill="url(#paint1_linear_1_60938)"/>
<defs>
<linearGradient id="paint0_linear_1_60938" x1="90.5492" y1="113.772" x2="90.5492" y2="39.4447" gradientUnits="userSpaceOnUse">
<stop stop-color="#F2F8FF"/>
<stop offset="1" stop-color="#D9F0FF"/>
</linearGradient>
<linearGradient id="paint1_linear_1_60938" x1="90.5419" y1="114.009" x2="90.5419" y2="39.2087" gradientUnits="userSpaceOnUse">
<stop stop-color="#E6F1FF"/>
<stop offset="1" stop-color="#F7FBFF"/>
</linearGradient>
</defs>
</svg>
