<svg width="305" height="96" viewBox="0 0 305 96" fill="none" xmlns="http://www.w3.org/2000/svg">
<path d="M86.8203 37.0898C86.8203 32.6716 90.402 29.0898 94.8203 29.0898H210.82C215.239 29.0898 218.82 32.6716 218.82 37.0898V78.5444C218.82 82.9627 215.239 86.5444 210.82 86.5444H94.8203C90.402 86.5444 86.8203 82.9627 86.8203 78.5444L86.8203 37.0898Z" fill="#8B8DFD"/>
<g filter="url(#filter0_b_340_3971)">
<path d="M108.641 12.3611C108.641 7.41512 113.084 3.65415 117.962 4.47096L153.004 10.3387L188.047 4.47096C192.925 3.65414 197.368 7.41514 197.368 12.3611V68.7098C197.368 72.6182 194.544 75.9545 190.689 76.5999L153.004 82.9102L115.319 76.5999C111.465 75.9545 108.641 72.6182 108.641 68.7098V12.3611Z" fill="url(#paint0_linear_340_3971)" fill-opacity="0.4"/>
<path d="M152.963 10.5853L153.004 10.5922L153.046 10.5853L188.088 4.71753C192.814 3.92624 197.118 7.5697 197.118 12.3611V68.7098C197.118 72.4961 194.382 75.7281 190.648 76.3534L153.004 82.6567L115.361 76.3534C111.626 75.7281 108.891 72.4961 108.891 68.7098V12.3611C108.891 7.56969 113.195 3.92624 117.921 4.71753L152.963 10.5853Z" stroke="#FAFAFA" stroke-opacity="0.2" stroke-width="0.5"/>
</g>
<path d="M125.985 21.8184C124.388 21.8184 123.094 23.113 123.094 24.71C123.094 26.307 124.388 27.6016 125.985 27.6016H143.421C145.018 27.6016 146.312 26.307 146.312 24.71C146.312 23.113 145.018 21.8184 143.421 21.8184H125.985Z" fill="white"/>
<path d="M164.876 21.8184C163.279 21.8184 161.984 23.113 161.984 24.71C161.984 26.307 163.279 27.6016 164.876 27.6016H182.311C183.908 27.6016 185.203 26.307 185.203 24.71C185.203 23.113 183.908 21.8184 182.311 21.8184H164.876Z" fill="white"/>
<path d="M164.876 35.7012C163.279 35.7012 161.984 36.9958 161.984 38.5928C161.984 40.1898 163.279 41.4844 164.876 41.4844H182.311C183.908 41.4844 185.203 40.1898 185.203 38.5928C185.203 36.9958 183.908 35.7012 182.311 35.7012H164.876Z" fill="white"/>
<path d="M125.985 35.7012C124.388 35.7012 123.094 36.9958 123.094 38.5928C123.094 40.1898 124.388 41.4844 125.985 41.4844H143.421C145.018 41.4844 146.312 40.1898 146.312 38.5928C146.312 36.9958 145.018 35.7012 143.421 35.7012H125.985Z" fill="white"/>
<path d="M125.985 49.002C124.388 49.002 123.094 50.2966 123.094 51.8936C123.094 53.4906 124.388 54.7852 125.985 54.7852H143.421C145.018 54.7852 146.312 53.4906 146.312 51.8936C146.312 50.2966 145.018 49.002 143.421 49.002H125.985Z" fill="white"/>
<defs>
<filter id="filter0_b_340_3971" x="48.6406" y="-55.6406" width="208.727" height="198.551" filterUnits="userSpaceOnUse" color-interpolation-filters="sRGB">
<feFlood flood-opacity="0" result="BackgroundImageFix"/>
<feGaussianBlur in="BackgroundImageFix" stdDeviation="30"/>
<feComposite in2="SourceAlpha" operator="in" result="effect1_backgroundBlur_340_3971"/>
<feBlend mode="normal" in="SourceGraphic" in2="effect1_backgroundBlur_340_3971" result="shape"/>
</filter>
<linearGradient id="paint0_linear_340_3971" x1="153.044" y1="82.8852" x2="153.044" y2="2.89853" gradientUnits="userSpaceOnUse">
<stop stop-color="#D9F0FF"/>
<stop offset="1" stop-color="#F2F8FF"/>
</linearGradient>
</defs>
</svg>
