<svg width="132" height="132" viewBox="0 0 132 132" fill="none" xmlns="http://www.w3.org/2000/svg">
<path d="M68.8594 17.5589V41.2207C68.8594 42.4856 69.6039 43.5274 70.795 43.9738C71.0928 44.1226 71.3904 44.197 71.6881 44.3458C72.8048 44.8667 74.1448 44.5691 75.0382 43.7506L91.7141 27.0832C93.0541 25.7438 92.8306 23.4372 91.1928 22.3955C85.535 18.8239 79.2817 16.2196 72.5816 14.6571C70.6461 14.2106 68.8594 15.6243 68.8594 17.5589Z" fill="#8B8DFD"/>
<path d="M41.0167 47.8433C43.1756 46.2063 45.5579 44.9413 48.089 43.8996C49.2057 43.4532 50.0247 42.3371 50.0247 41.1465V17.4848C50.0247 15.5502 48.238 14.1364 46.3024 14.5828C34.9868 17.1127 24.8621 22.9166 17.0453 30.8782C15.7053 32.292 15.9288 34.5242 17.5666 35.5659L37.6667 47.9921C38.709 48.6618 40.049 48.5873 41.0167 47.8433Z" fill="#8B8DFD"/>
<path d="M88.2898 56.9972C87.3965 57.8901 87.1729 59.2295 87.694 60.3456C89.3318 64.066 90.2255 68.2329 90.2255 72.5485C90.2255 80.659 87.0986 88.0998 81.8875 93.606C81.0686 94.4989 80.8451 95.8383 81.3662 96.9544L91.4908 118.31C92.3097 120.095 94.5432 120.542 96.1065 119.351C109.953 108.488 118.887 91.5226 118.887 72.5485C118.887 60.8665 115.536 50.0029 109.73 40.8507C108.688 39.2137 106.454 38.9161 105.04 40.3299L88.2898 56.9972Z" fill="#8B8DFD"/>
<path d="M64.3203 105.064C63.7992 103.948 62.6082 103.278 61.417 103.353C60.747 103.427 60.0769 103.427 59.4069 103.427C42.359 103.427 28.5868 89.6616 28.5868 72.6222C28.5868 70.762 28.7357 68.9762 29.0335 67.1904C29.2568 65.9999 28.7359 64.7349 27.6936 64.0652L7.59352 51.6391C5.95574 50.5974 3.79654 51.4159 3.20099 53.2017C1.11653 59.3032 0 65.7767 0 72.5478C0 105.362 26.6512 132 59.4814 132C63.9481 132 68.2658 131.479 72.4347 130.586C74.2959 130.14 75.3383 128.131 74.5194 126.345L64.3203 105.064Z" fill="#8B8DFD"/>
<path opacity="0.052632" d="M58.9531 17.5599C58.9531 14.1371 60.3675 11.012 62.6009 8.70538C65.0575 6.24992 68.4074 4.76172 72.1297 4.76172C73.0974 4.76172 74.0651 4.91053 75.0329 5.13376C82.6263 6.84514 89.7732 9.89588 96.3988 14.0627C99.7488 16.1462 101.908 19.6433 102.28 23.5126C102.727 27.3818 101.387 31.251 98.6321 34.0041L82.1797 50.4483C79.8719 52.7549 76.5964 54.2431 73.3208 54.3919C73.172 54.3919 73.0975 54.3919 72.9486 54.3919C71.3853 54.3919 69.8219 54.1687 68.4074 53.6478C68.1841 53.5734 67.9608 53.499 67.7375 53.3502C67.5141 53.2758 67.3654 53.2014 67.1421 53.127C65.5043 52.4573 64.0897 51.49 62.8986 50.2995C60.5163 47.9184 59.0273 44.3468 59.0273 40.7752V17.5599H58.9531Z" fill="#F9F9FF"/>
<path opacity="0.1053" d="M59.5547 17.561C59.5547 14.2126 60.9691 11.1619 63.2024 9.0785C65.5847 6.77185 68.9347 5.35808 72.5825 5.43249C73.5503 5.43249 74.4435 5.5813 75.4113 5.80453C82.7813 7.51591 89.7795 10.4922 96.1817 14.5103C99.3829 16.5193 101.467 19.8677 101.839 23.5881C102.286 27.3085 100.946 30.9545 98.3405 33.6332L82.1859 49.7797C80.027 51.9375 76.6024 53.6489 73.5502 53.7977C73.4013 53.7977 73.3268 53.7977 73.178 53.7977C71.6891 53.8721 70.1257 53.6489 68.7113 53.128C68.4879 53.0536 68.2647 52.9792 68.0413 52.8304C67.818 52.756 67.6693 52.6816 67.4459 52.6072C65.8081 51.9375 64.4681 50.9702 63.3514 49.7797C61.1181 47.473 59.7037 43.6782 59.7037 40.4043V17.561H59.5547Z" fill="#F3F3FF"/>
<path opacity="0.1579" d="M60.0781 17.5596C60.0781 14.2857 61.567 11.3838 63.7259 9.37475C66.1081 7.29132 69.3091 5.95198 72.8824 6.02639C73.7758 6.02639 74.7437 6.1752 75.637 6.39843C82.7837 8.10981 89.6325 10.9373 95.8858 14.9554C98.9381 16.89 100.874 20.0151 101.321 23.5867C101.693 27.1583 100.502 30.6555 97.9705 33.1853L82.0394 49.1087C79.9549 51.1921 76.4558 52.9779 73.6269 53.2011C73.478 53.2011 73.4035 53.2011 73.2547 53.2011C71.7658 53.2755 70.2769 53.1267 68.8625 52.6059C68.6391 52.5315 68.4159 52.457 68.1925 52.3082C67.9692 52.2338 67.8201 52.1594 67.5968 52.085C66.0334 51.4897 64.6936 50.448 63.6513 49.2575C61.5669 47.0997 60.2268 43.0816 60.2268 39.9565V17.5596H60.0781Z" fill="#EDEDFF"/>
<path opacity="0.2105" d="M60.5938 17.5634C60.5938 14.3638 62.0826 11.5363 64.2415 9.75055C66.5493 7.81594 69.7504 6.62541 73.1749 6.77422C74.0682 6.77422 74.9616 6.92304 75.855 7.14626C82.8528 8.85765 89.4783 11.6108 95.5083 15.48C98.4117 17.3402 100.273 20.3165 100.645 23.7393C101.018 27.162 99.8262 30.436 97.444 32.8915L81.8105 48.5172C79.875 50.4518 76.3016 52.3864 73.6216 52.684C73.4727 52.684 73.3983 52.684 73.2494 52.7584C71.8349 52.9072 70.3462 52.7584 68.9317 52.1631C68.7084 52.0887 68.4851 52.0144 68.2618 51.8655C68.0385 51.7911 67.8893 51.7167 67.666 51.6423C66.1027 51.047 64.8373 50.0053 63.7951 48.8148C61.8595 46.7314 60.5938 42.5645 60.5938 39.6626V17.5634Z" fill="#E7E7FF"/>
<path opacity="0.2632" d="M61.1875 17.5621C61.1875 14.4369 62.6763 11.6838 64.8352 10.0469C67.143 8.26107 70.195 7.14492 73.5451 7.36815C74.4384 7.44255 75.2573 7.51696 76.1506 7.74019C82.9251 9.45157 89.402 12.1303 95.2831 15.9251C98.0376 17.7109 99.8243 20.5384 100.197 23.7379C100.569 26.9375 99.452 30.137 97.1442 32.4437L81.734 47.8461C79.9473 49.6319 76.2253 51.7898 73.7686 52.013C73.6197 52.013 73.5453 52.0874 73.3964 52.0874C71.9819 52.2362 70.4929 52.0874 69.1529 51.5666C68.9296 51.4921 68.7063 51.4177 68.483 51.2689C68.2596 51.1945 68.1106 51.1201 67.9617 51.0457C66.3984 50.4504 65.2072 49.3343 64.2394 48.2182C62.5272 46.2836 61.1875 41.8935 61.1875 39.1404V17.5621Z" fill="#E0E1FE"/>
<path opacity="0.3158" d="M61.7109 17.5601C61.7109 14.5094 63.1998 11.9051 65.3587 10.3425C67.6665 8.70557 70.6445 7.7383 73.8457 7.96152C74.6646 8.03593 75.5578 8.11034 76.3767 8.33356C83.0023 9.97054 89.1812 12.6492 94.988 16.2952C97.5935 17.9322 99.3056 20.6853 99.6778 23.736C100.05 26.7867 99.0079 29.8375 96.7746 31.9953L81.6624 47.1001C80.0246 48.7371 76.2279 51.0438 73.8457 51.3414C73.7712 51.3414 73.622 51.4158 73.5476 51.4158C72.2076 51.639 70.719 51.4902 69.379 50.9694C69.1556 50.895 68.932 50.8206 68.7087 50.7462C68.5598 50.6717 68.3367 50.5973 68.1878 50.5229C66.6989 49.9276 65.582 48.8115 64.6142 47.6954C63.0509 45.8352 61.7855 41.2963 61.7855 38.7664V17.5601H61.7109Z" fill="#DADBFE"/>
<path opacity="0.3684" d="M62.2344 17.563C62.2344 14.5866 63.7976 12.0568 65.8821 10.7174C68.1154 9.22926 71.0189 8.41078 74.1456 8.634C74.9645 8.70841 75.7832 8.85723 76.6021 9.00604C83.0044 10.643 89.0345 13.2473 94.6179 16.8189C97.0746 18.3815 98.7123 20.9857 99.0101 23.8877C99.3079 26.7896 98.3399 29.6171 96.2555 31.7005L81.3665 46.5821C79.8032 48.1447 75.9322 50.6001 73.7733 50.8978C73.6989 50.8978 73.5501 50.9722 73.4756 50.9722C72.1356 51.1954 70.7212 51.121 69.3812 50.6002C69.1578 50.5258 68.9343 50.4514 68.7854 50.377C68.6365 50.3025 68.4134 50.2281 68.2645 50.1537C66.7756 49.5584 65.7333 48.4423 64.8399 47.3262C63.4255 45.6148 62.2344 40.8527 62.2344 38.5461V17.563Z" fill="#D4D5FE"/>
<path opacity="0.4211" d="M62.8281 17.5629C62.8281 14.7354 64.3914 12.28 66.4759 11.015C68.7092 9.67567 71.5383 8.93157 74.5161 9.22921C75.335 9.30361 76.0792 9.45246 76.8981 9.67568C83.0771 11.3127 88.9582 13.8425 94.3927 17.2653C96.7749 18.7535 98.2639 21.2089 98.5617 23.8876C98.8595 26.5663 97.9661 29.3194 95.9561 31.254L81.3648 45.838C79.9504 47.2517 76.0049 49.9304 73.9949 50.2281C73.9204 50.2281 73.7716 50.3025 73.6972 50.3025C72.4316 50.6001 71.0172 50.5257 69.6772 50.0049C69.4539 49.9305 69.2303 49.856 69.0814 49.7816C68.9325 49.7072 68.7094 49.6328 68.5605 49.5584C67.1461 48.9631 66.1038 47.847 65.2105 46.7309C63.9449 45.0939 62.8281 40.183 62.8281 38.0251V17.5629Z" fill="#CECFFE"/>
<path opacity="0.4737" d="M63.3522 17.5629C63.3522 14.8098 64.9154 12.4287 66.9999 11.387C69.2332 10.2709 71.9133 9.6012 74.8166 9.89883C75.5611 9.97324 76.38 10.122 77.1245 10.3453C83.1545 11.9822 88.8121 14.4377 94.0232 17.7861C96.2566 19.1998 97.6712 21.5065 97.8945 24.0364C98.1923 26.5662 97.2991 29.0961 95.438 30.9563L81.0699 45.3171C79.8043 46.582 75.7098 49.4095 73.9231 49.7071C73.8487 49.7071 73.6999 49.7815 73.6254 49.7815C72.3598 50.0792 70.9455 50.0792 69.68 49.5583C69.4566 49.4839 69.3075 49.4095 69.0842 49.3351C68.9353 49.2607 68.7122 49.1863 68.5633 49.1119C67.1488 48.5166 66.1808 47.4005 65.362 46.2844C64.2453 44.7962 63.2031 39.6621 63.2031 37.7275V17.5629H63.3522Z" fill="#C8C9FE"/>
<path opacity="0.5263" d="M63.875 17.5625C63.875 14.8838 65.5131 12.6516 67.5231 11.6843C69.682 10.717 72.3618 10.1961 75.1163 10.4937C75.8607 10.5681 76.6052 10.717 77.3496 10.9402C83.1563 12.5772 88.6652 14.9582 93.7275 18.1577C95.8119 19.4971 97.1519 21.5805 97.3752 23.9616C97.673 26.3427 96.8541 28.7237 95.1419 30.4351L81.0718 44.4982C79.9552 45.6143 75.712 48.6651 74.1486 48.9627C74.0742 48.9627 73.9254 49.0371 73.8509 49.0371C72.6598 49.4091 71.2452 49.3347 69.9796 48.8883C69.7563 48.8139 69.6075 48.7394 69.3842 48.665C69.2353 48.5906 69.0118 48.5162 68.863 48.4418C67.4485 47.921 66.4062 46.8793 65.8106 45.6143C64.6195 44.4238 63.875 38.9176 63.875 37.1318V17.5625Z" fill="#C2C3FE"/>
<path opacity="0.5789" d="M64.4688 17.563C64.4688 14.9587 66.1065 12.8009 68.1165 12.0568C70.2754 11.2383 72.8064 10.7918 75.4864 11.1639C76.2309 11.2383 76.9008 11.3871 77.6453 11.6103C83.2286 13.1729 88.5889 15.5539 93.5023 18.6791C95.4378 19.8696 96.629 21.8786 96.9268 24.1109C97.1501 26.3431 96.4055 28.501 94.8421 30.1379L81.0698 43.9034C80.0276 44.9451 75.7842 48.3679 74.3698 48.4423C74.2953 48.5167 74.1465 48.5167 74.0721 48.5167C72.881 48.8888 71.5409 48.8888 70.2753 48.4423C70.052 48.3679 69.9032 48.2935 69.6799 48.2191C69.531 48.1447 69.382 48.0703 69.1586 47.9959C67.8186 47.475 66.702 46.4333 66.1808 45.1684C65.0642 44.1267 64.4688 38.3972 64.4688 36.8347V17.563Z" fill="#BCBDFE"/>
<path opacity="0.6316" d="M64.9882 17.5596C64.9882 15.0298 66.6263 12.9463 68.6363 12.3511C70.7952 11.6814 73.2516 11.3838 75.7827 11.7558C76.4527 11.8302 77.1974 12.0534 77.8674 12.2023C83.3019 13.7648 88.4386 16.0715 93.1286 19.1222C94.9153 20.2384 96.0317 22.0986 96.2551 24.182C96.4784 26.191 95.8087 28.2744 94.3198 29.7626L80.7707 43.3049C79.8773 44.1978 75.5594 47.8437 74.2938 47.9181C74.2194 47.9925 74.145 47.9925 73.9961 48.067C72.8794 48.5134 71.5395 48.5134 70.3484 48.067C70.1251 47.9925 69.9763 47.9181 69.753 47.8437C69.6041 47.7693 69.4551 47.6949 69.2317 47.6205C67.8917 47.0997 66.8496 46.0579 66.403 44.8674C65.4352 43.9745 64.9141 38.0219 64.9141 36.6825V17.5596H64.9882Z" fill="#B6B7FE"/>
<path opacity="0.6842" d="M65.5859 17.5625C65.5859 15.1071 67.2237 13.1725 69.2337 12.6516C71.3181 12.1308 73.7003 11.982 76.2314 12.4284C76.9014 12.5772 77.5716 12.726 78.2416 12.8748C83.4527 14.4374 88.3659 16.6697 92.9815 19.5716C94.6193 20.6133 95.6615 22.3247 95.8848 24.1849C96.1081 26.0451 95.4382 27.9053 94.0982 29.319L80.8471 42.5637C80.1027 43.3078 75.6361 47.177 74.5938 47.2514C74.5194 47.3258 74.4447 47.3258 74.2958 47.4002C73.1791 47.8467 71.9137 47.9211 70.7226 47.4002C70.5737 47.3258 70.3502 47.2514 70.2013 47.1769C70.0524 47.1025 69.9038 47.0281 69.7549 46.9537C68.4149 46.4329 67.4471 45.3912 67.0748 44.2006C66.2559 43.4565 65.8091 37.2807 65.8091 36.0902V17.5625H65.5859Z" fill="#B0B1FE"/>
<path opacity="0.7368" d="M66.1094 17.5631C66.1094 15.182 67.8219 13.3218 69.7575 13.0242C71.8419 12.6522 74.1494 12.5777 76.5317 13.0986C77.2017 13.2474 77.7973 13.3963 78.4673 13.5451C83.4551 15.1076 88.2196 17.2655 92.6118 20.093C94.1007 21.0603 95.0686 22.6229 95.2919 24.3342C95.5153 26.0456 94.9195 27.757 93.654 29.0219L80.6261 42.0434C79.9561 42.713 75.4896 46.731 74.5219 46.731C74.4474 46.8055 74.3728 46.8055 74.2983 46.8799C73.2561 47.4007 71.9163 47.4751 70.7996 46.9543C70.6507 46.8799 70.4273 46.8055 70.2784 46.731C70.1295 46.6566 69.9805 46.5822 69.8316 46.5078C68.5661 45.987 67.5983 44.9453 67.3006 43.7547C66.6306 43.0851 66.2584 36.7604 66.2584 35.7931V17.5631H66.1094Z" fill="#AAABFE"/>
<path opacity="0.7895" d="M66.625 17.563C66.625 15.2564 68.3372 13.545 70.2727 13.3218C72.2827 13.0985 74.5163 13.173 76.8241 13.6938C77.4197 13.8426 78.0152 13.9915 78.6852 14.2147C83.5241 15.7772 88.0651 17.8607 92.3085 20.5394C93.6485 21.4323 94.542 22.846 94.6909 24.3342C94.8398 25.8968 94.3186 27.4593 93.202 28.5754L80.4718 41.2992C79.9507 41.8201 75.3352 46.0613 74.5907 46.0613C74.5163 46.1357 74.4416 46.1357 74.3672 46.2101C73.325 46.731 72.0593 46.8798 70.9427 46.359C70.7938 46.2846 70.5707 46.2102 70.4218 46.1358C70.2729 46.0614 70.1239 45.987 69.975 45.9125C68.7095 45.3917 67.8163 44.35 67.5185 43.1594C66.9974 42.6386 66.625 36.0906 66.625 35.2722V17.563Z" fill="#A3A5FD"/>
<path opacity="0.8421" d="M67.2188 17.5606C67.2188 15.4028 68.9313 13.6914 70.8668 13.6914C72.8769 13.6914 75.0358 13.8402 77.1947 14.3611C77.7902 14.5099 78.3857 14.6587 78.9813 14.882C83.5968 16.3701 87.9892 18.4535 92.0836 21.0578C93.3492 21.8763 94.0936 23.1412 94.2425 24.4806C94.3914 25.8199 93.9445 27.2337 92.9022 28.2754L80.3956 40.776C80.0234 41.148 75.2589 45.6125 74.7378 45.6125C74.6633 45.6869 74.589 45.6869 74.5146 45.7613C73.5468 46.3566 72.2812 46.431 71.1645 45.9845C71.0157 45.9101 70.7922 45.8357 70.6433 45.7613C70.4944 45.6869 70.3454 45.6125 70.1965 45.6125C68.931 45.0916 68.1124 44.0499 67.889 42.8594C67.5168 42.4873 67.2188 35.7162 67.2188 35.121V17.5606Z" fill="#9D9FFD"/>
<path opacity="0.8947" d="M67.7422 17.5614C67.7422 15.478 69.5289 13.8411 71.4644 13.9899C73.4744 14.1387 75.4846 14.4363 77.5691 14.9572C78.1646 15.106 78.6856 15.2548 79.2811 15.478C83.6734 16.9662 87.9166 18.9752 91.7877 21.4307C92.9044 22.1003 93.5744 23.2165 93.6489 24.4814C93.7978 25.6719 93.4258 26.9369 92.458 27.8298L80.2488 40.0327C80.0254 40.2559 75.1867 44.9436 74.8145 44.9436C74.74 45.018 74.6657 45.0924 74.5913 45.0924C73.6235 45.6877 72.4321 45.8365 71.3154 45.3901C71.1665 45.3157 70.9434 45.2413 70.7945 45.1669C70.6456 45.0925 70.4966 45.018 70.3478 45.018C69.1566 44.5716 68.3378 43.4555 68.1889 42.2649C67.8911 42.0417 67.7422 35.0473 67.7422 34.6753V17.5614Z" fill="#9799FD"/>
<path opacity="0.9474" d="M68.2656 17.5617C68.2656 15.5527 70.0523 14.0646 71.9879 14.2878C73.9234 14.5854 75.9334 14.9574 77.8689 15.5527C78.3901 15.7015 78.911 15.9248 79.5065 16.0736C83.7499 17.5617 87.77 19.4963 91.4922 21.8774C92.46 22.4727 93.0557 23.44 93.1301 24.4817C93.279 25.5234 92.9069 26.5651 92.088 27.3836L80.1023 39.3633C79.9534 39.5121 75.04 44.2742 74.8911 44.2742C74.8167 44.3487 74.742 44.4231 74.6676 44.4231C73.7743 45.0927 72.5088 45.2416 71.4666 44.7951C71.3177 44.7207 71.1687 44.6463 70.9454 44.5718C70.7965 44.4974 70.6479 44.4231 70.499 44.4231C69.3079 43.9766 68.5633 42.8605 68.4888 41.67C68.3399 41.5211 68.2656 34.3779 68.2656 34.1547V17.5617Z" fill="#9193FD"/>
<path d="M68.8594 17.5629V41.2246C68.8594 42.4895 69.6039 43.5313 70.795 43.9777C71.0928 44.1265 71.3904 44.2009 71.6881 44.3498C72.8048 44.8706 74.1448 44.573 75.0382 43.7545L91.7141 27.0871C93.0541 25.7477 92.8306 23.4411 91.1928 22.3994C85.535 18.8278 79.2817 16.2235 72.5816 14.661C70.6461 14.2145 68.8594 15.6282 68.8594 17.5629Z" fill="#8B8DFD"/>
<mask id="mask0_1_60610" style="mask-type:luminance" maskUnits="userSpaceOnUse" x="59" y="0" width="73" height="73">
<path d="M62.9053 72.6241H128.268C130.278 72.6241 131.841 70.9871 131.767 68.9781C129.906 31.9229 100.202 2.15963 63.0543 0.299426C61.0443 0.225018 59.4062 1.7876 59.4062 3.79661V69.1269C59.4062 71.0615 60.9697 72.6241 62.9053 72.6241Z" fill="white"/>
</mask>
<g mask="url(#mask0_1_60610)">
<path opacity="0.052632" d="M81.3691 50.0771L97.8215 33.633C100.204 31.2519 103.703 29.7637 107.053 29.6893C111.519 29.6149 115.688 31.8471 118.071 35.6419C125.069 46.6543 128.791 59.4525 128.791 72.6228C128.791 94.0523 119.038 113.919 102.214 127.164C99.9804 128.95 97.1517 129.917 94.2483 129.917C89.335 129.917 84.7193 127.015 82.6349 122.551L74.595 105.511C74.595 105.437 73.4038 102.981 73.4783 102.907L72.6593 100.898C70.6493 95.9125 71.5426 89.9599 75.1904 85.793C78.4659 81.9982 80.4015 77.3105 80.4015 72.2507C80.4015 69.4976 79.8058 66.8933 78.7636 64.4379C77.7958 62.2056 77.4981 59.899 77.7214 57.6668C78.0192 54.8393 79.2847 52.1606 81.3691 50.0771Z" fill="#F9F9FF"/>
<path opacity="0.1053" d="M81.7417 50.4494L97.8963 34.3029C100.13 32.0706 103.703 30.4337 106.904 30.2849C111.222 30.0616 115.242 32.2938 117.55 35.9398C124.473 46.8778 128.196 59.5272 128.196 72.623C128.196 93.9781 118.517 113.622 101.842 126.718C99.6829 128.429 97.0031 129.322 94.2486 129.322C89.4841 129.322 85.1664 126.569 83.1564 122.253L74.9675 104.991C74.893 104.842 73.8505 102.461 73.9249 102.386C73.9994 102.312 73.1806 100.377 73.255 100.303C71.5428 95.3175 72.5107 89.2904 76.0096 84.9748C79.0619 81.2544 80.923 76.7155 80.8485 71.8789C80.8485 69.2746 80.2529 66.6704 79.2851 64.2893C78.3918 62.1315 78.0196 59.8992 78.243 57.7414C78.5407 55.0627 79.7316 52.4584 81.7417 50.4494Z" fill="#F3F3FF"/>
<path opacity="0.1579" d="M82.1105 50.8213L98.042 34.8979C100.201 32.7401 103.849 31.0287 106.826 30.8055C110.921 30.5078 114.866 32.5913 117.1 36.1629C123.948 47.0264 127.671 59.6014 127.671 72.5484C127.671 93.7547 118.067 113.25 101.541 126.197C99.4562 127.834 96.8508 128.727 94.2452 128.727C89.7041 128.727 85.5349 126.122 83.5994 122.03L75.3363 104.544C75.2618 104.395 74.2938 102.014 74.3683 101.865C74.4427 101.791 73.7729 99.9306 73.8474 99.7817C72.5074 94.722 73.4751 88.6205 76.8252 84.3049C79.6541 80.6589 81.4405 76.2688 81.366 71.5811C81.366 69.0513 80.8452 66.5958 79.803 64.2147C78.9096 62.1313 78.6115 59.9734 78.7604 57.89C78.9838 55.2857 80.1749 52.8303 82.1105 50.8213Z" fill="#EDEDFF"/>
<path opacity="0.2105" d="M82.4871 51.1923L98.1205 35.5666C100.131 33.5576 103.853 31.6974 106.682 31.3998C110.627 30.9533 114.424 33.0367 116.658 36.4595C123.432 47.1743 127.08 59.6748 127.08 72.5474C127.08 93.6049 117.476 112.951 101.098 125.824C99.0883 127.386 96.6317 128.205 94.1751 128.205C89.8573 128.205 85.9116 125.675 84.0505 121.806L75.6384 104.096C75.5639 103.873 74.5961 101.567 74.8194 101.343C74.9683 101.195 74.2983 99.4087 74.4472 99.2599C73.4049 94.2001 74.3726 88.0243 77.6481 83.5598C80.2537 79.9882 81.9661 75.747 81.8917 71.2825C81.8172 68.827 81.3705 66.446 80.4028 64.2137C79.5839 62.2047 79.2117 60.1213 79.3606 58.1122C79.5095 55.5824 80.6259 53.1269 82.4871 51.1923Z" fill="#E7E7FF"/>
<path opacity="0.2632" d="M82.854 51.6378L98.1897 36.3098C100.051 34.4496 103.922 32.4406 106.528 32.0685C110.25 31.5477 114.047 33.4823 116.131 36.8307C122.831 47.471 126.479 59.8227 126.479 72.6209C126.479 93.5296 116.95 112.727 100.721 125.451C98.8596 126.939 96.4774 127.757 94.0952 127.757C90.0007 127.757 86.2041 125.376 84.4919 121.656L76.0052 103.649C75.8564 103.351 75.0375 101.119 75.2608 100.896C75.4097 100.747 74.8884 99.0358 75.0372 98.8126C74.3672 93.7528 75.3351 87.5025 78.4618 82.8892C80.844 79.392 82.482 75.374 82.3331 70.9839C82.2586 68.6029 81.8119 66.2963 80.8442 64.1384C80.0253 62.2038 79.7276 60.1948 79.802 58.2602C80.0253 55.8047 81.0673 53.4236 82.854 51.6378Z" fill="#E0E1FE"/>
<path opacity="0.3158" d="M83.3061 52.0097L98.4186 36.9048C100.131 35.1935 104.076 33.0356 106.533 32.5892C110.106 31.9195 113.754 33.8541 115.764 37.0537C122.464 47.6196 126.037 59.8225 126.037 72.5463C126.037 93.3062 116.509 112.355 100.503 124.93C98.7163 126.343 96.483 127.087 94.2497 127.087C90.3785 127.087 86.8049 124.855 85.0927 121.284L76.4574 103.054C76.3085 102.682 75.5638 100.524 75.7871 100.226C76.0104 100.003 75.5641 98.3659 75.7129 98.1427C75.3407 93.0829 76.3829 86.7583 79.3607 81.9961C81.5196 78.5734 83.0828 74.7042 82.9339 70.4629C82.8594 68.1562 82.4128 65.9984 81.5195 63.915C80.7751 62.0548 80.4029 60.1202 80.4773 58.26C80.5518 56.0277 81.5194 53.7211 83.3061 52.0097Z" fill="#DADBFE"/>
<path opacity="0.3684" d="M83.6757 52.3849L98.4902 37.5778C100.054 36.0152 104.148 33.7085 106.381 33.1877C109.731 32.4436 113.305 34.2294 115.24 37.3545C121.866 47.7717 125.439 59.9002 125.439 72.5495C125.439 93.1606 115.985 112.06 100.128 124.486C98.4159 125.826 96.3314 126.57 94.1725 126.57C90.5247 126.57 87.1002 124.412 85.5368 121.138L76.827 102.685C76.6037 102.238 75.9335 100.155 76.2312 99.8573C76.4546 99.6341 76.0824 98.0715 76.3058 97.7739C76.3058 92.7141 77.3481 86.3894 80.177 81.4041C82.1126 78.0557 83.6014 74.3353 83.4525 70.3173C83.3781 68.1595 82.9315 66.0016 82.0382 63.9926C81.2937 62.2068 80.9956 60.3466 80.9956 58.5608C81.0701 56.3286 81.9635 54.0963 83.6757 52.3849Z" fill="#D4D5FE"/>
<path opacity="0.4211" d="M84.0437 52.7553L98.5604 38.2457C100.049 36.7575 104.218 34.3765 106.228 33.8556C109.43 32.9627 112.928 34.7485 114.79 37.7249C121.341 48.0676 124.914 60.0473 124.914 72.6222C124.914 93.1588 115.534 111.835 99.8261 124.113C98.1883 125.378 96.2528 126.047 94.2428 126.047C90.8183 126.047 87.6172 124.038 86.1283 120.913L77.2691 102.237C77.0458 101.79 76.4505 99.7068 76.8227 99.3347C77.1205 99.0371 76.8226 97.549 77.0459 97.2513C77.4181 92.1916 78.3859 85.7924 81.1404 80.6583C82.8526 77.3843 84.267 73.8128 84.0437 69.9436C83.9692 67.8601 83.5227 65.7767 82.7038 63.8421C82.0338 62.1307 81.6616 60.3449 81.6616 58.6335C81.5872 56.5501 82.4059 54.3922 84.0437 52.7553Z" fill="#CECFFE"/>
<path opacity="0.4737" d="M84.4179 53.1283L98.7115 38.8419C100.051 37.5026 104.295 34.8983 106.081 34.3775C109.059 33.4102 112.484 35.1215 114.27 37.949C120.747 48.1429 124.32 60.1226 124.32 72.5488C124.32 92.9366 114.94 111.464 99.3814 123.667C97.8925 124.858 96.0313 125.453 94.0958 125.453C90.8946 125.453 87.8425 123.593 86.4281 120.616L77.4947 101.642C77.2714 101.121 76.7502 99.1125 77.1225 98.7404C77.4202 98.4428 77.1969 97.029 77.4947 96.657C78.1647 91.5972 79.2068 85.1237 81.8123 79.9152C83.3757 76.7156 84.6413 73.2928 84.4179 69.6469C84.3435 67.6378 83.897 65.7032 83.1526 63.843C82.4826 62.2061 82.1845 60.4947 82.1101 58.8577C82.1101 56.7743 82.8546 54.6908 84.4179 53.1283Z" fill="#C8C9FE"/>
<path opacity="0.5263" d="M84.7927 53.5751L98.7886 39.5864C99.9797 38.3959 104.372 35.6428 105.935 35.0475C108.764 34.0058 112.039 35.5684 113.752 38.3215C120.154 48.441 123.728 60.2719 123.728 72.698C123.728 92.937 114.422 111.316 99.0118 123.37C97.5973 124.486 95.885 125.081 94.0983 125.081C91.0461 125.081 88.2916 123.37 86.9516 120.542L77.8695 101.345C77.5717 100.75 77.1251 98.8897 77.5718 98.3688C77.944 97.9968 77.7949 96.6574 78.0927 96.2853C79.1349 91.1512 80.1772 84.7521 82.6339 79.3203C83.9739 76.2696 85.1651 72.9956 84.9418 69.424C84.7929 67.4894 84.4205 65.6292 83.6761 63.8434C83.0805 62.2809 82.7083 60.6439 82.6339 59.0813C82.6339 56.9979 83.3038 55.0633 84.7927 53.5751Z" fill="#C2C3FE"/>
<path opacity="0.5789" d="M85.2363 53.9444L99.0086 40.1789C100.051 39.1372 104.592 36.1609 105.932 35.5656C108.537 34.3751 111.813 35.9376 113.451 38.5419C119.779 48.587 123.278 60.2691 123.278 72.6208C123.278 92.711 113.972 110.941 98.7854 122.846C97.4454 123.888 95.8075 124.409 94.1697 124.409C91.3408 124.409 88.7352 122.772 87.4697 120.168L78.3131 100.747C78.0153 100.077 77.6429 98.2916 78.0895 97.7707C78.4618 97.3987 78.3873 96.0593 78.7595 95.6873C80.0995 90.5531 81.2909 84.0797 83.5242 78.4991C84.7154 75.5227 85.6829 72.3976 85.4595 69.0492C85.3106 67.189 84.9387 65.4032 84.2687 63.7663C83.6731 62.2781 83.3751 60.7155 83.2262 59.2274C83.0773 57.2927 83.8219 55.3582 85.2363 53.9444Z" fill="#BCBDFE"/>
<path opacity="0.6316" d="M85.6116 54.318L99.0862 40.8501C100.054 39.8828 104.67 36.7577 105.786 36.1624C108.169 34.8975 111.37 36.3113 112.933 38.8412C119.186 48.7374 122.685 60.3451 122.685 72.6224C122.685 92.5638 113.454 110.645 98.4163 122.401C97.2252 123.369 95.6617 123.89 94.1728 123.89C91.5672 123.89 89.1107 122.401 87.994 120.02L78.6884 100.377C78.3906 99.7069 78.0183 97.9211 78.6139 97.3259C79.0605 96.8794 79.0606 95.6889 79.4328 95.168C81.1451 90.0339 82.3359 83.5604 84.3459 77.7566C85.3881 74.8547 86.2072 71.8783 85.9839 68.6788C85.835 66.9674 85.4627 65.256 84.7927 63.619C84.2715 62.2053 83.8994 60.7171 83.7505 59.3034C83.6016 57.5176 84.2716 55.6574 85.6116 54.318Z" fill="#B6B7FE"/>
<path opacity="0.6842" d="M85.9826 54.6904L99.1595 41.5202C99.9783 40.7017 104.519 36.758 105.636 36.758C108.018 35.7907 110.922 36.758 112.41 39.1391C118.589 48.961 122.088 60.4198 122.088 72.6227C122.088 92.4153 112.932 110.348 98.0428 122.03C96.9261 122.923 95.5114 123.369 94.097 123.369C91.7147 123.369 89.4813 122.03 88.4391 119.797L78.9848 99.8561C78.6126 99.112 78.3893 97.4006 78.9848 96.731C79.4315 96.2845 79.5802 95.094 79.9525 94.5731C81.9625 89.439 83.3024 82.9654 85.0891 76.9384C85.908 74.1853 86.6526 71.2834 86.4293 68.3071C86.2804 66.6701 85.9082 65.0331 85.3126 63.4705C84.7915 62.1312 84.4938 60.7174 84.2705 59.3781C84.1216 57.7411 84.717 55.9553 85.9826 54.6904Z" fill="#B0B1FE"/>
<path opacity="0.7368" d="M86.3512 55.0604L99.3045 42.1134C99.9745 41.4437 104.664 37.2768 105.558 37.2768C107.791 36.2351 110.546 37.128 111.96 39.3603C118.065 49.0333 121.563 60.4922 121.563 72.5463C121.563 92.2644 112.407 109.974 97.7411 121.507C96.6989 122.325 95.4335 122.772 94.1679 122.772C92.009 122.772 89.9245 121.507 88.9567 119.498L79.4279 99.3332C79.0557 98.5147 78.9065 96.8777 79.5021 96.208C79.9488 95.6872 80.1721 94.6455 80.6188 94.0502C83.001 88.916 84.4156 82.4426 85.979 76.2667C86.649 73.588 87.2444 70.8349 86.9466 68.0074C86.7977 66.4448 86.4255 64.8822 85.8299 63.4685C85.3832 62.2036 85.0111 60.8642 84.7878 59.5993C84.6389 57.9623 85.1601 56.3253 86.3512 55.0604Z" fill="#AAABFE"/>
<path opacity="0.7895" d="M86.729 55.5087L99.3847 42.8593C99.9058 42.3385 104.67 38.0228 105.415 38.0228C107.499 36.9067 110.179 37.6508 111.519 39.8086C117.624 49.4073 121.048 60.7173 121.048 72.697C121.048 92.2663 111.966 109.827 97.3745 121.211C96.4067 121.955 95.2902 122.327 94.1735 122.327C92.238 122.327 90.377 121.211 89.4837 119.351L79.8058 98.963C79.3591 98.0701 79.2845 96.5076 79.9545 95.7635C80.4756 95.2426 80.7735 94.2009 81.2202 93.6057C83.9002 88.4715 85.4636 81.9236 86.8036 75.5989C87.3247 73.069 87.7713 70.4647 87.4735 67.786C87.3246 66.2979 86.9525 64.8841 86.4313 63.4704C85.9847 62.2799 85.6125 61.0149 85.3892 59.8244C85.1658 58.2618 85.6124 56.6248 86.729 55.5087Z" fill="#A3A5FD"/>
<path opacity="0.8421" d="M87.1736 55.8787L99.5315 43.527C99.9038 43.155 104.817 38.6161 105.338 38.6161C107.199 37.4255 109.805 38.0952 111.071 40.0298C117.101 49.5541 120.525 60.7153 120.525 72.6206C120.525 92.0411 111.443 109.453 97.0746 120.688C96.2558 121.358 95.2136 121.655 94.1714 121.655C92.4591 121.655 90.7468 120.688 90.0024 118.977L80.25 98.3658C79.8034 97.3985 79.8036 95.9103 80.5481 95.1662C81.0692 94.5709 81.4414 93.6781 81.9625 93.0084C85.0147 87.7998 86.7268 81.3263 87.769 74.7784C88.1413 72.3229 88.439 69.8675 88.1413 67.3376C87.9179 65.9238 87.6203 64.5845 87.1736 63.3195C86.727 62.2034 86.4292 61.0129 86.1315 59.8968C85.6848 58.483 86.0569 56.9205 87.1736 55.8787Z" fill="#9D9FFD"/>
<path opacity="0.8947" d="M87.5437 56.251L99.6781 44.1224C99.9759 43.8248 104.889 39.1371 105.261 39.1371C106.974 37.9466 109.431 38.393 110.622 40.2532C116.577 49.6286 120.002 60.7155 120.002 72.5463C120.002 91.818 110.994 109.081 96.7748 120.167C96.0304 120.763 95.1371 121.06 94.2438 121.06C92.6804 121.06 91.266 120.167 90.5215 118.754L80.6201 97.8451C80.1735 96.8778 80.2479 95.3896 80.9924 94.5711C81.5879 93.9758 82.0347 93.083 82.5558 92.4133C85.9058 87.2047 87.8414 80.7312 88.5859 73.9601C88.8092 71.6534 88.9581 69.2724 88.5859 66.9657C88.3625 65.7008 88.0649 64.3614 87.6182 63.1709C87.246 62.1292 86.8735 61.0131 86.5757 59.9714C86.2035 58.7064 86.5015 57.2927 87.5437 56.251Z" fill="#9799FD"/>
<path opacity="0.9474" d="M87.9151 56.6262L99.7517 44.7954C99.9006 44.6466 104.889 39.7356 105.112 39.7356C106.675 38.4707 109.057 38.8427 110.174 40.5541C116.055 49.8551 119.405 60.7931 119.405 72.5496C119.405 91.6725 110.472 108.786 96.4017 119.799C95.7317 120.32 94.9872 120.543 94.1684 120.543C92.8283 120.543 91.5629 119.799 90.9674 118.534L80.9915 97.4018C80.4703 96.3601 80.6193 94.9464 81.4382 94.1279C82.0338 93.4582 82.5551 92.6397 83.1507 91.9701C86.8729 86.7615 89.0317 80.288 89.4039 73.2937C89.5528 71.0614 89.4785 68.8292 89.1062 66.6713C88.8829 65.4808 88.585 64.2903 88.2128 63.0997C87.8405 62.1324 87.5428 61.0907 87.1706 60.1234C86.6495 59.0073 86.9473 57.5935 87.9151 56.6262Z" fill="#9193FD"/>
<path d="M88.2898 56.9972C87.3965 57.8901 87.1729 59.2295 87.694 60.3456C89.3318 64.066 90.2255 68.2329 90.2255 72.5485C90.2255 80.659 87.0986 88.0998 81.8875 93.606C81.0686 94.4989 80.8451 95.8383 81.3662 96.9544L91.4908 118.31C92.3097 120.095 94.5432 120.542 96.1065 119.351C109.953 108.488 118.887 91.5226 118.887 72.5485C118.887 60.8665 115.536 50.0029 109.73 40.8507C108.688 39.2137 106.454 38.9161 105.04 40.3299L88.2898 56.9972Z" fill="#8B8DFD"/>
</g>
<g opacity="0.8">
<path opacity="0.8" d="M62.9053 72.6241H128.268C130.278 72.6241 131.841 70.9871 131.767 68.9781C129.906 31.9229 100.202 2.15963 63.0543 0.299426C61.0443 0.225018 59.4062 1.7876 59.4062 3.79661V69.1269C59.4062 71.0615 60.9697 72.6241 62.9053 72.6241Z" fill="url(#paint0_linear_1_60610)"/>
</g>
<path d="M128.199 72.9199H62.8358C60.7514 72.9199 59.0391 71.2085 59.0391 69.1251V3.79479C59.0391 2.75308 59.4858 1.78577 60.2303 1.04169C60.9747 0.297605 61.9426 0 62.9849 0C81.0005 0.892897 97.9737 8.40811 110.778 21.2063C123.583 34.0045 131.102 50.9695 131.995 68.9763C132.07 70.018 131.697 70.9853 130.953 71.7293C130.283 72.4734 129.241 72.9199 128.199 72.9199ZM62.8358 0.669645C62.0169 0.669645 61.2726 0.967287 60.677 1.56255C60.007 2.15782 59.7094 2.97633 59.7094 3.86923V69.1995C59.7094 70.9853 61.1237 72.399 62.9103 72.399H128.273C129.166 72.399 129.985 72.027 130.581 71.4317C131.176 70.8365 131.474 70.018 131.474 69.1251C129.613 31.9954 100.207 2.60428 63.0594 0.744081C62.9849 0.669673 62.9103 0.669645 62.8358 0.669645Z" fill="url(#paint1_linear_1_60610)"/>
<defs>
<linearGradient id="paint0_linear_1_60610" x1="95.5574" y1="72.6116" x2="95.5574" y2="0.337894" gradientUnits="userSpaceOnUse">
<stop stop-color="#F2F8FF"/>
<stop offset="1" stop-color="#D9F0FF"/>
</linearGradient>
<linearGradient id="paint1_linear_1_60610" x1="95.5623" y1="72.9095" x2="95.5623" y2="0.0371285" gradientUnits="userSpaceOnUse">
<stop stop-color="#E6F1FF"/>
<stop offset="1" stop-color="#F7FBFF"/>
</linearGradient>
</defs>
</svg>
