<svg width="142" height="132" viewBox="0 0 142 132" fill="none" xmlns="http://www.w3.org/2000/svg">
<path d="M135.638 132.001C139.521 132.001 142.432 128.59 141.947 124.789C137.483 89.3126 107.395 61.9258 70.9994 61.9258C34.5064 61.9258 4.51607 89.3126 0.051499 124.789C-0.43378 128.59 2.57495 132.001 6.36013 132.001H135.638Z" fill="#8B8DFD"/>
<mask id="mask0_1_61112" style="mask-type:luminance" maskUnits="userSpaceOnUse" x="34" y="0" width="76" height="76">
<path d="M108.943 30.8349C112.923 51.3019 99.723 71.0867 79.3413 75.0826C59.0566 79.0786 39.2573 65.8238 35.278 45.3568C31.2987 24.8898 44.4983 5.10502 64.88 1.10909C85.2618 -2.88685 104.964 10.368 108.943 30.8349Z" fill="white"/>
</mask>
<g mask="url(#mask0_1_61112)">
<path opacity="0.01" d="M14.7946 69.8207C29.8383 56.4685 49.6378 48.4766 70.9901 48.4766C92.3424 48.4766 112.045 56.4685 127.185 69.8207C134.756 76.4481 141.064 84.5375 145.917 93.5039C150.77 102.47 153.973 112.509 155.332 123.132C155.429 124.107 155.526 125.082 155.526 125.959C155.429 130.637 153.682 135.218 150.576 138.824C146.791 143.112 141.258 145.549 135.629 145.549H71.087H6.54489C0.915646 145.549 -4.61644 143.112 -8.40162 138.824C-11.6045 135.218 -13.3516 130.637 -13.3516 125.959C-13.3516 124.984 -13.3516 124.107 -13.1575 123.132C-11.7987 112.509 -8.59568 102.47 -3.74289 93.5039C0.915789 84.5375 7.22428 76.5456 14.7946 69.8207Z" fill="#FEFEFF"/>
<path opacity="0.017094" d="M14.8949 69.9183C29.9386 56.5661 49.641 48.5742 70.9933 48.5742C92.3456 48.5742 112.048 56.5661 127.091 69.9183C134.662 76.5457 140.97 84.5376 145.823 93.6016C150.676 102.568 153.879 112.509 155.238 123.133C155.335 124.107 155.432 125.082 155.432 125.959C155.335 130.637 153.588 135.218 150.385 138.726C146.6 142.917 141.067 145.354 135.438 145.354H70.9933H6.54805C0.91881 145.354 -4.61328 142.917 -8.39846 138.726C-11.5042 135.12 -13.3483 130.637 -13.4453 125.861C-13.4453 124.887 -13.4454 124.01 -13.2512 123.035C-11.8925 112.412 -8.68967 102.471 -3.83688 93.5041C1.01591 84.5376 7.32459 76.5457 14.8949 69.9183Z" fill="#FDFDFF"/>
<path opacity="0.025641" d="M14.8905 70.016C29.9342 56.6638 49.6365 48.6719 70.8917 48.6719C92.244 48.6719 111.849 56.6638 126.893 70.016C134.366 76.6434 140.772 84.6353 145.528 93.6018C150.283 102.568 153.583 112.509 154.942 123.133C155.039 124.107 155.136 125.082 155.136 125.959C155.039 130.637 153.292 135.218 150.089 138.727C146.401 142.917 140.772 145.354 135.143 145.354H70.7946H6.44672C0.914541 145.354 -4.71484 142.917 -8.50002 138.727C-11.6058 135.218 -13.4498 130.637 -13.5469 125.959C-13.5469 124.984 -13.5469 124.107 -13.3528 123.133C-11.994 112.509 -8.79123 102.568 -3.93844 93.6018C1.10846 84.6353 7.41724 76.6434 14.8905 70.016Z" fill="#FCFCFF"/>
<path opacity="0.034188" d="M14.9931 70.1139C30.0368 56.859 49.6421 48.8672 70.8974 48.8672C92.1526 48.8672 111.855 56.859 126.802 70.1139C134.275 76.7413 140.681 84.7331 145.436 93.6996C150.192 102.666 153.492 112.51 154.851 123.133C154.948 124.108 155.045 124.985 155.045 125.959C154.948 130.638 153.201 135.121 149.998 138.63C146.31 142.723 140.584 145.16 135.051 145.16H70.8974H6.74336C1.21118 145.16 -4.41796 142.723 -8.20314 138.63C-11.3089 135.121 -13.1529 130.638 -13.25 125.862C-13.25 124.887 -13.25 124.01 -13.0559 123.036C-11.6972 112.51 -8.49436 102.569 -3.64157 93.6022C1.21123 84.7332 7.51981 76.7413 14.9931 70.1139Z" fill="#FBFBFF"/>
<path opacity="0.042735" d="M15.0849 70.2116C30.0315 56.9568 49.734 48.9648 70.9892 48.9648C92.2444 48.9648 111.85 56.9568 126.893 70.2116C134.367 76.839 140.675 84.8308 145.528 93.7973C150.284 102.764 153.584 112.607 154.845 123.133C154.942 124.108 155.039 124.985 155.039 125.96C154.942 130.638 153.098 135.121 149.993 138.63C146.304 142.723 140.578 145.16 135.143 145.16H71.0861H7.02926C1.59413 145.16 -4.22927 142.723 -7.82033 138.63C-10.9261 135.121 -12.7701 130.638 -12.8672 125.96C-12.8672 125.083 -12.8672 124.108 -12.6731 123.133C-11.3143 112.607 -8.1114 102.666 -3.35567 93.7973C1.30301 84.7333 7.61164 76.839 15.0849 70.2116Z" fill="#FAFAFF"/>
<path opacity="0.051282" d="M15.1865 70.3092C30.1331 57.0544 49.7384 49.0625 70.9936 49.0625C92.2488 49.0625 111.854 57.0544 126.801 70.3092C134.274 76.9366 140.583 84.9284 145.435 93.7974C150.191 102.666 153.394 112.608 154.753 123.133C154.85 124.108 154.947 124.985 154.947 125.96C154.85 130.638 153.006 135.121 149.9 138.532C146.212 142.528 140.486 144.965 135.05 144.965H71.0905H7.13082C1.69569 144.965 -4.1277 142.528 -7.71877 138.532C-10.8246 135.024 -12.7656 130.541 -12.7656 125.862C-12.7656 124.985 -12.7657 124.011 -12.5716 123.036C-11.2128 112.51 -8.00984 102.667 -3.25411 93.7C1.30752 84.831 7.71321 76.9366 15.1865 70.3092Z" fill="#F9F9FF"/>
<path opacity="0.059829" d="M15.1821 70.4029C30.1287 57.1481 49.7339 49.1562 70.8921 49.1562C92.0502 49.1562 111.655 57.1481 126.602 70.4029C134.075 77.0303 140.384 84.9248 145.14 93.8913C149.896 102.76 153.098 112.604 154.457 123.13C154.554 124.104 154.651 124.982 154.651 125.956C154.554 130.634 152.71 135.118 149.604 138.529C146.013 142.525 140.093 144.961 134.755 144.961H70.8921H7.02926C1.69119 144.961 -4.22927 142.525 -7.82033 138.529C-10.9261 135.118 -12.8672 130.634 -12.8672 125.956C-12.8672 125.079 -12.8672 124.104 -12.6731 123.227C-11.3143 112.701 -8.1114 102.858 -3.35567 93.9887C1.40007 84.9247 7.80585 76.9329 15.1821 70.4029Z" fill="#F8F8FF"/>
<path opacity="0.068376" d="M15.2834 70.407C30.23 57.1522 49.7383 49.2578 70.8965 49.2578C92.0546 49.2578 111.66 57.2496 126.509 70.407C133.983 77.0344 140.291 84.9288 145.047 93.8953C149.803 102.764 153.006 112.608 154.364 123.036C154.462 124.011 154.559 124.888 154.559 125.863C154.559 130.541 152.617 134.927 149.512 138.338C145.921 142.236 140 144.673 134.662 144.673H70.8965H7.13082C1.79275 144.673 -4.1277 142.334 -7.71877 138.338C-10.8246 134.927 -12.7656 130.444 -12.7656 125.765C-12.7656 124.888 -12.7657 123.914 -12.5716 123.036C-11.2128 112.511 -8.00984 102.764 -3.25411 93.8953C1.50163 85.0263 7.81012 77.0344 15.2834 70.407Z" fill="#F7F7FF"/>
<path opacity="0.076923" d="M15.3818 70.5008C30.3284 57.3434 49.8367 49.3516 70.9949 49.3516C92.153 49.3516 111.661 57.3434 126.608 70.5008C134.081 77.1282 140.39 85.0226 145.145 93.8916C149.901 102.761 153.104 112.604 154.463 123.033C154.56 124.007 154.657 124.884 154.657 125.859C154.657 130.537 152.716 134.923 149.61 138.334C146.019 142.233 140.099 144.572 134.76 144.572H71.0918H7.32614C2.08512 144.572 -3.93239 142.233 -7.52346 138.334C-10.6292 134.923 -12.5703 130.537 -12.5703 125.859C-12.5703 124.982 -12.4733 124.007 -12.3762 123.13C-11.0175 112.702 -7.81453 102.858 -3.05879 93.9891C1.59989 85.0226 7.90852 77.1282 15.3818 70.5008Z" fill="#F6F6FF"/>
<path opacity="0.08547" d="M15.4766 70.5984C30.3261 57.4411 49.8345 49.4492 70.9927 49.4492C92.1509 49.4492 111.562 57.3436 126.509 70.5984C133.982 77.2259 140.193 85.1203 144.949 93.9893C149.705 102.858 152.908 112.604 154.266 123.033C154.363 124.008 154.461 124.885 154.461 125.859C154.461 130.537 152.519 134.923 149.414 138.237C145.823 142.135 139.805 144.475 134.564 144.475H71.0896H7.6152C2.37418 144.475 -3.64333 142.135 -7.23439 138.237C-10.3402 134.826 -12.2812 130.44 -12.2812 125.762C-12.2812 124.885 -12.1842 123.91 -12.0872 123.033C-10.7284 112.604 -7.52547 102.761 -2.76973 93.9893C1.69484 85.1203 8.00328 77.2259 15.4766 70.5984Z" fill="#F5F5FF"/>
<path opacity="0.094017" d="M15.5725 70.6963C30.422 57.539 49.9303 49.6445 70.9915 49.6445C92.0526 49.6445 111.561 57.539 126.41 70.6963C133.883 77.3237 140.095 85.2181 144.851 94.0872C149.607 102.859 152.809 112.702 154.071 123.131C154.168 124.105 154.265 124.983 154.265 125.957C154.265 130.635 152.324 134.924 149.121 138.335C145.627 142.136 139.513 144.475 134.272 144.475H70.8943H7.5168C2.37284 144.475 -3.74173 142.136 -7.33279 138.335C-10.4386 135.021 -12.3795 130.538 -12.4766 125.957C-12.4766 125.08 -12.3796 124.105 -12.2825 123.228C-10.9237 112.8 -7.72087 103.054 -3.06219 94.1846C1.7906 85.2181 8.09918 77.3237 15.5725 70.6963Z" fill="#F4F4FF"/>
<path opacity="0.1026" d="M15.5737 70.7939C30.4233 57.6366 49.8344 49.7422 70.8956 49.7422C91.9567 49.7422 111.368 57.6366 126.217 70.7939C133.594 77.3239 139.902 85.2183 144.658 94.0873C149.414 102.859 152.617 112.605 153.878 123.033C153.975 124.008 154.072 124.885 154.072 125.86C154.072 130.538 152.034 134.826 148.928 138.14C145.434 141.941 139.223 144.28 134.176 144.28H70.8956H7.6152C2.47124 144.28 -3.64323 141.941 -7.13724 138.14C-10.243 134.826 -12.2812 130.441 -12.2812 125.762C-12.2812 124.885 -12.1842 123.911 -12.0872 123.033C-10.7284 112.605 -7.52556 102.859 -2.86688 94.0873C1.88886 85.2183 8.19749 77.4213 15.5737 70.7939Z" fill="#F3F3FF"/>
<path opacity="0.1111" d="M15.6677 70.8916C30.5173 57.7342 49.9283 49.8398 70.8924 49.8398C91.9535 49.8398 111.365 57.7342 126.117 70.8916C133.493 77.4215 139.802 85.316 144.558 94.185C149.216 102.957 152.419 112.703 153.778 123.034C153.875 124.008 153.972 124.885 153.972 125.86C153.972 130.441 151.934 134.827 148.828 138.14C145.334 141.844 139.123 144.183 134.076 144.183H70.8924H7.70895C2.66204 144.183 -3.54948 141.844 -7.04349 138.14C-10.1493 134.827 -12.1875 130.441 -12.1875 125.86C-12.1875 124.983 -12.0903 124.008 -11.9932 123.131C-10.6344 112.8 -7.43157 103.054 -2.77289 94.2824C1.98284 85.3159 8.29147 77.4215 15.6677 70.8916Z" fill="#F2F2FF"/>
<path opacity="0.1197" d="M15.7656 70.9893C30.5181 57.8319 49.9294 49.9375 70.9906 49.9375C91.9546 49.9375 111.366 57.8319 126.215 70.9893C133.591 77.5192 139.9 85.4136 144.559 94.2826C149.217 103.054 152.42 112.8 153.779 123.131C153.876 124.106 153.973 124.983 153.973 125.958C153.973 130.538 151.935 134.924 148.829 138.14C145.335 141.844 139.124 144.086 134.077 144.086H70.9906H7.90426C2.85736 144.086 -3.35441 141.747 -6.84842 138.14C-9.9542 134.827 -11.9922 130.538 -11.9922 125.86C-11.9922 124.983 -11.8952 124.009 -11.7981 123.131C-10.4393 112.8 -7.2365 103.054 -2.57782 94.2826C2.08086 85.4136 8.3894 77.5192 15.7656 70.9893Z" fill="#F1F1FF"/>
<path opacity="0.1282" d="M15.8609 71.0871C30.6134 58.0272 50.0246 50.1328 70.9886 50.1328C91.9527 50.1328 111.364 58.0272 126.116 71.0871C133.492 77.6171 139.704 85.5114 144.46 94.283C149.119 103.055 152.321 112.703 153.68 123.034C153.777 123.911 153.874 124.886 153.874 125.763C153.874 130.344 151.836 134.632 148.73 137.946C145.236 141.552 138.928 143.891 133.978 143.891H71.0855H8.19332C3.24347 143.891 -3.06511 141.552 -6.55912 137.946C-9.66491 134.632 -11.7031 130.344 -11.7031 125.763C-11.7031 124.886 -11.6059 123.911 -11.5088 123.034C-10.15 112.703 -6.9472 103.055 -2.28852 94.283C2.17605 85.5114 8.48463 77.6171 15.8609 71.0871Z" fill="#F0F0FF"/>
<path opacity="0.1368" d="M15.8609 71.1848C30.6134 58.1249 49.9274 50.2305 70.8915 50.2305C91.8556 50.2305 111.17 58.1249 125.922 71.1848C133.298 77.7147 139.51 85.6091 144.266 94.3807C148.924 103.152 152.127 112.801 153.486 123.034C153.583 123.912 153.68 124.886 153.68 125.763C153.68 130.344 151.642 134.632 148.536 137.849C145.139 141.455 138.734 143.696 133.784 143.696H70.9886H8.19332C3.24348 143.696 -3.16216 141.455 -6.55912 137.849C-9.6649 134.632 -11.7031 130.344 -11.7031 125.666C-11.7031 124.789 -11.6059 123.814 -11.5088 122.937C-10.15 112.606 -7.04425 102.957 -2.28852 94.2832C2.27311 85.5116 8.48463 77.7147 15.8609 71.1848Z" fill="#EFEFFF"/>
<path opacity="0.1453" d="M15.9622 71.2824C30.7147 58.2225 50.0289 50.3281 70.8959 50.3281C91.86 50.3281 111.174 58.2225 125.83 71.2824C133.206 77.8124 139.417 85.6093 144.173 94.4783C148.832 103.152 152.034 112.801 153.296 123.132C153.393 124.009 153.491 124.984 153.491 125.861C153.491 130.442 151.452 134.73 148.346 137.946C144.95 141.455 138.544 143.794 133.594 143.794H70.8959H8.29488C3.44209 143.794 -3.0606 141.552 -6.45756 137.946C-9.56334 134.73 -11.6016 130.442 -11.6016 125.861C-11.6016 124.984 -11.5046 124.009 -11.4075 123.132C-10.0487 112.899 -6.94279 103.25 -2.28411 94.4783C2.37457 85.6093 8.58596 77.8124 15.9622 71.2824Z" fill="#EEEEFF"/>
<path opacity="0.1538" d="M16.0591 71.3802C30.8116 58.3203 50.0288 50.5234 70.9928 50.5234C91.8598 50.5234 111.174 58.4178 125.926 71.3802C133.303 77.9102 139.514 85.7071 144.173 94.4787C148.832 103.153 152.034 112.802 153.296 123.035C153.393 123.912 153.49 124.887 153.49 125.764C153.49 130.345 151.452 134.633 148.346 137.752C144.949 141.26 138.447 143.502 133.594 143.502H70.9928H8.39181C3.53902 143.502 -2.96391 141.26 -6.36086 137.752C-9.46665 134.535 -11.6017 130.247 -11.5046 125.667C-11.5046 124.789 -11.4076 123.815 -11.3106 122.938C-9.95179 112.704 -6.8461 103.055 -2.18742 94.3813C2.47126 85.7072 8.68289 77.8127 16.0591 71.3802Z" fill="#EDEDFF"/>
<path opacity="0.1624" d="M16.1577 71.3802C30.8132 58.3203 50.1273 50.5234 70.9943 50.5234C91.8613 50.5234 111.078 58.3203 125.831 71.3802C133.207 77.9102 139.418 85.7071 144.077 94.4787C148.736 103.153 151.842 112.802 153.201 123.035C153.298 123.912 153.395 124.887 153.395 125.764C153.395 130.345 151.259 134.535 148.154 137.752C144.757 141.163 138.254 143.405 133.498 143.405H70.9943H8.4902C3.73446 143.405 -2.86519 141.163 -6.16509 137.752C-9.27088 134.535 -11.4062 130.345 -11.4062 125.764C-11.4062 124.887 -11.3092 123.912 -11.2122 123.035C-9.8534 112.802 -6.74748 103.153 -2.08879 94.4787C2.56989 85.7071 8.78151 77.9102 16.1577 71.3802Z" fill="#ECECFF"/>
<path opacity="0.1709" d="M16.2513 71.478C30.9067 58.5155 50.1239 50.6211 70.9909 50.6211C91.8579 50.6211 111.075 58.4181 125.73 71.478C133.107 78.0079 139.221 85.8049 143.977 94.5764C148.636 103.251 151.741 112.802 153.1 123.035C153.197 123.912 153.294 124.887 153.294 125.764C153.294 130.345 151.159 134.536 148.053 137.655C144.753 141.066 138.056 143.307 133.398 143.307H70.9909H8.58395C3.82821 143.307 -2.77168 141.066 -6.07158 137.655C-9.17737 134.536 -11.3125 130.247 -11.3125 125.667C-11.3125 124.79 -11.2155 123.815 -11.1184 122.938C-9.75965 112.704 -6.65396 103.153 -1.99528 94.4789C2.6634 85.8048 8.87502 78.0079 16.2513 71.478Z" fill="#EBECFF"/>
<path opacity="0.1795" d="M16.2559 71.5755C30.9113 58.6131 50.1284 50.7188 70.8984 50.7188C91.7654 50.7188 110.885 58.5157 125.541 71.5755C132.82 78.1055 139.032 85.9025 143.69 94.5766C148.349 103.251 151.455 112.802 152.813 122.938C152.91 123.815 153.008 124.79 153.008 125.667C153.008 130.248 150.872 134.438 147.767 137.557C144.467 140.871 137.77 143.113 133.111 143.113H70.8984H8.68551C4.02683 143.113 -2.66988 140.871 -5.96978 137.557C-9.07557 134.438 -11.2109 130.248 -11.2109 125.667C-11.2109 124.79 -11.1137 123.913 -11.0166 122.938C-9.65785 112.704 -6.55216 103.153 -1.89348 94.5766C2.7652 85.9025 8.97672 78.1055 16.2559 71.5755Z" fill="#EAEBFF"/>
<path opacity="0.188" d="M16.3509 71.6735C31.0063 58.7111 50.1264 50.9141 70.9934 50.9141C91.7633 50.9141 110.98 58.7111 125.636 71.6735C132.915 78.2034 139.127 85.9029 143.785 94.6744C148.444 103.251 151.55 112.802 152.908 123.036C153.005 123.913 153.102 124.888 153.102 125.765C153.102 130.346 150.967 134.439 147.862 137.558C144.562 140.871 137.865 143.113 133.206 143.113H71.0903H8.97457C4.31589 143.113 -2.38082 140.871 -5.68072 137.558C-8.7865 134.439 -10.9219 130.248 -10.9219 125.667C-10.9219 124.79 -10.8249 123.913 -10.7278 122.938C-9.36903 112.802 -6.2631 103.251 -1.60442 94.577C2.86015 86.0004 9.07172 78.2034 16.3509 71.6735Z" fill="#E9EAFF"/>
<path opacity="0.1966" d="M16.4478 71.7672C31.1033 58.8047 50.2234 51.0078 70.9934 51.0078C91.7633 51.0078 110.883 58.8047 125.539 71.7672C132.818 78.1997 139.029 85.9966 143.688 94.7681C148.25 103.345 151.453 112.896 152.714 123.032C152.811 123.909 152.908 124.884 152.908 125.761C152.908 130.342 150.773 134.435 147.668 137.554C144.368 140.77 137.574 143.012 133.012 143.012H70.9934H8.97457C4.41295 143.012 -2.38082 140.77 -5.68072 137.554C-8.7865 134.435 -10.9219 130.342 -10.9219 125.761C-10.9219 124.884 -10.8249 124.007 -10.7278 123.032C-9.36903 112.896 -6.26319 103.345 -1.70157 94.7681C2.95711 85.9966 9.16864 78.2971 16.4478 71.7672Z" fill="#E8E9FF"/>
<path opacity="0.2051" d="M16.5446 71.8687C31.103 58.9063 50.2231 51.1094 70.993 51.1094C91.763 51.1094 110.883 58.9063 125.441 71.8687C132.72 78.3012 138.932 86.0982 143.591 94.7723C148.152 103.349 151.355 112.9 152.617 123.036C152.714 123.913 152.811 124.888 152.811 125.765C152.811 130.346 150.676 134.439 147.57 137.461C144.367 140.677 137.476 142.821 132.914 142.821H70.993H9.07137C4.50974 142.821 -2.38132 140.677 -5.58416 137.461C-8.68994 134.342 -10.9221 130.248 -10.8251 125.668C-10.8251 124.791 -10.7281 123.913 -10.631 122.939C-9.27223 112.803 -6.1664 103.349 -1.60477 94.7723C3.05391 86.0982 9.16838 78.3012 16.5446 71.8687Z" fill="#E7E8FF"/>
<path opacity="0.2137" d="M16.548 71.9666C31.1064 59.0042 50.2264 51.3047 70.8993 51.3047C91.5722 51.3047 110.692 59.1016 125.251 71.9666C132.53 78.3991 138.644 86.196 143.303 94.8701C147.865 103.447 150.97 112.901 152.329 123.037C152.426 123.914 152.523 124.888 152.523 125.766C152.523 130.249 150.388 134.44 147.282 137.461C144.079 140.677 137.189 142.821 132.627 142.821H70.8021H8.97762C4.51305 142.821 -2.47483 140.677 -5.67767 137.461C-8.78346 134.44 -11.0159 130.249 -10.9188 125.766C-10.9188 124.888 -10.8218 124.011 -10.7248 123.134C-9.36598 112.998 -6.26015 103.544 -1.69852 94.9676C3.15427 86.196 9.26883 78.3991 16.548 71.9666Z" fill="#E6E7FF"/>
<path opacity="0.2222" d="M16.6352 72.0604C31.1936 59.1954 50.2164 51.3984 70.8893 51.3984C91.5622 51.3984 110.682 59.1954 125.143 72.0604C132.423 78.4928 138.537 86.2898 143.196 94.9639C147.758 103.541 150.863 112.994 152.222 123.033C152.319 123.91 152.416 124.885 152.416 125.762C152.416 130.245 150.184 134.339 147.175 137.36C143.972 140.479 136.984 142.623 132.52 142.623H70.8893H9.25887C4.7943 142.623 -2.19382 140.479 -5.39666 137.36C-8.50244 134.339 -10.7346 130.245 -10.6376 125.664C-10.6376 124.787 -10.5406 123.91 -10.4435 123.033C-9.08473 112.994 -5.9789 103.443 -1.41727 94.9639C3.24141 86.1923 9.35602 78.4928 16.6352 72.0604Z" fill="#E5E6FF"/>
<path opacity="0.2308" d="M16.7394 72.158C31.2978 59.2931 50.3208 51.4961 70.9937 51.4961C91.6666 51.4961 110.689 59.2931 125.248 72.158C132.527 78.5905 138.642 86.2899 143.3 94.9641C147.862 103.541 150.968 112.897 152.326 123.033C152.423 123.91 152.521 124.885 152.521 125.762C152.521 130.245 150.288 134.339 147.279 137.36C144.077 140.479 137.089 142.623 132.721 142.623H71.1878H9.65426C5.28675 142.623 -1.79833 140.479 -4.90412 137.36C-8.0099 134.339 -10.2422 130.245 -10.2422 125.762C-10.2422 124.885 -10.1449 124.008 -10.0479 123.131C-8.6891 113.092 -5.58351 103.638 -1.02188 95.0616C3.34563 86.29 9.4602 78.5905 16.7394 72.158Z" fill="#E4E5FF"/>
<path opacity="0.2393" d="M16.8365 72.2557C31.2979 59.3907 50.3209 51.5938 70.9937 51.5938C91.6666 51.5938 110.592 59.3907 125.151 72.2557C132.43 78.6882 138.545 86.3877 143.203 95.0618C147.765 103.541 150.871 112.995 152.229 123.033C152.326 123.91 152.424 124.788 152.424 125.762C152.521 130.245 150.191 134.339 147.085 137.263C143.98 140.284 136.895 142.428 132.527 142.428H71.0907H9.65426C5.28675 142.428 -1.79833 140.284 -4.90412 137.263C-8.0099 134.241 -10.2422 130.246 -10.2422 125.665C-10.2422 124.788 -10.1449 123.91 -10.0479 123.033C-8.6891 112.995 -5.58351 103.541 -1.02188 95.0618C3.44269 86.3877 9.55735 78.6882 16.8365 72.2557Z" fill="#E3E4FF"/>
<path opacity="0.2479" d="M16.8353 72.3535C31.2966 59.4885 50.3195 51.7891 70.8953 51.7891C91.4712 51.7891 110.494 59.4885 124.955 72.3535C132.235 78.786 138.349 86.4855 142.911 95.1596C147.472 103.639 150.578 113.093 151.84 123.034C151.937 123.911 152.034 124.788 152.034 125.763C152.131 130.246 149.802 134.242 146.696 137.263C143.59 140.284 136.408 142.331 132.138 142.331H70.7982H9.45895C5.18849 142.331 -1.99364 140.187 -5.09943 137.263C-8.20522 134.242 -10.4375 130.246 -10.4375 125.763C-10.4375 124.885 -10.3405 124.008 -10.2434 123.131C-8.88465 113.093 -5.77868 103.736 -1.31411 95.257C3.53868 86.388 9.65315 78.6885 16.8353 72.3535Z" fill="#E2E3FF"/>
<path opacity="0.2564" d="M16.9317 72.3535C31.393 59.4885 50.319 51.7891 70.8949 51.7891C91.4707 51.7891 110.397 59.4885 124.858 72.3535C132.04 78.786 138.155 86.4855 142.813 95.0621C147.375 103.541 150.481 112.898 151.742 122.936C151.839 123.813 151.936 124.691 151.936 125.665C152.034 130.148 149.704 134.144 146.598 137.068C143.493 139.992 136.311 142.136 132.04 142.136H70.7977H9.55562C5.28516 142.136 -1.89697 139.992 -5.00275 137.068C-8.10854 134.144 -10.4379 130.051 -10.3408 125.568C-10.3408 124.69 -10.2438 123.813 -10.1468 122.936C-8.78798 112.995 -5.68224 103.541 -1.21767 95.0621C3.63512 86.4855 9.74959 78.786 16.9317 72.3535Z" fill="#E1E2FE"/>
<path opacity="0.265" d="M17.0267 72.4512C31.488 59.6837 50.414 51.8867 70.9899 51.8867C91.5657 51.8867 110.491 59.5862 124.953 72.4512C132.135 78.8837 138.249 86.5832 142.908 95.1598C147.47 103.639 150.478 112.995 151.837 122.936C151.934 123.814 152.031 124.691 152.031 125.568C152.129 130.051 149.799 134.047 146.693 136.971C143.685 139.895 136.308 141.941 132.135 141.941H70.9899H9.84468C5.67128 141.941 -1.60791 139.895 -4.71369 136.971C-7.81948 134.047 -10.1488 130.051 -10.0518 125.568C-10.0518 124.691 -9.95475 123.814 -9.8577 122.936C-8.49892 112.995 -5.49023 103.639 -0.928609 95.1598C3.73007 86.5832 9.84459 78.8837 17.0267 72.4512Z" fill="#E0E1FE"/>
<path opacity="0.2735" d="M17.1251 72.549C31.5864 59.7815 50.4153 52.082 70.9911 52.082C91.4699 52.082 110.396 59.7815 124.857 72.549C132.039 78.9815 138.154 86.5835 142.715 95.2576C147.277 103.737 150.286 113.093 151.644 123.034C151.741 123.911 151.838 124.789 151.838 125.666C151.935 130.149 149.606 134.047 146.5 136.971C143.492 139.798 136.115 141.942 131.942 141.942H70.9911H10.04C5.8666 141.942 -1.50965 139.895 -4.51838 136.971C-7.62417 134.047 -9.95351 130.051 -9.85645 125.568C-9.85645 124.691 -9.75944 123.814 -9.66239 122.937C-8.3036 112.996 -5.29492 103.639 -0.733296 95.1602C3.82833 86.681 9.84593 78.9815 17.1251 72.549Z" fill="#DFE0FE"/>
<path opacity="0.2821" d="M17.2267 72.6467C31.5909 59.8792 50.517 52.1797 70.9958 52.1797C91.4745 52.1797 110.4 59.8792 124.765 72.6467C131.947 79.0792 138.061 86.6811 142.623 95.2578C147.087 103.639 150.193 112.996 151.552 122.937C151.649 123.814 151.746 124.691 151.746 125.568C151.843 130.052 149.514 133.95 146.408 136.874C143.399 139.7 136.023 141.747 131.85 141.747H70.9958H10.1416C6.06521 141.747 -1.40809 139.7 -4.41682 136.874C-7.5226 133.95 -9.85194 130.052 -9.75489 125.568C-9.75489 124.691 -9.65764 123.814 -9.56059 122.937C-8.2018 112.996 -5.19312 103.737 -0.631497 95.2578C3.93013 86.6811 9.94749 79.0792 17.2267 72.6467Z" fill="#DEDFFE"/>
<path opacity="0.2906" d="M17.2277 72.7443C31.592 59.9768 50.4208 52.2773 70.8996 52.2773C91.3784 52.2773 110.207 59.9768 124.572 72.7443C131.754 79.0794 137.868 86.7788 142.43 95.3555C146.894 103.737 150 113.094 151.359 122.937C151.456 123.814 151.553 124.691 151.553 125.569C151.65 130.052 149.224 133.95 146.215 136.777C143.206 139.506 135.733 141.552 131.754 141.552H70.9968H10.2397C6.16338 141.552 -1.30983 139.506 -4.2215 136.777C-7.32729 133.853 -9.65663 129.954 -9.55957 125.471C-9.55957 124.594 -9.46257 123.717 -9.36551 122.84C-8.00673 112.899 -4.99805 103.64 -0.43642 95.258C4.02815 86.7788 10.0456 79.1768 17.2277 72.7443Z" fill="#DDDEFE"/>
<path opacity="0.2991" d="M17.3183 72.842C31.6825 60.0745 50.5114 52.375 70.9902 52.375C91.469 52.375 110.298 60.0745 124.662 72.842C131.844 79.177 137.862 86.8765 142.52 95.4531C146.985 103.835 150.091 113.094 151.352 123.035C151.449 123.912 151.547 124.789 151.547 125.666C151.644 130.15 149.217 134.048 146.208 136.874C143.297 139.603 135.726 141.65 131.747 141.65H71.0871H10.4272C6.44793 141.65 -1.12233 139.603 -4.034 136.874C-7.13979 134.048 -9.46913 130.15 -9.37207 125.666C-9.37207 124.789 -9.27507 123.912 -9.17801 123.035C-7.81923 113.191 -4.8104 103.835 -0.345835 95.4531C4.11873 86.8765 10.1361 79.177 17.3183 72.842Z" fill="#DCDDFE"/>
<path opacity="0.3077" d="M17.4216 72.9399C31.7859 60.1724 50.5179 52.5703 70.9967 52.5703C91.3784 52.5703 110.207 60.2698 124.571 72.9399C131.754 79.2749 137.771 86.9743 142.333 95.4535C146.797 103.835 149.903 113.094 151.165 122.938C151.262 123.815 151.359 124.692 151.359 125.569C151.456 130.052 149.029 133.853 145.924 136.68C143.012 139.409 135.442 141.358 131.462 141.358H70.8995H10.3368C6.35747 141.358 -1.21303 139.311 -4.1247 136.68C-7.23049 133.853 -9.65674 129.955 -9.55969 125.472C-9.55969 124.595 -9.46268 123.717 -9.36562 122.84C-8.00684 112.997 -4.99825 103.738 -0.533684 95.3561C4.22205 86.8769 10.2395 79.2749 17.4216 72.9399Z" fill="#DBDCFE"/>
<path opacity="0.3162" d="M17.5169 73.0375C31.7841 60.3674 50.613 52.668 70.9947 52.668C91.3765 52.668 110.205 60.3674 124.472 73.0375C131.654 79.3725 137.672 86.9745 142.234 95.5512C146.698 103.933 149.804 113.192 151.066 122.938C151.163 123.815 151.26 124.692 151.26 125.569C151.357 130.053 148.93 133.854 145.825 136.68C142.913 139.312 135.246 141.358 131.363 141.358H70.9947H10.6258C6.74359 141.358 -0.923728 139.409 -3.8354 136.68C-6.94119 133.854 -9.36768 129.955 -9.27062 125.569C-9.27062 124.692 -9.17338 123.815 -9.07632 122.938C-7.71754 113.094 -4.70895 103.835 -0.244385 95.5512C4.31724 86.9745 10.3347 79.3725 17.5169 73.0375Z" fill="#DADBFE"/>
<path opacity="0.3248" d="M17.5169 73.1352C31.7841 60.4651 50.5159 52.7656 70.8976 52.7656C91.2793 52.7656 110.011 60.4651 124.278 73.1352C131.46 79.4702 137.478 87.0722 142.04 95.6488C146.504 104.031 149.513 113.192 150.872 123.036C150.969 123.913 151.066 124.79 151.066 125.667C151.163 130.053 148.736 133.951 145.631 136.68C142.719 139.312 135.052 141.261 131.169 141.261H70.8976H10.6258C6.74359 141.261 -0.923727 139.312 -3.8354 136.68C-6.94119 133.854 -9.36768 130.053 -9.27062 125.57C-9.27062 124.692 -9.17338 123.815 -9.07632 122.938C-7.71754 113.095 -4.70895 103.933 -0.244384 95.5514C4.4143 87.0722 10.4318 79.4702 17.5169 73.1352Z" fill="#D9DAFE"/>
<path opacity="0.3333" d="M17.6106 73.233C31.8778 60.5629 50.6095 52.9609 70.8942 52.9609C91.2759 52.9609 109.911 60.5629 124.178 73.233C131.36 79.568 137.377 87.17 141.939 95.6492C146.404 103.933 149.412 113.192 150.771 122.939C150.868 123.816 150.965 124.693 150.965 125.57C151.062 129.956 148.636 133.757 145.53 136.583C142.715 139.117 134.951 141.066 131.069 141.066H70.8942H10.7196C6.93439 141.066 -0.927033 139.117 -3.74165 136.583C-6.84744 133.757 -9.27393 129.956 -9.17687 125.57C-9.17687 124.693 -9.07987 123.816 -8.98281 122.939C-7.62403 113.192 -4.6152 103.933 -0.150634 95.6492C4.50805 87.17 10.5256 79.568 17.6106 73.233Z" fill="#D8D9FE"/>
<path opacity="0.3419" d="M17.7088 73.3267C31.976 60.6567 50.6109 53.0547 70.9926 53.0547C91.2773 53.0547 110.009 60.6567 124.276 73.3267C131.361 79.6618 137.379 87.2638 141.94 95.743C146.405 104.027 149.414 113.189 150.772 123.032C150.87 123.909 150.967 124.787 150.967 125.664C151.064 130.05 148.637 133.851 145.531 136.579C142.717 139.114 134.855 141.063 131.07 141.063H70.9926H10.9149C7.12971 141.063 -0.731721 139.114 -3.54634 136.579C-6.65213 133.851 -9.07862 130.05 -8.98156 125.566C-8.98156 124.689 -8.88455 123.812 -8.7875 122.935C-7.42872 113.189 -4.41989 104.027 0.0446787 95.6455C4.6063 87.1663 10.6237 79.5643 17.7088 73.3267Z" fill="#D7D8FE"/>
<path opacity="0.3504" d="M17.8059 73.3267C32.0732 60.6567 50.7079 53.0547 70.9926 53.0547C91.2773 53.0547 109.912 60.6567 124.179 73.3267C131.264 79.6618 137.282 87.1663 141.843 95.743C146.308 104.027 149.317 113.189 150.578 122.935C150.675 123.812 150.772 124.689 150.772 125.566C150.869 129.952 148.443 133.753 145.337 136.482C142.523 138.919 134.661 140.868 130.876 140.868H70.8954H10.9149C7.22676 140.868 -0.731721 138.919 -3.54634 136.482C-6.65213 133.753 -9.07862 129.952 -8.98156 125.566C-8.98156 124.689 -8.88455 123.812 -8.7875 122.935C-7.42872 113.189 -4.41999 104.027 -0.0524731 95.743C4.70326 87.2638 10.6238 79.6618 17.8059 73.3267Z" fill="#D6D7FE"/>
<path opacity="0.359" d="M17.8071 73.4283C31.9772 60.8557 50.6119 53.1562 70.8966 53.1562C91.1812 53.1562 109.816 60.7583 123.986 73.4283C131.071 79.7633 137.089 87.2678 141.65 95.747C146.115 104.031 149.123 113.193 150.385 122.841C150.482 123.719 150.579 124.596 150.579 125.473C150.677 129.859 148.153 133.562 145.144 136.291C142.427 138.728 134.371 140.677 130.78 140.677H70.8966H11.0132C7.32504 140.677 -0.633592 138.728 -3.35116 136.291C-6.45694 133.562 -8.98049 129.859 -8.78638 125.375C-8.78638 124.498 -8.68913 123.621 -8.59208 122.744C-7.23329 112.998 -4.22456 103.836 0.14295 95.6496C4.70457 87.3653 10.722 79.7633 17.8071 73.4283Z" fill="#D5D6FE"/>
<path opacity="0.3675" d="M17.905 73.5223C32.0751 60.9497 50.71 53.3477 70.8976 53.3477C91.0852 53.3477 109.72 60.9497 123.89 73.5223C130.975 79.8573 136.993 87.3619 141.457 95.8411C145.825 104.125 148.93 113.189 150.192 122.935C150.289 123.813 150.386 124.69 150.386 125.567C150.483 129.953 147.96 133.656 144.951 136.385C142.234 138.822 134.178 140.673 130.587 140.673H70.8976H11.2082C7.61716 140.673 -0.438516 138.724 -3.15608 136.385C-6.26187 133.656 -8.78518 129.953 -8.59106 125.567C-8.59106 124.69 -8.49406 123.813 -8.397 123.033C-7.03822 113.287 -4.02949 104.223 0.338026 95.9385C4.80259 87.3619 10.8199 79.8573 17.905 73.5223Z" fill="#D4D5FE"/>
<path opacity="0.3761" d="M17.999 73.6199C32.1692 61.0473 50.7069 53.4453 70.9916 53.4453C91.1792 53.4453 109.814 61.0473 123.984 73.6199C131.069 79.9549 137.087 87.4595 141.551 95.9386C145.919 104.125 148.927 113.287 150.286 122.936C150.383 123.813 150.48 124.69 150.48 125.567C150.577 129.953 148.054 133.656 144.948 136.288C142.231 138.627 134.175 140.479 130.584 140.479H70.9916H11.3992C7.80809 140.479 -0.247591 138.627 -2.96516 136.288C-6.07094 133.559 -8.59435 129.855 -8.49729 125.47C-8.49729 124.592 -8.40028 123.715 -8.30323 122.936C-6.94444 113.287 -3.93571 104.125 0.4318 95.9386C4.89637 87.4595 10.9139 79.9549 17.999 73.6199Z" fill="#D3D4FE"/>
<path opacity="0.3846" d="M18.0927 73.7176C32.2629 61.145 50.8006 53.543 70.9882 53.543C91.1758 53.543 109.713 61.145 123.884 73.7176C130.969 79.9551 136.889 87.5572 141.451 95.9389C145.818 104.126 148.827 113.19 150.186 122.936C150.283 123.813 150.38 124.69 150.38 125.567C150.477 129.953 147.953 133.657 144.848 136.288C142.13 138.627 133.977 140.479 130.483 140.479H70.9882H11.4929C7.99889 140.479 -0.153842 138.627 -2.87141 136.288C-5.97719 133.657 -8.5006 129.953 -8.40354 125.567C-8.40354 124.69 -8.30653 123.813 -8.20948 123.033C-6.85069 113.385 -3.84196 104.321 0.525549 96.1338C4.99012 87.5572 11.0077 80.0526 18.0927 73.7176Z" fill="#D2D3FE"/>
<path opacity="0.3932" d="M18.1943 73.8154C32.3645 61.2428 50.8052 53.7383 70.9928 53.7383C91.1805 53.7383 109.718 61.3403 123.791 73.8154C130.876 80.053 136.797 87.5576 141.358 96.0367C145.726 104.224 148.735 113.287 150.093 122.936C150.19 123.813 150.287 124.69 150.287 125.568C150.384 129.953 147.861 133.56 144.755 136.191C142.135 138.433 133.885 140.284 130.391 140.284H70.9928H11.5945C8.10046 140.284 -0.149098 138.433 -2.76961 136.191C-5.87539 133.56 -8.39903 129.856 -8.30198 125.47C-8.30198 124.593 -8.20473 123.716 -8.10768 122.936C-6.84595 113.287 -3.83722 104.224 0.627349 96.0367C5.09192 87.5576 11.1092 80.053 18.1943 73.8154Z" fill="#D1D2FE"/>
<path opacity="0.4017" d="M18.1931 73.9131C32.2662 61.3405 50.8039 53.8359 70.8944 53.8359C90.985 53.8359 109.523 61.438 123.596 73.9131C130.681 80.1507 136.601 87.6552 141.066 96.1344C145.433 104.321 148.442 113.385 149.704 122.936C149.801 123.814 149.898 124.691 149.898 125.568C149.995 129.954 147.471 133.56 144.366 136.191C141.745 138.433 133.495 140.285 130.001 140.285H70.7004H11.3992C8.0022 140.285 -0.344647 138.433 -2.96516 136.191C-6.07094 133.56 -8.59435 129.954 -8.49729 125.568C-8.49729 124.691 -8.40028 123.814 -8.30323 123.034C-7.0415 113.385 -4.03263 104.419 0.334886 96.2318C5.18768 87.6552 11.205 80.1507 18.1931 73.9131Z" fill="#D0D1FE"/>
<path opacity="0.4103" d="M18.2889 74.0107C32.362 61.5356 50.8997 53.9336 70.9903 53.9336C91.0808 53.9336 109.521 61.4381 123.691 74.0107C130.777 80.2483 136.697 87.7528 141.161 96.1346C145.529 104.321 148.538 113.288 149.8 122.937C149.897 123.814 149.994 124.691 149.994 125.471C150.188 129.856 147.567 133.462 144.462 135.996C141.841 138.141 133.494 139.992 130.097 139.992H70.9903H11.8831C8.48619 139.992 0.139343 138.141 -2.48116 135.996C-5.58695 133.365 -8.20741 129.759 -8.0133 125.373C-8.0133 124.496 -7.91629 123.716 -7.81924 122.839C-6.55751 113.288 -3.54864 104.224 0.818876 96.0371C5.28344 87.7529 11.3009 80.2483 18.2889 74.0107Z" fill="#CFD0FE"/>
<path opacity="0.4188" d="M18.3837 74.1084C32.4568 61.6333 50.8976 54.0312 70.9882 54.0312C91.0787 54.0312 109.519 61.5358 123.592 74.1084C130.58 80.346 136.598 87.8505 141.062 96.2322C145.43 104.419 148.439 113.386 149.7 122.937C149.797 123.814 149.894 124.691 149.894 125.471C150.088 129.857 147.468 133.365 144.362 135.997C141.839 138.141 133.395 139.895 130.095 139.895H71.0851H12.0751C8.77516 139.895 0.331351 138.141 -2.1921 135.997C-5.29789 133.365 -7.91835 129.857 -7.72424 125.471C-7.72424 124.594 -7.62723 123.814 -7.53017 122.937C-6.26845 113.386 -3.25957 104.419 1.10794 96.2322C5.3784 87.8505 11.2986 80.346 18.3837 74.1084Z" fill="#CECFFE"/>
<path opacity="0.4274" d="M18.4852 74.2062C32.5583 61.7311 50.9991 54.2266 70.9926 54.2266C90.9861 54.2266 109.427 61.7311 123.5 74.2062C130.488 80.4438 136.408 87.9484 140.97 96.3301C145.337 104.419 148.249 113.386 149.608 122.937C149.705 123.814 149.802 124.691 149.802 125.471C149.996 129.857 147.376 133.366 144.27 135.9C141.746 138.044 133.205 139.798 130.002 139.798H71.0895H12.1766C8.87672 139.798 0.432912 138.044 -2.09054 135.9C-5.19633 133.366 -7.81679 129.759 -7.62267 125.374C-7.62267 124.497 -7.52567 123.717 -7.42861 122.84C-6.16688 113.288 -3.15825 104.322 1.20926 96.2326C5.47972 87.8509 11.4002 80.4438 18.4852 74.2062Z" fill="#CDCEFE"/>
<path opacity="0.4359" d="M18.4853 74.3039C32.4613 61.8288 50.9019 54.3242 70.8954 54.3242C90.8889 54.3242 109.33 61.8288 123.306 74.3039C130.294 80.5415 136.214 87.9486 140.678 96.3303C145.046 104.42 147.958 113.386 149.317 122.937C149.414 123.815 149.511 124.692 149.511 125.471C149.705 129.76 146.987 133.366 143.979 135.9C141.455 137.947 132.914 139.701 129.711 139.701H70.8954H12.1766C8.97378 139.701 0.432913 137.947 -2.09054 135.9C-5.19633 133.366 -7.81679 129.76 -7.62267 125.471C-7.62267 124.594 -7.52567 123.815 -7.42861 122.937C-6.16688 113.386 -3.15825 104.42 1.20926 96.3303C5.57678 87.9486 11.4972 80.444 18.4853 74.3039Z" fill="#CCCDFE"/>
<path opacity="0.4444" d="M18.5824 74.3039C32.5584 61.8288 50.999 54.3242 70.8954 54.3242C90.8889 54.3242 109.232 61.8288 123.208 74.3039C130.196 80.5415 136.117 87.9486 140.582 96.3303C144.852 104.42 147.861 113.386 149.219 122.84C149.316 123.717 149.413 124.497 149.413 125.374C149.608 129.662 146.89 133.171 143.881 135.705C141.455 137.752 132.817 139.506 129.614 139.506H70.8954H12.1766C8.97378 139.506 0.335857 137.752 -2.09054 135.705C-5.19633 133.171 -7.81679 129.662 -7.62267 125.276C-7.62267 124.399 -7.52567 123.62 -7.42861 122.742C-6.16688 113.289 -3.15825 104.322 1.20926 96.2328C5.67383 88.046 11.5944 80.5415 18.5824 74.3039Z" fill="#CBCCFE"/>
<path opacity="0.453" d="M18.6796 74.4018C32.6556 62.0241 50.9993 54.5195 70.9928 54.5195C90.9863 54.5195 109.33 62.0241 123.306 74.4018C130.294 80.6393 136.214 88.0464 140.679 96.4281C144.949 104.517 147.958 113.386 149.22 122.938C149.317 123.815 149.414 124.595 149.414 125.472C149.608 129.76 146.89 133.269 143.785 135.803C141.358 137.752 132.623 139.506 129.517 139.506H70.8957H12.2741C9.16827 139.506 0.433057 137.752 -1.99334 135.803C-5.09913 133.269 -7.71944 129.76 -7.62239 125.472C-7.62239 124.595 -7.52538 123.815 -7.42832 122.938C-6.1666 113.484 -3.15782 104.517 1.11264 96.5256C5.77132 88.0464 11.6916 80.6393 18.6796 74.4018Z" fill="#CACBFE"/>
<path opacity="0.4615" d="M18.7774 74.4994C32.7534 62.1217 51.097 54.6172 70.9935 54.6172C90.8899 54.6172 109.233 62.1217 123.209 74.4994C130.197 80.7369 136.118 88.144 140.485 96.4283C144.756 104.518 147.765 113.387 149.026 122.84C149.123 123.718 149.22 124.497 149.22 125.374C149.414 129.663 146.697 133.171 143.591 135.608C141.165 137.557 132.43 139.312 129.324 139.312H70.8963H12.4687C9.36296 139.312 0.627984 137.557 -1.79841 135.608C-4.9042 133.074 -7.62181 129.663 -7.4277 125.277C-7.4277 124.4 -7.33069 123.62 -7.23363 122.743C-5.97191 113.289 -2.96313 104.42 1.30733 96.3308C5.86895 88.1441 11.7894 80.7369 18.7774 74.4994Z" fill="#C9CAFE"/>
<path opacity="0.4701" d="M18.7774 74.5971C32.7534 62.2194 50.9999 54.7148 70.8963 54.7148C90.7928 54.7148 109.136 62.2194 123.015 74.5971C130.003 80.8346 135.827 88.2417 140.291 96.526C144.562 104.518 147.57 113.484 148.832 122.841C148.929 123.718 149.026 124.498 149.026 125.375C149.22 129.663 146.503 133.074 143.397 135.608C141.068 137.557 132.236 139.214 129.13 139.214H70.7992H12.4687C9.46002 139.214 0.627983 137.557 -1.79841 135.608C-4.9042 133.074 -7.62181 129.663 -7.4277 125.375C-7.4277 124.498 -7.33069 123.718 -7.23363 122.841C-5.97191 113.387 -2.96313 104.518 1.30733 96.526C5.96601 88.2417 11.8864 80.8346 18.7774 74.5971Z" fill="#C8C9FE"/>
<path opacity="0.4786" d="M18.8736 74.6947C32.7526 62.3171 51.0962 54.8125 70.8956 54.8125C90.7921 54.8125 109.039 62.3171 122.918 74.6947C129.906 80.8348 135.729 88.2419 140.193 96.6237C144.464 104.616 147.376 113.485 148.734 122.938C148.831 123.816 148.928 124.595 148.928 125.472C149.123 129.761 146.793 133.757 143.299 135.608C141.358 137.85 132.041 139.117 129.129 139.117H70.8956H12.6621C9.6534 139.117 0.433006 137.85 -1.50811 135.608C-5.00212 133.757 -7.33127 129.663 -7.13716 125.375C-7.13716 124.498 -7.04015 123.718 -6.9431 122.841C-5.68137 113.387 -2.67259 104.616 1.59787 96.5262C6.06243 88.3394 11.9827 80.9323 18.8736 74.6947Z" fill="#C7C8FE"/>
<path opacity="0.4872" d="M18.9689 74.7926C32.8478 62.4149 51.0944 55.0078 70.9909 55.0078C90.7903 55.0078 109.037 62.5124 123.013 74.7926C130.001 80.9326 135.824 88.3398 140.289 96.624C144.559 104.616 147.471 113.485 148.83 122.841C148.927 123.718 149.024 124.498 149.024 125.375C149.218 129.664 146.888 133.66 143.394 135.511C141.453 137.753 132.136 139.02 129.224 139.02H71.0878H12.9514C10.0398 139.02 0.722305 137.753 -1.21881 135.511C-4.71282 133.66 -7.04221 129.664 -6.8481 125.375C-6.8481 124.498 -6.75085 123.718 -6.6538 122.841C-5.39207 113.485 -2.38353 104.616 1.88693 96.624C6.15738 88.3398 11.9808 80.9326 18.9689 74.7926Z" fill="#C6C7FE"/>
<path opacity="0.4957" d="M19.066 74.8863C32.945 62.5087 51.1915 55.1016 70.9909 55.1016C90.7903 55.1016 109.037 62.5087 122.916 74.8863C129.807 81.0264 135.727 88.4335 140.095 96.7177C144.365 104.71 147.277 113.481 148.636 122.838C148.733 123.715 148.83 124.494 148.83 125.372C149.024 129.66 146.694 133.656 143.2 135.41C141.259 137.554 131.942 138.821 129.03 138.821H70.9909H12.9514C10.0398 138.821 0.625249 137.554 -1.21881 135.41C-4.71282 133.558 -7.04221 129.562 -6.8481 125.274C-6.8481 124.397 -6.75085 123.617 -6.6538 122.74C-5.39207 113.384 -2.38353 104.515 1.88693 96.6203C6.25444 88.4335 12.078 81.0264 19.066 74.8863Z" fill="#C5C6FE"/>
<path opacity="0.5043" d="M19.1639 74.9879C33.0429 62.7077 51.1925 55.2031 70.9919 55.2031C90.7913 55.2031 108.941 62.6102 122.82 74.9879C129.711 81.128 135.631 88.5351 139.998 96.8193C144.269 104.811 147.181 113.583 148.442 122.939C148.539 123.816 148.637 124.596 148.637 125.473C148.831 129.761 146.501 133.757 143.007 135.512C141.163 137.656 131.652 138.923 128.837 138.923H70.9919H13.1465C10.3319 138.923 0.820326 137.656 -1.02373 135.512C-4.51775 133.757 -6.8469 129.761 -6.65278 125.473C-6.65278 124.596 -6.55578 123.816 -6.45872 122.939C-5.19699 113.583 -2.18831 104.811 1.98509 96.8193C6.3526 88.5351 12.1759 81.128 19.1639 74.9879Z" fill="#C5C6FE"/>
<path opacity="0.5128" d="M19.1607 75.0818C32.9426 62.8016 51.1892 55.3945 70.8915 55.3945C90.6909 55.3945 108.84 62.8016 122.622 75.0818C129.513 81.2219 135.337 88.629 139.801 96.8158C144.072 104.808 146.983 113.579 148.245 122.838C148.342 123.715 148.439 124.495 148.439 125.372C148.633 129.66 146.304 133.559 142.81 135.313C140.966 137.457 131.454 138.627 128.64 138.627H70.8915H13.1433C10.3286 138.627 0.817081 137.457 -1.02698 135.313C-4.52099 133.559 -6.9472 129.563 -6.65603 125.275C-6.65603 124.398 -6.55902 123.618 -6.46196 122.741C-5.20024 113.384 -2.19156 104.613 1.98185 96.7183C6.44641 88.5315 12.2697 81.2219 19.1607 75.0818Z" fill="#C4C5FE"/>
<path opacity="0.5214" d="M19.2563 75.1795C33.0382 62.8993 51.1876 55.4922 70.8899 55.4922C90.5923 55.4922 108.742 62.8993 122.524 75.1795C129.415 81.3196 135.238 88.6292 139.702 96.9135C143.973 104.808 146.885 113.579 148.146 122.936C148.244 123.813 148.341 124.593 148.341 125.47C148.535 129.758 146.205 133.657 142.614 135.411C140.77 137.458 131.162 138.627 128.444 138.627H70.7928H13.1417C10.4241 138.627 0.815501 137.458 -1.02856 135.411C-4.52257 133.657 -6.94887 129.758 -6.75476 125.47C-6.75476 124.593 -6.65775 123.813 -6.5607 122.936C-5.29897 113.677 -2.38734 104.905 1.88311 96.9135C6.5418 88.6292 12.3653 81.3196 19.2563 75.1795Z" fill="#C3C4FE"/>
<path opacity="0.5299" d="M19.3544 75.2771C33.1363 62.9969 51.286 55.5898 70.9883 55.5898C90.6906 55.5898 108.84 62.9969 122.622 75.2771C129.513 81.4172 135.336 88.7269 139.704 97.0111C143.877 104.906 146.789 113.677 148.148 122.936C148.245 123.813 148.342 124.593 148.342 125.47C148.536 129.758 146.206 133.657 142.615 135.314C140.868 137.36 131.163 138.53 128.445 138.53H70.8912H13.337C10.6194 138.53 1.01105 137.36 -0.833012 135.314C-4.32702 133.657 -6.75356 129.661 -6.55945 125.372C-6.55945 124.593 -6.46244 123.716 -6.36538 122.936C-5.10366 113.677 -2.19179 104.906 2.07866 97.0111C6.64029 88.7269 12.4634 81.3197 19.3544 75.2771Z" fill="#C2C3FE"/>
<path opacity="0.5385" d="M19.456 75.2771C33.2379 62.9969 51.2904 55.5898 70.9927 55.5898C90.6951 55.5898 108.747 62.9969 122.529 75.2771C129.42 81.4172 135.244 88.7268 139.611 96.9136C143.785 104.808 146.696 113.482 148.055 122.741C148.152 123.618 148.249 124.398 148.249 125.275C148.443 129.563 146.017 133.462 142.523 135.119C140.776 137.068 131.07 138.237 128.353 138.237H70.8956H13.4386C10.8181 138.237 1.01532 137.068 -0.731686 135.119C-4.2257 133.462 -6.652 129.466 -6.45789 125.275C-6.45789 124.495 -6.36088 123.618 -6.26382 122.839C-5.0021 113.58 -2.09047 104.906 2.17999 97.0111C6.74161 88.7269 12.565 81.4172 19.456 75.2771Z" fill="#C1C2FE"/>
<path opacity="0.547" d="M19.4572 75.375C33.2392 63.1923 51.2915 55.7852 70.8968 55.7852C90.5992 55.7852 108.652 63.1923 122.336 75.375C129.227 81.5151 135.051 88.8248 139.418 97.0116C143.592 104.906 146.503 113.58 147.862 122.839C147.959 123.619 148.056 124.496 148.056 125.275C148.25 129.466 145.824 133.462 142.33 135.022C140.583 136.971 130.78 138.14 128.257 138.14H70.8968H13.5367C10.9162 138.14 1.11358 136.971 -0.536373 135.022C-4.03038 133.365 -6.45668 129.466 -6.26257 125.178C-6.26257 124.398 -6.16556 123.521 -6.06851 122.741C-4.80678 113.483 -1.89515 104.808 2.3753 96.9141C6.83987 88.8247 12.6633 81.5151 19.4572 75.375Z" fill="#C0C1FE"/>
<path opacity="0.5556" d="M19.551 75.4726C33.2358 63.2899 51.2881 55.8828 70.8934 55.8828C90.4987 55.8828 108.551 63.2899 122.236 75.4726C129.127 81.6127 134.853 88.9224 139.221 97.1092C143.394 105.004 146.306 113.678 147.568 122.839C147.665 123.619 147.762 124.496 147.762 125.276C147.956 129.467 145.529 133.462 142.035 135.022C140.385 136.971 130.486 138.043 127.962 138.043H70.7963H13.6305C11.107 138.043 1.20733 136.971 -0.442623 135.022C-3.93663 133.462 -6.36293 129.467 -6.16882 125.276C-6.16882 124.496 -6.07181 123.619 -5.97476 122.839C-4.71303 113.678 -1.8015 105.004 2.3719 97.1092C6.93353 88.9224 12.66 81.6127 19.551 75.4726Z" fill="#BFC0FE"/>
<path opacity="0.5641" d="M19.6501 75.5703C33.335 63.3876 51.3875 55.9805 70.9928 55.9805C90.5981 55.9805 108.553 63.3876 122.335 75.5703C129.226 81.7104 134.953 88.9226 139.32 97.1094C143.493 104.906 146.405 113.58 147.667 122.742C147.764 123.522 147.861 124.399 147.861 125.178C148.055 129.369 145.629 133.268 142.135 134.827C140.485 136.679 130.585 137.751 128.061 137.751H70.9928H13.9239C11.4005 137.751 1.5008 136.679 -0.14915 134.827C-3.64316 133.268 -6.16675 129.369 -5.87559 125.081C-5.87559 124.301 -5.77834 123.424 -5.68128 122.644C-4.41956 113.483 -1.50803 104.809 2.66537 97.0119C7.03289 89.0201 12.7592 81.7104 19.6501 75.5703Z" fill="#BEBFFE"/>
<path opacity="0.5727" d="M19.7447 75.6681C33.4296 63.4854 51.3849 56.1758 70.9902 56.1758C90.5955 56.1758 108.551 63.4854 122.236 75.6681C129.029 81.7108 134.853 89.0204 139.22 97.2072C143.394 105.004 146.305 113.678 147.567 122.84C147.664 123.619 147.761 124.497 147.761 125.276C147.955 129.467 145.529 133.366 142.035 134.925C140.385 136.777 130.388 137.849 127.962 137.849H70.9902H14.0183C11.5919 137.849 1.5951 136.777 -0.0548453 134.925C-3.64591 133.366 -6.07221 129.467 -5.78104 125.276C-5.78104 124.497 -5.68394 123.619 -5.48983 122.84C-4.2281 113.678 -1.31657 105.004 2.85683 97.2072C7.12729 89.0204 12.8537 81.8082 19.7447 75.6681Z" fill="#BDBEFE"/>
<path opacity="0.5812" d="M19.846 75.7658C33.5309 63.5831 51.4864 56.2734 70.9946 56.2734C90.5029 56.2734 108.458 63.5831 122.143 75.7658C128.937 81.8084 134.76 89.1181 139.128 97.3049C143.301 105.102 146.213 113.679 147.474 122.84C147.571 123.62 147.669 124.497 147.766 125.276C148.057 129.467 145.533 133.366 142.039 134.828C140.487 136.679 130.393 137.654 127.966 137.654H71.0915H14.1198C11.6934 137.654 1.59961 136.582 0.0467172 134.828C-3.54435 133.366 -5.97065 129.467 -5.67948 125.179C-5.67948 124.399 -5.58262 123.522 -5.3885 122.742C-4.12678 113.581 -1.21501 105.004 2.95839 97.2074C7.22885 89.1181 12.955 81.8084 19.846 75.7658Z" fill="#BCBDFE"/>
<path opacity="0.5897" d="M19.8444 75.8635C33.5293 63.6807 51.3877 56.3711 70.8959 56.3711C90.4041 56.3711 108.36 63.6807 121.947 75.8635C128.741 81.9061 134.565 89.2157 138.835 97.3051C143.008 105.102 145.823 113.679 147.182 122.84C147.279 123.62 147.376 124.497 147.473 125.277C147.764 129.467 145.241 133.366 141.747 134.828C140.194 136.582 130.003 137.654 127.674 137.654H70.8959H14.1182C11.7889 137.654 1.59804 136.68 0.0451474 134.828C-3.54592 133.366 -5.97232 129.467 -5.7782 125.277C-5.7782 124.497 -5.6811 123.62 -5.48699 122.84C-4.22526 113.679 -1.31373 105.102 2.85967 97.3051C7.32424 89.2157 13.0505 81.9061 19.8444 75.8635Z" fill="#BBBCFE"/>
<path opacity="0.5983" d="M19.9363 75.9611C33.5241 63.8759 51.4795 56.4688 70.9877 56.4688C90.496 56.4688 108.354 63.7784 122.039 75.9611C128.833 82.0038 134.559 89.3134 138.927 97.4027C143.1 105.2 145.915 113.776 147.273 122.84C147.371 123.62 147.468 124.497 147.565 125.277C147.856 129.468 145.332 133.366 141.741 134.731C140.188 136.485 129.998 137.46 127.668 137.46H71.0847H14.5011C12.1717 137.46 1.98085 136.485 0.427959 134.731C-3.16311 133.269 -5.5895 129.37 -5.39539 125.179C-5.29834 124.4 -5.29829 123.522 -5.10418 122.743C-3.84245 113.679 -0.93068 105.102 3.24272 97.3053C7.41612 89.216 13.1424 82.0038 19.9363 75.9611Z" fill="#BABBFE"/>
<path opacity="0.6068" d="M20.0344 76.059C33.6223 63.9737 51.4805 56.6641 70.9888 56.6641C90.497 56.6641 108.355 63.9737 121.943 76.059C128.737 82.1016 134.463 89.3138 138.831 97.5006C143.004 105.298 145.819 113.777 147.08 122.841C147.177 123.62 147.275 124.498 147.372 125.277C147.663 129.468 145.139 133.269 141.548 134.731C140.092 136.388 129.804 137.363 127.572 137.363H71.0857H14.5992C12.3669 137.363 2.07911 136.388 0.623272 134.731C-2.96779 133.269 -5.39419 129.468 -5.20008 125.277C-5.10302 124.498 -5.10321 123.62 -4.9091 122.841C-3.64737 113.777 -0.735699 105.2 3.34065 97.5006C7.51405 89.3138 13.2405 82.1016 20.0344 76.059Z" fill="#B9BAFE"/>
<path opacity="0.6154" d="M20.1324 76.1566C33.7202 64.0714 51.5786 56.7617 70.9898 56.7617C90.4009 56.7617 108.259 64.0714 121.847 76.1566C128.641 82.1993 134.367 89.4115 138.735 97.5008C142.811 105.2 145.723 113.777 146.984 122.841C147.081 123.621 147.178 124.498 147.276 125.277C147.567 129.468 145.043 133.269 141.452 134.634C139.996 136.291 129.611 137.265 127.476 137.265H71.0867H14.6974C12.4651 137.265 2.17703 136.291 0.721189 134.634C-2.86988 133.269 -5.39333 129.371 -5.10216 125.18C-5.00511 124.4 -5.00506 123.523 -4.81095 122.743C-3.54922 113.679 -0.637546 105.2 3.4388 97.4033C7.6122 89.4114 13.3384 82.1993 20.1324 76.1566Z" fill="#B8B9FE"/>
<path opacity="0.6239" d="M20.1355 76.2542C33.7233 64.169 51.4846 56.8594 70.8958 56.8594C90.3069 56.8594 108.165 64.169 121.656 76.2542C128.45 82.2969 134.176 89.5091 138.447 97.5984C142.523 105.298 145.435 113.777 146.696 122.841C146.794 123.621 146.89 124.498 146.987 125.278C147.279 129.468 144.755 133.269 141.164 134.634C139.708 136.291 129.323 137.168 127.188 137.168H70.8958H14.6034C12.4682 137.168 2.08328 136.193 0.627439 134.634C-2.96363 133.269 -5.48708 129.468 -5.19591 125.278C-5.09886 124.498 -5.09905 123.621 -4.90493 122.841C-3.64321 113.777 -0.731532 105.298 3.34481 97.5984C7.71233 89.5091 13.4387 82.1994 20.1355 76.2542Z" fill="#B7B8FE"/>
<path opacity="0.6325" d="M20.2295 76.2506C33.7203 64.1653 51.5785 56.9531 70.8926 56.9531C90.3038 56.9531 108.065 64.2628 121.556 76.2506C128.35 82.2932 134.076 89.5054 138.346 97.5947C142.423 105.294 145.334 113.773 146.596 122.837C146.693 123.617 146.79 124.494 146.887 125.274C147.179 129.465 144.655 133.266 141.064 134.533C139.705 136.092 129.223 137.067 127.088 137.067H70.8926H14.6974C12.5621 137.067 2.07997 136.19 0.721189 134.533C-2.86988 133.168 -5.39333 129.367 -5.10216 125.176C-5.00511 124.397 -5.00506 123.52 -4.81095 122.74C-3.54922 113.773 -0.637546 105.197 3.4388 97.5947C7.80631 89.5054 13.4356 82.2932 20.2295 76.2506Z" fill="#B6B7FE"/>
<path opacity="0.641" d="M20.3321 76.3521C33.8228 64.3643 51.5842 57.0547 70.9954 57.0547C90.3095 57.0547 108.071 64.3643 121.659 76.3521C128.452 82.3948 134.082 89.6069 138.449 97.5988C142.526 105.298 145.34 113.777 146.699 122.744C146.796 123.524 146.893 124.401 146.99 125.181C147.281 129.371 144.758 133.172 141.167 134.439C139.808 135.999 129.229 136.876 127.191 136.876H71.0923H14.994C12.9558 136.876 2.37685 135.999 1.01806 134.439C-2.573 133.172 -5.09645 129.371 -4.80529 125.181C-4.70823 124.401 -4.70818 123.524 -4.51407 122.744C-3.25235 113.777 -0.340671 105.298 3.73567 97.5988C7.90908 89.6069 13.5382 82.3948 20.3321 76.3521Z" fill="#B5B6FE"/>
<path opacity="0.6496" d="M20.4227 76.4459C33.9134 64.4581 51.6747 57.1484 70.9889 57.1484C90.303 57.1484 108.064 64.4581 121.555 76.4459C128.349 82.4885 133.978 89.6032 138.248 97.6925C142.325 105.392 145.139 113.774 146.498 122.74C146.595 123.52 146.692 124.3 146.789 125.177C147.081 129.27 144.557 133.169 140.966 134.338C139.607 135.898 129.028 136.677 126.99 136.677H71.0858H15.1817C13.1436 136.677 2.56435 135.8 1.20556 134.338C-2.3855 133.071 -4.90895 129.27 -4.61779 125.079C-4.52073 124.3 -4.52068 123.52 -4.32657 122.643C-3.06485 113.676 -0.250226 105.197 3.92317 97.5951C7.99952 89.7007 13.6288 82.4885 20.4227 76.4459Z" fill="#B4B5FE"/>
<path opacity="0.6581" d="M20.4258 76.5436C33.9166 64.5558 51.5808 57.2461 70.8949 57.2461C90.209 57.2461 107.873 64.4583 121.364 76.5436C128.061 82.5862 133.787 89.7009 138.057 97.7903C142.134 105.392 144.949 113.871 146.21 122.838C146.307 123.618 146.404 124.397 146.501 125.275C146.792 129.368 144.269 133.169 140.678 134.436C139.416 135.898 128.74 136.775 126.702 136.775H70.8949H15.0878C13.1466 136.775 2.4706 135.898 1.11181 134.436C-2.47925 133.169 -5.0027 129.368 -4.71154 125.275C-4.61448 124.495 -4.61467 123.715 -4.42056 122.838C-3.15883 113.871 -0.344071 105.49 3.73227 97.7903C8.09979 89.7009 13.729 82.5862 20.4258 76.5436Z" fill="#B3B4FE"/>
<path opacity="0.6667" d="M20.5269 76.6414C34.0176 64.6536 51.6817 57.4414 70.8988 57.4414C90.2129 57.4414 107.877 64.6536 121.271 76.6414C127.967 82.5866 133.694 89.7988 137.964 97.7906C142.041 105.393 144.855 113.872 146.117 122.741C146.214 123.521 146.311 124.3 146.408 125.177C146.699 129.271 144.176 133.072 140.488 134.241C139.226 135.703 128.453 136.483 126.609 136.483H70.8988H15.1888C13.2477 136.483 2.5715 135.703 1.30977 134.241C-2.28129 133.072 -4.90189 129.271 -4.61073 125.08C-4.51367 124.3 -4.51362 123.521 -4.31951 122.643C-3.05779 113.677 -0.243261 105.295 3.83308 97.6931C8.2006 89.7987 13.83 82.5866 20.5269 76.6414Z" fill="#B2B3FE"/>
<path opacity="0.6752" d="M20.6216 76.739C34.0153 64.7512 51.6796 57.5391 70.9938 57.5391C90.2108 57.5391 107.875 64.7512 121.366 76.739C128.062 82.6842 133.789 89.8964 138.059 97.8882C142.136 105.49 144.95 113.872 146.212 122.741C146.309 123.521 146.406 124.3 146.503 125.178C146.794 129.271 144.271 133.072 140.583 134.241C139.321 135.606 128.548 136.483 126.704 136.483H71.0907H15.4776C13.6336 136.483 2.76351 135.703 1.59884 134.241C-1.99223 133.072 -4.61283 129.271 -4.32166 125.178C-4.22461 124.398 -4.22456 123.618 -4.03045 122.741C-2.76872 113.872 0.0458007 105.49 4.12215 97.8882C8.19849 89.8964 13.9248 82.6842 20.6216 76.739Z" fill="#B1B2FE"/>
<path opacity="0.6838" d="M20.7188 76.8367C34.1125 64.8489 51.7767 57.6367 70.9938 57.6367C90.2108 57.6367 107.875 64.8489 121.269 76.8367C127.965 82.7819 133.595 89.9941 137.865 97.9859C141.941 105.588 144.756 113.97 146.018 122.839C146.115 123.618 146.212 124.398 146.309 125.275C146.6 129.369 143.98 133.17 140.389 134.242C139.224 135.606 128.257 136.386 126.51 136.386H70.9938H15.4776C13.6336 136.386 2.76351 135.606 1.59884 134.242C-1.99223 133.072 -4.61283 129.369 -4.32166 125.178C-4.22461 124.398 -4.22456 123.618 -4.03045 122.839C-2.76872 113.97 0.0458016 105.588 4.12215 97.9859C8.29555 89.8966 14.0219 82.7819 20.7188 76.8367Z" fill="#B0B1FE"/>
<path opacity="0.6923" d="M20.8136 76.9345C34.2073 65.0442 51.7746 57.832 70.9916 57.832C90.2087 57.832 107.776 65.0442 121.169 76.9345C127.866 82.8797 133.495 89.9945 137.766 97.9863C141.842 105.588 144.56 113.873 145.919 122.742C146.016 123.521 146.113 124.301 146.21 125.081C146.501 129.174 143.88 132.975 140.289 134.047C139.125 135.412 128.157 136.094 126.41 136.094H71.0885H15.7667C14.0197 136.094 3.05233 135.314 1.88766 134.047C-1.7034 132.975 -4.32377 129.174 -4.0326 125.081C-3.93554 124.301 -3.83844 123.521 -3.74139 122.742C-2.47966 113.873 0.334866 105.588 4.41121 97.9863C8.3905 89.9945 14.1167 82.8797 20.8136 76.9345Z" fill="#AFB0FE"/>
<path opacity="0.7009" d="M20.8136 77.0322C34.2073 65.1419 51.7745 57.9297 70.8945 57.9297C90.1115 57.9297 107.679 65.1419 120.975 77.0322C127.672 82.9774 133.301 90.0921 137.572 98.084C141.551 105.686 144.366 113.97 145.725 122.839C145.822 123.619 145.919 124.399 146.016 125.178C146.307 129.272 143.686 132.975 140.095 134.047C138.931 135.314 127.963 136.094 126.216 136.094H70.9916H15.7667C14.0197 136.094 3.05233 135.314 1.88766 134.047C-1.7034 132.975 -4.32377 129.174 -4.0326 125.081C-3.93554 124.301 -3.83844 123.522 -3.74139 122.742C-2.47966 113.873 0.334866 105.589 4.41121 98.084C8.48756 90.0921 14.1167 82.9774 20.8136 77.0322Z" fill="#AEAFFE"/>
<path opacity="0.7094" d="M20.9161 77.1298C34.3098 65.2395 51.7799 58.0273 70.997 58.0273C90.117 58.0273 107.684 65.2395 121.078 77.1298C127.775 83.075 133.404 90.1897 137.577 98.1816C141.556 105.686 144.371 114.068 145.633 122.839C145.73 123.619 145.827 124.399 145.924 125.179C146.215 129.272 143.595 132.976 140.004 134.048C138.936 135.315 127.774 135.997 126.125 135.997H70.997H15.8692C14.2193 135.997 3.15487 135.315 1.9902 134.048C-1.69792 132.976 -4.22147 129.272 -3.9303 125.179C-3.83325 124.399 -3.73614 123.619 -3.63909 122.839C-2.37736 114.068 0.437306 105.686 4.4166 98.1816C8.59 90.1897 14.2192 83.075 20.9161 77.1298Z" fill="#ADAEFE"/>
<path opacity="0.7179" d="M21.0095 77.2275C34.3061 65.3372 51.8733 58.125 70.9933 58.125C90.1133 58.125 107.583 65.3372 120.977 77.2275C127.674 83.1727 133.303 90.2874 137.477 98.2793C141.456 105.784 144.27 114.068 145.532 122.84C145.629 123.619 145.726 124.399 145.823 125.179C146.114 129.272 143.494 132.976 139.903 133.95C138.835 135.12 127.674 135.9 126.024 135.9H70.9933H15.9624C14.3125 135.9 3.15122 135.217 2.08361 133.95C-1.60451 132.976 -4.22512 129.175 -3.83689 125.081C-3.73984 124.302 -3.64273 123.522 -3.54568 122.742C-2.28395 113.971 0.530715 105.686 4.51 98.1818C8.6834 90.1899 14.3126 83.0752 21.0095 77.2275Z" fill="#ACADFE"/>
<path opacity="0.7265" d="M21.103 77.2277C34.3997 65.3374 51.8699 58.2227 70.9899 58.2227C90.1099 58.2227 107.58 65.4348 120.876 77.2277C127.573 83.1729 133.105 90.2876 137.376 98.182C141.355 105.687 144.17 113.971 145.432 122.742C145.529 123.522 145.626 124.302 145.723 125.081C146.014 129.175 143.393 132.878 139.802 133.853C138.735 135.023 127.573 135.705 125.923 135.705H70.9899H16.0562C14.5033 135.705 3.24474 135.023 2.17712 133.853C-1.511 132.878 -4.13136 129.175 -3.74314 125.081C-3.64608 124.302 -3.54922 123.522 -3.45216 122.742C-2.19044 113.971 0.62423 105.687 4.60352 98.182C8.77692 90.2876 14.4062 83.1729 21.103 77.2277Z" fill="#ABACFE"/>
<path opacity="0.735" d="M21.1026 77.3254C34.3993 65.5325 51.8694 58.3203 70.8923 58.3203C89.9152 58.3203 107.385 65.5325 120.682 77.3254C127.282 83.2705 132.911 90.2878 137.181 98.2797C141.161 105.784 143.975 113.971 145.237 122.743C145.334 123.522 145.431 124.302 145.528 125.082C145.819 129.175 143.199 132.879 139.511 133.756C138.54 134.925 127.185 135.51 125.729 135.51H70.8923H16.0557C14.5029 135.51 3.24442 134.828 2.27386 133.756C-1.41426 132.781 -4.03472 129.078 -3.74355 124.984C-3.6465 124.204 -3.54963 123.425 -3.45257 122.645C-2.19085 113.874 0.623819 105.687 4.60311 98.1822C8.87357 90.3852 14.5028 83.2705 21.1026 77.3254Z" fill="#AAABFE"/>
<path opacity="0.7436" d="M21.201 77.423C34.4977 65.6301 51.8706 58.418 70.8935 58.418C89.9165 58.418 107.386 65.5327 120.586 77.423C127.186 83.3682 132.815 90.3855 136.989 98.3773C140.968 105.882 143.685 114.069 145.044 122.743C145.141 123.522 145.238 124.302 145.335 125.082C145.627 129.175 143.006 132.879 139.318 133.756C138.347 134.828 126.992 135.51 125.536 135.51H70.8935H16.2511C14.7952 135.51 3.43973 134.828 2.46918 133.756C-1.21895 132.879 -3.83941 129.175 -3.54824 125.082C-3.45118 124.302 -3.35408 123.522 -3.25702 122.743C-1.9953 114.069 0.819132 105.784 4.79842 98.3773C8.97182 90.3855 14.6012 83.3682 21.201 77.423Z" fill="#A9AAFE"/>
<path opacity="0.7521" d="M21.2958 77.5209C34.4954 65.728 51.9656 58.6133 70.9885 58.6133C90.0115 58.6133 107.384 65.728 120.681 77.5209C127.281 83.4661 132.91 90.4833 137.083 98.3777C141.063 105.785 143.78 114.069 145.139 122.743C145.236 123.523 145.333 124.303 145.43 125.082C145.819 129.176 143.101 132.782 139.413 133.659C138.442 134.731 126.99 135.316 125.631 135.316H71.0855H16.5401C15.0843 135.316 3.7288 134.731 2.75824 133.659C-0.929883 132.782 -3.55034 129.078 -3.25918 124.985C-3.16212 124.205 -3.06525 123.425 -2.9682 122.646C-1.70647 113.972 1.10819 105.785 5.08748 98.2803C9.06677 90.4833 14.696 83.4661 21.2958 77.5209Z" fill="#A8A9FD"/>
<path opacity="0.7607" d="M21.3929 77.6186C34.5925 65.8257 51.9656 58.7109 70.9885 58.7109C90.0115 58.7109 107.384 65.8257 120.584 77.6186C127.184 83.4663 132.716 90.581 136.987 98.4754C140.966 105.883 143.683 114.069 144.945 122.743C145.042 123.523 145.139 124.303 145.236 125.082C145.624 129.078 142.907 132.782 139.219 133.659C138.345 134.731 126.796 135.316 125.437 135.316H70.9885H16.5401C15.1813 135.316 3.63174 134.731 2.75824 133.659C-0.929883 132.782 -3.55034 129.078 -3.25918 125.082C-3.16212 124.303 -3.06525 123.523 -2.9682 122.743C-1.70647 114.069 1.10834 105.883 4.99057 98.4754C9.16397 90.581 14.7931 83.4663 21.3929 77.6186Z" fill="#A7A8FD"/>
<path opacity="0.7692" d="M21.3921 77.7162C34.5917 65.9233 51.9647 58.8086 70.8906 58.8086C89.8165 58.8086 107.19 65.9233 120.389 77.7162C126.989 83.5639 132.521 90.6786 136.791 98.573C140.771 105.98 143.488 114.167 144.75 122.841C144.847 123.621 144.944 124.4 145.041 125.18C145.429 129.176 142.712 132.88 139.024 133.659C138.15 134.634 126.601 135.219 125.242 135.219H70.8906H16.5394C15.1806 135.219 3.63098 134.634 2.75747 133.659C-0.930647 132.782 -3.64816 129.176 -3.25994 125.083C-3.16288 124.303 -3.06602 123.523 -2.96896 122.744C-1.70724 114.069 1.10757 105.98 4.98981 98.4756C9.26026 90.6786 14.7924 83.5639 21.3921 77.7162Z" fill="#A6A7FD"/>
<path opacity="0.7778" d="M21.4893 77.8139C34.6889 66.021 51.9647 58.9062 70.8906 58.9062C89.8165 58.9062 107.189 66.021 120.292 77.8139C126.892 83.6616 132.424 90.6788 136.597 98.5732C140.577 105.98 143.294 114.07 144.556 122.744C144.653 123.523 144.75 124.303 144.847 125.083C145.235 129.079 142.518 132.782 138.83 133.562C137.956 134.537 126.31 135.024 125.048 135.024H70.7935H16.5394C15.2776 135.024 3.63098 134.439 2.75748 133.562C-0.930647 132.782 -3.64816 129.079 -3.25994 125.083C-3.16288 124.303 -3.06602 123.523 -2.96896 122.744C-1.70724 114.07 1.01052 105.98 4.98981 98.5732C9.35732 90.6788 14.8895 83.6616 21.4893 77.8139Z" fill="#A5A6FD"/>
<path opacity="0.7863" d="M21.5931 77.9117C34.7927 66.2163 52.0688 59.1016 70.9947 59.1016C89.9206 59.1016 107.196 66.2163 120.396 77.9117C126.996 83.7594 132.528 90.7766 136.701 98.671C140.584 106.078 143.398 114.167 144.66 122.744C144.757 123.524 144.854 124.303 144.951 125.083C145.339 129.079 142.622 132.783 138.934 133.465C138.157 134.342 126.413 134.927 125.152 134.927H71.0916H17.0315C15.7698 134.927 4.12316 134.44 3.24966 133.465C-0.438459 132.685 -3.15598 129.079 -2.76775 124.986C-2.6707 124.206 -2.57383 123.426 -2.47677 122.647C-1.21505 114.07 1.5027 105.883 5.48199 98.5736C9.46128 90.7767 14.9933 83.7594 21.5931 77.9117Z" fill="#A4A5FD"/>
<path opacity="0.7949" d="M21.6884 78.0055C34.7909 66.3101 52.0669 59.1953 70.9928 59.1953C89.8216 59.1953 107.097 66.3101 120.297 78.0055C126.897 83.8532 132.429 90.8704 136.602 98.7649C140.485 106.172 143.299 114.261 144.561 122.838C144.658 123.618 144.755 124.397 144.852 125.177C145.24 129.173 142.523 132.779 138.835 133.559C138.058 134.436 126.314 134.923 125.15 134.923H71.1868H17.2237C16.059 134.923 4.31541 134.436 3.53896 133.559C-0.149163 132.779 -2.86692 129.173 -2.47869 125.177C-2.38164 124.397 -2.28453 123.618 -2.18748 122.838C-0.925752 114.261 1.79176 106.172 5.77105 98.7649C9.55623 90.8704 15.0886 83.8532 21.6884 78.0055Z" fill="#A3A4FD"/>
<path opacity="0.8034" d="M21.784 78.1031C34.8866 66.4077 52.1627 59.293 70.9915 59.293C89.8204 59.293 107.096 66.4077 120.199 78.1031C126.799 83.9508 132.234 90.9681 136.407 98.765C140.289 106.075 143.007 114.164 144.366 122.741C144.463 123.52 144.56 124.3 144.657 125.08C145.045 129.076 142.328 132.682 138.639 133.364C137.863 134.241 126.022 134.728 124.954 134.728H71.0884H17.0284C15.8637 134.728 4.0228 134.241 3.34341 133.364C-0.344709 132.682 -3.06223 129.076 -2.674 124.982C-2.57695 124.203 -2.47984 123.423 -2.38279 122.643C-1.12106 114.067 1.5966 105.977 5.47883 98.6675C9.65223 90.8706 15.1842 83.9508 21.784 78.1031Z" fill="#A2A3FD"/>
<path opacity="0.812" d="M21.7872 78.2009C34.8898 66.5055 52.0688 59.4883 70.8976 59.4883C89.7264 59.4883 106.905 66.6029 120.008 78.2009C126.511 84.0486 132.043 91.0659 136.216 98.8628C140.098 106.172 142.816 114.262 144.078 122.838C144.175 123.618 144.272 124.398 144.369 125.178C144.757 129.174 142.039 132.78 138.254 133.462C137.575 134.242 125.637 134.729 124.57 134.729H70.8005H17.0316C15.964 134.729 4.02603 134.242 3.34664 133.462C-0.341485 132.78 -3.05886 129.174 -2.76769 125.178C-2.67064 124.398 -2.57377 123.618 -2.47671 122.838C-1.21499 114.262 1.50267 106.27 5.3849 98.9603C9.75242 90.9685 15.2845 83.9512 21.7872 78.2009Z" fill="#A1A2FD"/>
<path opacity="0.8205" d="M21.8813 78.2009C34.9839 66.5055 52.1628 59.4883 70.9917 59.4883C89.8205 59.4883 106.999 66.5055 120.102 78.2009C126.605 84.0486 132.137 90.9684 136.31 98.8628C140.192 106.172 142.91 114.164 144.172 122.741C144.269 123.521 144.366 124.3 144.463 125.08C144.851 129.076 142.133 132.682 138.348 133.267C137.669 134.047 125.731 134.534 124.663 134.534H70.9917H17.3197C16.2521 134.534 4.31416 134.047 3.63477 133.267C-0.0533526 132.585 -2.86802 128.979 -2.4798 124.983C-2.38274 124.203 -2.28564 123.423 -2.18858 122.644C-0.926855 114.164 1.7908 106.075 5.67304 98.7654C9.84644 91.0659 15.3786 84.0486 21.8813 78.2009Z" fill="#A0A1FD"/>
<path opacity="0.8291" d="M21.9751 78.2986C34.9805 66.7007 52.1594 59.5859 70.9883 59.5859C89.72 59.5859 106.899 66.6032 120.001 78.2986C126.504 84.1463 132.036 91.0661 136.21 98.863C140.092 106.173 142.809 114.165 144.071 122.644C144.168 123.423 144.265 124.203 144.362 124.885C144.751 128.881 141.936 132.487 138.248 133.072C137.568 133.852 125.534 134.242 124.563 134.242H70.9883H17.4133C16.4427 134.242 4.40791 133.852 3.72852 133.072C0.0403974 132.487 -2.77427 128.881 -2.38605 124.885C-2.28899 124.106 -2.19189 123.326 -2.09483 122.546C-0.833105 114.067 1.88432 106.075 5.76655 98.7656C9.93995 91.0661 15.4723 84.1463 21.9751 78.2986Z" fill="#9FA0FD"/>
<path opacity="0.8376" d="M22.0732 78.3963C35.0787 66.7983 52.2577 59.6836 70.9895 59.6836C89.7213 59.6836 106.9 66.7009 119.906 78.3963C126.408 84.244 131.941 91.1638 136.017 98.9608C139.899 106.27 142.617 114.262 143.878 122.741C143.975 123.521 144.072 124.301 144.17 124.983C144.558 128.979 141.743 132.488 138.055 133.072C137.473 133.755 125.341 134.144 124.37 134.144H70.9895H17.6088C16.6382 134.144 4.60322 133.755 3.92383 133.072C0.23571 132.488 -2.57896 128.882 -2.19073 124.886C-2.09368 124.106 -1.99657 123.326 -1.89952 122.644C-0.637793 114.165 2.07987 106.173 5.9621 98.8633C10.0384 91.1638 15.4734 84.244 22.0732 78.3963Z" fill="#9EA0FD"/>
<path opacity="0.8462" d="M22.0732 78.4942C35.0787 66.8962 52.1606 59.8789 70.8924 59.8789C89.6241 59.8789 106.706 66.8962 119.712 78.4942C126.214 84.3419 131.649 91.2616 135.823 99.0586C139.705 106.271 142.423 114.263 143.684 122.742C143.781 123.521 143.878 124.301 143.975 124.983C144.364 128.979 141.549 132.488 137.861 133.073C137.279 133.755 125.049 134.145 124.176 134.145H70.8924H17.6088C16.7353 134.145 4.50617 133.755 3.92383 133.073C0.23571 132.488 -2.57896 128.979 -2.19073 124.983C-2.09368 124.204 -1.99657 123.424 -1.89952 122.742C-0.637793 114.263 2.07987 106.271 5.9621 99.0586C10.1355 91.2616 15.5705 84.3419 22.0732 78.4942Z" fill="#9D9FFD"/>
<path opacity="0.8547" d="M22.1693 78.5918C35.1748 66.9938 52.2566 59.9766 70.8913 59.9766C89.6231 59.9766 106.705 66.9938 119.613 78.5918C126.116 84.342 131.551 91.3593 135.725 99.0587C139.607 106.271 142.227 114.263 143.586 122.645C143.683 123.424 143.78 124.204 143.877 124.886C144.265 128.882 141.451 132.391 137.763 132.878C137.18 133.463 124.951 133.853 124.175 133.853H70.9884H17.8018C16.9283 133.853 4.69925 133.463 4.21397 132.878C0.428797 132.391 -2.28881 128.785 -1.90059 124.789C-1.80354 124.009 -1.70643 123.229 -1.60938 122.547C-0.34765 114.165 2.36991 106.173 6.15509 98.9613C10.2314 91.3593 15.6666 84.342 22.1693 78.5918Z" fill="#9C9EFD"/>
<path opacity="0.8632" d="M22.2675 78.6894C35.2729 67.0914 52.2579 60.0742 70.9897 60.0742C89.6244 60.0742 106.706 67.0914 119.712 78.6894C126.214 84.4397 131.649 91.3594 135.823 99.1564C139.705 106.369 142.326 114.36 143.587 122.742C143.684 123.522 143.781 124.204 143.878 124.984C144.267 128.98 141.452 132.488 137.764 132.976C137.279 133.561 124.953 133.95 124.176 133.95H71.0866H17.9971C17.2207 133.95 4.89457 133.658 4.40929 132.976C0.624109 132.488 -2.0935 128.98 -1.70528 124.984C-1.60822 124.204 -1.51112 123.424 -1.41406 122.742C-0.152338 114.36 2.56523 106.369 6.3504 99.1564C10.3297 91.3594 15.7647 84.4397 22.2675 78.6894Z" fill="#9B9DFD"/>
<path opacity="0.8718" d="M22.3666 78.7873C35.275 67.1893 52.3569 60.2695 70.9916 60.2695C89.6264 60.2695 106.611 67.2868 119.616 78.7873C126.119 84.5375 131.554 91.4573 135.631 99.2543C139.416 106.466 142.133 114.361 143.395 122.743C143.492 123.522 143.589 124.204 143.686 124.984C144.075 128.883 141.26 132.489 137.572 132.879C137.087 133.463 124.663 133.756 123.984 133.756H70.9916H17.9991C17.2226 133.756 4.89652 133.463 4.41124 132.879C0.626061 132.391 -2.1886 128.883 -1.70333 124.887C-1.60627 124.107 -1.50917 123.327 -1.41211 122.645C-0.150385 114.263 2.56718 106.369 6.35236 99.1568C10.4287 91.4573 15.8638 84.5375 22.3666 78.7873Z" fill="#9A9CFD"/>
<path opacity="0.8803" d="M22.3635 78.8849C35.2719 67.3844 52.2567 60.3672 70.8914 60.3672C89.5262 60.3672 106.511 67.3844 119.419 78.8849C125.922 84.6352 131.357 91.555 135.434 99.2545C139.219 106.467 141.936 114.361 143.198 122.743C143.295 123.522 143.392 124.205 143.489 124.984C143.877 128.883 141.063 132.489 137.278 132.879C136.792 133.366 124.369 133.659 123.69 133.659H70.8914H18.0932C17.4138 133.659 4.99061 133.366 4.50533 132.879C0.720156 132.489 -2.09461 128.883 -1.70638 124.984C-1.60933 124.205 -1.51222 123.522 -1.41517 122.743C-0.153442 114.361 2.56412 106.467 6.3493 99.3519C10.5227 91.555 15.9578 84.6352 22.3635 78.8849Z" fill="#999BFD"/>
<path opacity="0.8889" d="M22.4651 78.9826C35.3735 67.4821 52.3582 60.4648 70.8959 60.4648C89.4335 60.4648 106.418 67.4821 119.327 78.9826C125.732 84.7328 131.167 91.6526 135.341 99.3521C139.126 106.564 141.844 114.361 143.105 122.743C143.202 123.523 143.299 124.205 143.397 124.985C143.785 128.883 140.97 132.392 137.185 132.781C136.797 133.269 124.277 133.561 123.597 133.561H70.8959H18.1945C17.5151 133.561 4.99488 133.269 4.60666 132.781C0.821484 132.392 -1.99304 128.883 -1.60482 124.887C-1.50776 124.107 -1.41066 123.425 -1.3136 122.645C-0.0518768 114.264 2.66569 106.467 6.45086 99.2546C10.6243 91.5552 16.0594 84.7328 22.4651 78.9826Z" fill="#989AFD"/>
<path opacity="0.8974" d="M22.5632 79.0802C35.4717 67.5798 52.3595 60.5625 70.9942 60.5625C89.5319 60.5625 106.517 67.5798 119.425 79.0802C125.831 84.8305 131.266 91.7503 135.342 99.4498C139.127 106.565 141.845 114.459 143.107 122.743C143.204 123.523 143.301 124.205 143.398 124.985C143.786 128.883 140.971 132.392 137.186 132.782C136.798 133.269 124.181 133.464 123.598 133.464H70.9942H18.3898C17.8075 133.464 5.1902 133.172 4.80197 132.782C1.0168 132.392 -1.79773 128.883 -1.40951 124.985C-1.31245 124.205 -1.21535 123.523 -1.11829 122.743C0.143436 114.459 2.76394 106.565 6.64618 99.4498C10.7225 91.6529 16.1576 84.8305 22.5632 79.0802Z" fill="#9799FD"/>
<path opacity="0.906" d="M22.657 79.0805C35.5654 67.58 52.4532 60.6602 70.9909 60.6602C89.5285 60.6602 106.416 67.58 119.324 79.0805C125.73 84.8307 131.165 91.653 135.242 99.3525C139.027 106.467 141.647 114.362 143.006 122.646C143.103 123.426 143.2 124.108 143.297 124.888C143.686 128.786 140.871 132.295 137.086 132.587C136.698 132.977 124.08 133.269 123.498 133.269H70.9909H18.4835C17.9012 133.269 5.28395 133.074 4.89572 132.587C1.11055 132.295 -1.70398 128.786 -1.31576 124.79C-1.2187 124.01 -1.12183 123.328 -1.02478 122.548C0.236949 114.264 2.8576 106.467 6.64278 99.2551C10.8162 91.7505 16.2513 84.8307 22.657 79.0805Z" fill="#9698FD"/>
<path opacity="0.9145" d="M22.7554 79.1781C35.5668 67.6776 52.4547 60.7578 70.9924 60.7578C89.53 60.7578 106.418 67.6776 119.229 79.1781C125.635 84.9283 131.07 91.7507 135.146 99.4502C138.931 106.565 141.552 114.362 142.814 122.646C142.911 123.426 143.008 124.108 143.105 124.888C143.493 128.786 140.678 132.295 136.893 132.587C136.602 132.977 123.791 133.172 123.305 133.172H70.8952H18.4851C17.9998 133.172 5.28547 132.977 4.89725 132.587C1.11207 132.295 -1.79951 128.786 -1.31423 124.888C-1.21718 124.108 -1.12031 123.426 -1.02326 122.646C0.23847 114.362 2.85912 106.565 6.6443 99.4502C10.9148 91.8481 16.2527 84.9283 22.7554 79.1781Z" fill="#9597FD"/>
<path opacity="0.9231" d="M22.7567 79.2719C35.568 67.8688 52.4559 60.8516 70.8965 60.8516C89.3371 60.8516 106.225 67.7714 119.036 79.2719C125.442 85.0221 130.877 91.8444 134.953 99.5439C138.739 106.659 141.359 114.456 142.621 122.642C142.718 123.422 142.815 124.104 142.912 124.884C143.397 128.782 140.486 132.291 136.7 132.486C136.409 132.778 123.598 132.973 123.209 132.973H70.8965H18.5835C18.0982 132.973 5.38373 132.778 5.09256 132.486C1.30738 132.194 -1.6042 128.685 -1.11892 124.787C-1.02187 124.007 -0.924762 123.325 -0.827706 122.545C0.43402 114.261 3.05443 106.464 6.83961 99.4465C11.013 91.8445 16.351 85.0221 22.7567 79.2719Z" fill="#9496FD"/>
<path opacity="0.9316" d="M22.8551 79.3697C35.6664 67.9667 52.4571 61.0469 70.8977 61.0469C89.3383 61.0469 106.226 67.9667 118.94 79.3697C125.346 85.1199 130.684 91.9423 134.761 99.5443C138.546 106.659 141.166 114.359 142.428 122.643C142.525 123.422 142.622 124.105 142.719 124.884C143.204 128.783 140.293 132.194 136.508 132.486C136.216 132.779 123.405 132.974 123.017 132.974H70.8977H18.7788C18.3906 132.974 5.48198 132.779 5.28787 132.486C1.50269 132.194 -1.40889 128.783 -0.923609 124.884C-0.826553 124.105 -0.729449 123.422 -0.632394 122.643C0.629332 114.456 3.24975 106.659 7.03492 99.5443C11.1113 91.9423 16.4494 85.1199 22.8551 79.3697Z" fill="#9395FD"/>
<path opacity="0.9402" d="M22.9501 79.4674C35.7614 68.0644 52.5521 61.1445 70.9927 61.1445C89.4333 61.1445 106.224 68.0644 119.035 79.4674C125.441 85.2177 130.779 92.0399 134.855 99.642C138.64 106.659 141.261 114.456 142.523 122.643C142.62 123.423 142.717 124.105 142.814 124.885C143.299 128.783 140.387 132.194 136.602 132.389C136.408 132.682 123.403 132.779 123.112 132.779H71.0896H19.0678C18.6796 132.779 5.77104 132.584 5.57693 132.389C1.79175 132.194 -1.11983 128.686 -0.634546 124.787C-0.53749 124.007 -0.440387 123.325 -0.343331 122.545C0.918395 114.359 3.53881 106.562 7.32399 99.5445C11.2062 92.04 16.5444 85.2177 22.9501 79.4674Z" fill="#9294FD"/>
<path opacity="0.9487" d="M23.0478 79.565C35.7621 68.162 52.5529 61.2422 70.9935 61.2422C89.3371 61.2422 106.128 68.162 118.939 79.565C125.345 85.2178 130.683 92.0401 134.759 99.7396C138.544 106.757 141.165 114.554 142.427 122.741C142.524 123.52 142.621 124.202 142.718 124.982C143.203 128.881 140.291 132.292 136.409 132.487C136.215 132.682 123.21 132.877 122.918 132.877H70.9935H19.0687C18.7775 132.877 5.77188 132.779 5.57777 132.487C1.79259 132.292 -1.11908 128.881 -0.730859 124.982C-0.633804 124.202 -0.5367 123.52 -0.439644 122.741C0.822081 114.554 3.44249 106.854 7.22767 99.8371C11.304 92.0401 16.6421 85.2178 23.0478 79.565Z" fill="#9193FD"/>
<path opacity="0.9573" d="M23.0478 79.6627C35.7621 68.2596 52.5528 61.3398 70.8964 61.3398C89.24 61.3398 106.031 68.2596 118.745 79.6627C125.151 85.3154 130.489 92.1378 134.565 99.7398C138.253 106.757 140.874 114.457 142.232 122.643C142.33 123.326 142.427 124.105 142.524 124.885C143.009 128.783 140.097 132.195 136.215 132.292C136.021 132.487 123.015 132.584 122.724 132.584H70.8964H19.0687C18.7775 132.584 5.77188 132.487 5.57777 132.292C1.79259 132.097 -1.11908 128.686 -0.730859 124.788C-0.633804 124.008 -0.5367 123.326 -0.439644 122.546C0.822082 114.359 3.44264 106.66 7.13076 99.6423C11.4012 92.1378 16.7392 85.3154 23.0478 79.6627Z" fill="#9092FD"/>
<path opacity="0.9658" d="M23.1414 79.7605C35.8557 68.455 52.5493 61.5352 70.8929 61.5352C89.2364 61.5352 105.93 68.455 118.644 79.7605C125.05 85.4133 130.388 92.2356 134.367 99.8377C138.055 106.855 140.676 114.554 141.938 122.644C142.035 123.326 142.132 124.106 142.229 124.788C142.714 128.686 139.803 132.098 135.92 132.195C135.823 132.39 122.624 132.39 122.43 132.39H70.6988H18.968C18.7739 132.39 5.67143 132.292 5.47732 132.195C1.69214 132.098 -1.31659 128.686 -0.831313 124.788C-0.734258 124.008 -0.637391 123.326 -0.540336 122.546C0.72139 114.359 3.34195 106.757 7.03007 99.7402C11.4946 92.2356 16.8328 85.4133 23.1414 79.7605Z" fill="#8F91FD"/>
<path opacity="0.9744" d="M23.2442 79.8582C35.9586 68.5526 52.6524 61.6328 70.9959 61.6328C89.3395 61.6328 106.033 68.5526 118.747 79.8582C125.056 85.511 130.394 92.3333 134.47 99.9354C138.158 106.953 140.779 114.555 142.041 122.741C142.138 123.424 142.235 124.203 142.332 124.886C142.817 128.784 139.808 132.195 136.023 132.293C135.926 132.39 122.727 132.488 122.532 132.488H70.8988H19.2651C19.071 132.488 5.87125 132.39 5.77419 132.293C1.98901 132.195 -1.01972 128.784 -0.534438 124.886C-0.437383 124.106 -0.340279 123.424 -0.243224 122.644C1.0185 114.555 3.63906 106.855 7.32718 99.8379C11.5976 92.2358 16.9356 85.511 23.2442 79.8582Z" fill="#8E90FD"/>
<path opacity="0.9829" d="M23.3405 79.9558C36.0548 68.6503 52.6514 61.7305 70.995 61.7305C89.2415 61.7305 105.935 68.6503 118.649 79.9558C124.958 85.6086 130.296 92.431 134.372 99.9355C138.06 106.953 140.681 114.555 141.943 122.644C142.04 123.326 142.137 124.106 142.234 124.788C142.719 128.589 139.71 132 135.925 132.098C135.828 132.195 122.629 132.195 122.532 132.195H71.0919H19.6523C19.5553 132.195 6.25857 132.195 6.25857 132.098C2.47339 132 -0.535343 128.589 -0.0500635 124.788C0.0469923 124.009 0.144096 123.326 0.241151 122.547C1.50288 114.457 4.12343 106.758 7.81155 99.838C11.5967 92.3335 16.9348 85.6086 23.3405 79.9558Z" fill="#8D8FFD"/>
<path opacity="0.9915" d="M23.4376 80.0537C36.0549 68.7481 52.7485 61.9258 70.995 61.9258C89.2415 61.9258 105.935 68.7481 118.552 80.0537C124.861 85.7064 130.199 92.4313 134.178 100.033C137.866 106.953 140.487 114.653 141.749 122.742C141.846 123.424 141.943 124.204 142.04 124.886C142.525 128.687 139.516 132.098 135.731 132.196L122.337 132.293H70.995H19.6523C19.5553 132.293 6.25857 132.293 6.25857 132.196C2.47339 132.196 -0.535343 128.785 -0.0500635 124.886C0.0469924 124.106 0.144096 123.424 0.241151 122.742C1.50288 114.653 4.12343 107.051 7.81155 100.131C11.6938 92.4313 17.032 85.7064 23.4376 80.0537Z" fill="#8C8EFD"/>
<path d="M135.631 132.001C139.513 132.001 142.425 128.59 141.939 124.789C140.872 115.92 138.154 107.538 134.078 100.033C130.099 92.4313 124.76 85.7064 118.452 80.0537C105.835 68.7481 89.141 61.9258 70.9916 61.9258C52.7451 61.9258 36.1484 68.7481 23.5312 80.0537C17.2225 85.7064 11.8846 92.4313 7.9053 100.033C3.92602 107.635 1.20836 115.92 0.0436865 124.789C-0.441593 128.59 2.56714 132.001 6.35232 132.001H70.9916H135.631Z" fill="#8B8DFD"/>
</g>
<g opacity="0.8">
<path opacity="0.8" d="M108.943 30.8349C112.923 51.3019 99.723 71.0867 79.3413 75.0826C59.0566 79.0786 39.2573 65.8238 35.278 45.3568C31.2987 24.8898 44.4983 5.10502 64.88 1.10909C85.2618 -2.88685 104.964 10.368 108.943 30.8349Z" fill="url(#paint0_linear_1_61112)"/>
</g>
<path d="M72.0634 76.2518C64.5901 76.2518 57.3109 74.0102 51.0023 69.7219C42.5584 64.0691 36.9291 55.395 34.8909 45.4539C30.8146 24.792 44.3054 4.71483 64.7842 0.718892C74.6839 -1.23035 84.7777 0.816377 93.2216 6.46916C101.665 12.122 107.295 20.7961 109.333 30.7372C113.409 51.3991 99.9185 71.4762 79.4397 75.4721C77.0133 76.0569 74.4898 76.2518 72.0634 76.2518ZM72.2574 0.816389C69.831 0.816389 67.4046 1.01132 64.9782 1.49863C44.8877 5.49457 31.7852 25.1819 35.6674 45.3565C37.6085 55.1026 43.1407 63.5818 51.3904 69.1371C59.6402 74.6924 69.5401 76.7391 79.2456 74.7899C99.3362 70.794 112.439 51.1067 108.556 30.9321C106.615 21.1859 101.083 12.7067 92.8335 7.15141C86.6219 2.96055 79.5366 0.816389 72.2574 0.816389Z" fill="url(#paint1_linear_1_61112)"/>
<defs>
<linearGradient id="paint0_linear_1_61112" x1="72.1403" y1="75.8594" x2="72.1403" y2="0.390696" gradientUnits="userSpaceOnUse">
<stop stop-color="#F2F8FF"/>
<stop offset="1" stop-color="#D9F0FF"/>
</linearGradient>
<linearGradient id="paint1_linear_1_61112" x1="72.1418" y1="76.2564" x2="72.1418" y2="-0.00670936" gradientUnits="userSpaceOnUse">
<stop stop-color="#E6F1FF"/>
<stop offset="1" stop-color="#F7FBFF"/>
</linearGradient>
</defs>
</svg>
