<svg width="104" height="96" viewBox="0 0 104 96" fill="none" xmlns="http://www.w3.org/2000/svg">
<path d="M99.3408 95.9989C102.184 95.9989 104.317 93.518 103.961 90.7536C100.691 64.9528 78.6558 45.0352 51.9996 45.0352C25.2723 45.0352 3.30754 64.9528 0.0377176 90.7536C-0.317698 93.518 1.88588 95.9989 4.65812 95.9989H99.3408Z" fill="#8B8DFD"/>
<mask id="mask0_1_74275" style="mask-type:luminance" maskUnits="userSpaceOnUse" x="25" y="0" width="56" height="56">
<path d="M79.7907 22.4247C82.7051 37.3098 73.0378 51.6987 58.1103 54.6049C43.2539 57.511 28.753 47.8711 25.8386 32.986C22.9242 18.101 32.5915 3.71203 47.519 0.8059C62.4464 -2.10024 76.8763 7.53963 79.7907 22.4247Z" fill="white"/>
</mask>
<g mask="url(#mask0_1_74275)">
<path opacity="0.01" d="M10.8407 50.7769C21.8586 41.0662 36.3596 35.2539 51.9979 35.2539C67.6362 35.2539 82.066 41.0662 93.155 50.7769C98.6995 55.5969 103.32 61.48 106.874 68.0011C110.428 74.5222 112.774 81.823 113.769 89.549C113.84 90.2579 113.911 90.9666 113.911 91.6046C113.84 95.0069 112.561 98.3383 110.286 100.961C107.514 104.08 103.462 105.852 99.3392 105.852H52.0689H4.79861C0.675786 105.852 -3.37588 104.08 -6.14813 100.961C-8.49387 98.3383 -9.77344 95.0069 -9.77344 91.6046C-9.77344 90.8958 -9.77347 90.2579 -9.63131 89.549C-8.63614 81.823 -6.29026 74.5222 -2.7361 68.0011C0.67589 61.48 5.29619 55.6677 10.8407 50.7769Z" fill="#FEFEFF"/>
<path opacity="0.017094" d="M10.9125 50.8472C21.9304 41.1365 36.3603 35.3242 51.9986 35.3242C67.6369 35.3242 82.0666 41.1365 93.0845 50.8472C98.629 55.6671 103.249 61.4794 106.804 68.0714C110.358 74.5925 112.703 81.8224 113.699 89.5484C113.77 90.2573 113.841 90.966 113.841 91.604C113.77 95.0063 112.49 98.3377 110.144 100.889C107.372 103.937 103.321 105.709 99.1977 105.709H51.9986H4.79928C0.676453 105.709 -3.37522 103.937 -6.14746 100.889C-8.42212 98.2668 -9.77267 95.0063 -9.84375 91.5331C-9.84375 90.8243 -9.84378 90.1864 -9.70162 89.4775C-8.70645 81.7515 -6.36074 74.5216 -2.80659 68.0005C0.74757 61.4794 5.36801 55.6671 10.9125 50.8472Z" fill="#FDFDFF"/>
<path opacity="0.025641" d="M10.9133 50.9215C21.9312 41.2107 36.3611 35.3984 51.9283 35.3984C67.5666 35.3984 81.9253 41.2107 92.9432 50.9215C98.4166 55.7414 103.108 61.5537 106.591 68.0748C110.074 74.5958 112.491 81.8257 113.486 89.5518C113.557 90.2606 113.628 90.9694 113.628 91.6073C113.557 95.0096 112.278 98.341 109.932 100.893C107.231 103.941 103.108 105.713 98.9853 105.713H51.8571H4.72914C0.677397 105.713 -3.44553 103.941 -6.21777 100.893C-8.49243 98.341 -9.84298 95.0096 -9.91406 91.6073C-9.91406 90.8985 -9.9141 90.2606 -9.77193 89.5518C-8.77677 81.8257 -6.43106 74.5958 -2.8769 68.0748C0.819424 61.5537 5.43993 55.7414 10.9133 50.9215Z" fill="#FCFCFF"/>
<path opacity="0.034188" d="M10.982 50.9912C21.9999 41.3513 36.3587 35.5391 51.9259 35.5391C67.4931 35.5391 81.9231 41.3513 92.8699 50.9912C98.3433 55.8111 103.035 61.6234 106.518 68.1445C110.001 74.6656 112.418 81.8246 113.413 89.5506C113.484 90.2595 113.555 90.8974 113.555 91.6062C113.484 95.0085 112.204 98.269 109.859 100.821C107.158 103.798 102.964 105.57 98.912 105.57H51.9259H4.9399C0.88816 105.57 -3.23459 103.798 -6.00684 100.821C-8.2815 98.269 -9.63204 95.0085 -9.70312 91.5353C-9.70312 90.8265 -9.70316 90.1886 -9.56099 89.4797C-8.56583 81.8246 -6.22012 74.5947 -2.66596 68.0736C0.888194 61.6234 5.50856 55.8111 10.982 50.9912Z" fill="#FBFBFF"/>
<path opacity="0.042735" d="M11.0501 51.0615C21.9969 41.4217 36.4269 35.6094 51.9941 35.6094C67.5613 35.6094 81.92 41.4217 92.9379 51.0615C98.4113 55.8815 103.032 61.6937 106.586 68.2148C110.069 74.7359 112.486 81.8949 113.41 89.5501C113.481 90.2589 113.552 90.8968 113.552 91.6056C113.481 95.0079 112.13 98.2685 109.856 100.82C107.155 103.797 102.961 105.569 98.9799 105.569H52.0651H5.15017C1.16951 105.569 -3.09551 103.797 -5.72559 100.82C-8.00025 98.2685 -9.35079 95.0079 -9.42187 91.6056C-9.42187 90.9677 -9.42191 90.2589 -9.27974 89.5501C-8.28458 81.8949 -5.93877 74.665 -2.45569 68.2148C0.9563 61.6228 5.5767 55.8815 11.0501 51.0615Z" fill="#FAFAFF"/>
<path opacity="0.051282" d="M11.1204 51.1318C22.0672 41.4919 36.426 35.6797 51.9932 35.6797C67.5604 35.6797 81.9192 41.4919 92.866 51.1318C98.3394 55.9517 102.96 61.764 106.514 68.2142C109.997 74.6644 112.343 81.8943 113.338 89.5495C113.409 90.2583 113.48 90.8962 113.48 91.605C113.409 95.0073 112.058 98.2679 109.784 100.749C107.083 103.655 102.889 105.427 98.9081 105.427H52.0642H5.22048C1.23983 105.427 -3.0252 103.655 -5.65527 100.749C-7.92993 98.197 -9.35156 94.9365 -9.35156 91.5342C-9.35156 90.8962 -9.3516 90.1874 -9.20943 89.4786C-8.21427 81.8234 -5.86845 74.6644 -2.38538 68.1433C0.955529 61.6931 5.64702 55.9517 11.1204 51.1318Z" fill="#F9F9FF"/>
<path opacity="0.059829" d="M11.1213 51.2021C22.0681 41.5623 36.4268 35.75 51.9229 35.75C67.419 35.75 81.7778 41.5623 92.7246 51.2021C98.198 56.0221 102.818 61.7635 106.302 68.2845C109.785 74.7348 112.13 81.8938 113.126 89.549C113.197 90.2578 113.268 90.8957 113.268 91.6045C113.197 95.0068 111.846 98.2673 109.571 100.748C106.941 103.654 102.605 105.426 98.6957 105.426H51.9229H5.15017C1.2406 105.426 -3.09551 103.654 -5.72559 100.748C-8.00025 98.2673 -9.42187 95.0068 -9.42187 91.6045C-9.42187 90.9666 -9.42191 90.2577 -9.27974 89.6198C-8.28458 81.9646 -5.93877 74.8056 -2.45569 68.3554C1.02738 61.7635 5.71894 55.9512 11.1213 51.2021Z" fill="#F8F8FF"/>
<path opacity="0.068376" d="M11.1914 51.2015C22.1382 41.5617 36.426 35.8203 51.9221 35.8203C67.4182 35.8203 81.777 41.6325 92.6528 51.2015C98.1262 56.0215 102.746 61.7629 106.23 68.284C109.713 74.7342 112.058 81.8932 113.054 89.4775C113.125 90.1863 113.196 90.8242 113.196 91.533C113.196 94.9353 111.774 98.125 109.499 100.606C106.869 103.441 102.533 105.213 98.6237 105.213H51.9221H5.22048C1.31091 105.213 -3.0252 103.512 -5.65527 100.606C-7.92993 98.125 -9.35156 94.8645 -9.35156 91.4622C-9.35156 90.8242 -9.3516 90.1154 -9.20943 89.4775C-8.21427 81.8223 -5.86845 74.7342 -2.38538 68.284C1.0977 61.8338 5.718 56.0215 11.1914 51.2015Z" fill="#F7F7FF"/>
<path opacity="0.076923" d="M11.2689 51.2758C22.2157 41.7068 36.5034 35.8945 51.9995 35.8945C67.4957 35.8945 81.7832 41.7068 92.73 51.2758C98.2034 56.0957 102.824 61.8371 106.307 68.2873C109.79 74.7375 112.136 81.8965 113.131 89.4808C113.202 90.1896 113.273 90.8276 113.273 91.5364C113.273 94.9387 111.852 98.1284 109.577 100.609C106.947 103.444 102.611 105.146 98.7011 105.146H52.0705H5.36892C1.53043 105.146 -2.87676 103.444 -5.50684 100.609C-7.7815 98.1284 -9.20312 94.9387 -9.20312 91.5364C-9.20312 90.8985 -9.13208 90.1896 -9.06099 89.5517C-8.06583 81.9674 -5.72002 74.8084 -2.23694 68.3582C1.17505 61.8371 5.79545 56.0957 11.2689 51.2758Z" fill="#F6F6FF"/>
<path opacity="0.08547" d="M11.3375 51.3461C22.2132 41.7771 36.5011 35.9648 51.9972 35.9648C67.4933 35.9648 81.7099 41.7062 92.6567 51.3461C98.1301 56.166 102.679 61.9074 106.163 68.3576C109.646 74.8078 111.991 81.896 112.986 89.4803C113.057 90.1891 113.129 90.827 113.129 91.5358C113.129 94.9381 111.707 98.1278 109.432 100.538C106.802 103.373 102.395 105.074 98.5566 105.074H52.0682H5.57986C1.74137 105.074 -2.66582 103.373 -5.2959 100.538C-7.57056 98.0569 -8.99219 94.8673 -8.99219 91.465C-8.99219 90.827 -8.92114 90.1182 -8.85006 89.4803C-7.85489 81.896 -5.50908 74.7369 -2.026 68.3576C1.24382 61.9074 5.86409 56.166 11.3375 51.3461Z" fill="#F5F5FF"/>
<path opacity="0.094017" d="M11.4101 51.4159C22.2859 41.8469 36.5737 36.1055 51.9987 36.1055C67.4237 36.1055 81.7113 41.8469 92.5871 51.4159C98.0605 56.2358 102.61 61.9772 106.093 68.4274C109.576 74.8067 111.922 81.9657 112.846 89.55C112.917 90.2588 112.988 90.8967 112.988 91.6056C112.988 95.0079 111.566 98.1267 109.221 100.608C106.662 103.372 102.183 105.073 98.3449 105.073H51.9275H5.51021C1.74281 105.073 -2.73547 103.372 -5.36554 100.608C-7.64021 98.1976 -9.06173 94.937 -9.13281 91.6056C-9.13281 90.9676 -9.06176 90.2588 -8.99068 89.6209C-7.99552 82.0366 -5.64977 74.9485 -2.23778 68.4983C1.31638 61.9772 5.93675 56.2358 11.4101 51.4159Z" fill="#F4F4FF"/>
<path opacity="0.1026" d="M11.4086 51.4861C22.2844 41.9172 36.501 36.1758 51.926 36.1758C67.3511 36.1758 81.5677 41.9172 92.4434 51.4861C97.8458 56.2352 102.466 61.9766 105.949 68.4268C109.432 74.8061 111.778 81.8942 112.702 89.4785C112.773 90.1873 112.844 90.8253 112.844 91.5341C112.844 94.9364 111.351 98.0552 109.077 100.465C106.518 103.229 101.969 104.931 98.2722 104.931H51.926H5.57986C1.81245 104.931 -2.66575 103.229 -5.22475 100.465C-7.49941 98.0552 -8.99219 94.8655 -8.99219 91.4632C-8.99219 90.8253 -8.92114 90.1165 -8.85006 89.4785C-7.85489 81.8942 -5.50915 74.8061 -2.09716 68.4268C1.38592 61.9766 6.00632 56.3061 11.4086 51.4861Z" fill="#F3F3FF"/>
<path opacity="0.1111" d="M11.4791 51.5564C22.3548 41.9875 36.5714 36.2461 51.9254 36.2461C67.3504 36.2461 81.567 41.9875 92.3716 51.5564C97.7739 56.3055 102.394 62.0469 105.877 68.4971C109.289 74.8764 111.635 81.9645 112.63 89.478C112.701 90.1868 112.773 90.8247 112.773 91.5335C112.773 94.865 111.28 98.0546 109.005 100.465C106.446 103.158 101.897 104.859 98.2006 104.859H51.9254H5.65017C1.95385 104.859 -2.59544 103.158 -5.15443 100.465C-7.42909 98.0546 -8.92188 94.865 -8.92188 91.5335C-8.92188 90.8956 -8.85065 90.1868 -8.77957 89.5489C-7.78441 82.0354 -5.43866 74.9473 -2.02667 68.568C1.4564 62.0469 6.07681 56.3055 11.4791 51.5564Z" fill="#F2F2FF"/>
<path opacity="0.1197" d="M11.5484 51.6268C22.3531 42.0578 36.5698 36.3164 51.9948 36.3164C67.3488 36.3164 81.5654 42.0578 92.4411 51.6268C97.8434 56.3759 102.464 62.1172 105.876 68.5674C109.288 74.9467 111.633 82.0349 112.629 89.5483C112.7 90.2571 112.771 90.895 112.771 91.6039C112.771 94.9353 111.278 98.1249 109.003 100.464C106.444 103.158 101.895 104.788 98.1989 104.788H51.9948H5.7908C2.09447 104.788 -2.45499 103.087 -5.01398 100.464C-7.28864 98.0541 -8.78125 94.9353 -8.78125 91.533C-8.78125 90.8951 -8.7102 90.1863 -8.63912 89.5483C-7.64395 82.0349 -5.29821 74.9467 -1.88622 68.5674C1.52577 62.1172 6.14611 56.3759 11.5484 51.6268Z" fill="#F1F1FF"/>
<path opacity="0.1282" d="M11.6174 51.7004C22.422 42.2023 36.6387 36.4609 51.9927 36.4609C67.3466 36.4609 81.5631 42.2023 92.3678 51.7004C97.7701 56.4495 102.319 62.1909 105.803 68.5702C109.215 74.9495 111.56 81.9668 112.555 89.4802C112.627 90.1181 112.698 90.827 112.698 91.4649C112.698 94.7963 111.205 97.9151 108.93 100.325C106.371 102.948 101.751 104.649 98.1256 104.649H52.0636H6.00173C2.37649 104.649 -2.24388 102.948 -4.80287 100.325C-7.07753 97.9151 -8.57031 94.7963 -8.57031 91.4649C-8.57031 90.827 -8.49909 90.1181 -8.42801 89.4802C-7.43284 81.9668 -5.0871 74.9495 -1.67511 68.5702C1.59472 62.1909 6.21509 56.4495 11.6174 51.7004Z" fill="#F0F0FF"/>
<path opacity="0.1368" d="M11.6174 51.7707C22.422 42.2726 36.5676 36.5312 51.9215 36.5312C67.2755 36.5312 81.421 42.2726 92.2256 51.7707C97.6279 56.5198 102.177 62.2612 105.66 68.6405C109.072 75.0198 111.418 82.037 112.413 89.4796C112.484 90.1175 112.555 90.8264 112.555 91.4643C112.555 94.7957 111.063 97.9145 108.788 100.254C106.3 102.876 101.609 104.506 97.9834 104.506H51.9927H6.00173C2.37649 104.506 -2.31496 102.876 -4.80287 100.254C-7.07753 97.9145 -8.57031 94.7957 -8.57031 91.3934C-8.57031 90.7555 -8.49909 90.0466 -8.42801 89.4087C-7.43284 81.8953 -5.15818 74.878 -1.67511 68.5696C1.6658 62.1903 6.21509 56.5198 11.6174 51.7707Z" fill="#EFEFFF"/>
<path opacity="0.1453" d="M11.6875 51.8411C22.4922 42.343 36.6378 36.6016 51.9207 36.6016C67.2746 36.6016 81.4202 42.343 92.1538 51.8411C97.5561 56.5901 102.105 62.2606 105.588 68.7108C109 75.0192 111.346 82.0365 112.27 89.5499C112.341 90.1879 112.412 90.8967 112.412 91.5346C112.412 94.866 110.92 97.9848 108.645 100.324C106.157 102.876 101.466 104.577 97.8405 104.577H51.9207H6.07205C2.51789 104.577 -2.24465 102.947 -4.73256 100.324C-7.00722 97.9848 -8.5 94.866 -8.5 91.5346C-8.5 90.8967 -8.42895 90.1879 -8.35787 89.5499C-7.3627 82.1074 -5.08794 75.0901 -1.67595 68.7108C1.73604 62.2606 6.28522 56.5901 11.6875 51.8411Z" fill="#EEEEFF"/>
<path opacity="0.1538" d="M11.7602 51.9108C22.5648 42.4127 36.6394 36.7422 51.9933 36.7422C67.2762 36.7422 81.4216 42.4836 92.2263 51.9108C97.6286 56.6598 102.178 62.3303 105.59 68.7097C109.002 75.0181 111.348 82.0353 112.272 89.4779C112.343 90.1158 112.414 90.8247 112.414 91.4626C112.414 94.794 110.921 97.9127 108.647 100.181C106.159 102.733 101.396 104.363 97.8419 104.363H51.9933H6.14469C2.59053 104.363 -2.17218 102.733 -4.66009 100.181C-6.93475 97.8419 -8.49844 94.7232 -8.42736 91.3917C-8.42736 90.7538 -8.35631 90.0449 -8.28523 89.407C-7.29006 81.9645 -5.01547 74.9472 -1.60348 68.6388C1.80851 62.3304 6.35787 56.5889 11.7602 51.9108Z" fill="#EDEDFF"/>
<path opacity="0.1624" d="M11.8283 51.9108C22.5619 42.4127 36.7074 36.7422 51.9903 36.7422C67.2732 36.7422 81.3477 42.4127 92.1523 51.9108C97.5546 56.6598 102.104 62.3303 105.516 68.7097C108.928 75.0181 111.203 82.0353 112.198 89.4779C112.269 90.1158 112.34 90.8247 112.34 91.4626C112.34 94.794 110.776 97.8419 108.501 100.181C106.014 102.662 101.251 104.292 97.7678 104.292H51.9903H6.21267C2.7296 104.292 -2.10395 102.662 -4.52078 100.181C-6.79544 97.8419 -8.35938 94.794 -8.35938 91.4626C-8.35938 90.8247 -8.28833 90.1158 -8.21724 89.4779C-7.22208 82.0353 -4.94731 75.0181 -1.53532 68.7097C1.87667 62.3303 6.42602 56.6598 11.8283 51.9108Z" fill="#ECECFF"/>
<path opacity="0.1709" d="M11.9063 51.9811C22.6399 42.5539 36.7144 36.8125 51.9973 36.8125C67.2802 36.8125 81.3546 42.483 92.0881 51.9811C97.4905 56.7302 101.969 62.4007 105.452 68.78C108.864 75.0885 111.138 82.0348 112.134 89.4773C112.205 90.1153 112.276 90.8241 112.276 91.462C112.276 94.7935 110.712 97.8413 108.437 100.11C106.02 102.59 101.116 104.221 97.7036 104.221H51.9973H6.2908C2.80772 104.221 -2.026 102.59 -4.44283 100.11C-6.71749 97.8413 -8.28125 94.7226 -8.28125 91.3912C-8.28125 90.7532 -8.2102 90.0444 -8.13912 89.4065C-7.14395 81.9639 -4.86936 75.0175 -1.45737 68.7091C1.95462 62.4007 6.50398 56.7302 11.9063 51.9811Z" fill="#EBECFF"/>
<path opacity="0.1795" d="M11.9056 52.0553C22.6392 42.6281 36.7137 36.8867 51.9255 36.8867C67.2084 36.8867 81.2118 42.5572 91.9453 52.0553C97.2766 56.8043 101.826 62.4749 105.238 68.7833C108.65 75.0918 110.924 82.0381 111.92 89.4098C111.991 90.0477 112.062 90.7566 112.062 91.3945C112.062 94.7259 110.498 97.7738 108.223 100.042C105.806 102.452 100.902 104.082 97.4898 104.082H51.9255H6.36111C2.94912 104.082 -1.95552 102.452 -4.37234 100.042C-6.647 97.7738 -8.21094 94.7259 -8.21094 91.3945C-8.21094 90.7566 -8.13972 90.1186 -8.06863 89.4098C-7.07347 81.9672 -4.79888 75.0209 -1.38689 68.7833C2.02511 62.4749 6.57439 56.8043 11.9056 52.0553Z" fill="#EAEBFF"/>
<path opacity="0.188" d="M11.9744 52.1251C22.708 42.6979 36.7114 37.0273 51.9943 37.0273C67.2061 37.0273 81.2804 42.6979 92.014 52.1251C97.3452 56.8742 101.895 62.4738 105.307 68.8531C108.719 75.0906 110.993 82.037 111.988 89.4795C112.059 90.1175 112.131 90.8263 112.131 91.4642C112.131 94.7957 110.567 97.7727 108.292 100.041C105.875 102.451 100.97 104.081 97.5585 104.081H52.0653H6.57205C3.16006 104.081 -1.74458 102.451 -4.16141 100.041C-6.43607 97.7727 -8 94.7248 -8 91.3934C-8 90.7554 -7.92895 90.1175 -7.85787 89.4087C-6.8627 82.037 -4.58794 75.0907 -1.17595 68.7822C2.09388 62.5447 6.6432 56.8742 11.9744 52.1251Z" fill="#E9EAFF"/>
<path opacity="0.1966" d="M12.0454 52.1954C22.779 42.7682 36.7825 37.0977 51.9943 37.0977C67.2061 37.0977 81.2094 42.7682 91.943 52.1954C97.2742 56.8735 101.824 62.544 105.235 68.9234C108.576 75.1609 110.922 82.1073 111.846 89.4789C111.917 90.1169 111.988 90.8257 111.988 91.4636C111.988 94.7951 110.425 97.7721 108.15 100.04C105.733 102.379 100.757 104.01 97.4164 104.01H51.9943H6.57205C3.23114 104.01 -1.74458 102.379 -4.16141 100.04C-6.43607 97.7721 -8 94.7951 -8 91.4636C-8 90.8257 -7.92895 90.1878 -7.85787 89.4789C-6.8627 82.1073 -4.58801 75.1609 -1.2471 68.9234C2.16489 62.544 6.71418 56.9444 12.0454 52.1954Z" fill="#E8E9FF"/>
<path opacity="0.2051" d="M12.118 52.2657C22.7804 42.8385 36.7839 37.168 51.9957 37.168C67.2075 37.168 81.2107 42.8385 91.8732 52.2657C97.2045 56.9439 101.754 62.6144 105.166 68.9228C108.507 75.1604 110.852 82.1067 111.777 89.4784C111.848 90.1163 111.919 90.8252 111.919 91.4631C111.919 94.7945 110.355 97.7715 108.08 99.9689C105.734 102.308 100.688 103.867 97.3466 103.867H51.9957H6.64459C3.30368 103.867 -1.74329 102.308 -4.08904 99.9689C-6.3637 97.7007 -7.99854 94.7237 -7.92746 91.3922C-7.92746 90.7543 -7.85641 90.1163 -7.78532 89.4075C-6.79016 82.0359 -4.51547 75.1604 -1.17456 68.9228C2.23743 62.6144 6.71564 56.9439 12.118 52.2657Z" fill="#E7E8FF"/>
<path opacity="0.2137" d="M12.1188 52.3394C22.7813 42.9121 36.7846 37.3125 51.9254 37.3125C67.0661 37.3125 81.0695 42.983 91.7319 52.3394C97.0632 57.0175 101.541 62.688 104.953 68.9965C108.294 75.234 110.569 82.1095 111.564 89.4811C111.635 90.1191 111.706 90.8279 111.706 91.4659C111.706 94.7264 110.142 97.7743 107.868 99.9716C105.522 102.311 100.475 103.87 97.1343 103.87H51.8542H6.57428C3.30445 103.87 -1.81343 102.311 -4.15917 99.9716C-6.43384 97.7743 -8.06885 94.7264 -7.99777 91.4659C-7.99777 90.8279 -7.92672 90.19 -7.85564 89.5521C-6.86047 82.1804 -4.58578 75.3049 -1.24487 69.0673C2.30929 62.688 6.78756 57.0175 12.1188 52.3394Z" fill="#E6E7FF"/>
<path opacity="0.2222" d="M12.1876 52.4097C22.8501 43.0533 36.7823 37.3828 51.923 37.3828C67.0637 37.3828 81.067 43.0533 91.6584 52.4097C96.9897 57.0878 101.468 62.7583 104.88 69.0668C108.221 75.3043 110.496 82.1798 111.491 89.4806C111.562 90.1185 111.633 90.8274 111.633 91.4653C111.633 94.7259 109.998 97.7029 107.794 99.9002C105.449 102.168 100.331 103.728 97.0608 103.728H51.923H6.78522C3.51539 103.728 -1.60267 102.168 -3.94841 99.9002C-6.22307 97.7029 -7.85791 94.7259 -7.78683 91.3944C-7.78683 90.7565 -7.71578 90.1185 -7.6447 89.4806C-6.64954 82.1798 -4.37484 75.2335 -1.03393 69.0668C2.37806 62.6875 6.85637 57.0878 12.1876 52.4097Z" fill="#E5E6FF"/>
<path opacity="0.2308" d="M12.2611 52.48C22.9236 43.1236 36.856 37.4531 51.9967 37.4531C67.1374 37.4531 81.0697 43.1236 91.7321 52.48C97.0634 57.1581 101.542 62.7577 104.954 69.0662C108.295 75.3037 110.569 82.1083 111.564 89.48C111.635 90.1179 111.707 90.8268 111.707 91.4647C111.707 94.7253 110.072 97.7023 107.868 99.8996C105.522 102.168 100.404 103.727 97.2055 103.727H52.1389H7.07205C3.8733 103.727 -1.31577 102.168 -3.59043 99.8996C-5.86509 97.7023 -7.5 94.7253 -7.5 91.4647C-7.5 90.8268 -7.42878 90.1888 -7.35769 89.5509C-6.36253 82.2501 -4.08801 75.3747 -0.747101 69.1371C2.45164 62.7578 6.92991 57.1581 12.2611 52.48Z" fill="#E4E5FF"/>
<path opacity="0.2393" d="M12.3323 52.5503C22.9237 43.194 36.856 37.5234 51.9967 37.5234C67.1374 37.5234 80.9985 43.194 91.661 52.5503C96.9922 57.2285 101.471 62.8281 104.883 69.1365C108.223 75.3032 110.498 82.1787 111.493 89.4795C111.564 90.1174 111.635 90.7554 111.635 91.4642C111.707 94.7247 110.001 97.7017 107.726 99.8281C105.451 102.025 100.262 103.585 97.0634 103.585H52.0677H7.07205C3.8733 103.585 -1.31577 102.025 -3.59043 99.8281C-5.86509 97.6308 -7.5 94.7247 -7.5 91.3933C-7.5 90.7554 -7.42878 90.1174 -7.35769 89.4795C-6.36253 82.1787 -4.08801 75.3032 -0.747101 69.1365C2.52272 62.8281 7.00107 57.2285 12.3323 52.5503Z" fill="#E3E4FF"/>
<path opacity="0.2479" d="M12.3338 52.62C22.9252 43.2637 36.8575 37.6641 51.9271 37.6641C66.9967 37.6641 80.929 43.2637 91.5204 52.62C96.8516 57.2982 101.33 62.8978 104.671 69.2063C108.012 75.3729 110.286 82.2484 111.21 89.4783C111.281 90.1162 111.353 90.7542 111.353 91.463C111.424 94.7236 109.718 97.6296 107.443 99.827C105.168 102.024 99.9083 103.513 96.7806 103.513H51.8559H6.93142C3.80376 103.513 -1.45639 101.953 -3.73105 99.827C-6.00571 97.6296 -7.64062 94.7236 -7.64062 91.463C-7.64062 90.8251 -7.56958 90.1871 -7.49849 89.5492C-6.50333 82.2484 -4.22853 75.4438 -0.958705 69.2771C2.59545 62.8269 7.07366 57.2273 12.3338 52.62Z" fill="#E2E3FF"/>
<path opacity="0.2564" d="M12.3983 52.62C22.9897 43.2637 36.851 37.6641 51.9206 37.6641C66.9902 37.6641 80.8515 43.2637 91.4429 52.62C96.703 57.2982 101.181 62.8978 104.593 69.1354C107.934 75.3021 110.209 82.1067 111.133 89.4074C111.204 90.0454 111.275 90.6833 111.275 91.3922C111.346 94.6527 109.64 97.5588 107.365 99.6852C105.091 101.812 99.8306 103.371 96.703 103.371H51.8494H6.99606C3.86841 103.371 -1.39175 101.812 -3.66641 99.6852C-5.94107 97.5588 -7.64707 94.5817 -7.57598 91.3212C-7.57598 90.6833 -7.50493 90.0454 -7.43385 89.4074C-6.43869 82.1775 -4.16406 75.3021 -0.894235 69.1354C2.65992 62.8978 7.13813 57.2982 12.3983 52.62Z" fill="#E1E2FE"/>
<path opacity="0.265" d="M12.4749 52.6904C23.0663 43.4049 36.9276 37.7344 51.9972 37.7344C67.0668 37.7344 80.9279 43.334 91.5193 52.6904C96.7795 57.3685 101.258 62.9682 104.67 69.2057C108.011 75.3724 110.214 82.177 111.209 89.4069C111.28 90.0448 111.352 90.6827 111.352 91.3207C111.423 94.5812 109.717 97.4874 107.442 99.6138C105.238 101.74 99.8362 103.229 96.7796 103.229H51.9972H7.21481C4.15824 103.229 -1.173 101.74 -3.44766 99.6138C-5.72232 97.4874 -7.42832 94.5812 -7.35723 91.3207C-7.35723 90.6827 -7.28618 90.0448 -7.2151 89.4069C-6.21994 82.177 -4.01639 75.3724 -0.675487 69.2057C2.7365 62.9682 7.21474 57.3685 12.4749 52.6904Z" fill="#E0E1FE"/>
<path opacity="0.2735" d="M12.5445 52.764C23.1359 43.4785 36.9261 37.8789 51.9957 37.8789C66.9942 37.8789 80.8555 43.4785 91.4468 52.764C96.707 57.4422 101.185 62.9709 104.526 69.2793C107.867 75.446 110.071 82.2506 111.066 89.4805C111.137 90.1184 111.208 90.7564 111.208 91.3944C111.279 94.6549 109.573 97.4901 107.298 99.6166C105.095 101.672 99.6924 103.232 96.6358 103.232H51.9957H7.35544C4.29886 103.232 -1.10346 101.743 -3.30703 99.6166C-5.5817 97.4901 -7.28769 94.584 -7.21661 91.3234C-7.21661 90.6855 -7.14556 90.0476 -7.07448 89.4097C-6.07931 82.1798 -3.87577 75.3751 -0.534861 69.2085C2.80605 63.0418 7.21331 57.4422 12.5445 52.764Z" fill="#DFE0FE"/>
<path opacity="0.2821" d="M12.6149 52.8343C23.1352 43.5488 36.9965 37.9492 51.995 37.9492C66.9936 37.9492 80.8547 43.5488 91.375 52.8343C96.6352 57.5125 101.113 63.0412 104.454 69.2787C107.724 75.3745 109.999 82.1792 110.994 89.4091C111.065 90.047 111.136 90.6849 111.136 91.3228C111.207 94.5834 109.501 97.4187 107.227 99.5451C105.023 101.601 99.6207 103.089 96.5641 103.089H51.995H7.42575C4.44026 103.089 -1.03314 101.601 -3.23672 99.5451C-5.51138 97.4187 -7.21738 94.5834 -7.1463 91.3228C-7.1463 90.6849 -7.07507 90.047 -7.00399 89.4091C-6.00883 82.1792 -3.80528 75.4454 -0.464375 69.2787C2.87653 63.0412 7.28362 57.5125 12.6149 52.8343Z" fill="#DEDFFE"/>
<path opacity="0.2906" d="M12.6132 52.9046C23.1335 43.6192 36.9236 38.0195 51.9222 38.0195C66.9207 38.0195 80.7109 43.6192 91.2312 52.9046C96.4914 57.5119 100.97 63.1115 104.31 69.3491C107.58 75.4449 109.855 82.2495 110.85 89.4085C110.921 90.0464 110.992 90.6843 110.992 91.3223C111.063 94.5828 109.286 97.4181 107.083 99.4736C104.879 101.458 99.4057 102.947 96.4913 102.947H51.9933H7.49522C4.50973 102.947 -0.963603 101.458 -3.0961 99.4736C-5.37076 97.3472 -7.07675 94.5119 -7.00567 91.2514C-7.00567 90.6135 -6.93462 89.9756 -6.86354 89.3376C-5.86837 82.1077 -3.66483 75.374 -0.323924 69.2782C2.9459 63.1115 7.35302 57.5828 12.6132 52.9046Z" fill="#DDDEFE"/>
<path opacity="0.2991" d="M12.6828 52.9749C23.2031 43.6895 36.9933 38.0898 51.9918 38.0898C66.9904 38.0898 80.7804 43.6895 91.3007 52.9749C96.5608 57.5822 100.968 63.1818 104.38 69.4194C107.65 75.5152 109.924 82.2489 110.849 89.4788C110.92 90.1167 110.991 90.7547 110.991 91.3927C111.062 94.6532 109.285 97.4885 107.081 99.544C104.949 101.529 99.4042 103.017 96.4898 103.017H52.0628H7.63585C4.72144 103.017 -0.822978 101.529 -2.95547 99.544C-5.23013 97.4885 -6.93613 94.6532 -6.86505 91.3927C-6.86505 90.7547 -6.794 90.1167 -6.72291 89.4788C-5.72775 82.3198 -3.5241 75.5152 -0.254277 69.4194C3.01555 63.1818 7.42267 57.5822 12.6828 52.9749Z" fill="#DCDDFE"/>
<path opacity="0.3077" d="M12.7552 53.0447C23.2755 43.7592 36.9947 38.2305 51.9933 38.2305C66.9207 38.2305 80.7108 43.8301 91.2311 53.0447C96.4913 57.652 100.898 63.2516 104.239 69.4183C107.509 75.5141 109.784 82.2478 110.708 89.4068C110.779 90.0447 110.85 90.6826 110.85 91.3206C110.921 94.5811 109.144 97.3455 106.869 99.4011C104.737 101.386 99.1923 102.803 96.2779 102.803H51.9221H7.56629C4.65188 102.803 -0.892706 101.315 -3.0252 99.4011C-5.29986 97.3455 -7.07684 94.5102 -7.00575 91.2497C-7.00575 90.6118 -6.9347 89.9739 -6.86362 89.3359C-5.86846 82.1769 -3.66498 75.4432 -0.395159 69.3474C3.08792 63.1807 7.49507 57.652 12.7552 53.0447Z" fill="#DBDCFE"/>
<path opacity="0.3162" d="M12.8242 53.1189C23.2734 43.9043 37.0636 38.3047 51.9911 38.3047C66.9186 38.3047 80.7086 43.9043 91.1578 53.1189C96.418 57.7261 100.825 63.2549 104.166 69.4925C107.436 75.5883 109.711 82.322 110.635 89.4101C110.706 90.048 110.777 90.6859 110.777 91.3239C110.848 94.5844 109.071 97.3488 106.796 99.4044C104.664 101.318 99.0481 102.807 96.2048 102.807H51.9911H7.77723C4.9339 102.807 -0.681594 101.389 -2.81409 99.4044C-5.08875 97.3488 -6.8659 94.5135 -6.79481 91.3239C-6.79481 90.6859 -6.72359 90.048 -6.65251 89.4101C-5.65735 82.2511 -3.45387 75.5174 -0.184047 69.4925C3.15686 63.2549 7.56405 57.7261 12.8242 53.1189Z" fill="#DADBFE"/>
<path opacity="0.3248" d="M12.8242 53.1892C23.2734 43.9746 36.9925 38.375 51.9199 38.375C66.8474 38.375 80.5665 43.9746 91.0157 53.1892C96.2758 57.7965 100.683 63.3252 104.024 69.5628C107.294 75.6586 109.497 82.3214 110.492 89.4804C110.563 90.1184 110.635 90.7563 110.635 91.3943C110.706 94.5839 108.929 97.4191 106.654 99.4038C104.521 101.318 98.906 102.735 96.0626 102.735H51.9199H7.77723C4.9339 102.735 -0.681594 101.318 -2.81409 99.4038C-5.08875 97.3483 -6.8659 94.5839 -6.79481 91.3233C-6.79481 90.6854 -6.72359 90.0475 -6.65251 89.4096C-5.65735 82.2505 -3.45387 75.5877 -0.184047 69.4919C3.22794 63.3252 7.63513 57.7965 12.8242 53.1892Z" fill="#D9DAFE"/>
<path opacity="0.3333" d="M12.9023 53.2589C23.3515 44.0444 37.0705 38.5156 51.9269 38.5156C66.8544 38.5156 80.5023 44.0444 90.9515 53.2589C96.2116 57.8662 100.619 63.395 103.96 69.5616C107.23 75.5866 109.433 82.3203 110.428 89.4084C110.499 90.0464 110.571 90.6843 110.571 91.3222C110.642 94.5118 108.864 97.2763 106.59 99.3318C104.528 101.175 98.8418 102.592 95.9985 102.592H51.9269H7.85535C5.08311 102.592 -0.674553 101.175 -2.73596 99.3318C-5.01063 97.2763 -6.78777 94.5118 -6.71669 91.3222C-6.71669 90.6843 -6.64564 90.0464 -6.57456 89.4084C-5.57939 82.3203 -3.37575 75.5866 -0.105923 69.5616C3.30607 63.395 7.71326 57.8662 12.9023 53.2589Z" fill="#D8D9FE"/>
<path opacity="0.3419" d="M12.9718 53.3292C23.421 44.1147 37.0691 38.5859 51.9966 38.5859C66.8529 38.5859 80.5719 44.1147 91.0211 53.3292C96.2102 57.9365 100.617 63.4653 103.958 69.632C107.228 75.6569 109.432 82.3197 110.427 89.4787C110.498 90.1167 110.569 90.7547 110.569 91.3926C110.64 94.5822 108.863 97.3466 106.588 99.3313C104.527 101.174 98.7692 102.592 95.997 102.592H51.9966H7.99598C5.22374 102.592 -0.533927 101.174 -2.59534 99.3313C-4.87 97.3466 -6.64715 94.5822 -6.57606 91.3216C-6.57606 90.6837 -6.50502 90.0458 -6.43393 89.4079C-5.43877 82.3197 -3.23512 75.6569 0.0347028 69.5611C3.37561 63.3944 7.78273 57.8657 12.9718 53.3292Z" fill="#D7D8FE"/>
<path opacity="0.3504" d="M13.043 53.3292C23.4922 44.1147 37.1402 38.5859 51.9966 38.5859C66.8529 38.5859 80.5008 44.1147 90.95 53.3292C96.1391 57.9365 100.546 63.3944 103.887 69.632C107.157 75.6569 109.361 82.3197 110.285 89.4079C110.356 90.0458 110.427 90.6837 110.427 91.3216C110.498 94.5113 108.721 97.2757 106.446 99.2604C104.385 101.032 98.6271 102.45 95.8548 102.45H51.9254H7.99598C5.29482 102.45 -0.533927 101.032 -2.59534 99.2604C-4.87 97.2757 -6.64715 94.5113 -6.57606 91.3216C-6.57606 90.6837 -6.50502 90.0458 -6.43393 89.4079C-5.43877 82.3197 -3.23519 75.6569 -0.0364494 69.632C3.44662 63.4653 7.7828 57.9365 13.043 53.3292Z" fill="#D6D7FE"/>
<path opacity="0.359" d="M13.0393 53.3996C23.4174 44.2559 37.0653 38.6562 51.9217 38.6562C66.7781 38.6562 80.426 44.185 90.8042 53.3996C95.9932 58.0068 100.4 63.4647 103.741 69.6314C107.011 75.6563 109.215 82.3192 110.139 89.3364C110.21 89.9743 110.281 90.6122 110.281 91.2502C110.352 94.4398 108.504 97.1333 106.3 99.118C104.31 100.89 98.4101 102.308 95.78 102.308H51.9217H8.06344C5.36228 102.308 -0.46657 100.89 -2.4569 99.118C-4.73156 97.1333 -6.57979 94.4398 -6.43762 91.1793C-6.43762 90.5414 -6.3664 89.9034 -6.29532 89.2655C-5.30015 82.1774 -3.09658 75.5145 0.102165 69.5605C3.44307 63.5356 7.85019 58.0068 13.0393 53.3996Z" fill="#D5D6FE"/>
<path opacity="0.3675" d="M13.1164 53.4732C23.4945 44.3295 37.1426 38.8008 51.9279 38.8008C66.7132 38.8008 80.3612 44.3295 90.7393 53.4732C95.9284 58.0805 100.335 63.5384 103.605 69.7051C106.804 75.73 109.079 82.3219 110.003 89.4101C110.074 90.048 110.145 90.6859 110.145 91.3238C110.216 94.5135 108.368 97.2071 106.164 99.1917C104.174 100.964 98.2741 102.31 95.644 102.31H51.9279H8.21171C5.58163 102.31 -0.318305 100.893 -2.30863 99.1917C-4.58329 97.2071 -6.43135 94.5135 -6.28919 91.3238C-6.28919 90.6859 -6.21814 90.048 -6.14705 89.4809C-5.15189 82.3928 -2.94831 75.8008 0.25043 69.7759C3.52026 63.5384 7.92731 58.0805 13.1164 53.4732Z" fill="#D4D5FE"/>
<path opacity="0.3761" d="M13.1812 53.5435C23.5593 44.3998 37.1362 38.8711 51.9926 38.8711C66.7779 38.8711 80.4258 44.3998 90.8039 53.5435C95.993 58.1508 100.4 63.6087 103.67 69.7753C106.869 75.7294 109.072 82.3922 110.068 89.4095C110.139 90.0474 110.21 90.6853 110.21 91.3232C110.281 94.5129 108.433 97.2064 106.158 99.1202C104.168 100.821 98.2677 102.168 95.6376 102.168H51.9926H8.34747C5.71739 102.168 -0.182545 100.821 -2.17287 99.1202C-4.44753 97.1355 -6.29566 94.442 -6.22458 91.2524C-6.22458 90.6144 -6.15353 89.9765 -6.08245 89.4095C-5.08728 82.3922 -2.8837 75.7294 0.315037 69.7753C3.58486 63.6087 7.99209 58.1508 13.1812 53.5435Z" fill="#D3D4FE"/>
<path opacity="0.3846" d="M13.2515 53.6139C23.6296 44.4702 37.2065 38.9414 51.9918 38.9414C66.7771 38.9414 80.354 44.4702 90.7321 53.6139C95.9212 58.1503 100.257 63.679 103.598 69.7748C106.797 75.7288 109 82.3208 109.996 89.4089C110.067 90.0469 110.138 90.6848 110.138 91.3227C110.209 94.5123 108.361 97.2058 106.086 99.1196C104.096 100.821 98.1246 102.168 95.5656 102.168H51.9918H8.41778C5.85879 102.168 -0.112233 100.821 -2.10256 99.1196C-4.37722 97.2058 -6.22535 94.5123 -6.15427 91.3227C-6.15427 90.6848 -6.08322 90.0468 -6.01213 89.4798C-5.01697 82.4625 -2.81339 75.8706 0.38535 69.9166C3.65517 63.679 8.0624 58.2211 13.2515 53.6139Z" fill="#D2D3FE"/>
<path opacity="0.3932" d="M13.3296 53.6836C23.7077 44.5399 37.2136 39.082 51.9989 39.082C66.7842 39.082 80.361 44.6108 90.6681 53.6836C95.8572 58.22 100.193 63.6779 103.534 69.8446C106.733 75.7986 108.937 82.3905 109.932 89.4078C110.003 90.0457 110.074 90.6836 110.074 91.3215C110.145 94.5112 108.297 97.1338 106.022 99.0476C104.103 100.678 98.0608 102.025 95.5018 102.025H51.9989H8.4959C5.93691 102.025 -0.105018 100.678 -2.02426 99.0476C-4.29892 97.1338 -6.14722 94.4403 -6.07614 91.2507C-6.07614 90.6128 -6.00492 89.9748 -5.93384 89.4078C-5.00976 82.3905 -2.80618 75.7986 0.463647 69.8446C3.73347 63.6779 8.14052 58.22 13.3296 53.6836Z" fill="#D1D2FE"/>
<path opacity="0.4017" d="M13.3233 53.7539C23.6303 44.6102 37.2073 39.1523 51.9215 39.1523C66.6357 39.1523 80.2126 44.6811 90.5197 53.7539C95.7087 58.2903 100.045 63.7482 103.315 69.9149C106.513 75.8689 108.717 82.4609 109.641 89.4072C109.712 90.0452 109.783 90.6831 109.783 91.321C109.854 94.5107 108.006 97.1333 105.731 99.0471C103.812 100.677 97.77 102.024 95.211 102.024H51.7793H8.34747C5.85956 102.024 -0.253628 100.677 -2.17287 99.0471C-4.44753 97.1333 -6.29566 94.5107 -6.22458 91.321C-6.22458 90.6831 -6.15353 90.0451 -6.08245 89.4781C-5.15837 82.4608 -2.95468 75.9398 0.244058 69.9857C3.79822 63.7482 8.2053 58.2903 13.3233 53.7539Z" fill="#D0D1FE"/>
<path opacity="0.4103" d="M13.396 53.8242C23.7031 44.7514 37.28 39.2227 51.9942 39.2227C66.7084 39.2227 80.2141 44.6805 90.5922 53.8242C95.7813 58.3606 100.117 63.8185 103.387 69.9143C106.586 75.8683 108.79 82.3894 109.714 89.4066C109.785 90.0446 109.856 90.6825 109.856 91.2495C109.998 94.4392 108.079 97.0618 105.804 98.9048C103.885 100.464 97.7717 101.811 95.2838 101.811H51.9942H8.70447C6.21656 101.811 0.103375 100.464 -1.81587 98.9048C-4.09053 96.991 -6.00974 94.3683 -5.86757 91.1787C-5.86757 90.5407 -5.79653 89.9737 -5.72544 89.3358C-4.80136 82.3894 -2.59768 75.7974 0.601061 69.8434C3.87089 63.8185 8.27804 58.3606 13.396 53.8242Z" fill="#CFD0FE"/>
<path opacity="0.4188" d="M13.4725 53.8985C23.7795 44.8256 37.2855 39.2969 51.9997 39.2969C66.7139 39.2969 80.2197 44.7548 90.5267 53.8985C95.6447 58.4349 100.052 63.8927 103.322 69.9885C106.52 75.9425 108.724 82.4636 109.648 89.41C109.719 90.0479 109.79 90.6858 109.79 91.2529C109.932 94.4426 108.013 96.9943 105.738 98.9081C103.89 100.467 97.7061 101.743 95.2892 101.743H52.0707H8.85207C6.43524 101.743 0.251041 100.467 -1.59712 98.9081C-3.87178 96.9943 -5.79099 94.4426 -5.64882 91.2529C-5.64882 90.615 -5.57778 90.0479 -5.50669 89.41C-4.58261 82.4636 -2.37893 75.9425 0.819811 69.9885C3.94747 63.8927 8.2834 58.4349 13.4725 53.8985Z" fill="#CECFFE"/>
<path opacity="0.4274" d="M13.5428 53.9682C23.8498 44.8954 37.3557 39.4375 51.9988 39.4375C66.642 39.4375 80.1477 44.8954 90.4547 53.9682C95.5727 58.5046 99.9088 63.9625 103.25 70.0582C106.448 75.9414 108.581 82.4625 109.576 89.4088C109.647 90.0468 109.718 90.6847 109.718 91.2517C109.86 94.4414 107.941 96.9932 105.667 98.8361C103.818 100.395 97.563 101.671 95.2173 101.671H52.0698H8.92238C6.50555 101.671 0.321354 100.395 -1.52681 98.8361C-3.80147 96.9932 -5.72068 94.3705 -5.57851 91.1809C-5.57851 90.5429 -5.50746 89.9759 -5.43638 89.338C-4.5123 82.3916 -2.30879 75.8705 0.88995 69.9873C4.01761 63.8915 8.35371 58.5046 13.5428 53.9682Z" fill="#CDCEFE"/>
<path opacity="0.4359" d="M13.5428 54.0385C23.7788 44.9657 37.2846 39.5078 51.9277 39.5078C66.5708 39.5078 80.0766 44.9657 90.3126 54.0385C95.4306 58.5749 99.7666 63.9619 103.036 70.0577C106.235 75.9408 108.368 82.4619 109.363 89.4083C109.434 90.0462 109.505 90.6841 109.505 91.2512C109.647 94.37 107.657 96.9926 105.453 98.8355C103.605 100.324 97.3499 101.6 95.0042 101.6H51.9277H8.92238C6.57664 101.6 0.321354 100.324 -1.52681 98.8355C-3.80147 96.9926 -5.72068 94.37 -5.57851 91.2512C-5.57851 90.6133 -5.50746 90.0462 -5.43638 89.4083C-4.5123 82.4619 -2.30879 75.9408 0.88995 70.0577C4.08869 63.9619 8.4248 58.504 13.5428 54.0385Z" fill="#CCCDFE"/>
<path opacity="0.4444" d="M13.6139 54.0385C23.8499 44.9657 37.3556 39.5078 51.9277 39.5078C66.5708 39.5078 80.0055 44.9657 90.2414 54.0385C95.3594 58.5749 99.6956 63.9619 102.965 70.0577C106.093 75.9408 108.297 82.4619 109.292 89.3374C109.363 89.9754 109.434 90.5424 109.434 91.1803C109.576 94.2991 107.586 96.8508 105.382 98.6937C103.605 100.182 97.2787 101.458 94.933 101.458H51.9277H8.92238C6.57664 101.458 0.250271 100.182 -1.52681 98.6937C-3.80147 96.8508 -5.72068 94.2991 -5.57851 91.1095C-5.57851 90.4715 -5.50746 89.9045 -5.43638 89.2665C-4.5123 82.391 -2.30879 75.8699 0.88995 69.9868C4.15977 64.0328 8.49595 58.5749 13.6139 54.0385Z" fill="#CBCCFE"/>
<path opacity="0.453" d="M13.6794 54.1082C23.9154 45.1063 37.3502 39.6484 51.9933 39.6484C66.6365 39.6484 80.0711 45.1063 90.3071 54.1082C95.4251 58.6447 99.7611 64.0316 103.031 70.1274C106.159 76.0106 108.362 82.4608 109.286 89.4071C109.357 90.0451 109.428 90.6121 109.428 91.25C109.571 94.3688 107.58 96.9205 105.306 98.7634C103.529 100.181 97.131 101.457 94.8563 101.457H51.9222H8.98802C6.71336 101.457 0.315739 100.181 -1.46134 98.7634C-3.736 96.9205 -5.65511 94.3688 -5.58402 91.25C-5.58402 90.6121 -5.51298 90.0451 -5.44189 89.4071C-4.51781 82.5317 -2.3142 76.0106 0.81346 70.1983C4.22545 64.0316 8.56142 58.6447 13.6794 54.1082Z" fill="#CACBFE"/>
<path opacity="0.4615" d="M13.7543 54.1785C23.9903 45.1766 37.425 39.7188 51.9971 39.7188C66.5691 39.7188 80.0037 45.1766 90.2397 54.1785C95.3577 58.7149 99.6938 64.1019 102.893 70.1268C106.02 76.01 108.224 82.4602 109.148 89.3357C109.219 89.9736 109.29 90.5406 109.29 91.1786C109.432 94.2974 107.442 96.8491 105.167 98.6211C103.39 100.039 96.9926 101.315 94.7179 101.315H51.9259H9.13391C6.85925 101.315 0.461802 100.039 -1.31528 98.6211C-3.58994 96.7782 -5.5803 94.2974 -5.43813 91.1077C-5.43813 90.4698 -5.36709 89.9027 -5.296 89.2648C-4.37192 82.3893 -2.16831 75.9391 0.959349 70.056C4.30026 64.1019 8.63633 58.7149 13.7543 54.1785Z" fill="#C9CAFE"/>
<path opacity="0.4701" d="M13.7543 54.2528C23.9903 45.2508 37.3539 39.793 51.9259 39.793C66.498 39.793 79.9327 45.2508 90.0976 54.2528C95.2156 58.7892 99.4806 64.1762 102.75 70.2011C105.878 76.0134 108.082 82.5344 109.006 89.339C109.077 89.977 109.148 90.544 109.148 91.1819C109.29 94.3007 107.3 96.7816 105.025 98.6245C103.319 100.042 96.8505 101.247 94.5758 101.247H51.8548H9.13391C6.93034 101.247 0.461802 100.042 -1.31528 98.6245C-3.58994 96.7816 -5.5803 94.3007 -5.43813 91.1819C-5.43813 90.544 -5.36709 89.977 -5.296 89.339C-4.37192 82.4636 -2.16831 76.0134 0.95935 70.2011C4.37134 64.1762 8.70741 58.7892 13.7543 54.2528Z" fill="#C8C9FE"/>
<path opacity="0.4786" d="M13.824 54.3231C23.9889 45.3212 37.4237 39.8633 51.9247 39.8633C66.4967 39.8633 79.8604 45.3212 90.0253 54.3231C95.1433 58.7886 99.4081 64.1756 102.678 70.2714C105.806 76.0837 107.938 82.5339 108.933 89.4094C109.004 90.0473 109.075 90.6143 109.075 91.2523C109.218 94.371 107.512 97.2772 104.953 98.6239C103.531 100.254 96.7071 101.176 94.5746 101.176H51.9247H9.27478C7.0712 101.176 0.318232 100.254 -1.10343 98.6239C-3.66242 97.2772 -5.36828 94.3002 -5.22611 91.1814C-5.22611 90.5435 -5.15507 89.9764 -5.08398 89.3385C-4.1599 82.463 -1.95629 76.0837 1.17137 70.2005C4.44119 64.2465 8.77713 58.8595 13.824 54.3231Z" fill="#C7C8FE"/>
<path opacity="0.4872" d="M13.893 54.3928C24.0579 45.3909 37.4216 40.0039 51.9936 40.0039C66.4946 40.0039 79.8581 45.4618 90.0941 54.3928C95.2121 58.8583 99.4771 64.2453 102.747 70.2702C105.875 76.0825 108.007 82.5327 109.002 89.3373C109.073 89.9753 109.144 90.5423 109.144 91.1802C109.287 94.299 107.581 97.2052 105.022 98.5519C103.6 100.182 96.776 101.104 94.6435 101.104H52.0646H9.48589C7.35339 101.104 0.529342 100.182 -0.892321 98.5519C-3.45131 97.2052 -5.15734 94.299 -5.01518 91.1802C-5.01518 90.5423 -4.94396 89.9753 -4.87287 89.3373C-3.94879 82.5327 -1.74535 76.0825 1.38231 70.2702C4.50996 64.2453 8.77502 58.8583 13.893 54.3928Z" fill="#C6C7FE"/>
<path opacity="0.4957" d="M13.9642 54.4631C24.1291 45.4612 37.4927 40.0742 51.9936 40.0742C66.4946 40.0742 79.8582 45.4612 90.0231 54.4631C95.07 58.9286 99.4061 64.3156 102.605 70.3405C105.732 76.1528 107.865 82.5321 108.86 89.3368C108.931 89.9747 109.002 90.5417 109.002 91.1796C109.144 94.2984 107.438 97.2046 104.879 98.4805C103.458 100.04 96.6337 100.961 94.5012 100.961H51.9936H9.48589C7.35339 100.961 0.458259 100.04 -0.892321 98.4805C-3.45131 97.1337 -5.15734 94.2276 -5.01518 91.1088C-5.01518 90.4709 -4.94396 89.9038 -4.87287 89.2658C-3.94879 82.4612 -1.74535 76.011 1.38231 70.2697C4.58105 64.3156 8.84618 58.9286 13.9642 54.4631Z" fill="#C5C6FE"/>
<path opacity="0.5043" d="M14.0335 54.5334C24.1984 45.6024 37.491 40.1445 51.992 40.1445C66.4929 40.1445 79.7854 45.5315 89.9503 54.5334C94.9972 58.999 99.3333 64.386 102.532 70.4109C105.66 76.2231 107.792 82.6025 108.716 89.4071C108.787 90.045 108.858 90.612 108.858 91.25C109.001 94.3687 107.295 97.2749 104.736 98.5508C103.385 100.11 96.4188 101.032 94.3574 101.032H51.992H9.62634C7.56493 101.032 0.598711 100.11 -0.751869 98.5508C-3.31086 97.2749 -5.01672 94.3687 -4.87455 91.25C-4.87455 90.612 -4.8035 90.045 -4.73242 89.4071C-3.80834 82.6025 -1.6048 76.2231 1.45178 70.4109C4.65052 64.386 8.91547 58.999 14.0335 54.5334Z" fill="#C5C6FE"/>
<path opacity="0.5128" d="M14.0347 54.6071C24.1285 45.6761 37.4922 40.2891 51.9221 40.2891C66.423 40.2891 79.7156 45.6761 89.8094 54.6071C94.8563 59.0726 99.1213 64.4596 102.391 70.4136C105.519 76.2259 107.651 82.6052 108.575 89.339C108.646 89.9769 108.717 90.5439 108.717 91.1819C108.86 94.3006 107.154 97.1359 104.595 98.4117C103.244 99.9711 96.278 100.822 94.2166 100.822H51.9221H9.6276C7.56618 100.822 0.599967 99.9711 -0.750613 98.4117C-3.30961 97.1359 -5.08655 94.2298 -4.8733 91.111C-4.8733 90.4731 -4.80225 89.906 -4.73117 89.2681C-3.80708 82.4634 -1.60354 76.0841 1.45303 70.3427C4.72286 64.3887 8.98781 59.0726 14.0347 54.6071Z" fill="#C4C5FE"/>
<path opacity="0.5214" d="M14.1052 54.6774C24.199 45.7464 37.4915 40.3594 51.9214 40.3594C66.3512 40.3594 79.6438 45.7464 89.7376 54.6774C94.7845 59.1429 99.0494 64.459 102.319 70.4839C105.447 76.2253 107.58 82.6047 108.504 89.4093C108.575 90.0472 108.646 90.6142 108.646 91.2522C108.788 94.3709 107.082 97.2063 104.452 98.4821C103.101 99.9706 96.064 100.821 94.0737 100.821H51.8502H9.62688C7.63655 100.821 0.599249 99.9706 -0.751331 98.4821C-3.31032 97.2063 -5.08733 94.3709 -4.94517 91.2522C-4.94517 90.6142 -4.87412 90.0472 -4.80304 89.4093C-3.87896 82.6755 -1.7465 76.2962 1.38116 70.4839C4.79315 64.459 9.05825 59.1429 14.1052 54.6774Z" fill="#C3C4FE"/>
<path opacity="0.5299" d="M14.1824 54.7477C24.2762 45.8166 37.5689 40.4297 51.9988 40.4297C66.4287 40.4297 79.7212 45.8166 89.815 54.7477C94.8619 59.2132 99.1268 64.5293 102.326 70.5543C105.382 76.2956 107.515 82.6749 108.51 89.4087C108.581 90.0466 108.652 90.6136 108.652 91.2516C108.794 94.3704 107.088 97.2056 104.458 98.4106C103.179 99.8991 96.0703 100.75 94.08 100.75H51.9277H9.77531C7.78499 100.75 0.747859 99.8991 -0.602721 98.4106C-3.16171 97.2056 -4.9389 94.2995 -4.79673 91.1807C-4.79673 90.6137 -4.72568 89.9757 -4.6546 89.4087C-3.73052 82.6749 -1.59789 76.2956 1.52977 70.5543C4.87068 64.5293 9.13553 59.1423 14.1824 54.7477Z" fill="#C2C3FE"/>
<path opacity="0.5385" d="M14.2527 54.7477C24.3466 45.8166 37.5681 40.4297 51.998 40.4297C66.4278 40.4297 79.6492 45.8166 89.743 54.7477C94.7899 59.2132 99.055 64.5293 102.254 70.4834C105.31 76.2247 107.443 82.5332 108.438 89.2669C108.509 89.9048 108.58 90.4719 108.58 91.1098C108.722 94.2286 106.945 97.0639 104.386 98.2688C103.107 99.6865 95.9983 100.537 94.008 100.537H51.9268H9.84563C7.92638 100.537 0.746915 99.6865 -0.532581 98.2688C-3.09157 97.0639 -4.86858 94.1577 -4.72642 91.1098C-4.72642 90.5428 -4.65537 89.9049 -4.58429 89.3378C-3.66021 82.6041 -1.52775 76.2956 1.59991 70.5543C4.94082 64.5293 9.20585 59.2132 14.2527 54.7477Z" fill="#C1C2FE"/>
<path opacity="0.547" d="M14.2512 54.8175C24.345 45.9573 37.5665 40.5703 51.9253 40.5703C66.3552 40.5703 79.5767 45.9573 89.5994 54.8175C94.6463 59.283 98.9113 64.5991 102.11 70.5532C105.167 76.2945 107.299 82.603 108.294 89.3367C108.365 89.9038 108.436 90.5417 108.436 91.1087C108.579 94.1566 106.802 97.0628 104.243 98.1969C102.963 99.6145 95.7837 100.465 93.9355 100.465H51.9253H9.9151C7.99585 100.465 0.816457 99.6145 -0.391957 98.1969C-2.95095 96.9919 -4.72796 94.1567 -4.58579 91.0379C-4.58579 90.4708 -4.51474 89.8329 -4.44366 89.2658C-3.51958 82.5321 -1.38712 76.2236 1.74054 70.4822C5.01036 64.5991 9.27542 59.283 14.2512 54.8175Z" fill="#C0C1FE"/>
<path opacity="0.5556" d="M14.3216 54.8878C24.3443 46.0276 37.5657 40.6406 51.9245 40.6406C66.2833 40.6406 79.5047 46.0276 89.5274 54.8878C94.5743 59.3533 98.7682 64.6694 101.967 70.6234C105.024 76.3648 107.156 82.6733 108.08 89.3361C108.151 89.9032 108.222 90.5411 108.222 91.1082C108.364 94.156 106.587 97.0622 104.028 98.1963C102.82 99.6139 95.5696 100.394 93.7214 100.394H51.8533H9.98541C8.13725 100.394 0.88677 99.6139 -0.321644 98.1963C-2.88064 97.0622 -4.65765 94.156 -4.51548 91.1082C-4.51548 90.5411 -4.44443 89.9032 -4.37335 89.3361C-3.44927 82.6733 -1.31688 76.3648 1.7397 70.6234C5.08061 64.6694 9.27465 59.3533 14.3216 54.8878Z" fill="#BFC0FE"/>
<path opacity="0.5641" d="M14.3913 54.9581C24.414 46.0979 37.6356 40.7109 51.9944 40.7109C66.3532 40.7109 79.5035 46.0979 89.5973 54.9581C94.6442 59.4236 98.8381 64.6688 102.037 70.6229C105.093 76.2934 107.226 82.6018 108.15 89.2647C108.221 89.8317 108.292 90.4697 108.292 91.0367C108.434 94.0846 106.657 96.9198 104.098 98.0539C102.89 99.4007 95.6393 100.18 93.7912 100.18H51.9944H10.1975C8.34933 100.18 1.09885 99.4007 -0.109567 98.0539C-2.66856 96.9198 -4.51683 94.0846 -4.30358 90.9658C-4.30358 90.3987 -4.23235 89.7608 -4.16127 89.1938C-3.23719 82.5309 -1.1048 76.2225 1.95178 70.552C5.15052 64.7397 9.34442 59.4236 14.3913 54.9581Z" fill="#BEBFFE"/>
<path opacity="0.5727" d="M14.4622 55.0317C24.4849 46.1716 37.6354 40.8555 51.9942 40.8555C66.353 40.8555 79.5032 46.1716 89.5259 55.0317C94.5017 59.4264 98.7667 64.7425 101.965 70.6965C105.022 76.367 107.155 82.6755 108.079 89.3383C108.15 89.9054 108.221 90.5433 108.221 91.1104C108.363 94.1583 106.586 96.9935 104.027 98.1276C102.819 99.4744 95.497 100.254 93.7199 100.254H51.9942H10.2682C8.49113 100.254 1.16957 99.4744 -0.0388479 98.1276C-2.66892 96.9935 -4.44593 94.1583 -4.23268 91.1104C-4.23268 90.5433 -4.16157 89.9054 -4.0194 89.3383C-3.09532 82.6755 -0.962929 76.367 2.09365 70.6965C5.22131 64.7425 9.41532 59.4973 14.4622 55.0317Z" fill="#BDBEFE"/>
<path opacity="0.5812" d="M14.5324 55.102C24.5551 46.2419 37.7056 40.9258 51.9933 40.9258C66.281 40.9258 79.4314 46.2419 89.4541 55.102C94.4299 59.4967 98.6949 64.8128 101.894 70.7668C104.95 76.4374 107.083 82.6749 108.007 89.3378C108.078 89.9048 108.149 90.5428 108.22 91.1098C108.433 94.1577 106.585 96.9929 104.026 98.0561C102.889 99.4029 95.4962 100.112 93.7191 100.112H52.0643H10.3385C8.56144 100.112 1.16879 99.332 0.0314646 98.0561C-2.59861 96.9929 -4.37562 94.1577 -4.16237 91.0389C-4.16237 90.4719 -4.09143 89.8339 -3.94926 89.2669C-3.02518 82.604 -0.892617 76.3665 2.16396 70.6959C5.29162 64.8128 9.48545 59.4967 14.5324 55.102Z" fill="#BCBDFE"/>
<path opacity="0.5897" d="M14.5395 55.1724C24.5622 46.3122 37.6416 40.9961 51.9293 40.9961C66.217 40.9961 79.3674 46.3122 89.3191 55.1724C94.2949 59.567 98.5598 64.8831 101.687 70.7663C104.744 76.4368 106.806 82.6743 107.801 89.3372C107.872 89.9042 107.943 90.5422 108.014 91.1092C108.227 94.1571 106.379 96.9923 103.82 98.0555C102.683 99.3314 95.2189 100.111 93.5129 100.111H51.9293H10.3456C8.63963 100.111 1.1759 99.4023 0.0385666 98.0555C-2.59151 96.9923 -4.36859 94.1571 -4.22642 91.1092C-4.22642 90.5422 -4.1553 89.9042 -4.01314 89.3372C-3.08906 82.6743 -0.956667 76.4368 2.09991 70.7663C5.36973 64.8831 9.56364 59.567 14.5395 55.1724Z" fill="#BBBCFE"/>
<path opacity="0.5983" d="M14.6076 55.2427C24.5592 46.4534 37.7097 41.0664 51.9974 41.0664C66.2851 41.0664 79.3643 46.3825 89.387 55.2427C94.3629 59.6373 98.5569 64.9534 101.756 70.8366C104.812 76.5071 106.874 82.7447 107.869 89.3366C107.94 89.9037 108.011 90.5416 108.082 91.1087C108.295 94.1566 106.447 96.9918 103.817 97.9841C102.68 99.26 95.2159 99.9688 93.5099 99.9688H52.0684H10.6269C8.92088 99.9688 1.45715 99.26 0.319818 97.9841C-2.31026 96.9209 -4.08734 94.0857 -3.94517 91.0378C-3.87409 90.4707 -3.87405 89.8328 -3.73189 89.2657C-2.80781 82.6738 -0.675243 76.4362 2.38133 70.7657C5.43791 64.8826 9.63178 59.6373 14.6076 55.2427Z" fill="#BABBFE"/>
<path opacity="0.6068" d="M14.6771 55.3163C24.6287 46.5271 37.708 41.2109 51.9957 41.2109C66.2834 41.2109 79.3627 46.5271 89.3144 55.3163C94.2902 59.711 98.484 64.9562 101.683 70.9102C104.739 76.5807 106.801 82.7474 107.725 89.3394C107.796 89.9064 107.867 90.5444 107.938 91.1114C108.151 94.1593 106.303 96.9237 103.673 97.9869C102.607 99.1919 95.072 99.9007 93.4371 99.9007H52.0667H10.6963C9.06143 99.9007 1.52669 99.1919 0.460442 97.9869C-2.16963 96.9237 -3.94671 94.1593 -3.80455 91.1114C-3.73346 90.5444 -3.7336 89.9064 -3.59144 89.3394C-2.66736 82.7474 -0.534861 76.5099 2.45063 70.9102C5.50721 64.9562 9.70125 59.711 14.6771 55.3163Z" fill="#B9BAFE"/>
<path opacity="0.6154" d="M14.7483 55.3867C24.7 46.5974 37.7794 41.2812 51.996 41.2812C66.2126 41.2812 79.2919 46.5974 89.2435 55.3867C94.2193 59.7813 98.4132 65.0265 101.612 70.9097C104.597 76.5093 106.73 82.7469 107.654 89.3388C107.725 89.9059 107.796 90.5438 107.867 91.1109C108.081 94.1588 106.232 96.9231 103.602 97.9155C102.536 99.1204 94.9302 99.8292 93.3664 99.8292H52.067H10.7678C9.13288 99.8292 1.59796 99.1204 0.531715 97.9155C-2.09836 96.9231 -3.94652 94.0879 -3.73327 91.04C-3.66219 90.473 -3.66216 89.835 -3.51999 89.2679C-2.59591 82.676 -0.463414 76.5093 2.52208 70.8388C5.57865 65.0265 9.77252 59.7813 14.7483 55.3867Z" fill="#B8B9FE"/>
<path opacity="0.6239" d="M14.749 55.4569C24.7007 46.6676 37.7089 41.3516 51.9255 41.3516C66.1422 41.3516 79.2215 46.6676 89.1021 55.4569C94.0779 59.8516 98.2718 65.0968 101.399 70.98C104.385 76.5796 106.517 82.7463 107.442 89.3382C107.513 89.9053 107.584 90.5432 107.655 91.1103C107.868 94.1582 106.02 96.9225 103.39 97.9149C102.323 99.1199 94.7176 99.7578 93.1538 99.7578H51.9255H10.6973C9.13348 99.7578 1.52765 99.049 0.461403 97.9149C-2.16867 96.9225 -4.01684 94.1582 -3.80359 91.1103C-3.7325 90.5432 -3.73264 89.9053 -3.59048 89.3382C-2.66639 82.7463 -0.5339 76.5796 2.45159 70.98C5.65033 65.0968 9.84428 59.7807 14.749 55.4569Z" fill="#B7B8FE"/>
<path opacity="0.6325" d="M14.8195 55.4564C24.7001 46.6671 37.7793 41.4219 51.9249 41.4219C66.1415 41.4219 79.1497 46.738 89.0302 55.4564C94.0061 59.851 98.2 65.0963 101.328 70.9794C104.313 76.579 106.446 82.7457 107.37 89.3377C107.441 89.9047 107.512 90.5427 107.583 91.1097C107.796 94.1576 105.948 96.922 103.318 97.8435C102.323 98.9776 94.6458 99.6864 93.0819 99.6864H51.9249H10.7678C9.20396 99.6864 1.52688 99.0484 0.531715 97.8435C-2.09836 96.8511 -3.94652 94.0868 -3.73327 91.0389C-3.66219 90.4718 -3.66216 89.8338 -3.51999 89.2668C-2.59591 82.7457 -0.463414 76.5082 2.52208 70.9794C5.72082 65.0963 9.84368 59.851 14.8195 55.4564Z" fill="#B6B7FE"/>
<path opacity="0.641" d="M14.8881 55.5267C24.7687 46.8083 37.777 41.4922 51.9937 41.4922C66.1392 41.4922 79.1474 46.8083 89.099 55.5267C94.0749 59.9213 98.1977 65.1665 101.396 70.9788C104.382 76.5784 106.443 82.7451 107.439 89.2662C107.51 89.8332 107.581 90.4712 107.652 91.0383C107.865 94.0862 106.017 96.8505 103.387 97.772C102.391 98.9061 94.6435 99.544 93.1507 99.544H52.0647H10.9786C9.48581 99.544 1.73782 98.9061 0.742653 97.772C-1.88742 96.8505 -3.73559 94.0862 -3.52234 91.0383C-3.45125 90.4712 -3.45122 89.8332 -3.30905 89.2662C-2.38497 82.7451 -0.252476 76.5784 2.73302 70.9788C5.78959 65.1665 9.91231 59.9213 14.8881 55.5267Z" fill="#B5B6FE"/>
<path opacity="0.6496" d="M14.9578 55.597C24.8383 46.8786 37.8466 41.5625 51.9922 41.5625C66.1377 41.5625 79.1458 46.8786 89.0264 55.597C94.0022 59.9916 98.125 65.166 101.253 71.0491C104.238 76.6487 106.3 82.7446 107.295 89.2656C107.366 89.8327 107.437 90.3998 107.508 91.0377C107.721 94.0147 105.873 96.8499 103.243 97.7005C102.248 98.8346 94.4999 99.4017 93.0071 99.4017H52.0631H11.1194C9.62661 99.4017 1.87844 98.7637 0.883278 97.7005C-1.7468 96.779 -3.59496 94.0147 -3.38171 90.9668C-3.31063 90.3997 -3.31059 89.8327 -3.16843 89.1948C-2.24435 82.6737 -0.182935 76.507 2.87364 70.9783C5.85913 65.2369 9.98196 59.9916 14.9578 55.597Z" fill="#B4B5FE"/>
<path opacity="0.6581" d="M14.9584 55.6674C24.839 46.9489 37.7761 41.6328 51.9217 41.6328C66.0672 41.6328 79.0044 46.8781 88.8849 55.6674C93.7897 60.062 97.9835 65.2363 101.111 71.1195C104.097 76.6482 106.158 82.8149 107.082 89.336C107.153 89.903 107.224 90.4701 107.295 91.108C107.509 94.085 105.66 96.8494 103.03 97.7709C102.106 98.8341 94.2872 99.472 92.7945 99.472H51.9217H11.0489C9.62721 99.472 1.80813 98.8341 0.812966 97.7709C-1.81711 96.8494 -3.66527 94.085 -3.45202 91.108C-3.38094 90.541 -3.38108 89.9739 -3.23891 89.336C-2.31483 82.8149 -0.253316 76.7191 2.73218 71.1195C5.93092 65.2363 10.0537 60.062 14.9584 55.6674Z" fill="#B3B4FE"/>
<path opacity="0.6667" d="M15.0362 55.741C24.9167 47.0226 37.8538 41.7773 51.9283 41.7773C66.0738 41.7773 79.0109 47.0226 88.8204 55.741C93.7251 60.0647 97.9191 65.31 101.047 71.1222C104.032 76.651 106.094 82.8176 107.018 89.2678C107.089 89.8349 107.16 90.402 107.231 91.0399C107.444 94.0169 105.596 96.7813 102.895 97.6318C101.971 98.6951 94.0805 99.2621 92.7299 99.2621H51.9283H11.1266C9.70496 99.2621 1.88577 98.6951 0.961692 97.6318C-1.66838 96.7813 -3.5877 94.0169 -3.37445 90.969C-3.30337 90.4019 -3.30333 89.8349 -3.16117 89.197C-2.23708 82.6759 -0.175742 76.5801 2.80975 71.0513C6.00849 65.3099 10.1315 60.0647 15.0362 55.741Z" fill="#B2B3FE"/>
<path opacity="0.6752" d="M15.1048 55.8112C24.9143 47.0928 37.8515 41.8477 51.9971 41.8477C66.0715 41.8477 79.0086 47.0928 88.8892 55.8112C93.7939 60.135 97.9878 65.3802 101.115 71.1925C104.101 76.7212 106.162 82.817 107.087 89.2672C107.158 89.8343 107.229 90.4014 107.3 91.0393C107.513 94.0163 105.665 96.7807 102.964 97.6312C102.04 98.6236 94.1493 99.2615 92.7987 99.2615H52.0681H11.3374C9.9868 99.2615 2.02563 98.6945 1.17263 97.6312C-1.45745 96.7807 -3.37676 94.0163 -3.16351 91.0393C-3.09243 90.4723 -3.09239 89.9052 -2.95023 89.2672C-2.02615 82.817 0.0351951 76.7212 3.02069 71.1925C6.00618 65.3802 10.2001 60.135 15.1048 55.8112Z" fill="#B1B2FE"/>
<path opacity="0.6838" d="M15.176 55.8816C24.9854 47.1632 37.9226 41.918 51.9971 41.918C66.0715 41.918 79.0085 47.1632 88.818 55.8816C93.7227 60.2054 97.8456 65.4506 100.973 71.2629C103.959 76.7916 106.02 82.8874 106.944 89.3376C107.015 89.9047 107.086 90.4717 107.157 91.1096C107.371 94.0867 105.452 96.851 102.822 97.6307C101.969 98.623 93.9361 99.1901 92.6566 99.1901H51.9971H11.3374C9.9868 99.1901 2.02563 98.623 1.17263 97.6307C-1.45745 96.7801 -3.37676 94.0867 -3.16351 91.0388C-3.09243 90.4717 -3.09239 89.9047 -2.95023 89.3376C-2.02615 82.8874 0.0351949 76.7916 3.02069 71.2629C6.07726 65.3797 10.2712 60.2054 15.176 55.8816Z" fill="#B0B1FE"/>
<path opacity="0.6923" d="M15.2446 55.9513C25.0541 47.3038 37.9203 42.0586 51.9947 42.0586C66.0692 42.0586 78.9352 47.3038 88.7447 55.9513C93.6494 60.2751 97.7721 65.4494 100.9 71.2617C103.885 76.7905 105.876 82.8153 106.871 89.2656C106.942 89.8326 107.013 90.3996 107.084 90.9667C107.297 93.9437 105.378 96.7081 102.748 97.4878C101.895 98.4802 93.8626 98.9763 92.5831 98.9763H52.0657H11.5483C10.2688 98.9763 2.23639 98.4093 1.38339 97.4878C-1.24668 96.7081 -3.16582 93.9437 -2.95257 90.9667C-2.88149 90.3996 -2.81037 89.8326 -2.73929 89.2656C-1.81521 82.8153 0.246134 76.7905 3.23163 71.2617C6.14604 65.4494 10.3399 60.2751 15.2446 55.9513Z" fill="#AFB0FE"/>
<path opacity="0.7009" d="M15.2446 56.0217C25.0541 47.3742 37.9202 42.1289 51.9236 42.1289C65.998 42.1289 78.8642 47.3742 88.6025 56.0217C93.5073 60.3454 97.63 65.5198 100.758 71.332C103.672 76.8608 105.734 82.8857 106.729 89.3359C106.8 89.903 106.871 90.47 106.942 91.0371C107.155 94.0141 105.236 96.7076 102.606 97.4873C101.753 98.4087 93.7205 98.9758 92.441 98.9758H51.9947H11.5483C10.2688 98.9758 2.23639 98.4087 1.38339 97.4873C-1.24668 96.7076 -3.16582 93.9431 -2.95257 90.9661C-2.88149 90.3991 -2.81037 89.8321 -2.73929 89.265C-1.81521 82.8148 0.246134 76.7899 3.23163 71.332C6.21712 65.5198 10.3399 60.3454 15.2446 56.0217Z" fill="#AEAFFE"/>
<path opacity="0.7094" d="M15.3156 56.0959C25.1251 47.4483 37.9201 42.2031 51.9946 42.2031C65.998 42.2031 78.8639 47.4483 88.6734 56.0959C93.5781 60.4196 97.701 65.5939 100.758 71.4062C103.672 76.8641 105.733 82.9599 106.657 89.3392C106.729 89.9063 106.8 90.4733 106.871 91.0404C107.084 94.0174 105.165 96.7109 102.535 97.4906C101.753 98.412 93.5781 98.9082 92.3697 98.9082H51.9946H11.6193C10.4109 98.9082 2.30742 98.412 1.45442 97.4906C-1.24674 96.7109 -3.09497 94.0174 -2.88172 91.0404C-2.81064 90.4733 -2.73952 89.9063 -2.66844 89.3392C-1.74436 82.9599 0.317089 76.8641 3.2315 71.4062C6.28807 65.5939 10.4109 60.4196 15.3156 56.0959Z" fill="#ADAEFE"/>
<path opacity="0.7179" d="M15.3893 56.1662C25.1277 47.5186 37.9938 42.2734 51.9972 42.2734C66.0005 42.2734 78.7955 47.5186 88.605 56.1662C93.5097 60.4899 97.6325 65.6643 100.689 71.4766C103.604 76.9344 105.665 82.9593 106.589 89.3387C106.66 89.9057 106.731 90.4728 106.802 91.0398C107.015 94.0168 105.096 96.7103 102.466 97.4192C101.684 98.2697 93.5097 98.8368 92.3013 98.8368H51.9972H11.6929C10.4845 98.8368 2.31003 98.3406 1.52811 97.4192C-1.17305 96.7103 -3.09236 93.9459 -2.80803 90.9689C-2.73694 90.4018 -2.66583 89.8348 -2.59474 89.2678C-1.67066 82.8884 0.390783 76.8635 3.30519 71.4056C6.36177 65.5934 10.4846 60.419 15.3893 56.1662Z" fill="#ACADFE"/>
<path opacity="0.7265" d="M15.4595 56.1656C25.1979 47.5181 37.9929 42.3438 51.9963 42.3438C65.9997 42.3438 78.7946 47.589 88.533 56.1656C93.4377 60.4894 97.4894 65.6637 100.617 71.4051C103.532 76.863 105.593 82.8879 106.517 89.2672C106.588 89.8343 106.659 90.4013 106.73 90.9683C106.944 93.9453 105.024 96.6388 102.394 97.3476C101.612 98.1982 93.4377 98.6944 92.2293 98.6944H51.9963H11.7632C10.6258 98.6944 2.38017 98.1982 1.59825 97.3476C-1.10291 96.6388 -3.02205 93.9453 -2.73771 90.9683C-2.66663 90.4013 -2.59569 89.8343 -2.5246 89.2672C-1.60052 82.8879 0.460924 76.863 3.37533 71.4051C6.43191 65.6637 10.5547 60.4894 15.4595 56.1656Z" fill="#ABACFE"/>
<path opacity="0.735" d="M15.4555 56.2359C25.1939 47.6593 37.9889 42.4141 51.9212 42.4141C65.8535 42.4141 78.6485 47.6593 88.3869 56.2359C93.2206 60.5597 97.3434 65.6631 100.471 71.4754C103.385 76.9333 105.447 82.8873 106.371 89.2666C106.442 89.8337 106.513 90.4007 106.584 90.9677C106.797 93.9448 104.878 96.6383 102.177 97.2762C101.466 98.1268 93.1495 98.5521 92.0832 98.5521H51.9212H11.7592C10.6219 98.5521 2.37631 98.0559 1.66548 97.2762C-1.03568 96.5674 -2.9549 93.8739 -2.74165 90.8969C-2.67056 90.3298 -2.59962 89.7628 -2.52853 89.1957C-1.60445 82.8164 0.456992 76.8624 3.3714 71.4045C6.49906 65.734 10.6219 60.5597 15.4555 56.2359Z" fill="#AAABFE"/>
<path opacity="0.7436" d="M15.533 56.3062C25.2714 47.7296 37.9952 42.4844 51.9275 42.4844C65.8598 42.4844 78.6548 47.6587 88.3221 56.3062C93.1557 60.63 97.2787 65.7335 100.335 71.5457C103.25 77.0036 105.24 82.9576 106.235 89.2661C106.306 89.8331 106.377 90.4001 106.448 90.9672C106.662 93.9442 104.742 96.6377 102.041 97.2756C101.33 98.0553 93.0136 98.5515 91.9474 98.5515H51.9275H11.9077C10.8414 98.5515 2.52474 98.0553 1.81391 97.2756C-0.887247 96.6377 -2.80646 93.9442 -2.59321 90.9672C-2.52212 90.4001 -2.45101 89.8331 -2.37992 89.2661C-1.45584 82.9576 0.605429 76.9327 3.51984 71.5457C6.57641 65.7335 10.6993 60.63 15.533 56.3062Z" fill="#A9AAFE"/>
<path opacity="0.7521" d="M15.6016 56.376C25.2689 47.7994 38.064 42.625 51.9963 42.625C65.9286 42.625 78.6525 47.7994 88.3909 56.376C93.2245 60.6998 97.3473 65.8032 100.404 71.5446C103.318 76.9316 105.309 82.9565 106.304 89.2649C106.375 89.832 106.446 90.399 106.517 90.966C106.801 93.9431 104.811 96.5657 102.11 97.2036C101.399 97.9833 93.0112 98.4086 92.016 98.4086H52.0673H12.1186C11.0524 98.4086 2.73568 97.9833 2.02485 97.2036C-0.67631 96.5657 -2.59552 93.8722 -2.38227 90.8952C-2.31119 90.3281 -2.24024 89.7611 -2.16916 89.194C-1.24508 82.8856 0.816367 76.9316 3.73078 71.4737C6.64519 65.8032 10.768 60.6998 15.6016 56.376Z" fill="#A8A9FD"/>
<path opacity="0.7607" d="M15.6728 56.4502C25.3401 47.8736 38.064 42.6992 51.9963 42.6992C65.9286 42.6992 78.6524 47.8736 88.3197 56.4502C93.1534 60.7031 97.2052 65.8775 100.333 71.6188C103.247 77.0058 105.238 82.9598 106.162 89.2683C106.233 89.8353 106.304 90.4023 106.375 90.9694C106.659 93.8755 104.669 96.5691 101.968 97.207C101.328 97.9867 92.8691 98.4119 91.8739 98.4119H51.9963H12.1186C11.1235 98.4119 2.6646 97.9867 2.02485 97.207C-0.67631 96.5691 -2.59552 93.8755 -2.38227 90.9694C-2.31119 90.4023 -2.24024 89.8353 -2.16916 89.2683C-1.24508 82.9598 0.816471 77.0058 3.6598 71.6188C6.71637 65.8775 10.8391 60.7031 15.6728 56.4502Z" fill="#A7A8FD"/>
<path opacity="0.7692" d="M15.6759 56.5205C25.3432 47.9438 38.067 42.7695 51.9283 42.7695C65.7895 42.7695 78.5134 47.9438 88.1807 56.5205C93.0143 60.7734 97.066 65.9477 100.194 71.6891C103.108 77.0761 105.099 83.0301 106.023 89.3386C106.094 89.9056 106.165 90.4727 106.236 91.0398C106.52 93.9459 104.53 96.6393 101.829 97.2064C101.189 97.9152 92.73 98.3405 91.7348 98.3405H51.9283H12.1217C11.1265 98.3405 2.66767 97.9152 2.02792 97.2064C-0.673238 96.5685 -2.66353 93.9458 -2.3792 90.9688C-2.30812 90.4017 -2.23717 89.8347 -2.16609 89.2677C-1.24201 82.9592 0.819543 77.0761 3.66287 71.6182C6.79053 65.9477 10.8422 60.7734 15.6759 56.5205Z" fill="#A6A7FD"/>
<path opacity="0.7778" d="M15.747 56.5908C25.4143 48.0142 38.067 42.8398 51.9283 42.8398C65.7895 42.8398 78.5133 48.0142 88.1095 56.5908C92.9432 60.8437 96.9949 65.9472 100.052 71.6886C102.966 77.0755 104.956 82.9587 105.88 89.2671C105.951 89.8342 106.023 90.4012 106.094 90.9682C106.378 93.8744 104.388 96.5679 101.686 97.135C101.047 97.8438 92.5168 98.1982 91.5927 98.1982H51.8571H12.1217C11.1976 98.1982 2.66767 97.7729 2.02792 97.135C-0.673238 96.5679 -2.66353 93.8744 -2.3792 90.9682C-2.30812 90.4012 -2.23717 89.8342 -2.16609 89.2671C-1.24201 82.9587 0.74846 77.0755 3.66287 71.6886C6.86161 65.9472 10.9134 60.8437 15.747 56.5908Z" fill="#A5A6FD"/>
<path opacity="0.7863" d="M15.8141 56.6606C25.4814 48.1548 38.1343 42.9805 51.9956 42.9805C65.8568 42.9805 78.5095 48.1548 88.1768 56.6606C93.0105 60.9134 97.0622 66.0169 100.119 71.7583C102.962 77.1453 105.024 83.0284 105.948 89.266C106.019 89.833 106.09 90.4001 106.161 90.9671C106.445 93.8732 104.455 96.5668 101.754 97.063C101.185 97.7009 92.5839 98.1262 91.6598 98.1262H52.0665H12.4733C11.5492 98.1262 3.01923 97.7718 2.37948 97.063C-0.321675 96.4959 -2.31197 93.8733 -2.02764 90.8962C-1.95655 90.3292 -1.88561 89.7622 -1.81453 89.1951C-0.890445 82.9576 1.10002 77.0035 4.01443 71.6874C6.92884 66.0169 10.9805 60.9134 15.8141 56.6606Z" fill="#A4A5FD"/>
<path opacity="0.7949" d="M15.8831 56.7309C25.4793 48.2252 38.1322 43.0508 51.9934 43.0508C65.7835 43.0508 78.4362 48.2252 88.1035 56.7309C92.9371 60.9838 96.9889 66.0872 100.045 71.8286C102.889 77.2156 104.95 83.0988 105.874 89.3363C105.945 89.9034 106.016 90.4704 106.088 91.0375C106.372 93.9436 104.382 96.5662 101.68 97.1333C101.112 97.7712 92.5106 98.1256 91.6576 98.1256H52.1355H12.6132C11.7602 98.1256 3.15926 97.7712 2.59059 97.1333C-0.110566 96.5662 -2.10103 93.9436 -1.8167 91.0375C-1.74562 90.4704 -1.6745 89.9034 -1.60342 89.3363C-0.679336 83.0988 1.31096 77.2156 4.22537 71.8286C6.99761 66.0872 11.0495 60.9838 15.8831 56.7309Z" fill="#A3A4FD"/>
<path opacity="0.8034" d="M15.9556 56.8012C25.5518 48.2954 38.2048 43.1211 51.9949 43.1211C65.785 43.1211 78.4378 48.2954 88.034 56.8012C92.8677 61.0541 96.8483 66.1575 99.9049 71.828C102.748 77.1441 104.738 83.0273 105.734 89.2648C105.805 89.8319 105.876 90.3989 105.947 90.966C106.231 93.8721 104.241 96.4947 101.54 96.9909C100.971 97.6288 92.2989 97.9832 91.517 97.9832H52.0659H12.4726C11.6196 97.9832 2.94738 97.6288 2.4498 96.9909C-0.251363 96.4947 -2.24166 93.8721 -1.95732 90.8951C-1.88624 90.328 -1.81512 89.761 -1.74404 89.194C-0.819959 82.9564 1.17044 77.0732 4.01376 71.7571C7.07034 66.0866 11.1219 61.0541 15.9556 56.8012Z" fill="#A2A3FD"/>
<path opacity="0.812" d="M15.9527 56.8748C25.5489 48.369 38.1307 43.2656 51.9208 43.2656C65.711 43.2656 78.2927 48.4399 87.889 56.8748C92.6515 61.1277 96.7032 66.2312 99.7598 71.9017C102.603 77.2178 104.593 83.1009 105.517 89.3385C105.589 89.9055 105.66 90.4726 105.731 91.0397C106.015 93.9458 104.025 96.5684 101.252 97.0646C100.755 97.6316 92.0117 97.986 91.2298 97.986H51.8497H12.4697C11.6878 97.986 2.94446 97.6316 2.44688 97.0646C-0.254283 96.5684 -2.24447 93.9458 -2.03122 91.0397C-1.96014 90.4726 -1.8892 89.9055 -1.81811 89.3385C-0.894031 83.1009 1.09637 77.2887 3.93969 71.9726C7.13843 66.1603 11.1901 61.0568 15.9527 56.8748Z" fill="#A1A2FD"/>
<path opacity="0.8205" d="M16.0244 56.8748C25.6207 48.369 38.2024 43.2656 51.9926 43.2656C65.7827 43.2656 78.3643 48.369 87.9605 56.8748C92.7231 61.1277 96.7748 66.1603 99.8314 71.9017C102.675 77.2178 104.665 83.03 105.589 89.2676C105.66 89.8346 105.731 90.4017 105.802 90.9687C106.087 93.8748 104.096 96.4975 101.324 96.9228C100.827 97.4898 92.0833 97.8443 91.3014 97.8443H51.9926H12.6836C11.9016 97.8443 3.15835 97.4898 2.66076 96.9228C-0.0403955 96.4266 -2.10184 93.804 -1.81751 90.8979C-1.74643 90.3308 -1.67531 89.7638 -1.60422 89.1967C-0.680144 83.03 1.31025 77.1469 4.15358 71.8308C7.21016 66.2312 11.2619 61.1277 16.0244 56.8748Z" fill="#A0A1FD"/>
<path opacity="0.8291" d="M16.1026 56.9452C25.6277 48.5103 38.2094 43.3359 51.9995 43.3359C65.7186 43.3359 78.3003 48.4394 87.8965 56.9452C92.6591 61.198 96.7108 66.2306 99.7674 71.9011C102.611 77.2172 104.601 83.0295 105.525 89.1962C105.596 89.7632 105.667 90.3303 105.738 90.8264C106.023 93.7326 103.961 96.3552 101.26 96.7805C100.762 97.3475 91.9482 97.631 91.2374 97.631H51.9995H12.7615C12.0507 97.631 3.23647 97.3475 2.73889 96.7805C0.0377295 96.3552 -2.02372 93.7326 -1.73938 90.8264C-1.6683 90.2594 -1.59718 89.6923 -1.5261 89.1253C-0.602019 82.9586 1.38821 77.1463 4.23153 71.8302C7.28811 66.2306 11.34 61.198 16.1026 56.9452Z" fill="#9FA0FD"/>
<path opacity="0.8376" d="M16.172 57.0155C25.6972 48.5806 38.279 43.4062 51.998 43.4062C65.7171 43.4062 78.2987 48.5097 87.8239 57.0155C92.5864 61.2684 96.6383 66.301 99.6237 71.9715C102.467 77.2876 104.457 83.0998 105.381 89.2665C105.452 89.8335 105.524 90.4006 105.595 90.8968C105.879 93.8029 103.818 96.3547 101.116 96.7799C100.69 97.2761 91.8046 97.5596 91.0938 97.5596H51.998H12.9023C12.1915 97.5596 3.3771 97.2761 2.87951 96.7799C0.178354 96.3547 -1.88309 93.732 -1.59876 90.8259C-1.52768 90.2588 -1.45656 89.6918 -1.38547 89.1956C-0.461394 83.0289 1.529 77.2167 4.37233 71.9006C7.35782 66.3009 11.3384 61.2684 16.172 57.0155Z" fill="#9EA0FD"/>
<path opacity="0.8462" d="M16.172 57.0852C25.6972 48.6504 38.2078 43.5469 51.9269 43.5469C65.6459 43.5469 78.1566 48.6504 87.6817 57.0852C92.4443 61.3381 96.4249 66.3707 99.4814 72.0412C102.325 77.2864 104.315 83.0987 105.239 89.2653C105.31 89.8324 105.381 90.3994 105.453 90.8956C105.737 93.8017 103.675 96.3535 100.974 96.7788C100.548 97.275 91.5912 97.5585 90.9515 97.5585H51.9269H12.9023C12.2626 97.5585 3.30601 97.275 2.87951 96.7788C0.178354 96.3535 -1.88309 93.8017 -1.59876 90.8956C-1.52768 90.3286 -1.45656 89.7615 -1.38547 89.2653C-0.461394 83.0987 1.529 77.2864 4.37233 72.0412C7.4289 66.3707 11.4095 61.3381 16.172 57.0852Z" fill="#9D9FFD"/>
<path opacity="0.8547" d="M16.2416 57.1555C25.7668 48.7206 38.2774 43.6172 51.9253 43.6172C65.6444 43.6172 78.155 48.7206 87.609 57.1555C92.3716 61.3375 96.3523 66.441 99.4089 72.0406C102.252 77.2858 104.171 83.0981 105.167 89.1939C105.238 89.7609 105.309 90.328 105.38 90.8241C105.664 93.7303 103.603 96.282 100.902 96.6364C100.475 97.0617 91.5186 97.3452 90.9499 97.3452H51.9965H13.0429C12.4031 97.3452 3.44666 97.0617 3.09124 96.6364C0.319 96.282 -1.67136 93.6594 -1.38703 90.7533C-1.31595 90.1862 -1.24483 89.6191 -1.17375 89.123C-0.249665 83.0272 1.74066 77.2149 4.51291 71.9697C7.4984 66.441 11.4791 61.3375 16.2416 57.1555Z" fill="#9C9EFD"/>
<path opacity="0.8632" d="M16.3111 57.2297C25.8362 48.7948 38.2759 43.6914 51.995 43.6914C65.6429 43.6914 78.1535 48.7948 87.6787 57.2297C92.4412 61.4117 96.4218 66.4443 99.4784 72.1148C102.322 77.36 104.241 83.1723 105.165 89.2681C105.236 89.8352 105.307 90.3313 105.378 90.8984C105.663 93.8045 103.601 96.3563 100.9 96.7107C100.545 97.136 91.5171 97.4195 90.9484 97.4195H52.066H13.1835C12.6148 97.4195 3.58728 97.2069 3.23187 96.7107C0.459625 96.3563 -1.53074 93.8045 -1.24641 90.8984C-1.17532 90.3313 -1.1042 89.7643 -1.03312 89.2681C-0.109041 83.1723 1.88129 77.36 4.65353 72.1148C7.56794 66.4443 11.5485 61.4117 16.3111 57.2297Z" fill="#9B9DFD"/>
<path opacity="0.8718" d="M16.3795 57.2995C25.8336 48.8646 38.3443 43.832 51.9922 43.832C65.6402 43.832 78.0796 48.9355 87.6048 57.2995C92.3674 61.4815 96.348 66.5141 99.3335 72.1846C102.106 77.4298 104.096 83.1712 105.02 89.267C105.091 89.834 105.162 90.3302 105.233 90.8972C105.518 93.7325 103.456 96.3551 100.755 96.6386C100.4 97.0639 91.3011 97.2765 90.8035 97.2765H51.9922H13.1808C12.6121 97.2765 3.58453 97.0639 3.22912 96.6386C0.456874 96.2842 -1.60457 93.7325 -1.24916 90.8263C-1.17807 90.2593 -1.10696 89.6923 -1.03587 89.1961C-0.111792 83.1003 1.87854 77.3589 4.65078 72.1137C7.63627 66.514 11.6169 61.4815 16.3795 57.2995Z" fill="#9A9CFD"/>
<path opacity="0.8803" d="M16.3814 57.3698C25.8355 49.0058 38.2751 43.9023 51.923 43.9023C65.571 43.9023 78.0105 49.0058 87.4646 57.3698C92.2272 61.5518 96.2078 66.5844 99.1933 72.184C101.966 77.4292 103.956 83.1706 104.88 89.2664C104.951 89.8335 105.022 90.3296 105.093 90.8967C105.378 93.7319 103.316 96.3545 100.544 96.638C100.188 96.9924 91.0898 97.2051 90.5922 97.2051H51.923H13.2539C12.7563 97.2051 3.65763 96.9924 3.30221 96.638C0.529969 96.3545 -1.53155 93.7319 -1.24721 90.8967C-1.17613 90.3296 -1.10501 89.8335 -1.03393 89.2664C-0.109849 83.1706 1.88048 77.4292 4.65272 72.2549C7.7093 66.5844 11.69 61.5518 16.3814 57.3698Z" fill="#999BFD"/>
<path opacity="0.8889" d="M16.4518 57.4401C25.9058 49.0761 38.3453 43.9727 51.9222 43.9727C65.4991 43.9727 77.9386 49.0761 87.3926 57.4401C92.0841 61.6221 96.0648 66.6547 99.1213 72.2543C101.894 77.4995 103.884 83.17 104.808 89.2658C104.879 89.8329 104.95 90.329 105.021 90.8961C105.306 93.7313 103.244 96.2831 100.472 96.5666C100.188 96.921 91.018 97.1337 90.5204 97.1337H51.9222H13.324C12.8264 97.1337 3.65669 96.921 3.37235 96.5666C0.60011 96.2831 -1.46123 93.7313 -1.1769 90.8252C-1.10582 90.2582 -1.0347 89.762 -0.963616 89.1949C-0.0395346 83.0991 1.95079 77.4286 4.72304 72.1834C7.77961 66.5838 11.7603 61.6221 16.4518 57.4401Z" fill="#989AFD"/>
<path opacity="0.8974" d="M16.529 57.5104C25.9831 49.1464 38.3517 44.043 51.9996 44.043C65.5765 44.043 78.016 49.1464 87.4701 57.5104C92.1615 61.6924 96.1421 66.725 99.1276 72.3246C101.9 77.499 103.89 83.2403 104.814 89.2653C104.885 89.8323 104.956 90.3285 105.028 90.8955C105.312 93.7308 103.251 96.2825 100.478 96.566C100.194 96.9204 90.9532 97.0623 90.5267 97.0623H51.9996H13.4724C13.0459 97.0623 3.80512 96.8496 3.52079 96.566C0.748547 96.2825 -1.31279 93.7308 -1.02846 90.8955C-0.957379 90.3285 -0.886261 89.8323 -0.815178 89.2653C0.108903 83.2403 2.02815 77.499 4.87147 72.3246C7.85697 66.6541 11.8376 61.6924 16.529 57.5104Z" fill="#9799FD"/>
<path opacity="0.906" d="M16.5994 57.5138C26.0534 49.1498 38.4219 44.1172 51.9988 44.1172C65.5757 44.1172 77.944 49.1498 87.3981 57.5138C92.0896 61.6958 96.0703 66.6575 99.0558 72.2571C101.828 77.4314 103.747 83.1728 104.742 89.1977C104.814 89.7648 104.885 90.261 104.956 90.828C105.24 93.6633 103.179 96.215 100.406 96.4277C100.122 96.7112 90.8812 96.9238 90.4547 96.9238H51.9988H13.5427C13.1162 96.9238 3.87544 96.7821 3.5911 96.4277C0.81886 96.215 -1.24248 93.6633 -0.95815 90.7571C-0.887067 90.1901 -0.816122 89.6939 -0.745039 89.1268C0.179042 83.1019 2.09839 77.4314 4.87063 72.1862C7.92721 66.7284 11.9079 61.6958 16.5994 57.5138Z" fill="#9698FD"/>
<path opacity="0.9145" d="M16.6673 57.584C26.0502 49.22 38.4188 44.1875 51.9957 44.1875C65.5726 44.1875 77.941 49.22 87.324 57.584C92.0155 61.766 95.9961 66.7278 98.9816 72.3274C101.754 77.5017 103.673 83.1722 104.597 89.1972C104.668 89.7642 104.739 90.2604 104.81 90.8274C105.095 93.6627 103.033 96.2144 100.261 96.4271C100.048 96.7106 90.6649 96.8523 90.3095 96.8523H51.9246H13.5397C13.1843 96.8523 3.87237 96.7106 3.58804 96.4271C0.815792 96.2144 -1.31663 93.6627 -0.961217 90.8274C-0.890134 90.2604 -0.819189 89.7642 -0.748106 89.1972C0.175975 83.1722 2.09532 77.5017 4.86757 72.3274C7.99523 66.7987 11.9047 61.766 16.6673 57.584Z" fill="#9597FD"/>
<path opacity="0.9231" d="M16.6658 57.6544C26.0487 49.3613 38.4173 44.2578 51.9231 44.2578C65.4289 44.2578 77.7974 49.2904 87.1804 57.6544C91.8719 61.8364 95.8525 66.7981 98.838 72.3977C101.61 77.572 103.529 83.2426 104.453 89.1966C104.525 89.7636 104.596 90.2598 104.667 90.8269C105.022 93.6621 102.89 96.2139 100.117 96.3556C99.9042 96.5683 90.5212 96.71 90.2368 96.71H51.9231H13.6093C13.2539 96.71 3.94191 96.5683 3.72866 96.3556C0.956417 96.143 -1.17601 93.5912 -0.820592 90.756C-0.749509 90.1889 -0.678391 89.6927 -0.607308 89.1257C0.316773 83.1008 2.23595 77.4303 5.00819 72.3268C8.06477 66.7981 11.9743 61.8364 16.6658 57.6544Z" fill="#9496FD"/>
<path opacity="0.9316" d="M16.7354 57.7241C26.1184 49.431 38.4158 44.3984 51.9216 44.3984C65.4274 44.3984 77.7958 49.431 87.1077 57.7241C91.7992 61.9061 95.7088 66.8678 98.6943 72.3966C101.467 77.5709 103.386 83.1705 104.31 89.1954C104.381 89.7625 104.452 90.2587 104.523 90.8257C104.879 93.661 102.746 96.1418 99.9738 96.3545C99.7606 96.5671 90.3775 96.7089 90.0932 96.7089H51.9216H13.7499C13.4656 96.7089 4.01145 96.5671 3.86929 96.3545C1.09704 96.1418 -1.03538 93.661 -0.679967 90.8257C-0.608884 90.2587 -0.537766 89.7625 -0.466683 89.1954C0.457398 83.2414 2.37657 77.5709 5.14882 72.3966C8.13431 66.8678 12.0439 61.9061 16.7354 57.7241Z" fill="#9395FD"/>
<path opacity="0.9402" d="M16.812 57.7945C26.195 49.5014 38.4924 44.4688 51.9982 44.4688C65.504 44.4688 77.8014 49.5014 87.1843 57.7945C91.8758 61.9765 95.7853 66.9381 98.7707 72.4669C101.543 77.5703 103.462 83.2409 104.386 89.1949C104.458 89.762 104.529 90.2581 104.6 90.8252C104.955 93.6604 102.823 96.1412 100.05 96.283C99.9081 96.4956 90.383 96.5665 90.1698 96.5665H52.0692H13.9687C13.6844 96.5665 4.2302 96.4248 4.08803 96.283C1.31579 96.1412 -0.816633 93.5896 -0.461217 90.7543C-0.390134 90.1872 -0.319016 89.691 -0.247933 89.124C0.676148 83.17 2.59532 77.4995 5.36757 72.396C8.21089 66.9382 12.1205 61.9765 16.812 57.7945Z" fill="#9294FD"/>
<path opacity="0.9487" d="M16.8783 57.8647C26.1902 49.5716 38.4877 44.5391 51.9935 44.5391C65.4282 44.5391 77.7255 49.5716 87.1085 57.8647C91.8 61.9759 95.7096 66.9376 98.6951 72.5372C101.467 77.6406 103.387 83.3111 104.311 89.2652C104.382 89.8322 104.453 90.3284 104.524 90.8954C104.879 93.7307 102.747 96.2116 99.9035 96.3534C99.7613 96.4951 90.2363 96.6368 90.023 96.6368H51.9935H13.964C13.7508 96.6368 4.22553 96.566 4.08337 96.3534C1.31112 96.2116 -0.82137 93.7307 -0.537038 90.8954C-0.465955 90.3284 -0.394837 89.8322 -0.323754 89.2652C0.600327 83.3111 2.5195 77.7115 5.29175 72.6081C8.27724 66.9375 12.1868 61.9759 16.8783 57.8647Z" fill="#9193FD"/>
<path opacity="0.9573" d="M16.8783 57.9351C26.1902 49.6419 38.4876 44.6094 51.9224 44.6094C65.3571 44.6094 77.6545 49.6419 86.9664 57.9351C91.6579 62.0462 95.5675 67.0079 98.553 72.5366C101.254 77.6401 103.173 83.2397 104.168 89.1938C104.24 89.6899 104.311 90.257 104.382 90.824C104.737 93.6593 102.605 96.1401 99.7614 96.211C99.6192 96.3527 90.0939 96.4237 89.8807 96.4237H51.9224H13.964C13.7508 96.4237 4.22553 96.3527 4.08337 96.211C1.31112 96.0692 -0.82137 93.5884 -0.537038 90.7532C-0.465955 90.1861 -0.394837 89.6899 -0.323754 89.1228C0.600327 83.1688 2.51961 77.5692 5.22077 72.4657C8.34842 67.0079 12.2579 62.0462 16.8783 57.9351Z" fill="#9092FD"/>
<path opacity="0.9658" d="M16.9546 58.0087C26.2665 49.7865 38.4928 44.7539 51.9275 44.7539C65.3622 44.7539 77.5884 49.7865 86.9003 58.0087C91.5918 62.1198 95.5014 67.0815 98.4158 72.6103C101.117 77.7137 103.036 83.3134 103.96 89.1965C104.031 89.6927 104.102 90.2597 104.174 90.7559C104.529 93.5912 102.396 96.072 99.5532 96.1429C99.4821 96.2846 89.8149 96.2846 89.6727 96.2846H51.7853H13.898C13.7558 96.2846 4.15966 96.2138 4.0175 96.1429C1.24525 96.072 -0.958323 93.5912 -0.602907 90.7559C-0.531824 90.1889 -0.46088 89.6927 -0.389797 89.1256C0.534284 83.1716 2.45356 77.6429 5.15472 72.5394C8.42455 67.0815 12.3342 62.1198 16.9546 58.0087Z" fill="#8F91FD"/>
<path opacity="0.9744" d="M17.0234 58.079C26.3353 49.8568 38.5617 44.8242 51.9965 44.8242C65.4312 44.8242 77.6574 49.8568 86.9693 58.079C91.5897 62.1902 95.4993 67.1519 98.4848 72.6806C101.186 77.7841 103.105 83.3128 104.029 89.2668C104.1 89.763 104.171 90.3301 104.243 90.8262C104.598 93.6615 102.394 96.1423 99.6222 96.2132C99.5511 96.2841 89.8837 96.355 89.7415 96.355H51.9253H14.1091C13.9669 96.355 4.29952 96.2841 4.22844 96.2132C1.45619 96.1423 -0.747386 93.6615 -0.39197 90.8262C-0.320887 90.2592 -0.249769 89.763 -0.178686 89.196C0.745395 83.3128 2.66468 77.7132 5.36584 72.6097C8.49349 67.081 12.403 62.1902 17.0234 58.079Z" fill="#8E90FD"/>
<path opacity="0.9829" d="M17.0907 58.1494C26.4026 49.9271 38.5579 44.8945 51.9926 44.8945C65.3562 44.8945 77.5824 49.9271 86.8943 58.1494C91.5147 62.2605 95.4243 67.2222 98.4098 72.68C101.111 77.7835 103.03 83.3122 103.954 89.1954C104.025 89.6915 104.096 90.2586 104.168 90.7548C104.523 93.5191 102.319 96 99.5472 96.0709C99.4761 96.1417 89.8087 96.1417 89.7377 96.1417H52.0636H14.3895C14.3184 96.1417 4.58 96.1417 4.58 96.0709C1.80775 96 -0.395823 93.5191 -0.0404074 90.7548C0.0306758 90.1877 0.101794 89.6915 0.172877 89.1245C1.09696 83.2413 3.01624 77.6417 5.7174 72.6091C8.48964 67.1513 12.3992 62.2605 17.0907 58.1494Z" fill="#8D8FFD"/>
<path opacity="0.9915" d="M17.1619 58.2191C26.4027 49.9968 38.629 45.0352 51.9926 45.0352C65.3562 45.0352 77.5825 49.9968 86.8233 58.2191C91.4437 62.3302 95.3532 67.221 98.2676 72.7497C100.969 77.7823 102.888 83.3819 103.812 89.2651C103.883 89.7613 103.954 90.3283 104.025 90.8245C104.381 93.5889 102.177 96.0697 99.405 96.1406L89.5955 96.2115H51.9926H14.3895C14.3184 96.2115 4.58 96.2115 4.58 96.1406C1.80775 96.1406 -0.395823 93.6597 -0.0404074 90.8245C0.0306757 90.2574 0.101794 89.7613 0.172877 89.2651C1.09696 83.3819 3.01624 77.8532 5.7174 72.8206C8.56072 67.221 12.4704 62.3302 17.1619 58.2191Z" fill="#8C8EFD"/>
<path d="M99.3408 95.9989C102.184 95.9989 104.317 93.518 103.961 90.7536C103.179 84.3034 101.189 78.2076 98.2036 72.7497C95.2892 67.221 91.3796 62.3302 86.7592 58.2191C77.5184 49.9968 65.2921 45.0352 51.9996 45.0352C38.6359 45.0352 26.4806 49.9968 17.2398 58.2191C12.6194 62.3302 8.70993 67.221 5.79552 72.7497C2.88111 78.2785 0.890715 84.3034 0.0377176 90.7536C-0.317698 93.518 1.88588 95.9989 4.65812 95.9989H51.9996H99.3408Z" fill="#8B8DFD"/>
</g>
<g opacity="0.8">
<path opacity="0.8" d="M79.7907 22.4247C82.7051 37.3098 73.0378 51.6987 58.1103 54.6049C43.2539 57.511 28.753 47.8711 25.8386 32.986C22.9242 18.101 32.5915 3.71203 47.519 0.8059C62.4464 -2.10024 76.8763 7.53963 79.7907 22.4247Z" fill="url(#paint0_linear_1_74275)"/>
</g>
<path d="M52.7807 55.4559C47.3073 55.4559 41.9761 53.8256 37.3557 50.7069C31.1714 46.5957 27.0485 40.2873 25.5558 33.0574C22.5703 18.0305 32.4509 3.42897 47.4494 0.52283C54.6999 -0.894796 62.0926 0.593729 68.2768 4.70485C74.4611 8.81596 78.584 15.1244 80.0767 22.3543C83.0622 37.3812 73.1816 51.9827 58.1831 54.8888C56.406 55.3141 54.5578 55.4559 52.7807 55.4559ZM52.9228 0.593738C51.1457 0.593738 49.3687 0.735509 47.5916 1.08992C32.8774 3.99605 23.2812 18.3141 26.1245 32.9865C27.5462 40.0747 31.5979 46.2413 37.6399 50.2815C43.682 54.3218 50.9326 55.8103 58.0409 54.3926C72.7551 51.4865 82.3513 37.1685 79.508 22.496C78.0863 15.4079 74.0346 9.24126 67.9926 5.20103C63.4433 2.15313 58.254 0.593738 52.9228 0.593738Z" fill="url(#paint1_linear_1_74275)"/>
<defs>
<linearGradient id="paint0_linear_1_74275" x1="52.8363" y1="55.1698" x2="52.8363" y2="0.283432" gradientUnits="userSpaceOnUse">
<stop stop-color="#F2F8FF"/>
<stop offset="1" stop-color="#D9F0FF"/>
</linearGradient>
<linearGradient id="paint1_linear_1_74275" x1="52.8381" y1="55.4592" x2="52.8381" y2="-0.00487953" gradientUnits="userSpaceOnUse">
<stop stop-color="#E6F1FF"/>
<stop offset="1" stop-color="#F7FBFF"/>
</linearGradient>
</defs>
</svg>
