<svg width="305" height="96" viewBox="0 0 305 96" fill="none" xmlns="http://www.w3.org/2000/svg">
<path d="M153.113 23.9219C133.164 23.9219 117 40.0526 117 59.9603C117 79.868 133.164 95.9987 153.113 95.9987C173.062 95.9987 189.227 79.868 189.227 59.9603C189.227 40.0526 173.062 23.9219 153.113 23.9219ZM153.113 79.1598C142.469 79.1598 133.834 70.5436 133.834 59.921C133.834 49.2983 142.469 40.6821 153.113 40.6821C163.758 40.6821 172.392 49.2983 172.392 59.921C172.353 70.5436 163.758 79.1598 153.113 79.1598Z" fill="#8B8DFD"/>
<path d="M162.8 62.2947C164.061 56.9658 160.755 51.6258 155.415 50.3675C150.075 49.1092 144.724 52.4091 143.463 57.7379C142.202 63.0668 145.509 68.4068 150.849 69.6651C156.188 70.9234 161.54 67.6235 162.8 62.2947Z" fill="#8B8DFD"/>
<mask id="mask0_340_3730" style="mask-type:luminance" maskUnits="userSpaceOnUse" x="147" y="0" width="66" height="65">
<path d="M210.883 18.4148L198.227 16.605C197.242 16.4477 196.453 15.6608 196.295 14.6772L194.482 2.04802C194.206 0.198886 191.959 -0.548655 190.618 0.749672L167.673 23.6475C167.16 24.1589 166.924 24.9065 167.042 25.6146L168.777 35.8439L149.498 55.0827C147.251 57.3253 147.251 60.9842 149.498 63.2268C151.745 65.4694 155.412 65.4694 157.659 63.2268L176.386 44.5387L187.267 45.7584C187.937 45.8371 188.647 45.601 189.12 45.0896L212.144 22.1131C213.524 20.9328 212.736 18.6509 210.883 18.4148Z" fill="white"/>
</mask>
<g mask="url(#mask0_340_3730)">
<path opacity="0.052632" d="M140.461 20.54C140.54 20.54 144.679 19.6351 144.758 19.6351C146.493 19.281 148.267 19.0056 150.041 18.8875C151.185 18.8088 152.328 18.7695 153.471 18.7695C176.141 18.8482 194.591 37.2215 194.631 59.8439C194.631 60.9849 194.591 62.1651 194.513 63.3061C194.355 65.0372 194.118 66.7289 193.763 68.4207C193.763 68.4994 192.857 72.6698 192.857 72.7091H163.17C163.209 72.5911 166.363 65.1946 166.363 65.0765C167.033 63.3848 167.388 61.575 167.349 59.7259C167.27 52.2113 161.12 46.1131 153.589 45.995C151.697 45.9557 149.884 46.3098 148.149 47.018C147.991 47.018 140.579 50.2048 140.461 50.2441V20.54Z" fill="#F9F9FF"/>
<path opacity="0.1053" d="M140.774 20.7744C140.892 20.735 144.913 19.9088 145.032 19.8694C146.766 19.5153 148.501 19.2793 150.236 19.122C151.379 19.0433 152.483 19.0039 153.626 19.0039C176.02 19.1613 194.234 37.2985 194.352 59.6455C194.352 60.7865 194.313 61.9274 194.234 63.0684C194.116 64.7601 193.879 66.4519 193.524 68.1436C193.524 68.2617 192.657 72.2747 192.618 72.3927H163.561C163.68 72.1566 166.637 65.0355 166.637 64.7601C167.307 63.0684 167.583 61.2585 167.543 59.4094C167.346 51.9342 161.275 45.9147 153.823 45.718C151.971 45.6786 150.118 45.9934 148.422 46.6622C148.146 46.6622 140.971 49.6917 140.734 49.8097V20.7744H140.774Z" fill="#F3F3FF"/>
<path opacity="0.1579" d="M141.055 21.012C141.252 20.9727 145.076 20.1465 145.273 20.1465C146.968 19.7924 148.703 19.5563 150.438 19.4383C151.542 19.3596 152.685 19.3203 153.789 19.3203C175.906 19.517 193.884 37.4575 194.081 59.5291C194.081 60.6701 194.042 61.7717 193.963 62.9126C193.845 64.6044 193.608 66.2568 193.293 67.9092C193.253 68.106 192.465 71.9222 192.425 72.1189H164.079C164.237 71.7649 167.075 64.9191 167.075 64.4863C167.706 62.7946 167.943 60.9848 167.903 59.1357C167.627 51.7391 161.595 45.7196 154.183 45.4442C152.33 45.3655 150.517 45.641 148.782 46.2704C148.348 46.2704 141.449 49.1818 141.094 49.3392V21.012H141.055Z" fill="#EDEDFF"/>
<path opacity="0.2105" d="M141.328 21.2457C141.565 21.2063 145.232 20.4195 145.468 20.3801C147.163 20.0654 148.859 19.8294 150.554 19.7113C151.658 19.6326 152.762 19.5933 153.866 19.6326C175.707 19.908 193.448 37.6125 193.724 59.4086C193.724 60.5103 193.724 61.6512 193.645 62.7528C193.527 64.4052 193.291 66.0577 192.975 67.7101C192.936 67.9462 192.187 71.6444 192.108 71.8805H164.432C164.629 71.4084 167.349 64.7987 167.349 64.2479C167.94 62.5168 168.177 60.7463 168.059 58.9365C167.664 51.5794 161.711 45.6385 154.339 45.2451C152.486 45.1664 150.712 45.4025 148.977 45.9926C148.386 45.9926 141.802 48.7466 141.289 48.9433V21.2457H141.328Z" fill="#E7E7FF"/>
<path opacity="0.2632" d="M141.648 21.4446C141.964 21.3659 145.433 20.6578 145.749 20.6184C147.404 20.3037 149.1 20.0676 150.795 19.9496C151.899 19.8709 152.963 19.8316 154.067 19.8709C175.633 20.225 193.137 37.6541 193.492 59.2142C193.492 60.3158 193.492 61.4174 193.413 62.519C193.295 64.1714 193.098 65.7845 192.783 67.3976C192.743 67.7123 192.034 71.2139 191.955 71.4893H164.949C165.225 70.8991 167.748 64.5649 167.748 63.8567C168.3 62.1256 168.497 60.3551 168.379 58.5453C167.905 51.2275 161.992 45.3654 154.698 44.8932C152.885 44.7752 151.071 45.0113 149.336 45.5621C148.627 45.5621 142.279 48.1587 141.648 48.4341V21.4446Z" fill="#E0E1FE"/>
<path opacity="0.3158" d="M141.922 21.6789C142.277 21.6002 145.628 20.892 145.983 20.8527C147.639 20.5379 149.294 20.3412 150.95 20.2232C152.015 20.1445 153.119 20.1445 154.183 20.1445C175.473 20.5773 192.741 37.7703 193.174 59.055C193.214 60.1566 193.174 61.2189 193.096 62.3205C192.977 63.9336 192.78 65.586 192.504 67.1597C192.465 67.5138 191.755 70.858 191.676 71.2121H165.34C165.656 70.4645 168.061 64.445 168.061 63.5795C168.573 61.8484 168.731 60.0779 168.613 58.3075C168.061 51.0683 162.186 45.2062 154.932 44.6554C153.119 44.5373 151.344 44.6947 149.61 45.2062C148.742 45.2062 142.671 47.6454 141.922 47.9995V21.6789Z" fill="#DADBFE"/>
<path opacity="0.3684" d="M142.195 21.9149C142.629 21.8362 145.783 21.1673 146.217 21.128C147.833 20.8132 149.489 20.6165 151.145 20.5378C152.209 20.4591 153.274 20.4592 154.338 20.4985C175.391 20.9706 192.383 37.9669 192.896 58.9369C192.935 59.9991 192.896 61.1007 192.856 62.163C192.778 63.7761 192.58 65.3892 192.265 66.9629C192.226 67.3957 191.555 70.5431 191.477 70.9759H165.811C166.166 70.1103 168.452 64.3662 168.452 63.3827C168.925 61.6516 169.044 59.8811 168.886 58.1107C168.216 50.9108 162.42 45.1273 155.206 44.4585C153.431 44.3011 151.618 44.4585 149.883 44.9307C148.898 44.9307 143.063 47.2519 142.195 47.606V21.9149Z" fill="#D4D5FE"/>
<path opacity="0.4211" d="M142.516 22.1511C142.989 22.0331 145.985 21.4429 146.458 21.3643C148.075 21.0889 149.691 20.8921 151.308 20.8134C152.372 20.7741 153.397 20.7348 154.462 20.7741C175.239 21.3249 191.994 38.0851 192.586 58.7797C192.625 59.842 192.586 60.9042 192.546 61.9665C192.467 63.5402 192.27 65.1533 191.994 66.6877C191.955 67.1598 191.324 70.1893 191.206 70.6614H166.21C166.644 69.6778 168.773 64.1697 168.773 63.0681C169.207 61.337 169.325 59.5665 169.128 57.8354C168.379 50.7143 162.623 44.9702 155.447 44.2227C153.673 44.026 151.899 44.144 150.164 44.5768C149.021 44.5768 143.462 46.7407 142.477 47.1734V22.1511H142.516Z" fill="#CECFFE"/>
<path opacity="0.4737" d="M142.789 22.3891C143.341 22.2711 146.141 21.6809 146.692 21.6416C148.269 21.3662 149.886 21.1695 151.502 21.0908C152.527 21.0515 153.592 21.0121 154.617 21.0514C175.118 21.6809 191.637 38.1658 192.268 58.6243C192.307 59.6865 192.307 60.7094 192.228 61.7717C192.149 63.3454 191.992 64.9192 191.716 66.4536C191.637 67.0044 191.085 69.8371 190.967 70.3879H166.642C167.115 69.2863 169.086 64.0537 169.086 62.7947C169.48 61.0636 169.559 59.2931 169.362 57.562C168.534 50.4802 162.817 44.7755 155.721 43.9492C153.947 43.7525 152.173 43.8312 150.438 44.2246C149.137 44.2246 143.893 46.2312 142.75 46.7426V22.3891H142.789Z" fill="#C8C9FE"/>
<path opacity="0.5263" d="M143.063 22.6244C143.654 22.5064 146.335 21.9556 146.927 21.8769C148.504 21.6015 150.081 21.4441 151.658 21.3654C152.683 21.3261 153.708 21.3261 154.733 21.3654C174.958 22.0736 191.24 38.3224 191.95 58.5055C191.989 59.5284 191.989 60.5907 191.95 61.6136C191.871 63.148 191.713 64.7217 191.477 66.2168C191.398 66.8462 190.885 69.4823 190.728 70.0724H167.073C167.585 68.8528 169.438 63.8955 169.438 62.4791C169.793 60.748 169.832 59.0169 169.596 57.2465C168.65 50.204 163.012 44.578 155.955 43.6337C154.22 43.3977 152.446 43.4763 150.711 43.8304C149.292 43.8304 144.285 45.7189 143.023 46.2304V22.6244H143.063Z" fill="#C2C3FE"/>
<path opacity="0.5789" d="M143.383 22.8582C144.053 22.7009 146.537 22.2287 147.207 22.15C148.745 21.914 150.322 21.7173 151.899 21.6779C152.924 21.6386 153.909 21.6386 154.934 21.6779C174.883 22.4255 190.969 38.4775 191.718 58.3852C191.757 59.4081 191.757 60.431 191.718 61.454C191.639 62.9884 191.521 64.5227 191.245 66.0178C191.166 66.6866 190.653 69.2046 190.535 69.834H167.55C168.142 68.4964 169.837 63.8146 169.837 62.2408C170.152 60.5097 170.152 58.7786 169.916 57.0475C168.891 50.0837 163.292 44.497 156.275 43.4741C154.54 43.238 152.805 43.238 151.071 43.5528C149.494 43.5528 144.763 45.2839 143.383 45.874V22.8582Z" fill="#BCBDFE"/>
<path opacity="0.6316" d="M143.657 23.0963C144.366 22.9389 146.692 22.4667 147.441 22.3881C148.979 22.152 150.517 21.9946 152.054 21.9553C153.04 21.9159 154.065 21.9159 155.05 21.9553C174.723 22.7815 190.572 38.5975 191.4 58.2298C191.44 59.2133 191.44 60.2363 191.4 61.2592C191.361 62.7936 191.203 64.2887 190.967 65.7444C190.888 66.4919 190.415 68.8131 190.257 69.5213H167.942C168.573 68.0656 170.111 63.6198 170.111 61.928C170.387 60.1969 170.347 58.4658 170.071 56.7347C168.928 49.8103 163.409 44.2629 156.47 43.1613C154.774 42.8859 153 42.8859 151.266 43.1613C149.531 43.1613 145.076 44.735 143.617 45.4039V23.0963H143.657Z" fill="#B6B7FE"/>
<path opacity="0.6842" d="M143.938 23.3306C144.726 23.1732 146.855 22.7405 147.643 22.6618C149.142 22.4257 150.679 22.3076 152.217 22.229C153.202 22.1896 154.188 22.1896 155.174 22.2683C174.571 23.1732 190.183 38.7138 191.09 58.0707C191.129 59.0543 191.129 60.0379 191.129 61.0608C191.09 62.5558 190.932 64.0508 190.735 65.5065C190.656 66.2934 190.222 68.4573 190.065 69.2441H168.42C169.091 67.6704 170.51 63.5001 170.51 61.6509C170.746 59.9198 170.707 58.1887 170.392 56.497C169.17 49.6119 163.689 44.1432 156.79 42.9235C155.095 42.6088 153.36 42.5694 151.625 42.8055C149.772 42.8055 145.554 44.2612 143.977 44.93V23.3306H143.938Z" fill="#B0B1FE"/>
<path opacity="0.7368" d="M144.25 23.5668C145.078 23.3701 147.05 23.016 147.917 22.898C149.415 22.662 150.913 22.5439 152.411 22.5046C153.397 22.4652 154.383 22.5046 155.329 22.5439C174.45 23.5275 189.826 38.832 190.811 57.9135C190.851 58.8971 190.89 59.8807 190.851 60.8643C190.811 62.3593 190.693 63.815 190.456 65.2313C190.378 66.0969 189.983 68.0641 189.786 68.8903H168.812C169.561 67.1985 170.823 63.3035 170.823 61.3364C171.02 59.6053 170.941 57.8742 170.626 56.1824C169.325 49.376 163.884 43.9466 157.024 42.6483C155.329 42.3336 153.594 42.2549 151.859 42.4516C149.849 42.4516 145.946 43.75 144.211 44.4975V23.5668H144.25Z" fill="#AAABFE"/>
<path opacity="0.7895" d="M144.523 23.8046C145.43 23.6078 147.244 23.2538 148.151 23.1751C149.609 22.9784 151.107 22.8603 152.606 22.821C153.552 22.7816 154.537 22.821 155.484 22.8604C174.329 23.8833 189.468 38.9911 190.532 57.7971C190.572 58.7414 190.611 59.725 190.572 60.7086C190.532 62.1643 190.414 63.62 190.217 65.0363C190.099 65.9412 189.783 67.7903 189.586 68.6559H169.282C170.071 66.8461 171.175 63.1872 171.175 61.102C171.332 59.3709 171.214 57.6398 170.859 55.9874C169.44 49.2203 164.078 43.8696 157.297 42.4533C155.641 42.0992 153.907 42.0205 152.172 42.1779C150.043 42.1779 146.376 43.3189 144.523 44.1057V23.8046Z" fill="#A3A5FD"/>
<path opacity="0.8421" d="M144.797 24.038C145.743 23.8413 147.399 23.5265 148.385 23.4085C149.843 23.2118 151.302 23.0938 152.761 23.0938C153.707 23.0938 154.653 23.0937 155.599 23.1724C174.168 24.274 189.071 39.1458 190.214 57.6765C190.254 58.6207 190.293 59.5649 190.293 60.5485C190.254 62.0042 190.175 63.4206 189.978 64.8369C189.86 65.8205 189.544 67.4729 189.347 68.4172H169.753C170.581 66.45 171.566 63.1058 171.566 60.8633C171.685 59.1322 171.527 57.4011 171.172 55.7487C169.674 49.021 164.352 43.7096 157.61 42.2146C155.954 41.8605 154.259 41.7031 152.485 41.8211C150.198 41.8211 146.808 42.8047 144.836 43.6702V24.038H144.797Z" fill="#9D9FFD"/>
<path opacity="0.8947" d="M145.117 24.276C146.142 24.0399 147.601 23.8039 148.665 23.6859C150.085 23.4891 151.543 23.4104 153.002 23.3711C153.948 23.3711 154.895 23.3711 155.801 23.4498C174.095 24.6301 188.761 39.2264 189.983 57.5211C190.062 58.4653 190.062 59.4095 190.062 60.3538C190.062 61.7701 189.943 63.1865 189.786 64.5635C189.667 65.5864 189.391 67.0815 189.194 68.1044H170.27C171.138 66.0192 172.005 62.9504 172.005 60.5505C172.084 58.8194 171.926 57.0883 171.532 55.4358C169.915 48.7868 164.633 43.5149 157.97 41.9411C156.314 41.5477 154.619 41.3903 152.884 41.469C150.44 41.469 147.325 42.3345 145.235 43.2394V24.276H145.117Z" fill="#9799FD"/>
<path opacity="0.9474" d="M145.392 24.5101C146.456 24.274 147.757 24.0379 148.861 23.9199C150.28 23.7625 151.7 23.6445 153.119 23.6445C154.065 23.6445 154.972 23.6839 155.879 23.7232C173.896 24.9822 188.326 39.3425 189.587 57.3617C189.666 58.2666 189.666 59.2108 189.666 60.155C189.666 61.5714 189.587 62.9484 189.39 64.3254C189.272 65.427 189.035 66.7254 188.799 67.827H170.545C171.491 65.6238 172.161 62.8304 172.161 60.2731C172.201 58.5026 172.004 56.8109 171.57 55.1978C169.875 48.5881 164.631 43.3948 158.008 41.703C156.391 41.3096 154.696 41.0736 152.922 41.1129C150.359 41.1129 147.481 41.8211 145.273 42.7653V24.5101H145.392Z" fill="#9193FD"/>
<path d="M153.352 23.9219C150.71 23.9219 148.187 24.1973 145.703 24.7481V42.3345C148.029 41.3116 150.631 40.7608 153.352 40.7608C163.996 40.7608 172.63 49.3769 172.63 59.9996C172.63 62.675 172.078 65.2323 171.093 67.5536H188.676C189.189 65.1143 189.465 62.5963 189.465 59.9996C189.425 40.0526 173.261 23.9219 153.352 23.9219Z" fill="#8B8DFD"/>
</g>
<mask id="mask1_340_3730" style="mask-type:luminance" maskUnits="userSpaceOnUse" x="147" y="0" width="66" height="65">
<path d="M210.883 18.4148L198.227 16.605C197.242 16.4477 196.453 15.6608 196.295 14.6772L194.482 2.04802C194.206 0.198886 191.959 -0.548655 190.618 0.749672L167.673 23.6475C167.16 24.1589 166.924 24.9065 167.042 25.6146L168.777 35.8439L149.498 55.0827C147.251 57.3253 147.251 60.9842 149.498 63.2268C151.745 65.4694 155.412 65.4694 157.659 63.2268L176.386 44.5387L187.267 45.7584C187.937 45.8371 188.647 45.601 189.12 45.0896L212.144 22.1131C213.524 20.9328 212.736 18.6509 210.883 18.4148Z" fill="white"/>
</mask>
<g mask="url(#mask1_340_3730)">
<path opacity="0.052632" d="M164.06 70.632C169.972 64.732 169.972 55.1664 164.06 49.2665C158.148 43.3666 148.562 43.3666 142.65 49.2665C136.738 55.1664 136.738 64.732 142.65 70.632C148.562 76.5319 158.148 76.5319 164.06 70.632Z" fill="#F9F9FF"/>
<path opacity="0.1053" d="M153.363 74.7937C161.572 74.7937 168.226 68.153 168.226 59.9613C168.226 51.7696 161.572 45.1289 153.363 45.1289C145.154 45.1289 138.5 51.7696 138.5 59.9613C138.5 68.153 145.154 74.7937 153.363 74.7937Z" fill="#F3F3FF"/>
<path opacity="0.1579" d="M153.36 74.4807C161.395 74.4807 167.908 67.9809 167.908 59.963C167.908 51.9451 161.395 45.4453 153.36 45.4453C145.326 45.4453 138.812 51.9451 138.812 59.963C138.812 67.9809 145.326 74.4807 153.36 74.4807Z" fill="#EDEDFF"/>
<path opacity="0.2105" d="M153.358 74.2072C161.24 74.2072 167.63 67.8307 167.63 59.9649C167.63 52.0991 161.24 45.7227 153.358 45.7227C145.476 45.7227 139.086 52.0991 139.086 59.9649C139.086 67.8307 145.476 74.2072 153.358 74.2072Z" fill="#E7E7FF"/>
<path opacity="0.2632" d="M153.355 73.9298C161.085 73.9298 167.351 67.6766 167.351 59.963C167.351 52.2493 161.085 45.9961 153.355 45.9961C145.626 45.9961 139.359 52.2493 139.359 59.963C139.359 67.6766 145.626 73.9298 153.355 73.9298Z" fill="#E0E1FE"/>
<path opacity="0.3158" d="M153.36 73.6167C160.916 73.6167 167.041 67.5044 167.041 59.9646C167.041 52.4247 160.916 46.3125 153.36 46.3125C145.805 46.3125 139.68 52.4247 139.68 59.9646C139.68 67.5044 145.805 73.6167 153.36 73.6167Z" fill="#DADBFE"/>
<path opacity="0.3684" d="M153.358 73.3394C160.761 73.3394 166.762 67.3504 166.762 59.9626C166.762 52.5749 160.761 46.5859 153.358 46.5859C145.955 46.5859 139.953 52.5749 139.953 59.9626C139.953 67.3504 145.955 73.3394 153.358 73.3394Z" fill="#D4D5FE"/>
<path opacity="0.4211" d="M153.355 73.0263C160.584 73.0263 166.444 67.1782 166.444 59.9643C166.444 52.7504 160.584 46.9023 153.355 46.9023C146.126 46.9023 140.266 52.7504 140.266 59.9643C140.266 67.1782 146.126 73.0263 153.355 73.0263Z" fill="#CECFFE"/>
<path opacity="0.4737" d="M162.415 68.9906C167.419 63.9972 167.419 55.9013 162.415 50.9078C157.411 45.9144 149.298 45.9144 144.295 50.9078C139.291 55.9013 139.291 63.9972 144.295 68.9906C149.298 73.984 157.411 73.984 162.415 68.9906Z" fill="#C8C9FE"/>
<path opacity="0.5263" d="M162.22 68.7959C167.116 63.91 167.116 55.9884 162.22 51.1026C157.324 46.2167 149.386 46.2167 144.49 51.1026C139.594 55.9885 139.594 63.91 144.49 68.7958C149.386 73.6817 157.324 73.6817 162.22 68.7959Z" fill="#C2C3FE"/>
<path opacity="0.5789" d="M153.362 72.1584C160.112 72.1584 165.584 66.6979 165.584 59.962C165.584 53.2261 160.112 47.7656 153.362 47.7656C146.612 47.7656 141.141 53.2261 141.141 59.962C141.141 66.6979 146.612 72.1584 153.362 72.1584Z" fill="#BCBDFE"/>
<path opacity="0.6316" d="M153.36 71.885C159.957 71.885 165.306 66.5477 165.306 59.9639C165.306 53.3802 159.957 48.043 153.36 48.043C146.762 48.043 141.414 53.3802 141.414 59.9639C141.414 66.5477 146.762 71.885 153.36 71.885Z" fill="#B6B7FE"/>
<path opacity="0.6842" d="M153.357 71.6076C159.802 71.6076 165.027 66.3937 165.027 59.962C165.027 53.5303 159.802 48.3164 153.357 48.3164C146.912 48.3164 141.688 53.5303 141.688 59.962C141.688 66.3937 146.912 71.6076 153.357 71.6076Z" fill="#B0B1FE"/>
<path opacity="0.7368" d="M153.362 71.2945C159.633 71.2945 164.717 66.2215 164.717 59.9636C164.717 53.7058 159.633 48.6328 153.362 48.6328C147.091 48.6328 142.008 53.7058 142.008 59.9636C142.008 66.2215 147.091 71.2945 153.362 71.2945Z" fill="#AAABFE"/>
<path opacity="0.7895" d="M153.36 71.0171C159.478 71.0171 164.438 66.0675 164.438 59.9617C164.438 53.8559 159.478 48.9062 153.36 48.9062C147.241 48.9062 142.281 53.8559 142.281 59.9617C142.281 66.0675 147.241 71.0171 153.36 71.0171Z" fill="#A3A5FD"/>
<path opacity="0.8421" d="M153.365 70.7437C159.331 70.7437 164.167 65.9173 164.167 59.9637C164.167 54.01 159.331 49.1836 153.365 49.1836C147.399 49.1836 142.562 54.01 142.562 59.9637C142.562 65.9173 147.399 70.7437 153.365 70.7437Z" fill="#9D9FFD"/>
<path opacity="0.8947" d="M160.77 67.3492C164.865 63.2623 164.865 56.6361 160.77 52.5492C156.674 48.4623 150.034 48.4623 145.939 52.5492C141.843 56.6361 141.843 63.2623 145.939 67.3492C150.034 71.4361 156.674 71.4361 160.77 67.3492Z" fill="#9799FD"/>
<path opacity="0.9474" d="M160.575 67.1545C164.562 63.1751 164.562 56.7233 160.575 52.7439C156.587 48.7646 150.122 48.7646 146.134 52.7439C142.147 56.7233 142.147 63.1751 146.134 67.1545C150.122 71.1339 156.587 71.1339 160.575 67.1545Z" fill="#9193FD"/>
<path d="M157.19 69.1156C162.259 67.0201 164.666 61.2202 162.566 56.1613C160.467 51.1023 154.655 48.7 149.585 50.7956C144.516 52.8911 142.109 58.6909 144.208 63.7498C146.308 68.8088 152.12 71.2111 157.19 69.1156Z" fill="#8B8DFD"/>
</g>
<g opacity="0.8">
<path opacity="0.8" d="M210.875 18.4148L198.219 16.605C197.234 16.4477 196.445 15.6608 196.288 14.6772L194.474 2.04802C194.198 0.198886 191.951 -0.548655 190.61 0.749672L167.665 23.6475C167.152 24.1589 166.916 24.9065 167.034 25.6146L168.769 35.8439L149.49 55.0827C147.243 57.3253 147.243 60.9842 149.49 63.2268C151.737 65.4694 155.404 65.4694 157.651 63.2268L176.378 44.5387L187.259 45.7584C187.929 45.8371 188.639 45.601 189.112 45.0896L212.136 22.1131C213.516 20.9328 212.728 18.6509 210.875 18.4148Z" fill="url(#paint0_linear_340_3730)"/>
</g>
<path d="M192.302 24.7881L181.342 35.7255C180.198 36.8665 178.306 36.8665 177.123 35.7255C175.98 34.5846 175.98 32.6961 177.123 31.5158L188.083 20.5784C189.227 19.4374 191.119 19.4374 192.302 20.5784C193.484 21.7587 193.484 23.6471 192.302 24.7881Z" fill="white"/>
<path d="M153.627 65.1549C152.09 65.1549 150.591 64.5648 149.409 63.4238C147.083 61.1026 147.083 57.3649 149.409 55.0437L168.609 35.8835L166.874 25.7329C166.756 24.9461 166.992 24.1592 167.544 23.6084L190.489 0.710638C191.16 0.0418022 192.106 -0.154914 192.973 0.120489C193.841 0.395892 194.471 1.18276 194.629 2.08765L196.443 14.7168C196.561 15.6217 197.31 16.3692 198.256 16.5266L210.912 18.3364C211.818 18.4545 212.567 19.0839 212.883 19.9888C213.159 20.8544 212.962 21.7986 212.291 22.4675L189.267 45.4439C188.755 45.9554 188.006 46.2308 187.257 46.1521L176.454 44.9325L157.806 63.5418C156.663 64.5647 155.125 65.1549 153.627 65.1549ZM192.264 0.277871C191.712 0.277871 191.199 0.474578 190.805 0.907354L167.86 23.8051C167.386 24.2772 167.15 24.9854 167.268 25.6543L169.003 35.9622L168.963 36.0015L149.685 55.2404C148.62 56.3027 148.029 57.719 148.029 59.214C148.029 60.7091 148.62 62.1255 149.685 63.1878C150.749 64.25 152.168 64.8401 153.667 64.8401C155.165 64.8401 156.584 64.25 157.648 63.1878L176.415 44.4603H176.494L187.375 45.68C188.006 45.7587 188.636 45.5226 189.11 45.0899L212.134 22.1134C212.725 21.5232 212.922 20.7364 212.646 19.9495C212.37 19.1626 211.739 18.6512 210.951 18.5332L198.296 16.7233C197.231 16.566 196.364 15.7398 196.246 14.6775L194.432 2.04832C194.314 1.22211 193.801 0.592598 193.013 0.356539C192.737 0.317195 192.5 0.277871 192.264 0.277871Z" fill="url(#paint1_linear_340_3730)"/>
<defs>
<linearGradient id="paint0_linear_340_3730" x1="180.344" y1="64.9904" x2="180.344" y2="0.118181" gradientUnits="userSpaceOnUse">
<stop stop-color="#F2F8FF"/>
<stop offset="1" stop-color="#D9F0FF"/>
</linearGradient>
<linearGradient id="paint1_linear_340_3730" x1="180.342" y1="65.1463" x2="180.342" y2="-0.0390477" gradientUnits="userSpaceOnUse">
<stop stop-color="#E6F1FF"/>
<stop offset="1" stop-color="#F7FBFF"/>
</linearGradient>
</defs>
</svg>
