<svg width="305" height="96" viewBox="0 0 305 96" fill="none" xmlns="http://www.w3.org/2000/svg">
<g opacity="0.8">
<path d="M177.672 8.30341L196.403 59.6299C198.812 66.1686 195.42 73.4448 188.881 75.8046L135.588 95.2241C129.049 97.6331 121.773 94.2408 119.413 87.7021L100.682 36.3757C98.2731 29.8369 101.665 22.5608 108.204 20.2009L161.497 0.781434C168.036 -1.62757 175.312 1.71553 177.672 8.30341Z" fill="#8B8DFD"/>
<mask id="mask0_340_3731" style="mask-type:luminance" maskUnits="userSpaceOnUse" x="123" y="14" width="83" height="81">
<path d="M205.205 27.2326V81.853C205.205 88.8342 199.551 94.488 192.57 94.488H135.885C128.904 94.488 123.25 88.8342 123.25 81.853V27.2326C123.25 20.2514 128.904 14.5977 135.885 14.5977H192.57C199.551 14.6468 205.205 20.3006 205.205 27.2326Z" fill="white"/>
</mask>
<g mask="url(#mask0_340_3731)">
<path opacity="0.01" d="M105.892 13.8104L159.185 -5.60914C161.349 -6.39575 163.561 -6.78906 165.822 -6.78906C173.934 -6.78906 181.309 -1.67608 184.062 5.99339L202.793 57.3199C204.563 62.187 204.366 67.4967 202.154 72.1672C199.942 76.8868 196.058 80.4266 191.191 82.2456L137.898 101.665C135.735 102.452 133.522 102.845 131.261 102.845C123.149 102.845 115.774 97.7321 113.021 90.0626L94.2899 38.7361C90.6518 28.6577 95.8139 17.4484 105.892 13.8104Z" fill="#FEFEFF"/>
<path opacity="0.017094" d="M105.942 13.8611L159.234 -5.55837C161.398 -6.34498 163.61 -6.73828 165.872 -6.73828C173.983 -6.73828 181.309 -1.6253 184.062 5.99501L202.793 57.3215C204.563 62.1886 204.317 67.4491 202.154 72.1196C199.991 76.7901 196.107 80.3791 191.24 82.1489L137.947 101.568C135.784 102.355 133.571 102.748 131.31 102.748C123.198 102.748 115.873 97.6354 113.119 90.0151L94.3882 38.6886C90.7009 28.6593 95.9122 17.4992 105.942 13.8611Z" fill="#FDFDFF"/>
<path opacity="0.025641" d="M105.94 13.908L159.233 -5.51148C161.347 -6.2981 163.608 -6.69141 165.87 -6.69141C173.933 -6.69141 181.258 -1.57842 184.011 5.99272L202.742 57.3192C204.512 62.1864 204.267 67.3977 202.103 72.0682C199.94 76.7387 196.056 80.2784 191.189 82.0483L137.896 101.517C135.782 102.304 133.521 102.697 131.259 102.697C123.196 102.697 115.871 97.5839 113.118 90.0128L94.3865 38.6863C90.7485 28.657 95.9598 17.5461 105.94 13.908Z" fill="#FCFCFF"/>
<path opacity="0.034188" d="M105.942 13.9588L159.235 -5.46071C161.349 -6.24732 163.561 -6.64062 165.823 -6.64062C173.886 -6.64062 181.162 -1.57681 183.915 5.99434L202.646 57.3208C204.416 62.1388 204.17 67.3993 202.007 72.0206C199.844 76.6911 196.009 80.2309 191.142 82.0008L137.849 101.42C135.735 102.207 133.523 102.6 131.261 102.6C123.198 102.6 115.922 97.5364 113.169 89.9652L94.4378 38.6388C90.8488 28.6586 96.0109 17.5969 105.942 13.9588Z" fill="#FBFBFF"/>
<path opacity="0.042735" d="M105.989 14.0096L159.282 -5.40993C161.396 -6.19654 163.608 -6.58984 165.869 -6.58984C173.883 -6.58984 181.159 -1.52603 183.912 6.04512L202.644 57.3716C204.413 62.1896 204.168 67.4009 202.004 72.0714C199.841 76.6928 196.007 80.2325 191.189 82.0024L137.896 101.422C135.782 102.208 133.569 102.602 131.308 102.602C123.294 102.602 116.018 97.538 113.265 89.9668L94.5336 38.6404C90.8955 28.6602 96.0577 17.6477 105.989 14.0096Z" fill="#FAFAFF"/>
<path opacity="0.051282" d="M105.987 14.0565L159.28 -5.36305C161.394 -6.14966 163.606 -6.54297 165.819 -6.54297C173.832 -6.54297 181.059 -1.47915 183.812 6.04284L202.544 57.3693C204.313 62.1873 204.068 67.3986 201.904 72.02C199.741 76.6413 195.907 80.1811 191.138 81.9018L137.845 101.321C135.731 102.108 133.518 102.501 131.306 102.501C123.292 102.501 116.065 97.4374 113.312 89.9154L94.581 38.5889C90.9429 28.7071 96.1051 17.6945 105.987 14.0565Z" fill="#F9F9FF"/>
<path opacity="0.059829" d="M106.038 14.1072L159.331 -5.31227C161.445 -6.09888 163.657 -6.49219 165.869 -6.49219C173.834 -6.49219 181.061 -1.47753 183.814 6.04445L202.545 57.3709C204.315 62.1889 204.069 67.3511 201.906 71.9724C199.743 76.5938 195.957 80.0844 191.139 81.8542L137.846 101.274C135.732 102.06 133.52 102.454 131.308 102.454C123.343 102.454 116.116 97.439 113.363 89.917L94.6317 38.5905C91.0427 28.7087 96.1557 17.7453 106.038 14.1072Z" fill="#F8F8FF"/>
<path opacity="0.068376" d="M106.036 14.2026L159.329 -5.21691C161.443 -6.00352 163.606 -6.34766 165.867 -6.34766C173.832 -6.34766 181.01 -1.333 183.714 6.13982L202.445 57.4663C204.166 62.2351 203.969 67.3973 201.806 72.0186C199.643 76.64 195.857 80.1306 191.088 81.8513L137.795 101.271C135.681 102.057 133.518 102.402 131.256 102.402C123.292 102.402 116.114 97.3869 113.41 89.914L94.679 38.5876C91.0901 28.7058 96.203 17.7915 106.036 14.2026Z" fill="#F7F7FF"/>
<path opacity="0.076923" d="M106.042 14.2534L159.335 -5.16612C161.449 -5.95273 163.612 -6.29688 165.824 -6.29688C173.74 -6.29688 180.917 -1.28222 183.621 6.1906L202.353 57.5171C204.073 62.2859 203.877 67.4481 201.714 72.0202C199.6 76.5924 195.765 80.083 191.045 81.8529L137.752 101.272C135.638 102.059 133.475 102.403 131.263 102.403C123.347 102.403 116.169 97.3885 113.465 89.9157L94.7342 38.5892C91.1453 28.7074 96.2583 17.8423 106.042 14.2534Z" fill="#F6F6FF"/>
<path opacity="0.08547" d="M106.085 14.3042L159.378 -5.11534C161.492 -5.90195 163.655 -6.24609 165.867 -6.24609C173.782 -6.24609 180.911 -1.2806 183.615 6.19222L202.346 57.5187C204.067 62.2875 203.87 67.4005 201.707 71.9727C199.593 76.5449 195.808 80.0355 191.039 81.7562L137.746 101.176C135.632 101.962 133.469 102.306 131.256 102.306C123.341 102.306 116.212 97.3409 113.508 89.8681L94.7771 38.5417C91.2374 28.7582 96.3012 17.8439 106.085 14.3042Z" fill="#F5F5FF"/>
<path opacity="0.094017" d="M106.083 14.351L159.376 -5.06846C161.441 -5.80591 163.653 -6.19922 165.816 -6.19922C173.682 -6.19922 180.811 -1.23372 183.515 6.18993L202.246 57.5164C203.967 62.2361 203.77 67.349 201.607 71.9212C199.493 76.4934 195.707 79.9349 190.988 81.6556L137.695 101.075C135.63 101.813 133.418 102.206 131.254 102.206C123.388 102.206 116.26 97.2403 113.556 89.8167L94.8735 38.4902C91.2846 28.7559 96.3484 17.8908 106.083 14.351Z" fill="#F4F4FF"/>
<path opacity="0.1026" d="M106.141 14.4018L159.434 -5.01768C161.499 -5.75513 163.662 -6.14844 165.875 -6.14844C173.741 -6.14844 180.82 -1.18294 183.524 6.19155L202.255 57.518C203.976 62.2377 203.73 67.3507 201.616 71.8737C199.502 76.3967 195.766 79.8873 191.046 81.608L137.753 101.028C135.688 101.765 133.525 102.158 131.313 102.158C123.447 102.158 116.367 97.1928 113.663 89.8183L94.932 38.4918C91.3922 28.7575 96.4068 17.9416 106.141 14.4018Z" fill="#F3F3FF"/>
<path opacity="0.1111" d="M106.132 14.4487L159.425 -4.97081C161.49 -5.70826 163.653 -6.10156 165.865 -6.10156C173.682 -6.10156 180.762 -1.18523 183.466 6.18926L202.197 57.5157C203.918 62.2354 203.672 67.2992 201.558 71.8222C199.444 76.3453 195.707 79.7867 190.988 81.5074L137.695 100.927C135.63 101.664 133.467 102.058 131.254 102.058C123.437 102.058 116.358 97.1413 113.654 89.7668L94.9226 38.4404C91.432 28.7552 96.4466 17.9884 106.132 14.4487Z" fill="#F2F2FF"/>
<path opacity="0.1197" d="M106.187 14.4995L159.479 -4.92002C161.544 -5.65747 163.708 -6.05078 165.871 -6.05078C173.688 -6.05078 180.718 -1.13445 183.422 6.24004L202.153 57.5665C203.874 62.2862 203.628 67.35 201.563 71.8239C199.449 76.3469 195.713 79.7883 191.042 81.4599L137.651 100.879C135.586 101.617 133.423 102.01 131.26 102.01C123.443 102.01 116.413 97.0938 113.709 89.7193L94.9773 38.3928C91.4867 28.7568 96.5014 18.0392 106.187 14.4995Z" fill="#F1F1FF"/>
<path opacity="0.1282" d="M106.189 14.5503L159.482 -4.86924C161.546 -5.60669 163.71 -6 165.873 -6C173.641 -6 180.671 -1.08367 183.375 6.24166L202.106 57.5681C203.827 62.2386 203.581 67.3025 201.516 71.7763C199.402 76.2502 195.715 79.6916 191.044 81.4123L137.653 100.832C135.588 101.569 133.425 101.963 131.262 101.963C123.494 101.963 116.464 97.0462 113.76 89.7209L95.0285 38.3944C91.5871 28.8076 96.5526 18.09 106.189 14.5503Z" fill="#F0F0FF"/>
<path opacity="0.1368" d="M106.186 14.6479L159.479 -4.77159C161.544 -5.50904 163.658 -5.90234 165.822 -5.90234C173.589 -5.90234 180.57 -1.03518 183.225 6.29015L201.957 57.6166C203.677 62.2871 203.431 67.3018 201.367 71.7756C199.302 76.2495 195.565 79.6909 190.895 81.3625L137.651 100.782C135.586 101.519 133.472 101.913 131.309 101.913C123.541 101.913 116.56 97.0456 113.905 89.7202L95.1739 38.3938C91.6342 28.8069 96.5996 18.1385 106.186 14.6479Z" fill="#EFEFFF"/>
<path opacity="0.1453" d="M106.233 14.6948L159.526 -4.72472C161.591 -5.46217 163.705 -5.85547 165.868 -5.85547C173.587 -5.85547 180.568 -0.988305 183.223 6.28786L201.954 57.6143C203.675 62.2849 203.429 67.2995 201.364 71.7734C199.3 76.2472 195.612 79.6395 190.942 81.3602L137.649 100.78C135.584 101.517 133.47 101.91 131.307 101.91C123.588 101.91 116.607 97.0433 113.952 89.7671L95.2208 38.4407C91.681 28.8046 96.6466 18.1854 106.233 14.6948Z" fill="#EEEEFF"/>
<path opacity="0.1538" d="M106.235 14.7456L159.528 -4.67393C161.593 -5.41138 163.707 -5.80469 165.821 -5.80469C173.491 -5.80469 180.472 -0.93752 183.127 6.28948L201.858 57.616C203.529 62.2373 203.333 67.2519 201.268 71.7258C199.203 76.1505 195.516 79.5919 190.895 81.2635L137.601 100.683C135.537 101.42 133.423 101.814 131.309 101.814C123.639 101.814 116.658 96.9466 114.003 89.7196L95.2719 38.3931C91.7813 28.8063 96.6977 18.2362 106.235 14.7456Z" fill="#EDEDFF"/>
<path opacity="0.1624" d="M106.282 14.7924L159.575 -4.62706C161.591 -5.3645 163.754 -5.75781 165.868 -5.75781C173.538 -5.75781 180.47 -0.939816 183.124 6.33635L201.856 57.6628C203.527 62.2842 203.331 67.2988 201.266 71.7235C199.201 76.1482 195.514 79.5405 190.892 81.212L137.599 100.632C135.584 101.369 133.42 101.762 131.306 101.762C123.637 101.762 116.705 96.9443 114.05 89.6681L95.3188 38.3416C91.8282 28.804 96.7445 18.283 106.282 14.7924Z" fill="#ECECFF"/>
<path opacity="0.1709" d="M106.28 14.8432L159.573 -4.57627C161.589 -5.31372 163.703 -5.70703 165.866 -5.70703C173.487 -5.70703 180.419 -0.889029 183.073 6.33797L201.805 57.6644C203.476 62.2858 203.28 67.2513 201.215 71.676C199.15 76.1007 195.512 79.493 190.89 81.1645L137.597 100.584C135.582 101.321 133.468 101.715 131.305 101.715C123.684 101.715 116.752 96.8967 114.097 89.6697L95.3662 38.3433C91.8756 28.8548 96.7919 18.2847 106.28 14.8432Z" fill="#EBECFF"/>
<path opacity="0.1795" d="M106.282 14.894L159.575 -4.52549C161.591 -5.26294 163.705 -5.65625 165.819 -5.65625C173.439 -5.65625 180.322 -0.838251 182.977 6.33959L201.708 57.6661C203.38 62.2874 203.134 67.2037 201.118 71.6284C199.054 76.004 195.415 79.3962 190.843 81.0678L137.55 100.487C135.535 101.225 133.421 101.618 131.307 101.618C123.686 101.618 116.803 96.8 114.148 89.6222L95.4173 38.2957C91.9759 28.8564 96.843 18.3354 106.282 14.894Z" fill="#EAEBFF"/>
<path opacity="0.188" d="M106.329 14.9425L159.622 -4.477C161.638 -5.21445 163.752 -5.55859 165.866 -5.55859C173.437 -5.55859 180.32 -0.789754 182.975 6.38809L201.706 57.7146C203.378 62.2867 203.132 67.2522 201.116 71.6278C199.1 76.0033 195.462 79.3956 190.841 81.0671L137.548 100.487C135.532 101.224 133.418 101.568 131.304 101.568C123.733 101.568 116.85 96.7994 114.195 89.6215L95.4642 38.2951C92.0228 28.8557 96.89 18.3839 106.329 14.9425Z" fill="#E9EAFF"/>
<path opacity="0.1966" d="M106.335 14.9894L159.628 -4.43013C161.644 -5.16758 163.709 -5.51172 165.823 -5.51172C173.394 -5.51172 180.228 -0.742879 182.883 6.43496L201.614 57.7614C203.285 62.3336 203.039 67.2499 201.024 71.6255C199.008 76.001 195.37 79.3441 190.798 81.0156L137.505 100.435C135.489 101.173 133.424 101.517 131.31 101.517C123.739 101.517 116.905 96.7479 114.251 89.5701L95.5194 38.2436C92.078 28.8534 96.9451 18.4308 106.335 14.9894Z" fill="#E8E9FF"/>
<path opacity="0.2051" d="M106.378 15.0402L159.671 -4.37934C161.687 -5.11679 163.752 -5.46094 165.866 -5.46094C173.388 -5.46094 180.221 -0.692093 182.827 6.43658L201.558 57.7631C203.23 62.3352 202.984 67.2516 200.968 71.5779C198.953 75.9535 195.315 79.2474 190.792 80.919L137.498 100.338C135.483 101.076 133.418 101.42 131.304 101.42C123.782 101.42 116.948 96.6512 114.343 89.5225L95.6114 38.1961C92.1699 28.855 96.9879 18.4816 106.378 15.0402Z" fill="#E7E8FF"/>
<path opacity="0.2137" d="M106.384 15.1378L159.677 -4.28169C161.693 -5.01914 163.758 -5.36328 165.872 -5.36328C173.394 -5.36328 180.228 -0.64361 182.784 6.48507L201.515 57.8115C203.187 62.3346 202.941 67.2509 200.925 71.5773C198.91 75.9036 195.321 79.2467 190.748 80.9183L137.455 100.338C135.44 101.075 133.375 101.419 131.261 101.419C123.739 101.419 116.905 96.6997 114.349 89.571L95.6175 38.2446C92.2252 28.9035 97.0431 18.5301 106.384 15.1378Z" fill="#E6E7FF"/>
<path opacity="0.2222" d="M106.382 15.1886L159.675 -4.23091C161.691 -4.96836 163.756 -5.3125 165.821 -5.3125C173.294 -5.3125 180.127 -0.592825 182.684 6.48669L201.415 57.8132C203.087 62.3362 202.841 67.2033 200.825 71.5297C198.809 75.8561 195.22 79.15 190.697 80.8216L137.404 100.241C135.389 100.979 133.324 101.323 131.259 101.323C123.786 101.323 116.952 96.603 114.396 89.5235L95.6648 38.197C92.2726 28.9051 97.0905 18.5809 106.382 15.1886Z" fill="#E5E6FF"/>
<path opacity="0.2308" d="M106.433 15.2355L159.726 -4.18403C161.692 -4.92148 163.757 -5.26562 165.871 -5.26562C173.344 -5.26562 180.129 -0.595116 182.685 6.4844L201.416 57.8109C203.088 62.3339 202.842 67.201 200.826 71.4783C198.811 75.8046 195.271 79.0986 190.748 80.721L137.455 100.14C135.489 100.878 133.424 101.222 131.31 101.222C123.837 101.222 117.052 96.5515 114.496 89.472L95.7646 38.1456C92.3723 28.9029 97.1411 18.6277 106.433 15.2355Z" fill="#E4E5FF"/>
<path opacity="0.2393" d="M106.431 15.2863L159.724 -4.13325C161.691 -4.87069 163.756 -5.21484 165.821 -5.21484C173.244 -5.21484 180.029 -0.544327 182.585 6.53519L201.316 57.8617C202.939 62.3847 202.742 67.2027 200.727 71.529C198.711 75.8063 195.171 79.1002 190.648 80.7717L137.355 100.191C135.388 100.929 133.324 101.273 131.259 101.273C123.835 101.273 117.051 96.6023 114.494 89.5228L95.7629 38.1963C92.4198 28.9045 97.1886 18.6785 106.431 15.2863Z" fill="#E3E4FF"/>
<path opacity="0.2479" d="M106.478 15.337L159.771 -4.08247C161.738 -4.81992 163.802 -5.16406 165.867 -5.16406C173.291 -5.16406 180.026 -0.493549 182.583 6.5368L201.314 57.8633C202.936 62.3371 202.74 67.2043 200.724 71.4815C198.758 75.7587 195.169 79.0526 190.695 80.675L137.353 100.045C135.386 100.783 133.321 101.127 131.256 101.127C123.833 101.127 117.097 96.4564 114.541 89.4261L95.8588 38.1488C92.4666 28.9061 97.2354 18.6801 106.478 15.337Z" fill="#E2E3FF"/>
<path opacity="0.2564" d="M106.48 15.3839L159.773 -4.0356C161.74 -4.77305 163.804 -5.11719 165.869 -5.11719C173.244 -5.11719 179.979 -0.49584 182.536 6.53451L201.267 57.861C202.889 62.3348 202.643 67.1528 200.677 71.43C198.71 75.7072 195.171 78.952 190.697 80.6236L137.404 100.043C135.437 100.781 133.372 101.125 131.308 101.125C123.933 101.125 117.198 96.5033 114.641 89.473L95.91 38.1465C92.5669 28.953 97.2866 18.727 106.48 15.3839Z" fill="#E1E2FE"/>
<path opacity="0.265" d="M106.478 15.4347L159.771 -3.98482C161.738 -4.72226 163.754 -5.06641 165.818 -5.06641C173.193 -5.06641 179.879 -0.445055 182.436 6.53613L201.167 57.8626C202.789 62.3365 202.543 67.1053 200.577 71.3825C198.61 75.6105 195.071 78.9045 190.597 80.5269L137.304 99.9464C135.337 100.684 133.321 101.028 131.257 101.028C123.882 101.028 117.196 96.4066 114.639 89.4254L95.9574 38.099C92.6143 28.9546 97.334 18.7778 106.478 15.4347Z" fill="#E0E1FE"/>
<path opacity="0.2735" d="M106.533 15.4816L159.826 -3.93794C161.793 -4.67539 163.808 -5.01953 165.873 -5.01953C173.198 -5.01953 179.885 -0.398187 182.441 6.583L201.172 57.9095C202.795 62.3342 202.549 67.1522 200.582 71.3802C198.616 75.6083 195.076 78.853 190.651 80.4754L137.358 99.8949C135.392 100.632 133.376 100.977 131.311 100.977C123.986 100.977 117.3 96.3552 114.743 89.374L96.0121 38.0967C92.669 28.9523 97.3886 18.8247 106.533 15.4816Z" fill="#DFE0FE"/>
<path opacity="0.2821" d="M106.527 15.5792L159.82 -3.84028C161.787 -4.52857 163.802 -4.92188 165.818 -4.92188C173.144 -4.92188 179.781 -0.349689 182.288 6.6315L201.019 57.958C202.641 62.3827 202.396 67.1515 200.429 71.3795C198.463 75.6076 194.972 78.8524 190.547 80.4748L137.254 99.8943C135.288 100.583 133.272 100.976 131.256 100.976C123.931 100.976 117.294 96.4036 114.787 89.4225L96.0554 38.096C92.7615 28.9516 97.432 18.8732 106.527 15.5792Z" fill="#DEDFFE"/>
<path opacity="0.2906" d="M106.582 15.63L159.875 -3.7895C161.841 -4.47779 163.857 -4.87109 165.873 -4.87109C173.149 -4.87109 179.786 -0.298911 182.293 6.63311L201.025 57.9596C202.647 62.3843 202.401 67.1531 200.435 71.332C198.468 75.5109 194.978 78.7557 190.553 80.378L137.26 99.7975C135.293 100.486 133.278 100.879 131.262 100.879C123.986 100.879 117.349 96.3069 114.841 89.3749L96.1101 38.0485C92.8162 29.0024 97.4867 18.9239 106.582 15.63Z" fill="#DDDEFE"/>
<path opacity="0.2991" d="M106.58 15.6808L159.873 -3.73872C161.79 -4.42701 163.806 -4.82031 165.871 -4.82031C173.147 -4.82031 179.735 -0.248126 182.242 6.63473L200.974 57.9612C202.596 62.3859 202.35 67.1056 200.384 71.2845C198.417 75.4633 194.976 78.7081 190.551 80.3305L137.258 99.75C135.341 100.438 133.325 100.832 131.26 100.832C123.984 100.832 117.396 96.2594 114.889 89.3765L96.1575 38.0501C92.8635 29.004 97.534 18.9747 106.58 15.6808Z" fill="#DCDDFE"/>
<path opacity="0.3077" d="M106.623 15.7293L159.916 -3.69022C161.833 -4.37851 163.849 -4.72266 165.865 -4.72266C173.092 -4.72266 179.68 -0.199628 182.187 6.68323L200.918 58.0097C202.54 62.3852 202.295 67.1049 200.328 71.2838C198.411 75.4627 194.92 78.6583 190.545 80.2807L137.252 99.7002C135.334 100.388 133.319 100.733 131.303 100.733C124.076 100.733 117.488 96.2096 114.981 89.3267L96.2494 38.0002C92.9555 29.0034 97.5768 19.0232 106.623 15.7293Z" fill="#DBDCFE"/>
<path opacity="0.3162" d="M106.629 15.7761L159.922 -3.64335C161.839 -4.33164 163.855 -4.67578 165.871 -4.67578C173.098 -4.67578 179.636 -0.152761 182.144 6.7301L200.875 58.0566C202.448 62.4321 202.252 67.1518 200.285 71.2815C198.368 75.4112 194.877 78.656 190.502 80.2292L137.209 99.6487C135.291 100.337 133.275 100.681 131.26 100.681C124.033 100.681 117.494 96.1581 114.987 89.2753L96.2556 37.9488C93.0108 29.0011 97.6321 19.0701 106.629 15.7761Z" fill="#DADBFE"/>
<path opacity="0.3248" d="M106.631 15.8269L159.924 -3.59258C161.841 -4.28086 163.857 -4.625 165.824 -4.625C173.001 -4.625 179.54 -0.101982 182.047 6.73171L200.779 58.0582C202.352 62.4337 202.155 67.1042 200.189 71.2339C198.271 75.3637 194.83 78.5593 190.454 80.1817L137.211 99.552C135.293 100.24 133.277 100.584 131.311 100.584C124.133 100.584 117.594 96.0614 115.087 89.2277L96.3558 37.9504C93.111 29.0027 97.6831 19.1209 106.631 15.8269Z" fill="#D9DAFE"/>
<path opacity="0.3333" d="M106.678 15.8777L159.971 -3.54179C161.888 -4.23007 163.855 -4.57422 165.87 -4.57422C173.048 -4.57422 179.538 -0.100359 182.045 6.73334L200.776 58.0598C202.35 62.4353 202.153 67.1059 200.236 71.2356C198.318 75.3653 194.877 78.5609 190.551 80.1341L137.159 99.5045C135.242 100.193 133.275 100.537 131.26 100.537C124.082 100.537 117.592 96.063 115.085 89.2293L96.3536 37.9029C93.158 29.0535 97.7302 19.1225 106.678 15.8777Z" fill="#D8D9FE"/>
<path opacity="0.3419" d="M106.676 15.9246L159.969 -3.49492C161.886 -4.18321 163.853 -4.52734 165.819 -4.52734C172.948 -4.52734 179.438 -0.0534878 181.945 6.73105L200.676 58.0575C202.249 62.3839 202.004 67.0544 200.135 71.1841C198.218 75.3138 194.826 78.4603 190.45 80.0335L137.157 99.453C135.24 100.141 133.273 100.485 131.307 100.485C124.178 100.485 117.689 96.0116 115.181 89.227L96.45 37.9006C93.2052 29.0512 97.7774 19.1694 106.676 15.9246Z" fill="#D7D8FE"/>
<path opacity="0.3504" d="M106.729 16.0222L160.022 -3.39726C161.939 -4.08554 163.906 -4.42969 165.872 -4.42969C172.952 -4.42969 179.441 0.0441732 181.9 6.77954L200.631 58.106C202.204 62.4324 201.958 67.0537 200.09 71.1834C198.173 75.264 194.78 78.4596 190.454 80.0328L137.161 99.4523C135.244 100.141 133.277 100.485 131.311 100.485C124.231 100.485 117.742 96.0109 115.283 89.2755L96.5521 37.9491C93.3073 29.0505 97.8796 19.2179 106.729 16.0222Z" fill="#D6D7FE"/>
<path opacity="0.359" d="M106.727 16.073L160.02 -3.34648C161.937 -4.03477 163.855 -4.37891 165.87 -4.37891C172.95 -4.37891 179.39 0.0457835 181.849 6.83032L200.58 58.1568C202.153 62.4832 201.907 67.1045 200.039 71.1851C198.122 75.2656 194.729 78.4121 190.452 79.9853L137.159 99.4048C135.242 100.093 133.324 100.437 131.309 100.437C124.229 100.437 117.789 96.0125 115.331 89.228L96.5995 37.9015C93.3547 29.0521 97.9269 19.2686 106.727 16.073Z" fill="#D5D6FE"/>
<path opacity="0.3675" d="M106.725 16.1199L160.018 -3.2996C161.887 -3.98789 163.853 -4.33203 165.82 -4.33203C172.85 -4.33203 179.29 0.0926628 181.749 6.82803L200.48 58.1545C202.053 62.4317 201.807 67.0531 199.939 71.1336C198.071 75.2142 194.679 78.3606 190.352 79.9338L137.059 99.3533C135.191 100.042 133.224 100.386 131.258 100.386C124.228 100.386 117.787 95.9611 115.329 89.2257L96.5978 37.8992C93.4022 29.0498 97.9744 19.3155 106.725 16.1199Z" fill="#D4D5FE"/>
<path opacity="0.3761" d="M106.776 16.1707L160.069 -3.24883C161.937 -3.93711 163.904 -4.28125 165.87 -4.28125C172.901 -4.28125 179.292 0.143441 181.75 6.82965L200.481 58.1561C202.054 62.4333 201.809 67.0547 199.94 71.0861C198.072 75.1175 194.68 78.2639 190.403 79.8371L137.11 99.2566C135.242 99.9449 133.275 100.289 131.309 100.289C124.278 100.289 117.887 95.8644 115.429 89.1781L96.6975 37.8517C93.5019 29.1006 98.0249 19.3663 106.776 16.1707Z" fill="#D3D4FE"/>
<path opacity="0.3846" d="M106.774 16.2215L160.067 -3.19804C161.935 -3.88632 163.902 -4.23047 165.819 -4.23047C172.8 -4.23047 179.192 0.145064 181.65 6.83127L200.381 58.1577C201.954 62.4349 201.708 67.0071 199.84 71.0385C197.972 75.0699 194.629 78.2164 190.352 79.7404L137.059 99.1599C135.191 99.8482 133.224 100.192 131.307 100.192C124.326 100.192 117.934 95.8168 115.476 89.1306L96.7449 37.8041C93.5493 29.1022 98.0723 19.4171 106.774 16.2215Z" fill="#D2D3FE"/>
<path opacity="0.3932" d="M106.821 16.2683L160.114 -3.15116C161.982 -3.83945 163.9 -4.18359 165.866 -4.18359C172.847 -4.18359 179.189 0.191938 181.648 6.87815L200.379 58.2046C201.952 62.4818 201.706 67.0048 199.838 71.0362C197.97 75.0676 194.627 78.1649 190.35 79.7381L137.057 99.1576C135.188 99.8459 133.271 100.19 131.304 100.19C124.323 100.19 117.981 95.8145 115.523 89.1283L96.7918 37.8018C93.5961 29.0999 98.1192 19.4639 106.821 16.2683Z" fill="#D1D2FE"/>
<path opacity="0.4017" d="M106.823 16.3191L160.116 -3.10039C161.984 -3.78867 163.902 -4.13281 165.868 -4.13281C172.8 -4.13281 179.142 0.242717 181.6 6.87976L200.332 58.2062C201.856 62.4343 201.659 67.0065 199.791 70.9887C197.923 74.9709 194.58 78.1174 190.351 79.6414L137.009 99.0609C135.141 99.7492 133.224 100.093 131.257 100.093C124.325 100.093 117.983 95.7178 115.525 89.0808L96.8429 37.8035C93.6965 29.1016 98.1704 19.5147 106.823 16.3191Z" fill="#D0D1FE"/>
<path opacity="0.4103" d="M106.821 16.366L160.114 -3.05351C161.982 -3.74179 163.9 -4.08594 165.817 -4.08594C172.749 -4.08594 179.042 0.240433 181.5 6.87748L200.232 58.2039C201.756 62.432 201.559 66.955 199.691 70.9372C197.822 74.9194 194.529 78.0167 190.301 79.5408L137.007 98.9603C135.139 99.6486 133.222 99.9927 131.305 99.9927C124.373 99.9927 118.08 95.6664 115.621 89.0293L96.8903 37.7029C93.7439 29.0993 98.2177 19.5124 106.821 16.366Z" fill="#CFD0FE"/>
<path opacity="0.4188" d="M106.876 16.4676L160.169 -2.95194C162.037 -3.64023 163.955 -3.98438 165.872 -3.98438C172.755 -3.98438 179.048 0.342 181.457 6.92988L200.188 58.2563C201.712 62.4844 201.466 67.0074 199.647 70.9405C197.779 74.9227 194.485 78.02 190.257 79.544L136.964 98.9635C135.096 99.6518 133.178 99.996 131.261 99.996C124.378 99.996 118.085 95.6696 115.676 89.0817L96.945 37.7553C93.7986 29.1517 98.2724 19.5648 106.876 16.4676Z" fill="#CECFFE"/>
<path opacity="0.4274" d="M106.87 16.516L160.163 -2.90345C162.031 -3.59174 163.9 -3.88672 165.817 -3.88672C172.7 -3.88672 178.993 0.439645 181.353 6.97836L200.084 58.2557C201.608 62.4345 201.362 66.9576 199.543 70.8906C197.724 74.8237 194.43 77.921 190.202 79.445L136.909 98.8645C135.041 99.5528 133.173 99.8478 131.255 99.8478C124.372 99.8478 118.079 95.5214 115.72 88.9827L96.9884 37.6563C93.8911 29.151 98.3157 19.6133 106.87 16.516Z" fill="#CDCEFE"/>
<path opacity="0.4359" d="M106.925 16.5629L160.218 -2.85658C162.037 -3.54486 163.954 -3.83984 165.872 -3.83984C172.705 -3.83984 178.998 0.437365 181.358 7.02525L200.089 58.3517C201.613 62.5306 201.367 67.0044 199.548 70.9867C197.729 74.9197 194.435 78.017 190.257 79.5411L136.964 98.9606C135.145 99.6489 133.227 99.9438 131.31 99.9438C124.476 99.9438 118.183 95.6666 115.823 89.0788L97.0921 37.7523C93.9457 29.1487 98.3704 19.6602 106.925 16.5629Z" fill="#CCCDFE"/>
<path opacity="0.4444" d="M106.923 16.6137L160.216 -2.8058C162.035 -3.49408 163.952 -3.78906 165.87 -3.78906C172.704 -3.78906 178.947 0.488143 181.307 7.02686L200.038 58.3533C201.562 62.5322 201.317 67.0061 199.498 70.9391C197.679 74.8722 194.385 77.9203 190.206 79.4444L136.913 98.8639C135.094 99.5522 133.176 99.8471 131.259 99.8471C124.425 99.8471 118.182 95.5699 115.822 89.0312L97.0905 37.7047C93.9932 29.1503 98.4179 19.711 106.923 16.6137Z" fill="#CBCCFE"/>
<path opacity="0.453" d="M106.925 16.6645L160.218 -2.75502C162.037 -3.4433 163.955 -3.73828 165.823 -3.73828C172.607 -3.73828 178.851 0.538929 181.211 7.02848L199.942 58.355C201.466 62.5338 201.22 66.9585 199.401 70.8916C197.582 74.7755 194.337 77.8728 190.159 79.3477L136.866 98.7672C135.046 99.4555 133.129 99.7504 131.261 99.7504C124.476 99.7504 118.233 95.4732 115.873 88.9837L97.1417 37.6572C94.0936 29.152 98.469 19.7618 106.925 16.6645Z" fill="#CACBFE"/>
<path opacity="0.4615" d="M106.972 16.7114L160.265 -2.70814C162.084 -3.34726 163.952 -3.69141 165.869 -3.69141C172.654 -3.69141 178.849 0.536638 181.208 7.02619L199.94 58.3527C201.464 62.4824 201.218 66.9562 199.399 70.8401C197.58 74.724 194.335 77.7721 190.205 79.2962L136.912 98.7157C135.093 99.3548 133.225 99.699 131.308 99.699C124.523 99.699 118.329 95.4709 115.969 88.9814L97.2375 37.6549C94.1403 29.1988 98.5158 19.8086 106.972 16.7114Z" fill="#C9CAFE"/>
<path opacity="0.4701" d="M106.97 16.7621L160.263 -2.65736C162.082 -3.29648 163.95 -3.64062 165.819 -3.64062C172.554 -3.64062 178.748 0.587416 181.108 7.02781L199.84 58.3543C201.364 62.484 201.118 66.9087 199.299 70.7926C197.48 74.6765 194.284 77.7246 190.105 79.1995L136.812 98.619C134.993 99.2581 133.125 99.6023 131.257 99.6023C124.521 99.6023 118.327 95.3742 115.967 88.9338L97.2849 37.6074C94.1876 29.2004 98.5633 19.8594 106.97 16.7621Z" fill="#C8C9FE"/>
<path opacity="0.4786" d="M107.021 16.809L160.314 -2.61048C162.133 -3.24961 164.001 -3.59375 165.869 -3.59375C172.605 -3.59375 178.75 0.634291 181.11 7.07468L199.841 58.4011C201.365 62.5309 201.119 66.9064 199.3 70.7903C197.481 74.6742 194.286 77.6732 190.156 79.1972L136.814 98.5676C134.995 99.2067 133.126 99.5508 131.258 99.5508C124.523 99.5508 118.377 95.3228 116.018 88.8824L97.3356 37.6051C94.2875 29.1982 98.6138 19.9063 107.021 16.809Z" fill="#C7C8FE"/>
<path opacity="0.4872" d="M107.019 16.8598L160.312 -2.5597C162.131 -3.19883 163.999 -3.54297 165.867 -3.54297C172.554 -3.54297 178.699 0.635906 181.01 7.0763L199.741 58.4028C201.216 62.4833 201.019 66.908 199.2 70.7428C197.43 74.5775 194.185 77.5764 190.105 79.1005L136.812 98.52C134.993 99.1591 133.125 99.5033 131.256 99.5033C124.57 99.5033 118.425 95.3244 116.114 88.884L97.383 37.5575C94.3349 29.1998 98.6612 19.9571 107.019 16.8598Z" fill="#C6C7FE"/>
<path opacity="0.4957" d="M107.074 16.9575L160.367 -2.46205C162.136 -3.10117 164.005 -3.44531 165.873 -3.44531C172.559 -3.44531 178.655 0.733567 180.966 7.12479L199.697 58.4513C201.172 62.5318 200.976 66.9073 199.156 70.7421C197.387 74.5768 194.191 77.5758 190.11 79.0507L136.817 98.4702C135.048 99.1093 133.179 99.4534 131.311 99.4534C124.625 99.4534 118.529 95.2746 116.218 88.8833L97.4868 37.5569C94.3895 29.1991 98.7159 19.9564 107.074 16.9575Z" fill="#C5C6FE"/>
<path opacity="0.5043" d="M107.068 17.0082L160.361 -2.41127C162.131 -3.05039 163.999 -3.39453 165.867 -3.39453C172.504 -3.39453 178.6 0.784345 180.911 7.12641L199.642 58.4529C201.117 62.5334 200.871 66.909 199.102 70.6945C197.332 74.5293 194.136 77.4791 190.056 79.0031L136.762 98.4226C134.993 99.0618 133.124 99.4059 131.256 99.4059C124.619 99.4059 118.523 95.227 116.212 88.8849L97.481 37.5585C94.4821 29.2499 98.7593 20.0072 107.068 17.0082Z" fill="#C5C6FE"/>
<path opacity="0.5128" d="M107.074 17.0551L160.367 -2.36439C162.137 -3.00351 164.005 -3.34766 165.824 -3.34766C172.461 -3.34766 178.508 0.782064 180.819 7.17329L199.55 58.4998C201.025 62.5803 200.779 66.9067 199.009 70.6922C197.239 74.4778 194.044 77.4768 190.012 78.9517L136.719 98.3712C134.95 99.0103 133.081 99.3544 131.262 99.3544C124.625 99.3544 118.578 95.2247 116.267 88.8335L97.5362 37.507C94.5373 29.2476 98.8145 20.0541 107.074 17.0551Z" fill="#C4C5FE"/>
<path opacity="0.5214" d="M107.121 17.1059L160.414 -2.31361C162.184 -2.95273 164.003 -3.29688 165.871 -3.29688C172.459 -3.29688 178.506 0.832843 180.816 7.17491L199.548 58.5014C201.022 62.5328 200.777 66.8591 199.007 70.6447C197.237 74.4303 194.091 77.3801 190.059 78.855L136.766 98.2745C134.996 98.9136 133.177 99.2577 131.309 99.2577C124.721 99.2577 118.674 95.128 116.363 88.786L97.6322 37.4595C94.5841 29.2492 98.8612 20.1049 107.121 17.1059Z" fill="#C3C4FE"/>
<path opacity="0.5299" d="M107.115 17.1528L160.408 -2.26673C162.178 -2.90586 163.997 -3.25 165.865 -3.25C172.453 -3.25 178.451 0.879722 180.762 7.17262L199.493 58.4991C200.968 62.5305 200.722 66.8568 198.952 70.6424C197.182 74.428 194.036 77.3778 190.004 78.8527L136.711 98.2722C134.941 98.9113 133.122 99.2554 131.254 99.2554C124.666 99.2554 118.668 95.1257 116.358 88.8328L97.6265 37.5064C94.6767 29.2469 98.9047 20.1517 107.115 17.1528Z" fill="#C2C3FE"/>
<path opacity="0.5385" d="M107.17 17.2035L160.463 -2.21595C162.233 -2.85508 164.052 -3.19922 165.871 -3.19922C172.409 -3.19922 178.407 0.881337 180.718 7.17424L199.449 58.5007C200.924 62.5321 200.678 66.8093 198.908 70.5949C197.139 74.3313 194.041 77.2811 190.01 78.756L136.668 98.1755C134.898 98.8146 133.079 99.1587 131.26 99.1587C124.721 99.1587 118.723 95.0782 116.412 88.7853L97.6812 37.4588C94.7314 29.2977 98.9595 20.2025 107.17 17.2035Z" fill="#C1C2FE"/>
<path opacity="0.547" d="M107.172 17.252L160.465 -2.16746C162.235 -2.80658 164.054 -3.10156 165.873 -3.10156C172.362 -3.10156 178.36 0.97899 180.671 7.22273L199.402 58.5492C200.877 62.5314 200.631 66.8578 198.861 70.5942C197.141 74.3306 193.994 77.2804 190.012 78.7553L136.67 98.1256C134.9 98.7648 133.081 99.0597 131.262 99.0597C124.772 99.0597 118.774 94.9792 116.464 88.7355L97.7324 37.409C94.8318 29.297 99.0107 20.251 107.172 17.252Z" fill="#C0C1FE"/>
<path opacity="0.5556" d="M107.17 17.3028L160.463 -2.11668C162.233 -2.7558 164.003 -3.05078 165.822 -3.05078C172.311 -3.05078 178.26 0.980608 180.521 7.27351L199.253 58.6C200.728 62.5822 200.482 66.8594 198.761 70.5958C197.04 74.3322 193.894 77.2329 189.912 78.7078L136.668 98.0781C134.898 98.7172 133.128 99.0122 131.309 99.0122C124.819 99.0122 118.871 94.9808 116.609 88.6879L97.8287 37.4106C94.8789 29.2987 99.0578 20.3018 107.17 17.3028Z" fill="#BFC0FE"/>
<path opacity="0.5641" d="M107.217 17.4005L160.51 -2.01903C162.23 -2.65815 164.049 -2.95312 165.868 -2.95312C172.309 -2.95312 178.258 1.07826 180.519 7.322L199.25 58.6485C200.725 62.6307 200.479 66.8587 198.759 70.5951C197.038 74.2824 193.941 77.2322 189.958 78.6579L136.665 98.0774C134.945 98.7165 133.126 99.0115 131.307 99.0115C124.866 99.0115 118.918 94.9801 116.656 88.7364L97.9248 37.4099C94.9258 29.298 99.1047 20.3503 107.217 17.4005Z" fill="#BEBFFE"/>
<path opacity="0.5727" d="M107.219 17.4473L160.512 -1.97215C162.232 -2.61127 164.051 -2.90625 165.821 -2.90625C172.262 -2.90625 178.161 1.12513 180.423 7.31971L199.154 58.6462C200.58 62.6284 200.383 66.8565 198.662 70.5437C196.942 74.2309 193.844 77.1316 189.911 78.6065L136.618 98.026C134.897 98.6651 133.078 98.9601 131.309 98.9601C124.868 98.9601 118.969 94.9287 116.707 88.7341L97.9759 37.4076C95.0261 29.2957 99.1558 20.3971 107.219 17.4473Z" fill="#BDBEFE"/>
<path opacity="0.5812" d="M107.265 17.4981L160.559 -1.92136C162.279 -2.56048 164.098 -2.85547 165.868 -2.85547C172.259 -2.85547 178.159 1.12676 180.42 7.32133L199.152 58.6478C200.577 62.5809 200.332 66.8089 198.66 70.4961C196.939 74.1834 193.891 77.084 189.909 78.5098L136.616 97.9293C134.895 98.5684 133.076 98.8634 131.306 98.8634C124.915 98.8634 119.016 94.8811 116.754 88.6866L98.0228 37.3601C95.073 29.3465 99.2027 20.3988 107.265 17.4981Z" fill="#BCBDFE"/>
<path opacity="0.5897" d="M107.264 17.5489L160.557 -1.87059C162.277 -2.50971 164.047 -2.80469 165.866 -2.80469C172.258 -2.80469 178.108 1.17753 180.369 7.32294L199.101 58.6494C200.526 62.5825 200.281 66.8105 198.609 70.4486C196.888 74.1358 193.84 76.9873 189.907 78.4622L136.614 97.8817C134.893 98.5208 133.124 98.8158 131.305 98.8158C124.913 98.8158 119.063 94.8336 116.801 88.6882L98.0702 37.3617C95.1204 29.3481 99.25 20.4495 107.264 17.5489Z" fill="#BBBCFE"/>
<path opacity="0.5983" d="M107.266 17.5958L160.559 -1.82371C162.279 -2.46283 164.049 -2.75781 165.819 -2.75781C172.161 -2.75781 178.012 1.22442 180.273 7.36983L199.004 58.6963C200.43 62.6294 200.184 66.8082 198.513 70.4463C196.792 74.0844 193.744 76.985 189.86 78.4108L136.567 97.8303C134.846 98.4694 133.076 98.7644 131.307 98.7644C124.964 98.7644 119.114 94.7821 116.852 88.6367L98.1213 37.3103C95.2207 29.3458 99.3011 20.4964 107.266 17.5958Z" fill="#BABBFE"/>
<path opacity="0.6068" d="M107.313 17.6466L160.606 -1.77293C162.326 -2.41205 164.096 -2.70703 165.866 -2.70703C172.208 -2.70703 178.009 1.22603 180.271 7.37144L199.002 58.6979C200.428 62.631 200.182 66.7607 198.51 70.3988C196.839 74.0369 193.791 76.8883 189.858 78.3141L136.565 97.7336C134.844 98.3727 133.074 98.6677 131.304 98.6677C124.962 98.6677 119.161 94.7346 116.899 88.5892L98.1682 37.2627C95.2675 29.3474 99.3481 20.5472 107.313 17.6466Z" fill="#B9BAFE"/>
<path opacity="0.6154" d="M107.319 17.6934L160.612 -1.72606C162.332 -2.36518 164.102 -2.66016 165.823 -2.66016C172.116 -2.66016 177.917 1.2729 180.179 7.36915L198.91 58.6956C200.336 62.5795 200.09 66.7584 198.418 70.3473C196.747 73.9854 193.698 76.8369 189.815 78.2626L136.522 97.6821C134.801 98.3212 133.031 98.6162 131.31 98.6162C125.017 98.6162 119.216 94.6832 116.955 88.5869L98.2234 37.2604C95.3227 29.3451 99.4033 20.5941 107.319 17.6934Z" fill="#B8B9FE"/>
<path opacity="0.6239" d="M107.361 17.7442L160.654 -1.67527C162.375 -2.31439 164.096 -2.60938 165.866 -2.60938C172.159 -2.60938 177.911 1.32369 180.172 7.37077L198.903 58.6972C200.329 62.5811 200.083 66.7109 198.412 70.2998C196.74 73.8887 193.741 76.7402 189.857 78.1659L136.564 97.5854C134.844 98.2245 133.123 98.5195 131.353 98.5195C125.06 98.5195 119.308 94.5864 117.047 88.5394L98.3154 37.2129C95.4147 29.3959 99.4461 20.6449 107.361 17.7442Z" fill="#B7B8FE"/>
<path opacity="0.6325" d="M107.367 17.8419L160.66 -1.57761C162.332 -2.21673 164.102 -2.51172 165.872 -2.51172C172.115 -2.51172 177.868 1.37218 180.08 7.46843L198.811 58.7949C200.237 62.6788 199.991 66.8085 198.319 70.3974C196.648 73.9864 193.649 76.8378 189.765 78.2144L136.472 97.5847C134.801 98.2239 133.031 98.5188 131.261 98.5188C125.017 98.5188 119.265 94.6349 117.053 88.5387L98.3214 37.2614C95.4699 29.3953 99.5013 20.6934 107.367 17.8419Z" fill="#B6B7FE"/>
<path opacity="0.641" d="M107.366 17.8927L160.659 -1.52684C162.33 -2.16596 164.1 -2.46094 165.821 -2.46094C172.065 -2.46094 177.817 1.42296 179.98 7.47004L198.711 58.7965C200.137 62.6312 199.891 66.761 198.219 70.3499C196.548 73.9388 193.549 76.7411 189.714 78.1668L136.421 97.5863C134.75 98.2255 132.98 98.5204 131.259 98.5204C125.015 98.5204 119.312 94.6366 117.1 88.5895L98.3688 37.263C95.5173 29.3969 99.5486 20.7441 107.366 17.8927Z" fill="#B5B6FE"/>
<path opacity="0.6496" d="M107.416 17.9395L160.709 -1.47996C162.381 -2.06992 164.151 -2.41406 165.871 -2.41406C172.066 -2.41406 177.818 1.46983 179.981 7.46775L198.712 58.7942C200.089 62.629 199.892 66.7095 198.221 70.2984C196.549 73.8382 193.599 76.6897 189.765 78.0662L136.472 97.4857C134.8 98.0757 133.03 98.4198 131.31 98.4198C125.115 98.4198 119.363 94.5359 117.2 88.538L98.4685 37.2115C95.6171 29.3946 99.5993 20.791 107.416 17.9395Z" fill="#B4B5FE"/>
<path opacity="0.6581" d="M107.415 17.9903L160.707 -1.42917C162.379 -2.01913 164.1 -2.36328 165.821 -2.36328C172.015 -2.36328 177.718 1.47146 179.881 7.46938L198.612 58.7958C199.989 62.6306 199.792 66.7111 198.121 70.2509C196.449 73.7906 193.499 76.593 189.665 78.0187L136.372 97.4382C134.7 98.0282 132.979 98.3723 131.259 98.3723C125.064 98.3723 119.361 94.5376 117.198 88.5396L98.4668 37.2132C95.6645 29.3962 99.6467 20.7926 107.415 17.9903Z" fill="#B3B4FE"/>
<path opacity="0.6667" d="M107.461 18.0388L160.754 -1.38068C162.426 -1.97064 164.147 -2.26562 165.867 -2.26562C172.013 -2.26562 177.716 1.56912 179.879 7.51787L198.61 58.8443C199.987 62.6791 199.741 66.7105 198.118 70.2502C196.496 73.79 193.546 76.5923 189.711 77.9689L136.419 97.3884C134.747 97.9783 133.026 98.2733 131.306 98.2733C125.16 98.2733 119.457 94.4386 117.294 88.4898L98.5628 37.1633C95.7113 29.4447 99.6936 20.8411 107.461 18.0388Z" fill="#B2B3FE"/>
<path opacity="0.6752" d="M107.463 18.0896L160.756 -1.3299C162.428 -1.91986 164.148 -2.21484 165.869 -2.21484C172.015 -2.21484 177.668 1.61989 179.832 7.56865L198.563 58.8951C199.939 62.6807 199.694 66.7612 198.071 70.2518C196.449 73.7424 193.499 76.5447 189.713 77.9213L136.42 97.3408C134.749 97.9308 133.028 98.2257 131.308 98.2257C125.162 98.2257 119.508 94.391 117.345 88.4423L98.6139 37.1158C95.8116 29.4463 99.7447 20.8919 107.463 18.0896Z" fill="#B1B2FE"/>
<path opacity="0.6838" d="M107.513 18.1365L160.806 -1.28304C162.477 -1.873 164.198 -2.16797 165.869 -2.16797C171.966 -2.16797 177.619 1.6176 179.783 7.56635L198.514 58.8928C199.89 62.6784 199.645 66.7098 198.022 70.2004C196.4 73.691 193.45 76.4933 189.664 77.8699L136.371 97.2893C134.7 97.8793 132.979 98.1743 131.308 98.1743C125.211 98.1743 119.558 94.3887 117.394 88.44L98.6631 37.1135C95.8608 29.444 99.8431 20.9388 107.513 18.1365Z" fill="#B0B1FE"/>
<path opacity="0.6923" d="M107.511 18.1873L160.804 -1.23225C162.475 -1.82221 164.147 -2.11719 165.868 -2.11719C171.964 -2.11719 177.568 1.66838 179.732 7.56798L198.463 58.8944C199.839 62.68 199.594 66.6623 197.971 70.1528C196.349 73.6434 193.448 76.3966 189.663 77.7732L136.37 97.1927C134.698 97.7826 133.027 98.0776 131.306 98.0776C125.21 98.0776 119.605 94.292 117.442 88.3924L98.7105 37.1151C95.9082 29.4456 99.8904 20.9896 107.511 18.1873Z" fill="#AFB0FE"/>
<path opacity="0.7009" d="M107.513 18.2849L160.806 -1.13459C162.428 -1.72455 164.149 -2.01953 165.821 -2.01953C171.868 -2.01953 177.472 1.76604 179.586 7.61648L198.317 58.9429C199.694 62.6794 199.448 66.7107 197.826 70.1522C196.203 73.5936 193.303 76.3959 189.566 77.7233L136.273 97.1428C134.651 97.7328 132.93 98.0278 131.259 98.0278C125.212 98.0278 119.607 94.2422 117.493 88.3917L98.7617 37.0653C96.0086 29.445 99.9417 21.0381 107.513 18.2849Z" fill="#AEAFFE"/>
<path opacity="0.7094" d="M107.56 18.3357L160.853 -1.08381C162.475 -1.67377 164.196 -1.96875 165.867 -1.96875C171.914 -1.96875 177.47 1.76766 179.584 7.66726L198.315 58.9937C199.692 62.7301 199.446 66.7124 197.823 70.1538C196.201 73.5952 193.3 76.3484 189.564 77.7249L136.271 97.0953C134.649 97.6852 132.928 97.9802 131.256 97.9802C125.209 97.9802 119.654 94.2438 117.54 88.3442L98.8086 37.0669C96.0554 29.4958 99.9885 21.0888 107.56 18.3357Z" fill="#ADAEFE"/>
<path opacity="0.7179" d="M107.566 18.3826L160.859 -1.03694C162.481 -1.6269 164.153 -1.92188 165.873 -1.92188C171.871 -1.92188 177.427 1.81453 179.541 7.66497L198.272 58.9914C199.648 62.7278 199.403 66.7101 197.78 70.1023C196.158 73.5438 193.306 76.2969 189.57 77.6243L136.277 97.0438C134.655 97.6338 132.983 97.9288 131.262 97.9288C125.264 97.9288 119.709 94.1924 117.595 88.3419L98.8638 37.0154C96.1106 29.4935 100.044 21.1357 107.566 18.3826Z" fill="#ACADFE"/>
<path opacity="0.7265" d="M107.608 18.4333L160.901 -0.986153C162.524 -1.57611 164.195 -1.87109 165.867 -1.87109C171.816 -1.87109 177.371 1.86532 179.485 7.66659L198.216 58.9931C199.593 62.7295 199.347 66.6625 197.725 70.104C196.151 73.5454 193.251 76.2494 189.564 77.6259L136.271 97.0454C134.648 97.6354 132.977 97.9304 131.305 97.9304C125.356 97.9304 119.801 94.194 117.687 88.3927L98.9557 37.0662C96.2025 29.4951 100.086 21.1865 107.608 18.4333Z" fill="#ABACFE"/>
<path opacity="0.735" d="M107.607 18.4802L160.9 -0.939278C162.522 -1.52924 164.194 -1.82422 165.865 -1.82422C171.814 -1.82422 177.32 1.86303 179.434 7.6643L198.166 58.9908C199.493 62.678 199.296 66.6111 197.674 70.0525C196.101 73.4448 193.249 76.1979 189.513 77.5253L136.22 96.9448C134.597 97.5348 132.926 97.8298 131.254 97.8298C125.306 97.8298 119.799 94.1425 117.685 88.3412L98.9541 37.0148C96.2501 29.4928 100.134 21.2334 107.607 18.4802Z" fill="#AAABFE"/>
<path opacity="0.7436" d="M107.613 18.531L160.906 -0.888497C162.528 -1.47846 164.2 -1.77344 165.822 -1.77344C171.722 -1.77344 177.228 1.91381 179.342 7.66592L198.073 58.9924C199.401 62.6796 199.155 66.6127 197.582 70.005C196.008 73.3972 193.157 76.1012 189.47 77.4286L136.177 96.8481C134.554 97.4381 132.883 97.733 131.26 97.733C125.361 97.733 119.855 94.0458 117.741 88.2937L99.0092 36.9672C96.3053 29.5436 100.189 21.235 107.613 18.531Z" fill="#A9AAFE"/>
<path opacity="0.7521" d="M107.656 18.5818L160.949 -0.837716C162.571 -1.42768 164.193 -1.72266 165.865 -1.72266C171.765 -1.72266 177.222 1.96459 179.336 7.71669L198.067 59.0432C199.394 62.7304 199.149 66.6143 197.575 70.0066C196.002 73.3988 193.151 76.1028 189.513 77.4302L136.17 96.8006C134.548 97.3905 132.926 97.6855 131.254 97.6855C125.355 97.6855 119.897 93.9983 117.783 88.2462L99.0522 36.9197C96.3974 29.5452 100.232 21.2858 107.656 18.5818Z" fill="#A8A9FD"/>
<path opacity="0.7607" d="M107.662 18.6286L160.955 -0.790848C162.577 -1.38081 164.199 -1.67578 165.822 -1.67578C171.672 -1.67578 177.129 1.9623 179.243 7.7144L197.975 59.0409C199.302 62.679 199.056 66.612 197.483 69.9551C195.91 73.2982 193.107 76.0022 189.42 77.3296L136.176 96.7491C134.554 97.3391 132.932 97.6341 131.309 97.6341C125.459 97.6341 120.002 93.996 117.888 88.2439L99.1563 36.9174C96.4523 29.5429 100.287 21.3326 107.662 18.6286Z" fill="#A7A8FD"/>
<path opacity="0.7692" d="M107.712 18.6794L161.005 -0.740059C162.578 -1.33002 164.25 -1.625 165.872 -1.625C171.723 -1.625 177.131 2.01308 179.196 7.71602L197.927 59.0425C199.254 62.6806 199.008 66.5645 197.484 69.9076C195.911 73.2507 193.109 75.9055 189.471 77.2821L136.178 96.7016C134.604 97.2915 132.933 97.5865 131.311 97.5865C125.46 97.5865 120.052 93.9484 117.987 88.2455L99.256 36.919C96.5521 29.5445 100.338 21.3834 107.712 18.6794Z" fill="#A6A7FD"/>
<path opacity="0.7778" d="M107.71 18.7762L161.003 -0.643315C162.577 -1.23327 164.248 -1.52825 165.87 -1.47909C171.672 -1.47909 177.08 2.15899 179.145 7.81277L197.876 59.1392C199.203 62.7773 198.957 66.6121 197.433 69.9552C195.909 73.2983 193.107 75.9531 189.469 77.2805L136.176 96.7C134.603 97.29 132.931 97.5849 131.309 97.5358C125.508 97.5358 120.1 93.8977 118.035 88.2439L99.3034 36.9174C96.5995 29.5429 100.385 21.431 107.71 18.7762Z" fill="#A5A6FD"/>
<path opacity="0.7863" d="M107.709 18.8256L161.002 -0.593913C162.575 -1.18387 164.197 -1.42969 165.82 -1.42969C171.621 -1.42969 176.98 2.15923 179.045 7.813L197.776 59.1395C199.103 62.7775 198.857 66.6123 197.333 69.9062C195.809 73.2002 193.007 75.855 189.369 77.1824L136.125 96.6019C134.552 97.1919 132.929 97.4377 131.307 97.4377C125.506 97.4377 120.147 93.8487 118.082 88.195L99.3017 36.8685C96.6469 29.5923 100.433 21.4804 107.709 18.8256Z" fill="#A4A5FD"/>
<path opacity="0.7949" d="M107.759 18.8764L161.052 -0.543132C162.626 -1.13309 164.248 -1.37891 165.87 -1.37891C171.622 -1.37891 176.981 2.21001 179.046 7.86379L197.777 59.1903C199.105 62.7792 198.859 66.6139 197.335 69.9079C195.811 73.2018 193.008 75.8566 189.419 77.184L136.126 96.6035C134.553 97.1935 132.931 97.4393 131.309 97.4393C125.556 97.4393 120.198 93.8504 118.133 88.1966L99.4015 36.8701C96.7466 29.594 100.483 21.5312 107.759 18.8764Z" fill="#A3A4FD"/>
<path opacity="0.8034" d="M107.757 18.9232L161.05 -0.496257C162.624 -1.08622 164.246 -1.33203 165.819 -1.33203C171.571 -1.33203 176.881 2.25689 178.946 7.8615L197.677 59.188C199.005 62.7769 198.759 66.6116 197.235 69.8564C195.711 73.1503 192.957 75.756 189.368 77.0834L136.076 96.5029C134.502 97.0928 132.88 97.3387 131.307 97.3387C125.555 97.3387 120.245 93.7497 118.18 88.1451L99.4489 36.8187C96.794 29.5917 100.53 21.5781 107.757 18.9232Z" fill="#A2A3FD"/>
<path opacity="0.812" d="M107.804 18.974L161.097 -0.445468C162.671 -1.03543 164.293 -1.28125 165.866 -1.28125C171.569 -1.28125 176.879 2.25851 178.944 7.86312L197.675 59.1896C199.002 62.7785 198.756 66.5641 197.232 69.8089C195.708 73.0536 192.955 75.7085 189.366 76.9867L136.073 96.4062C134.5 96.9962 132.878 97.242 131.304 97.242C125.602 97.242 120.292 93.7022 118.227 88.0976L99.4957 36.7711C96.8409 29.5933 100.577 21.6288 107.804 18.974Z" fill="#A1A2FD"/>
<path opacity="0.8205" d="M107.806 19.0209L161.099 -0.398601C162.673 -0.98856 164.246 -1.23438 165.868 -1.23438C171.571 -1.23438 176.832 2.30538 178.896 7.86083L197.628 59.1873C198.906 62.7762 198.709 66.5126 197.185 69.7574C195.661 73.0022 192.957 75.6078 189.368 76.9352L136.075 96.3547C134.502 96.9447 132.929 97.1905 131.306 97.1905C125.603 97.1905 120.343 93.6508 118.278 88.0953L99.5469 36.7688C96.9412 29.591 100.628 21.6757 107.806 19.0209Z" fill="#A0A1FD"/>
<path opacity="0.8291" d="M107.805 19.0717L161.097 -0.347819C162.671 -0.937779 164.244 -1.18359 165.817 -1.18359C171.471 -1.18359 176.731 2.35616 178.796 7.91161L197.528 59.2381C198.806 62.7778 198.56 66.5634 197.085 69.8082C195.561 73.053 192.857 75.6586 189.317 76.9369L136.024 96.3564C134.451 96.9463 132.878 97.1921 131.305 97.1921C125.651 97.1921 120.39 93.6524 118.325 88.0969L99.5943 36.7705C96.9886 29.6418 100.676 21.6773 107.805 19.0717Z" fill="#9FA0FD"/>
<path opacity="0.8376" d="M107.859 19.1225L161.152 -0.297038C162.676 -0.837834 164.299 -1.13281 165.872 -1.13281C171.526 -1.13281 176.737 2.35779 178.753 7.91324L197.484 59.2397C198.762 62.7795 198.516 66.5159 197.041 69.7606C195.567 72.9563 192.813 75.5619 189.274 76.8893L135.981 96.3088C134.457 96.8496 132.834 97.1446 131.261 97.1446C125.607 97.1446 120.396 93.654 118.38 88.0986L99.649 36.7721C97.0433 29.6434 100.731 21.7281 107.859 19.1225Z" fill="#9EA0FD"/>
<path opacity="0.8462" d="M107.853 19.2201L161.146 -0.199374C162.67 -0.740171 164.293 -1.03516 165.817 -1.03516C171.422 -1.03516 176.633 2.45544 178.648 7.96173L197.38 59.2882C198.658 62.828 198.412 66.5644 196.937 69.76C195.462 72.9556 192.758 75.5612 189.219 76.8395L135.926 96.259C134.402 96.7998 132.779 97.0948 131.255 97.0948C125.651 97.0948 120.439 93.6042 118.423 88.0979L99.6923 36.7714C97.1358 29.6427 100.774 21.7766 107.853 19.2201Z" fill="#9D9FFD"/>
<path opacity="0.8547" d="M107.908 19.267L161.201 -0.152507C162.725 -0.693303 164.298 -0.988281 165.872 -0.988281C171.476 -0.988281 176.638 2.50231 178.654 7.95944L197.385 59.2859C198.663 62.7765 198.418 66.5129 196.943 69.7085C195.468 72.9041 192.764 75.4606 189.273 76.7389L135.98 96.1584C134.456 96.6992 132.883 96.9941 131.31 96.9941C125.705 96.9941 120.543 93.5036 118.527 88.0464L99.7961 36.72C97.1905 29.6404 100.829 21.8235 107.908 19.267Z" fill="#9C9EFD"/>
<path opacity="0.8632" d="M107.906 19.3178L161.199 -0.101726C162.723 -0.642522 164.297 -0.9375 165.87 -0.9375C171.425 -0.9375 176.637 2.50393 178.603 7.96105L197.334 59.2875C198.613 62.7781 198.367 66.4654 196.892 69.661C195.417 72.8566 192.762 75.4131 189.222 76.6913L135.929 96.1108C134.405 96.6516 132.832 96.9466 131.259 96.9466C125.703 96.9466 120.492 93.5052 118.526 88.048L99.7944 36.7216C97.2379 29.6421 100.876 21.8743 107.906 19.3178Z" fill="#9B9DFD"/>
<path opacity="0.8718" d="M107.957 19.3646L161.25 -0.0548507C162.774 -0.595647 164.347 -0.890625 165.871 -0.890625C171.427 -0.890625 176.589 2.55081 178.555 8.00793L197.287 59.3344C198.565 62.825 198.319 66.5122 196.844 69.6587C195.369 72.8051 192.714 75.3616 189.224 76.6399L135.931 96.0594C134.407 96.6002 132.834 96.8951 131.31 96.8951C125.754 96.8951 120.592 93.4537 118.625 87.9966L99.8941 36.6701C97.3376 29.6889 100.927 21.9211 107.957 19.3646Z" fill="#9A9CFD"/>
<path opacity="0.8803" d="M107.955 19.4154L161.248 -0.00406939C162.772 -0.544866 164.296 -0.839844 165.869 -0.839844C171.376 -0.839844 176.538 2.55242 178.504 8.00955L197.236 59.336C198.514 62.8266 198.268 66.4647 196.793 69.6111C195.318 72.7576 192.663 75.3141 189.222 76.5923L135.929 96.0118C134.405 96.5526 132.881 96.8476 131.308 96.8476C125.801 96.8476 120.639 93.4553 118.673 87.9982L99.9415 36.6717C97.385 29.6906 100.974 21.9719 107.955 19.4154Z" fill="#999BFD"/>
<path opacity="0.8889" d="M107.953 19.4662L161.246 0.0467193C162.77 -0.494077 164.295 -0.789062 165.819 -0.789062C171.325 -0.789062 176.438 2.60321 178.404 8.01117L197.136 59.3376C198.414 62.7791 198.168 66.4663 196.693 69.5636C195.218 72.71 192.613 75.2174 189.122 76.4956L135.829 95.9151C134.305 96.4559 132.781 96.7509 131.257 96.7509C125.75 96.7509 120.637 93.3586 118.671 87.9507L99.9889 36.6242C97.4324 29.6922 101.021 22.0227 107.953 19.4662Z" fill="#989AFD"/>
<path opacity="0.8974" d="M108.004 19.5147L161.297 0.0952018C162.821 -0.445594 164.345 -0.691406 165.869 -0.691406C171.326 -0.691406 176.439 2.70085 178.406 8.05965L197.137 59.3861C198.415 62.8276 198.169 66.4656 196.695 69.5629C195.269 72.6602 192.614 75.2167 189.173 76.4458L135.88 95.8653C134.355 96.4061 132.831 96.6519 131.307 96.6519C125.85 96.6519 120.737 93.2596 118.771 87.9008L100.04 36.6235C97.5322 29.6915 101.072 22.0712 108.004 19.5147Z" fill="#9799FD"/>
<path opacity="0.906" d="M108.002 19.5616L161.295 0.142084C162.77 -0.398712 164.343 -0.644531 165.867 -0.644531C171.324 -0.644531 176.388 2.69857 178.306 8.05737L197.037 59.3838C198.266 62.8253 198.02 66.4142 196.594 69.5115C195.169 72.6088 192.563 75.1161 189.122 76.3943L135.829 95.8138C134.354 96.3546 132.78 96.6004 131.256 96.6004C125.799 96.6004 120.735 93.2573 118.818 87.8985L100.087 36.5721C97.5796 29.6892 101.119 22.0689 108.002 19.5616Z" fill="#9698FD"/>
<path opacity="0.9145" d="M108.057 19.6631L161.35 0.243647C162.825 -0.297149 164.349 -0.542969 165.873 -0.542969C171.281 -0.542969 176.345 2.80014 178.262 8.15894L196.993 59.4854C198.222 62.8777 197.977 66.5158 196.551 69.5639C195.125 72.612 192.519 75.1685 189.078 76.3976L135.785 95.8171C134.31 96.3579 132.786 96.6037 131.262 96.6037C125.854 96.6037 120.79 93.2606 118.873 87.9018L100.142 36.5753C97.6343 29.7416 101.174 22.1213 108.057 19.6631Z" fill="#9597FD"/>
<path opacity="0.9231" d="M108.051 19.71L161.344 0.290522C162.819 -0.250274 164.343 -0.496094 165.867 -0.496094C171.226 -0.496094 176.29 2.84701 178.207 8.15665L196.938 59.4831C198.167 62.8754 197.922 66.4643 196.496 69.5616C195.07 72.6097 192.464 75.117 189.072 76.3461L135.779 95.7656C134.304 96.3064 132.78 96.5522 131.256 96.5522C125.897 96.5522 120.833 93.2091 118.916 87.8995L100.185 36.573C97.7268 29.7393 101.217 22.1682 108.051 19.71Z" fill="#9496FD"/>
<path opacity="0.9316" d="M108.057 19.7608L161.35 0.341295C162.825 -0.199501 164.349 -0.445312 165.824 -0.445312C171.183 -0.445312 176.197 2.84863 178.115 8.15826L196.846 59.4847C198.075 62.877 197.829 66.4659 196.404 69.514C194.978 72.5622 192.421 75.0695 189.029 76.2986L135.736 95.7181C134.261 96.2589 132.737 96.5047 131.262 96.5047C125.903 96.5047 120.889 93.2107 118.971 87.9011L100.24 36.5746C97.782 29.7409 101.273 22.219 108.057 19.7608Z" fill="#9395FD"/>
<path opacity="0.9402" d="M108.104 19.8077L161.397 0.388178C162.872 -0.152618 164.396 -0.398438 165.871 -0.398438C171.18 -0.398438 176.195 2.89551 178.113 8.15598L196.844 59.4824C198.073 62.8747 197.827 66.4145 196.401 69.4626C194.976 72.5107 192.419 74.9689 189.027 76.198L135.734 95.6175C134.259 96.1583 132.735 96.4041 131.26 96.4041C125.95 96.4041 120.936 93.1101 119.018 87.8497L100.287 36.5232C97.8289 29.7387 101.319 22.2658 108.104 19.8077Z" fill="#9294FD"/>
<path opacity="0.9487" d="M108.098 19.8584L161.391 0.438952C162.866 -0.101844 164.341 -0.347656 165.865 -0.347656C171.175 -0.347656 176.14 2.94628 178.058 8.20675L196.789 59.5332C198.018 62.8763 197.772 66.4161 196.346 69.4642C194.921 72.4632 192.364 74.9705 189.021 76.1996L135.728 95.6191C134.253 96.1599 132.778 96.4057 131.254 96.4057C125.944 96.4057 120.979 93.1117 119.062 87.8513L100.33 36.5248C97.9214 29.7403 101.363 22.3166 108.098 19.8584Z" fill="#9193FD"/>
<path opacity="0.9573" d="M108.153 19.9053L161.446 0.485834C162.921 -0.0549618 164.396 -0.300781 165.871 -0.300781C171.131 -0.300781 176.097 2.944 178.014 8.20447L196.745 59.5309C197.974 62.874 197.728 66.4138 196.303 69.4128C194.926 72.4117 192.37 74.8699 189.027 76.099L135.684 95.4693C134.209 96.0101 132.735 96.2559 131.26 96.2559C125.999 96.2559 121.034 93.0111 119.116 87.7507L100.385 36.4242C97.9761 29.7872 101.418 22.3635 108.153 19.9053Z" fill="#9092FD"/>
<path opacity="0.9658" d="M108.151 19.9561L161.444 0.536616C162.919 -0.00418057 164.394 -0.25 165.869 -0.25C171.129 -0.25 176.046 2.99478 177.963 8.20608L196.694 59.5326C197.923 62.8757 197.677 66.3663 196.252 69.3652C194.875 72.3642 192.319 74.8223 189.025 76.0023L135.683 95.4218C134.208 95.9626 132.733 96.2084 131.258 96.2084C125.997 96.2084 121.081 92.9636 119.164 87.7523L100.432 36.4258C98.0235 29.7888 101.465 22.4143 108.151 19.9561Z" fill="#8F91FD"/>
<path opacity="0.9744" d="M108.153 20.0069L161.446 0.587389C162.872 0.0465932 164.396 -0.199219 165.822 -0.199219C171.033 -0.199219 175.949 3.04555 177.867 8.2077L196.598 59.5342C197.827 62.8281 197.581 66.3679 196.155 69.3177C194.779 72.3166 192.271 74.7256 188.928 75.9547L135.684 95.3742C134.259 95.915 132.735 96.1608 131.309 96.1608C126.098 96.1608 121.181 92.916 119.264 87.7539L100.533 36.4274C98.1237 29.7904 101.516 22.4651 108.153 20.0069Z" fill="#8E90FD"/>
<path opacity="0.9829" d="M108.2 20.1045L161.493 0.685046C162.919 0.144249 164.393 -0.101562 165.868 -0.101562C171.08 -0.101562 175.947 3.09405 177.815 8.2562L196.546 59.5827C197.775 62.8766 197.529 66.3672 196.104 69.317C194.727 72.2668 192.22 74.725 188.926 75.9049L135.633 95.3244C134.207 95.8652 132.732 96.111 131.257 96.111C126.046 96.111 121.179 92.9154 119.311 87.7532L100.58 36.4268C98.1706 29.7897 101.563 22.5135 108.2 20.1045Z" fill="#8D8FFD"/>
<path opacity="0.9915" d="M108.202 20.1514L161.495 0.731928C162.921 0.191132 164.395 -0.0546875 165.821 -0.0546875C170.983 -0.0546875 175.851 3.14093 177.719 8.30307L196.45 59.6295C197.63 62.9235 197.384 66.3649 196.057 69.3147C194.68 72.2645 192.173 74.6735 188.928 75.8534L135.635 95.2729C134.209 95.8137 132.734 96.0595 131.309 96.0595C126.146 96.0595 121.279 92.8639 119.411 87.7018L100.68 36.3753C98.2709 29.8366 101.614 22.5113 108.202 20.1514Z" fill="#8C8EFD"/>
<path d="M177.672 8.30341L196.403 59.6299C198.812 66.1686 195.42 73.4448 188.881 75.8046L135.588 95.2241C129.049 97.6331 121.773 94.2408 119.413 87.7021L100.682 36.3757C98.2731 29.8369 101.665 22.5608 108.204 20.2009L161.497 0.781434C168.036 -1.62757 175.312 1.71553 177.672 8.30341Z" fill="#8B8DFD"/>
</g>
<g opacity="0.8">
<path opacity="0.8" d="M205.205 27.2326V81.853C205.205 88.8342 199.551 94.488 192.57 94.488H135.885C128.904 94.488 123.25 88.8342 123.25 81.853V27.2326C123.25 20.2514 128.904 14.5977 135.885 14.5977H192.57C199.551 14.6468 205.205 20.3006 205.205 27.2326Z" fill="url(#paint0_linear_340_3731)"/>
</g>
<path d="M185.887 32.9334C182.2 29.2462 176.251 29.2462 172.564 32.9334L145.819 59.6782C144.983 60.514 144.344 61.5464 144.049 62.7264L139.87 77.7212C139.673 78.5078 140.362 79.1961 141.099 78.9502L156.094 74.7714C157.225 74.4272 158.306 73.8373 159.142 73.0015L185.887 46.3058C189.574 42.5694 189.574 36.5715 185.887 32.9334Z" fill="white"/>
<path d="M192.619 94.6821H135.933C128.854 94.6821 123.102 88.93 123.102 81.8505V27.2301C123.102 20.1505 128.854 14.3984 135.933 14.3984H192.619C199.698 14.3984 205.45 20.1505 205.45 27.2301V81.8505C205.401 88.93 199.649 94.6821 192.619 94.6821ZM135.884 14.8409C129.05 14.8409 123.446 20.3964 123.446 27.2792V81.8505C123.446 88.6842 129.001 94.2888 135.884 94.2888H192.569C199.403 94.2888 205.008 88.7333 205.008 81.8505V27.2301C205.008 20.3964 199.452 14.7917 192.569 14.7917H135.884V14.8409Z" fill="url(#paint1_linear_340_3731)"/>
</g>
<defs>
<linearGradient id="paint0_linear_340_3731" x1="164.247" y1="94.4886" x2="164.247" y2="14.6288" gradientUnits="userSpaceOnUse">
<stop stop-color="#F2F8FF"/>
<stop offset="1" stop-color="#D9F0FF"/>
</linearGradient>
<linearGradient id="paint1_linear_340_3731" x1="164.246" y1="94.684" x2="164.246" y2="14.4283" gradientUnits="userSpaceOnUse">
<stop stop-color="#E6F1FF"/>
<stop offset="1" stop-color="#F7FBFF"/>
</linearGradient>
</defs>
</svg>
