<svg width="96" height="96" viewBox="0 0 96 96" fill="none" xmlns="http://www.w3.org/2000/svg">
<g opacity="0.8" clip-path="url(#clip0_1_74135)">
<path d="M60.3912 0H18.8292C12.6429 0 7.63281 5.01139 7.63281 11.1993V70.2898C7.63281 76.4777 12.6429 81.4891 18.8292 81.4891H62.9616C69.148 81.4891 74.158 76.4777 74.158 70.2898V13.7704C74.158 12.681 73.7224 11.6786 72.9818 10.8943L63.2665 1.17661C62.4823 0.435802 61.4368 0 60.3912 0Z" fill="#8B8DFD"/>
<mask id="mask0_1_74135" style="mask-type:luminance" maskUnits="userSpaceOnUse" x="21" y="14" width="68" height="82">
<path d="M88.1424 28.1935V84.6257C88.1424 90.8137 83.1323 95.825 76.946 95.825H32.8136C26.6273 95.825 21.6172 90.8137 21.6172 84.6257V25.5353C21.6172 19.3473 26.6273 14.3359 32.8136 14.3359H74.2884C79.7341 19.7831 82.7402 22.7899 88.1424 28.1935Z" fill="white"/>
</mask>
<g mask="url(#mask0_1_74135)">
<path opacity="0.01" d="M60.3955 -6.01562C63.0966 -6.01562 65.6235 -4.96981 67.4968 -3.05242L77.212 6.66528C79.1289 8.58267 80.1745 11.1102 80.1745 13.7684V70.2878C80.1745 79.7875 72.4633 87.5007 62.9659 87.5007H18.8336C9.33618 87.5007 1.625 79.7875 1.625 70.2878V11.1973C1.625 1.69751 9.33618 -6.01562 18.8336 -6.01562H60.3955Z" fill="#FEFEFF"/>
<path opacity="0.017094" d="M60.391 -5.97266C63.0485 -5.97266 65.5754 -4.92683 67.4923 -3.05302L77.2074 6.66468C79.0807 8.5385 80.1264 11.066 80.1264 13.7678V70.2872C80.1264 79.7434 72.4152 87.4565 62.9613 87.4565H18.829C9.3752 87.4565 1.66406 79.7434 1.66406 70.2872V11.1967C1.66406 1.74049 9.3752 -5.97266 18.829 -5.97266H60.391Z" fill="#FDFDFF"/>
<path opacity="0.025641" d="M60.3943 -5.92969C63.0518 -5.92969 65.5786 -4.88381 67.4519 -3.00999L77.1672 6.70765C79.0405 8.58147 80.0861 11.109 80.0861 13.7672V70.2866C80.0861 79.7428 72.4184 87.4124 62.9646 87.4124H18.8323C9.37846 87.4124 1.71094 79.7428 1.71094 70.2866V11.1961C1.71094 1.73989 9.37846 -5.92969 18.8323 -5.92969H60.3943Z" fill="#FCFCFF"/>
<path opacity="0.034188" d="M60.3898 -5.88672C63.0474 -5.88672 65.5306 -4.84084 67.4039 -2.96703L77.1191 6.75062C78.9925 8.62443 80.038 11.1084 80.038 13.7666V70.286C80.038 79.6986 72.3704 87.3681 62.9602 87.3681H18.8278C9.41759 87.3681 1.75 79.6986 1.75 70.286V11.1955C1.75 1.78287 9.41759 -5.88672 18.8278 -5.88672H60.3898Z" fill="#FBFBFF"/>
<path opacity="0.042735" d="M60.3887 -5.83984C63.0026 -5.83984 65.4859 -4.79401 67.3592 -2.96377L77.0744 6.75388C78.9478 8.62769 79.9497 11.1116 79.9497 13.7262V70.2457C79.9497 79.6147 72.3257 87.2407 62.959 87.2407H18.8267C9.45998 87.2407 1.83594 79.6147 1.83594 70.2457V11.1552C1.83594 1.78614 9.45998 -5.83984 18.8267 -5.83984H60.3887Z" fill="#FAFAFF"/>
<path opacity="0.051282" d="M60.3919 -5.75391C63.0059 -5.75391 65.4891 -4.75165 67.3189 -2.87783L77.0341 6.83987C78.9074 8.71368 79.9095 11.154 79.9095 13.7686V70.288C79.9095 79.6571 72.2854 87.2395 62.9623 87.2395H18.8299C9.46325 87.2395 1.88281 79.6135 1.88281 70.288V11.1976C1.88281 1.82851 9.50681 -5.75391 18.8299 -5.75391H60.3919Z" fill="#F9F9FF"/>
<path opacity="0.059829" d="M60.3952 -5.71094C63.0091 -5.71094 65.4489 -4.70868 67.2786 -2.83486L76.9938 6.88284C78.8235 8.71307 79.8692 11.197 79.8692 13.768V70.2874C79.8692 79.6129 72.2887 87.1953 62.9655 87.1953H18.8332C9.51008 87.1953 1.92969 79.6129 1.92969 70.2874V11.197C1.92969 1.87149 9.51008 -5.71094 18.8332 -5.71094H60.3952Z" fill="#F8F8FF"/>
<path opacity="0.068376" d="M60.3908 -5.66797C62.9611 -5.66797 65.4009 -4.6657 67.2742 -2.83546L76.9893 6.88224C78.8191 8.71247 79.8211 11.1528 79.8211 13.7674V70.2868C79.8211 79.5687 72.2407 87.1511 62.9611 87.1511H18.8288C9.54921 87.1511 1.96875 79.5687 1.96875 70.2868V11.1964C1.96875 1.91447 9.54921 -5.66797 18.8288 -5.66797H60.3908Z" fill="#F7F7FF"/>
<path opacity="0.076923" d="M60.394 -5.625C62.9644 -5.625 65.4041 -4.62273 67.2338 -2.79249L76.9491 6.92515C78.7788 8.75539 79.7809 11.1957 79.7809 13.7668V70.2862C79.7809 79.5681 72.2439 87.1069 62.9644 87.1069H18.832C9.55247 87.1069 2.01562 79.5681 2.01562 70.2862V11.1957C2.01562 1.91382 9.55247 -5.625 18.832 -5.625H60.394Z" fill="#F6F6FF"/>
<path opacity="0.08547" d="M60.3961 -5.57812C62.9665 -5.57812 65.3626 -4.57585 67.1923 -2.74562L76.9076 6.97203C78.7373 8.80227 79.7393 11.199 79.7393 13.7701V70.2895C79.7393 79.5278 72.246 87.0231 63.0101 87.0231H18.8777C9.64174 87.0231 2.14844 79.5278 2.14844 70.2895V11.199C2.14844 1.9607 9.64174 -5.53456 18.8777 -5.53456H60.3961V-5.57812Z" fill="#F5F5FF"/>
<path opacity="0.094017" d="M60.3961 -5.53516C62.9665 -5.53516 65.3626 -4.53287 67.1488 -2.74622L76.8641 6.97143C78.6503 8.75809 79.6523 11.1548 79.6523 13.7259V70.2453C79.6523 79.4401 72.1589 86.9353 62.9665 86.9353H18.8341C9.6417 86.9353 2.14844 79.4401 2.14844 70.2453V11.1549C2.14844 1.96011 9.6417 -5.53516 18.8341 -5.53516H60.3961Z" fill="#F4F4FF"/>
<path opacity="0.1026" d="M60.3917 -5.44922C62.9185 -5.44922 65.3146 -4.44694 67.1008 -2.66028L76.816 7.05742C78.6022 8.84408 79.6042 11.2408 79.6042 13.7683V70.2877C79.6042 79.4824 72.1544 86.9341 62.962 86.9341H18.8297C9.63726 86.9341 2.1875 79.4824 2.1875 70.2877V11.1972C2.1875 2.00249 9.63726 -5.44922 18.8297 -5.44922H60.3917Z" fill="#F3F3FF"/>
<path opacity="0.1111" d="M60.3949 -5.40625C62.9218 -5.40625 65.2743 -4.40402 67.0605 -2.61736L76.7757 7.10034C78.5619 8.887 79.564 11.2402 79.564 13.7676V70.287C79.564 79.4382 72.1141 86.8899 62.9653 86.8899H18.8329C9.68409 86.8899 2.23438 79.4382 2.23438 70.287V11.1966C2.23438 2.04541 9.68409 -5.40625 18.8329 -5.40625H60.3949Z" fill="#F2F2FF"/>
<path opacity="0.1197" d="M60.3949 -5.36268C62.9218 -5.36268 65.2743 -4.40402 67.0169 -2.61736L76.7322 7.10034C78.5184 8.887 79.4769 11.2401 79.4769 13.724V70.2435C79.4769 79.3511 72.0706 86.8027 62.9218 86.8027H18.7894C9.68415 86.8027 2.23438 79.3946 2.23438 70.2435V11.153C2.23438 2.04542 9.64059 -5.40625 18.7894 -5.40625H60.3949V-5.36268Z" fill="#F1F1FF"/>
<path opacity="0.1282" d="M60.3926 -5.31641C62.8759 -5.31641 65.2284 -4.35769 67.0146 -2.57103L76.7298 7.14662C78.4725 8.8897 79.4745 11.2429 79.4745 13.7704V70.2897C79.4745 79.3974 72.0683 86.7619 63.0066 86.7619H18.8742C9.76892 86.7619 2.40625 79.3538 2.40625 70.2897V11.1993C2.40625 2.0917 9.81249 -5.27284 18.8742 -5.27284H60.3926V-5.31641Z" fill="#F0F0FF"/>
<path opacity="0.1368" d="M60.3926 -5.27344C62.8759 -5.27344 65.2284 -4.31471 66.971 -2.57163L76.6862 7.14602C78.4289 8.8891 79.3873 11.2422 79.3873 13.7261V70.2456C79.3873 79.3096 72.0247 86.6741 62.9629 86.6741H18.8306C9.76888 86.6741 2.40625 79.3096 2.40625 70.2456V11.1551C2.40625 2.09111 9.76888 -5.27344 18.8306 -5.27344H60.3926Z" fill="#EFEFFF"/>
<path opacity="0.1453" d="M60.3959 -5.1875C62.8791 -5.1875 65.1881 -4.22883 66.9308 -2.48574L76.646 7.23196C78.3886 8.97504 79.3471 11.2846 79.3471 13.7685V70.2879C79.3471 79.3083 71.9844 86.6729 62.9662 86.6729H18.8339C9.81571 86.6729 2.45312 79.3083 2.45312 70.2879V11.1975C2.45312 2.17701 9.81571 -5.1875 18.8339 -5.1875H60.3959Z" fill="#EEEEFF"/>
<path opacity="0.1538" d="M60.3914 -5.14453C62.8311 -5.14453 65.1401 -4.18586 66.8827 -2.44278L76.5979 7.27492C78.3406 9.018 79.299 11.3276 79.299 13.7679V70.2873C79.299 79.3077 71.9799 86.6287 62.9618 86.6287H18.8294C9.81127 86.6287 2.49219 79.3077 2.49219 70.2873V11.1969C2.49219 2.17641 9.81127 -5.14453 18.8294 -5.14453H60.3914Z" fill="#EDEDFF"/>
<path opacity="0.1624" d="M60.3914 -5.10096C62.8311 -5.10096 65.1401 -4.14228 66.8392 -2.44278L76.5543 7.27492C78.297 9.01801 79.2119 11.284 79.2119 13.7243V70.2437C79.2119 79.2206 71.8929 86.5416 62.9183 86.5416H18.7859C9.81133 86.5416 2.49219 79.2206 2.49219 70.2437V11.1533C2.49219 2.17642 9.81133 -5.14453 18.7859 -5.14453H60.3914V-5.10096Z" fill="#ECECFF"/>
<path opacity="0.1709" d="M60.3947 -5.058C62.8344 -5.058 65.0998 -4.09931 66.7989 -2.39981L76.5141 7.31789C78.2132 9.0174 79.1716 11.327 79.1716 13.7237V70.2431C79.1716 79.1764 71.8961 86.4973 62.9215 86.4973H18.7892C9.85817 86.4973 2.53906 79.22 2.53906 70.2431V11.1527C2.53906 2.2194 9.8146 -5.10156 18.7892 -5.10156H60.3947V-5.058Z" fill="#EBECFF"/>
<path opacity="0.1795" d="M60.3923 -5.01172C62.7885 -5.01172 65.0539 -4.05298 66.7965 -2.35348L76.5117 7.36417C78.2108 9.06367 79.1692 11.3297 79.1692 13.77V70.2894C79.1692 79.2227 71.8938 86.4565 63.0063 86.4565H18.874C9.94293 86.4565 2.71094 79.1791 2.71094 70.2894V11.199C2.71094 2.26568 9.9865 -4.9681 18.874 -4.9681H60.3923V-5.01172Z" fill="#EAEBFF"/>
<path opacity="0.188" d="M60.3923 -4.92578C62.7885 -4.92578 65.0538 -4.01066 66.7529 -2.31116L76.4681 7.40649C78.1672 9.10599 79.0821 11.372 79.0821 13.7688V70.2882C79.0821 79.1779 71.8501 86.4117 62.9627 86.4117H18.8303C9.94289 86.4117 2.71094 79.1779 2.71094 70.2882V11.1977C2.71094 2.30801 9.94289 -4.92578 18.8303 -4.92578H60.3923Z" fill="#E9EAFF"/>
<path opacity="0.1966" d="M60.3956 -4.88281C62.7917 -4.88281 65.0136 -3.96769 66.7127 -2.26819L76.4279 7.44951C78.127 9.14901 79.0419 11.3714 79.0419 13.7682V70.2876C79.0419 79.1337 71.8534 86.3675 62.966 86.3675H18.8336C9.98972 86.3675 2.75781 79.1773 2.75781 70.2876V11.1971C2.75781 2.35099 9.94615 -4.88281 18.8336 -4.88281H60.3956Z" fill="#E8E9FF"/>
<path opacity="0.2051" d="M60.3911 -4.83984C62.7436 -4.83984 65.009 -3.92473 66.6645 -2.22522L76.3797 7.49248C78.0353 9.14841 78.9937 11.4144 78.9937 13.7676V70.287C78.9937 79.1331 71.8053 86.3233 62.9614 86.3233H18.8291C9.98517 86.3233 2.79688 79.1331 2.79688 70.287V11.1965C2.79688 2.35039 9.98517 -4.83984 18.8291 -4.83984H60.3911Z" fill="#E7E8FF"/>
<path opacity="0.2137" d="M60.3911 -4.79628C62.7436 -4.79628 64.9655 -3.88115 66.621 -2.22522L76.3361 7.49248C77.9916 9.14841 78.9066 11.3708 78.9066 13.724V70.2434C78.9066 79.046 71.7618 86.2362 62.9179 86.2362H18.7856C9.98524 86.2362 2.79688 79.0896 2.79688 70.2434V11.153C2.79688 2.3504 9.94167 -4.83984 18.7856 -4.83984H60.3911V-4.79628Z" fill="#E6E7FF"/>
<path opacity="0.2222" d="M60.3933 -4.75C62.7458 -4.75 64.9241 -3.83492 66.5796 -2.179L76.2948 7.5387C77.9503 9.19463 78.8652 11.417 78.8652 13.7266V70.2461C78.8652 79.0486 71.7204 86.1517 62.9636 86.1517H18.8313C10.0309 86.1517 2.92969 79.0051 2.92969 70.2461V11.1556C2.92969 2.35306 10.0745 -4.75 18.8313 -4.75H60.3933Z" fill="#E5E6FF"/>
<path opacity="0.2308" d="M60.3887 -4.66406C62.6977 -4.66406 64.9195 -3.74893 66.5314 -2.09301L76.2467 7.62464C77.9022 9.28057 78.8171 11.4595 78.8171 13.769V70.2884C78.8171 79.0474 71.7158 86.1505 62.9591 86.1505H18.8267C10.07 86.1505 2.96875 79.0474 2.96875 70.2884V11.198C2.96875 2.439 10.07 -4.66406 18.8267 -4.66406H60.3887Z" fill="#E4E5FF"/>
<path opacity="0.2393" d="M60.392 -4.62109C62.701 -4.62109 64.8792 -3.70595 66.5347 -2.0936L76.2499 7.62404C77.9055 9.27997 78.7768 11.4589 78.7768 13.7684V70.2878C78.7768 79.0033 71.6755 86.1063 62.9623 86.1063H18.83C10.1168 86.1063 3.01562 79.0033 3.01562 70.2878V11.1974C3.01562 2.48199 10.1168 -4.62109 18.83 -4.62109H60.392Z" fill="#E3E4FF"/>
<path opacity="0.2479" d="M60.3954 -4.57812C62.7043 -4.57812 64.8391 -3.66299 66.4946 -2.05064L76.2098 7.66707C77.8218 9.27942 78.7366 11.4583 78.7366 13.7679V70.2872C78.7366 79.0027 71.6789 86.0621 62.9657 86.0621H18.8334C10.1202 86.0621 3.0625 79.0027 3.0625 70.2872V11.1968C3.0625 2.48139 10.1202 -4.57812 18.8334 -4.57812H60.3954Z" fill="#E2E3FF"/>
<path opacity="0.2564" d="M60.3908 -4.53516C62.6562 -4.53516 64.8345 -3.66365 66.4464 -2.00772L76.1617 7.70998C77.7736 9.32233 78.6885 11.5012 78.6885 13.7672V70.2866C78.6885 78.9584 71.6308 86.0179 62.9612 86.0179H18.8288C10.1592 86.0179 3.10156 78.9584 3.10156 70.2866V11.1961C3.10156 2.52431 10.1592 -4.53516 18.8288 -4.53516H60.3908Z" fill="#E1E2FE"/>
<path opacity="0.265" d="M60.3896 -4.49219C62.6551 -4.49219 64.7898 -3.62067 66.4018 -2.00832L76.1169 7.70938C77.7288 9.32173 78.6002 11.457 78.6002 13.723V70.2424C78.6002 78.8707 71.586 85.8866 62.96 85.8866H18.8276C10.2016 85.8866 3.1875 78.8707 3.1875 70.2424V11.152C3.1875 2.52373 10.2016 -4.49219 18.8276 -4.49219H60.3896Z" fill="#E0E1FE"/>
<path opacity="0.2735" d="M60.3929 -4.40234C62.6583 -4.40234 64.793 -3.53077 66.3614 -1.91842L76.0766 7.79923C77.6886 9.41158 78.5599 11.5033 78.5599 13.7693V70.2887C78.5599 78.917 71.5457 85.8893 62.9632 85.8893H18.8309C10.2048 85.8893 3.23438 78.8734 3.23438 70.2887V11.1983C3.23438 2.57 10.2484 -4.40234 18.8309 -4.40234H60.3929Z" fill="#DFE0FE"/>
<path opacity="0.2821" d="M60.3963 -4.35938C62.6181 -4.35938 64.7528 -3.4878 66.3212 -1.87545L76.0364 7.8422C77.6048 9.41097 78.5196 11.5463 78.5196 13.7687V70.2881C78.5196 78.8728 71.5491 85.8451 62.9666 85.8451H18.8343C10.2518 85.8451 3.28125 78.8728 3.28125 70.2881V11.1977C3.28125 2.61298 10.2518 -4.35938 18.8343 -4.35938H60.3963Z" fill="#DEDFFE"/>
<path opacity="0.2906" d="M60.3917 -4.31641C62.6136 -4.31641 64.7047 -3.44488 66.3166 -1.8761L76.0319 7.84154C77.6002 9.41032 78.4716 11.5021 78.4716 13.7681V70.2875C78.4716 78.8286 71.501 85.8009 62.9621 85.8009H18.8297C10.2908 85.8009 3.32031 78.8286 3.32031 70.2875V11.197C3.32031 2.65591 10.2908 -4.31641 18.8297 -4.31641H60.3917Z" fill="#DDDEFE"/>
<path opacity="0.2991" d="M60.3951 -4.27344C62.617 -4.27344 64.7081 -3.40191 66.2765 -1.83313L75.9917 7.88457C77.5601 9.45334 78.4314 11.545 78.4314 13.7675V70.2869C78.4314 78.828 71.5044 85.7567 62.9655 85.7567H18.8331C10.2942 85.7567 3.36719 78.828 3.36719 70.2869V11.1964C3.36719 2.65531 10.2942 -4.27344 18.8331 -4.27344H60.3951Z" fill="#DCDDFE"/>
<path opacity="0.3077" d="M60.3938 -4.23047C62.6157 -4.23047 64.6632 -3.35893 66.2316 -1.83373L75.9469 7.88397C77.5152 9.45274 78.343 11.5008 78.343 13.7232V70.2427C78.343 78.7402 71.4595 85.6254 62.9642 85.6254H18.8318C10.3365 85.6254 3.45312 78.7402 3.45312 70.2427V11.1522C3.45312 2.65472 10.3365 -4.23047 18.8318 -4.23047H60.3938Z" fill="#DBDCFE"/>
<path opacity="0.3162" d="M60.3894 -4.14062C62.5677 -4.14062 64.6589 -3.26908 66.1837 -1.74389L75.8988 7.97381C77.4672 9.54259 78.2949 11.5907 78.2949 13.7696V70.289C78.2949 78.7429 71.4115 85.6281 62.9597 85.6281H18.8274C10.3756 85.6281 3.49219 78.7429 3.49219 70.289V11.1985C3.49219 2.74458 10.3756 -4.14062 18.8274 -4.14062H60.3894Z" fill="#DADBFE"/>
<path opacity="0.3248" d="M60.3926 -4.09766C62.5709 -4.09766 64.6185 -3.26969 66.1433 -1.70092L75.8586 8.01673C77.3834 9.54192 78.2547 11.5901 78.2547 13.7689V70.2883C78.2547 78.7423 71.4148 85.5839 62.963 85.5839H18.8307C10.3789 85.5839 3.53906 78.7423 3.53906 70.2883V11.1979C3.53906 2.74393 10.3789 -4.09766 18.8307 -4.09766H60.3926Z" fill="#D9DAFE"/>
<path opacity="0.3333" d="M60.3926 -4.05409C62.5709 -4.05409 64.5749 -3.22612 66.0997 -1.70092L75.815 8.01673C77.3398 9.54193 78.1676 11.59 78.1676 13.7253V70.2448C78.1676 78.6551 71.3277 85.4967 62.9195 85.4967H18.7872C10.3789 85.4967 3.53906 78.6551 3.53906 70.2448V11.1543C3.53906 2.74394 10.3789 -4.09766 18.7872 -4.09766H60.3926V-4.05409Z" fill="#D8D9FE"/>
<path opacity="0.3419" d="M60.3915 -4.01172C62.5262 -4.01172 64.5737 -3.18374 66.0986 -1.65855L75.8138 8.0591C77.3386 9.5843 78.1664 11.5889 78.1664 13.7677V70.2871C78.1664 78.6539 71.3701 85.4955 62.9618 85.4955H18.8295C10.4648 85.4955 3.625 78.6975 3.625 70.2871V11.1967C3.625 2.82989 10.4212 -4.01172 18.8295 -4.01172H60.3915Z" fill="#D7D8FE"/>
<path opacity="0.3504" d="M60.3936 -3.96875C62.5283 -3.96875 64.5323 -3.14078 66.0571 -1.61558L75.7724 8.10212C77.2972 9.62732 78.1249 11.6319 78.1249 13.7671V70.2865C78.1249 78.6533 71.3286 85.4077 63.0075 85.4077H18.8752C10.5105 85.4077 3.75781 78.6097 3.75781 70.2865V11.1961C3.75781 2.82929 10.5541 -3.92518 18.8752 -3.92518H60.3936V-3.96875Z" fill="#D6D7FE"/>
<path opacity="0.359" d="M60.3936 -3.92188C62.5283 -3.92188 64.4887 -3.09389 66.0135 -1.61227L75.7288 8.10543C77.21 9.58705 78.0378 11.5916 78.0378 13.7268V70.2463C78.0378 78.5695 71.285 85.3239 62.9639 85.3239H18.8316C10.5105 85.3239 3.75781 78.5695 3.75781 70.2463V11.1558C3.75781 2.83261 10.5105 -3.92188 18.8316 -3.92188H60.3936Z" fill="#D5D6FE"/>
<path opacity="0.3675" d="M60.3891 -3.83594C62.4803 -3.83594 64.4843 -3.00801 65.9656 -1.52639L75.6807 8.19131C77.162 9.67293 77.9897 11.6775 77.9897 13.7692V70.2886C77.9897 78.5682 71.237 85.3227 62.9595 85.3227H18.8271C10.5496 85.3227 3.79688 78.5682 3.79688 70.2886V11.1981C3.79688 2.9185 10.5496 -3.83594 18.8271 -3.83594H60.3891Z" fill="#D4D5FE"/>
<path opacity="0.3761" d="M60.3924 -3.79297C62.4836 -3.79297 64.444 -2.96498 65.9252 -1.48336L75.6405 8.23428C77.1217 9.7159 77.9495 11.6769 77.9495 13.7686V70.288C77.9495 78.5676 71.2403 85.2785 62.9627 85.2785H18.8304C10.5529 85.2785 3.84375 78.5676 3.84375 70.288V11.1975C3.84375 2.91791 10.5529 -3.79297 18.8304 -3.79297H60.3924Z" fill="#D3D4FE"/>
<path opacity="0.3846" d="M60.3924 -3.7494C62.4836 -3.7494 64.444 -2.92141 65.8816 -1.48336L75.5969 8.23428C77.0781 9.7159 77.8623 11.6769 77.8623 13.725V70.2444C77.8623 78.4805 71.1532 85.1913 62.9192 85.1913H18.7869C10.5529 85.1913 3.84375 78.4805 3.84375 70.2444V11.154C3.84375 2.91792 10.5529 -3.79297 18.7869 -3.79297H60.3924V-3.7494Z" fill="#D2D3FE"/>
<path opacity="0.3932" d="M60.3945 -3.70703C62.4421 -3.70703 64.4025 -2.87904 65.8402 -1.44099L75.5555 8.27665C76.9931 9.7147 77.8209 11.6757 77.8209 13.7238V70.2432C77.8209 78.4357 71.1552 85.103 62.9648 85.103H18.8325C10.6421 85.103 3.97656 78.4357 3.97656 70.2432V11.1528C3.97656 2.9603 10.6421 -3.70703 18.8325 -3.70703H60.3945Z" fill="#D1D2FE"/>
<path opacity="0.4017" d="M60.3933 -3.66406C62.4409 -3.66406 64.3578 -2.8797 65.8391 -1.39808L75.5543 8.31962C76.992 9.75766 77.8197 11.7186 77.8197 13.7668V70.2861C77.8197 78.4786 71.1541 85.1023 63.0073 85.1023H18.8749C10.6845 85.1023 4.0625 78.4351 4.0625 70.2861V11.1957C4.0625 3.00321 10.7281 -3.6205 18.8749 -3.6205H60.3933V-3.66406Z" fill="#D0D1FE"/>
<path opacity="0.4103" d="M60.3933 -3.57422C62.4409 -3.57422 64.3578 -2.78984 65.7955 -1.3518L75.5107 8.3659C76.9484 9.80394 77.7326 11.7213 77.7326 13.7695V70.2889C77.7326 78.4378 71.1105 85.0615 62.9637 85.0615H18.8313C10.6845 85.0615 4.0625 78.4378 4.0625 70.2889V11.1984C4.0625 3.0495 10.6845 -3.57422 18.8313 -3.57422H60.3933Z" fill="#CFD0FE"/>
<path opacity="0.4188" d="M60.3966 -3.53125C62.4006 -3.53125 64.3175 -2.74687 65.7552 -1.30883L75.4703 8.40887C76.908 9.84691 77.6922 11.7643 77.6922 13.7689V70.2883C77.6922 78.3936 71.1138 85.0173 62.9669 85.0173H18.8346C10.7313 85.0173 4.10938 78.4372 4.10938 70.2883V11.1978C4.10938 3.09248 10.6878 -3.53125 18.8346 -3.53125H60.3966Z" fill="#CECFFE"/>
<path opacity="0.4274" d="M60.3921 -3.48828C62.3962 -3.48828 64.3131 -2.70385 65.7072 -1.26581L75.4224 8.45184C76.8601 9.88988 77.6442 11.7637 77.6442 13.7683V70.2877C77.6442 78.393 71.0658 84.9731 62.9625 84.9731H18.8301C10.7269 84.9731 4.14844 78.393 4.14844 70.2877V11.1972C4.14844 3.09188 10.7269 -3.48828 18.8301 -3.48828H60.3921Z" fill="#CDCEFE"/>
<path opacity="0.4359" d="M60.3921 -3.44466C62.3962 -3.44466 64.2694 -2.66028 65.6636 -1.26581L75.3788 8.45184C76.7729 9.8463 77.5571 11.7637 77.5571 13.7246V70.2441C77.5571 78.3058 71.0223 84.886 62.919 84.886H18.7866C10.7269 84.886 4.14844 78.3494 4.14844 70.2441V11.1536C4.14844 3.09189 10.6834 -3.48828 18.7866 -3.48828H60.3921V-3.44466Z" fill="#CCCDFE"/>
<path opacity="0.4444" d="M60.3942 -3.40234C62.3547 -3.40234 64.228 -2.61796 65.6222 -1.22349L75.3374 8.49416C76.7315 9.88862 77.5157 11.7624 77.5157 13.7234V70.2429C77.5157 78.261 70.9807 84.7976 62.9646 84.7976H18.8322C10.8161 84.7976 4.28125 78.261 4.28125 70.2429V11.1524C4.28125 3.13422 10.8161 -3.40234 18.8322 -3.40234H60.3942Z" fill="#CBCCFE"/>
<path opacity="0.453" d="M60.3931 -3.3125C62.3535 -3.3125 64.2269 -2.52811 65.621 -1.13365L75.3362 8.58405C76.7303 9.97852 77.5145 11.8088 77.5145 13.8133V70.3327C77.5145 78.3509 71.0231 84.8439 63.007 84.8439H18.8747C10.8585 84.8439 4.36719 78.3509 4.36719 70.3327V11.2422C4.36719 3.22407 10.8585 -3.26893 18.8747 -3.26893H60.3931V-3.3125Z" fill="#CACBFE"/>
<path opacity="0.4615" d="M60.3931 -3.26953C62.3535 -3.26953 64.1833 -2.48513 65.5774 -1.13425L75.2926 8.58346C76.6867 9.97792 77.4273 11.8082 77.4273 13.7691V70.2885C77.4273 78.2631 70.936 84.7561 62.9634 84.7561H18.8311C10.8585 84.7561 4.36719 78.2631 4.36719 70.2885V11.1981C4.36719 3.22348 10.8585 -3.26953 18.8311 -3.26953H60.3931Z" fill="#C9CAFE"/>
<path opacity="0.4701" d="M60.3963 -3.22656C62.3132 -3.22656 64.143 -2.4858 65.5371 -1.09133L75.2523 8.62637C76.6028 9.97726 77.3871 11.8075 77.3871 13.7685V70.2879C77.3871 78.2189 70.9392 84.7119 62.9667 84.7119H18.8343C10.9053 84.7119 4.41406 78.2625 4.41406 70.2879V11.1974C4.41406 3.26641 10.8618 -3.22656 18.8343 -3.22656H60.3963Z" fill="#C8C9FE"/>
<path opacity="0.4786" d="M60.3963 -3.183C62.3132 -3.183 64.143 -2.44222 65.4935 -1.09133L75.2088 8.62637C76.5593 9.97726 77.2999 11.8075 77.2999 13.7249V70.2443C77.2999 78.1753 70.8522 84.6247 62.9232 84.6247H18.7908C10.8618 84.6247 4.41406 78.1753 4.41406 70.2443V11.1539C4.41406 3.22284 10.8618 -3.22656 18.7908 -3.22656H60.3963V-3.183Z" fill="#C7C8FE"/>
<path opacity="0.4872" d="M60.3906 -3.14062C62.3075 -3.14062 64.0937 -2.39979 65.4442 -1.04891L75.1594 8.66874C76.51 10.0196 77.2506 11.8063 77.2506 13.7237V70.2431C77.2506 78.1306 70.8464 84.5363 62.961 84.5363H18.8286C10.9432 84.5363 4.53906 78.1306 4.53906 70.2431V11.1527C4.53906 3.26522 10.9432 -3.14062 18.8286 -3.14062H60.3906Z" fill="#C6C7FE"/>
<path opacity="0.4957" d="M60.394 -3.05078C62.2673 -3.05078 64.0971 -2.30995 65.4041 -0.959062L75.1193 8.75864C76.4698 10.1095 77.2104 11.8962 77.2104 13.77V70.2894C77.2104 78.1768 70.8062 84.5391 62.9643 84.5391H18.832C10.9465 84.5391 4.58594 78.1333 4.58594 70.2894V11.1989C4.58594 3.3115 10.9901 -3.05078 18.832 -3.05078H60.394Z" fill="#C5C6FE"/>
<path opacity="0.5043" d="M60.394 -3.00716C62.2673 -3.00716 64.0535 -2.26637 65.3605 -0.959062L75.0757 8.75864C76.4262 10.1095 77.1233 11.8526 77.1233 13.7264V70.2458C77.1233 78.0897 70.7627 84.4519 62.9208 84.4519H18.7885C10.9466 84.4519 4.58594 78.0897 4.58594 70.2458V11.1554C4.58594 3.31151 10.9466 -3.05078 18.7885 -3.05078H60.394V-3.00716Z" fill="#C5C6FE"/>
<path opacity="0.5128" d="M60.3928 -2.96484C62.2661 -2.96484 64.0087 -2.22406 65.3593 -0.916744L75.0745 8.80095C76.3815 10.1083 77.1221 11.8949 77.1221 13.7687V70.2881C77.1221 78.0884 70.7615 84.4507 62.9632 84.4507H18.8308C11.0325 84.4507 4.67188 78.0884 4.67188 70.2881V11.1977C4.67188 3.3974 11.0325 -2.96484 18.8308 -2.96484H60.3928Z" fill="#C4C5FE"/>
<path opacity="0.5214" d="M60.3883 -2.92188C62.2616 -2.92188 64.0043 -2.18109 65.3112 -0.873775L75.0264 8.84392C76.3333 10.1512 77.074 11.8943 77.074 13.7682V70.2875C77.074 78.0878 70.7569 84.4065 62.9586 84.4065H18.8263C11.028 84.4065 4.71094 78.0878 4.71094 70.2875V11.1971C4.71094 3.39681 11.028 -2.92188 18.8263 -2.92188H60.3883Z" fill="#C3C4FE"/>
<path opacity="0.5299" d="M60.3949 -2.87891C62.2247 -2.87891 63.9673 -2.13811 65.2743 -0.874373L74.9895 8.84333C76.2965 10.1506 76.9935 11.8937 76.9935 13.7239V70.2434C76.9935 78.0001 70.6764 84.2752 62.9652 84.2752H18.8329C11.0782 84.2752 4.80469 77.9565 4.80469 70.2434V11.1529C4.80469 3.39622 11.1217 -2.87891 18.8329 -2.87891H60.3949Z" fill="#C2C3FE"/>
<path opacity="0.5385" d="M60.3904 -2.78906C62.2201 -2.78906 63.9191 -2.09184 65.2261 -0.784529L74.9413 8.93312C76.2483 10.2404 76.9454 11.94 76.9454 13.7702V70.2896C76.9454 78.0027 70.6719 84.2778 62.9607 84.2778H18.8284C11.1172 84.2778 4.84375 78.0027 4.84375 70.2896V11.1992C4.84375 3.48602 11.1172 -2.78906 18.8284 -2.78906H60.3904Z" fill="#C1C2FE"/>
<path opacity="0.547" d="M60.3937 -2.74609C62.2235 -2.74609 63.9226 -2.04887 65.186 -0.741561L74.9012 8.97614C76.1646 10.2399 76.9052 11.983 76.9052 13.7696V70.289C76.9052 78.0021 70.6752 84.2337 62.9641 84.2337H18.8317C11.1206 84.2337 4.89062 78.0021 4.89062 70.289V11.1986C4.89062 3.48542 11.1206 -2.74609 18.8317 -2.74609H60.3937Z" fill="#C0C1FE"/>
<path opacity="0.5556" d="M60.3937 -2.70253C62.1799 -2.70253 63.879 -2.00529 65.1424 -0.741561L74.8576 8.97614C76.121 10.2399 76.8181 11.9393 76.8181 13.726V70.2454C76.8181 77.915 70.5882 84.1465 62.9206 84.1465H18.7882C11.1206 84.1465 4.89062 77.915 4.89062 70.2454V11.155C4.89062 3.48543 11.1206 -2.74609 18.7882 -2.74609H60.3937V-2.70253Z" fill="#BFC0FE"/>
<path opacity="0.5641" d="M60.3924 -2.66016C62.1787 -2.66016 63.8777 -1.96292 65.1411 -0.69919L74.8563 9.01851C76.1197 10.2822 76.8168 11.9818 76.8168 13.7684V70.2878C76.8168 77.9138 70.6304 84.1453 62.9628 84.1453H18.8305C11.2064 84.1453 4.97656 77.9574 4.97656 70.2878V11.1974C4.97656 3.57138 11.1628 -2.66016 18.8305 -2.66016H60.3924Z" fill="#BEBFFE"/>
<path opacity="0.5727" d="M60.3946 -2.61719C62.1808 -2.61719 63.8364 -1.91995 65.0998 -0.656221L74.8149 9.06148C76.0783 10.3252 76.7754 11.9812 76.7754 13.7678V70.2872C76.7754 77.9132 70.5891 84.0575 63.0086 84.0575H18.8763C11.2522 84.0575 5.10938 77.8696 5.10938 70.2872V11.1968C5.10938 3.57078 11.2958 -2.57357 18.8763 -2.57357H60.3946V-2.61719Z" fill="#BDBEFE"/>
<path opacity="0.5812" d="M60.3946 -2.53125C62.1373 -2.53125 63.7928 -1.83401 65.0562 -0.61385L74.7714 9.1038C75.9913 10.324 76.6883 12.0235 76.6883 13.7666V70.286C76.6883 77.8684 70.5455 84.0127 62.965 84.0127H18.8327C11.2522 84.0127 5.10938 77.8684 5.10938 70.286V11.1955C5.10938 3.61311 11.2522 -2.53125 18.8327 -2.53125H60.3946Z" fill="#BCBDFE"/>
<path opacity="0.5897" d="M60.3901 -2.48438C62.1327 -2.48438 63.7882 -1.78713 65.008 -0.566975L74.7233 9.15067C75.9431 10.3708 76.6402 12.0268 76.6402 13.7699V70.2893C76.6402 77.8281 70.4974 83.9725 62.9605 83.9725H18.8281C11.2912 83.9725 5.14844 77.8281 5.14844 70.2893V11.1988C5.14844 3.66 11.2912 -2.48438 18.8281 -2.48438H60.3901Z" fill="#BBBCFE"/>
<path opacity="0.5983" d="M60.3934 -2.44141C62.136 -2.44141 63.7479 -1.74416 64.9678 -0.524006L74.683 9.19369C75.9029 10.4139 76.5999 12.0698 76.5999 13.7693V70.2887C76.5999 77.8275 70.5006 83.9283 62.9637 83.9283H18.8314C11.2945 83.9283 5.19531 77.8275 5.19531 70.2887V11.1982C5.19531 3.6594 11.2945 -2.44141 18.8314 -2.44141H60.3934Z" fill="#BABBFE"/>
<path opacity="0.6068" d="M60.3934 -2.39784C62.0924 -2.39784 63.7479 -1.74416 64.9242 -0.524006L74.6394 9.19369C75.8593 10.4139 76.5128 12.0262 76.5128 13.7257V70.2451C76.5128 77.7404 70.4136 83.8411 62.9202 83.8411H18.7879C11.2945 83.8411 5.19531 77.7404 5.19531 70.2451V11.1547C5.19531 3.65941 11.2945 -2.44141 18.7879 -2.44141H60.3934V-2.39784Z" fill="#B9BAFE"/>
<path opacity="0.6154" d="M60.391 -2.35547C62.0901 -2.35547 63.702 -1.70185 64.9218 -0.481688L74.6371 9.23601C75.8569 10.4562 76.5104 12.0685 76.5104 13.768V70.2874C76.5104 77.7391 70.4548 83.7963 63.005 83.7963H18.8726C11.4229 83.7963 5.36719 77.7391 5.36719 70.2874V11.197C5.36719 3.74531 11.4229 -2.3119 18.8726 -2.3119H60.391V-2.35547Z" fill="#B8B9FE"/>
<path opacity="0.6239" d="M60.3943 -2.3125C62.0934 -2.3125 63.6618 -1.65888 64.8816 -0.438719L74.5967 9.27898C75.773 10.4556 76.4701 12.0679 76.4701 13.7674V70.2868C76.4701 77.7385 70.4145 83.7522 63.0082 83.7522H18.8759C11.4261 83.7522 5.41406 77.6949 5.41406 70.2868V11.1964C5.41406 3.74471 11.4697 -2.26893 18.8759 -2.26893H60.3943V-2.3125Z" fill="#B7B8FE"/>
<path opacity="0.6325" d="M60.3943 -2.22266C62.0498 -2.22266 63.6617 -1.56897 64.838 -0.392389L74.5532 9.32526C75.7295 10.5018 76.383 12.0706 76.383 13.7701V70.2896C76.383 77.6976 70.3709 83.7113 62.9646 83.7113H18.8323C11.4261 83.7113 5.41406 77.6976 5.41406 70.2896V11.1991C5.41406 3.791 11.4261 -2.22266 18.8323 -2.22266H60.3943Z" fill="#B6B7FE"/>
<path opacity="0.641" d="M60.3899 -2.17969C62.0454 -2.17969 63.6137 -1.526 64.7899 -0.34942L74.5052 9.36823C75.6815 10.5448 76.3349 12.1136 76.3349 13.7695V70.2889C76.3349 77.6535 70.3228 83.6671 62.9602 83.6671H18.8279C11.4652 83.6671 5.45312 77.6535 5.45312 70.2889V11.1985C5.45312 3.83398 11.4652 -2.17969 18.8279 -2.17969H60.3899Z" fill="#B5B6FE"/>
<path opacity="0.6496" d="M60.3899 -2.13607C62.0454 -2.13607 63.5702 -1.48242 64.7464 -0.34942L74.4617 9.36823C75.638 10.5448 76.2478 12.07 76.2478 13.7259V70.2454C76.2478 77.6099 70.2793 83.5799 62.9167 83.5799H18.7844C11.4217 83.5799 5.45312 77.6099 5.45312 70.2454V11.1549C5.45312 3.79041 11.4217 -2.17969 18.7844 -2.17969H60.3899V-2.13607Z" fill="#B4B5FE"/>
<path opacity="0.6581" d="M60.3919 -2.09375C62.0039 -2.09375 63.5722 -1.44011 64.7049 -0.307102L74.4202 9.4106C75.5529 10.5436 76.2064 12.1123 76.2064 13.7247V70.2441C76.2064 77.5651 70.2814 83.4916 62.9623 83.4916H18.8299C11.5109 83.4916 5.58594 77.5651 5.58594 70.2441V11.1537C5.58594 3.83274 11.5109 -2.09375 18.8299 -2.09375H60.3919Z" fill="#B3B4FE"/>
<path opacity="0.6667" d="M60.3952 -2.05078C62.0071 -2.05078 63.532 -1.39714 64.6647 -0.264133L74.3798 9.45357C75.5125 10.5866 76.1661 12.1117 76.1661 13.7241V70.2435C76.1661 77.5209 70.2411 83.4473 62.9656 83.4473H18.8332C11.5577 83.4473 5.63281 77.5209 5.63281 70.2435V11.1531C5.63281 3.87572 11.5577 -2.05078 18.8332 -2.05078H60.3952Z" fill="#B2B3FE"/>
<path opacity="0.6752" d="M60.3908 -1.96094C62.0027 -1.96094 63.5275 -1.35086 64.6603 -0.217856L74.3754 9.49984C75.5081 10.6328 76.118 12.1581 76.118 13.7704V70.2898C76.118 77.5672 70.2366 83.4501 62.9611 83.4501H18.8288C11.5533 83.4501 5.67188 77.5672 5.67188 70.2898V11.1994C5.67188 3.92199 11.5533 -1.96094 18.8288 -1.96094H60.3908Z" fill="#B1B2FE"/>
<path opacity="0.6838" d="M60.394 -1.91797C61.9624 -1.91797 63.4872 -1.30789 64.6199 -0.174887L74.3351 9.54276C75.4679 10.6758 76.0778 12.1574 76.0778 13.7698V70.2892C76.0778 77.5229 70.1963 83.4058 62.9644 83.4058H18.832C11.6001 83.4058 5.71875 77.5229 5.71875 70.2892V11.1987C5.71875 3.96492 11.6001 -1.91797 18.832 -1.91797H60.394Z" fill="#B0B1FE"/>
<path opacity="0.6923" d="M60.3896 -1.875C61.958 -1.875 63.4391 -1.26492 64.5719 -0.131919L74.2871 9.58573C75.4198 10.7187 76.0297 12.2004 76.0297 13.7692V70.2886C76.0297 77.4788 70.1919 83.3617 62.9599 83.3617H18.8276C11.6392 83.3617 5.75781 77.5223 5.75781 70.2886V11.1981C5.75781 4.0079 11.5957 -1.875 18.8276 -1.875H60.3896Z" fill="#AFB0FE"/>
<path opacity="0.7009" d="M60.3896 -1.83143C61.958 -1.83143 63.4392 -1.22134 64.5284 -0.131918L74.2436 9.58573C75.3327 10.6752 75.9426 12.1568 75.9426 13.7255V70.245C75.9426 77.4352 70.1048 83.2745 62.9164 83.2745H18.7841C11.5957 83.2745 5.75781 77.4352 5.75781 70.245V11.1545C5.75781 3.96433 11.5957 -1.875 18.7841 -1.875H60.3896V-1.83143Z" fill="#AEAFFE"/>
<path opacity="0.7094" d="M60.3917 -1.78906C61.9165 -1.78906 63.3977 -1.17897 64.4868 -0.0895474L74.2021 9.62815C75.2912 10.7176 75.9011 12.1992 75.9011 13.7244V70.2438C75.9011 77.3904 70.1069 83.1862 62.962 83.1862H18.8297C11.6849 83.1862 5.89062 77.3904 5.89062 70.2438V11.1533C5.89062 4.00672 11.6849 -1.78906 18.8297 -1.78906H60.3917Z" fill="#ADAEFE"/>
<path opacity="0.7179" d="M60.395 -1.70312C61.9198 -1.70312 63.401 -1.09309 64.4466 -0.0036633L74.1617 9.71404C75.2509 10.8035 75.8609 12.2415 75.8609 13.7667V70.2861C75.8609 77.3892 70.0666 83.1849 62.9653 83.1849H18.833C11.7317 83.1849 5.9375 77.3892 5.9375 70.2861V11.1957C5.9375 4.09261 11.7317 -1.70312 18.833 -1.70312H60.395Z" fill="#ACADFE"/>
<path opacity="0.7265" d="M60.3905 -1.65625C61.9153 -1.65625 63.353 -1.0462 64.4422 -0.000354528L74.1573 9.71735C75.2465 10.8068 75.8128 12.2448 75.8128 13.77V70.2894C75.8128 77.3925 70.0621 83.1447 62.9609 83.1447H18.8285C11.7273 83.1447 5.97656 77.3925 5.97656 70.2894V11.199C5.97656 4.09592 11.7273 -1.65625 18.8285 -1.65625H60.3905Z" fill="#ABACFE"/>
<path opacity="0.735" d="M60.3938 -1.61328C61.9186 -1.61328 63.3127 -1.00318 64.4018 0.0426675L74.1171 9.76031C75.1626 10.8062 75.7726 12.2442 75.7726 13.7694V70.2888C75.7726 77.3483 70.0218 83.1005 62.9641 83.1005H18.8318C11.7741 83.1005 6.02344 77.3483 6.02344 70.2888V11.1984C6.02344 4.1389 11.7741 -1.61328 18.8318 -1.61328H60.3938Z" fill="#AAABFE"/>
<path opacity="0.7436" d="M60.3892 -1.57031C61.8705 -1.57031 63.3081 -1.00379 64.3537 0.0856363L74.0689 9.80328C75.1145 10.8491 75.7244 12.2872 75.7244 13.7688V70.2882C75.7244 77.3041 70.0173 83.0563 62.9596 83.0563H18.8272C11.8131 83.0563 6.0625 77.3477 6.0625 70.2882V11.1978C6.0625 4.18188 11.7696 -1.57031 18.8272 -1.57031H60.3892Z" fill="#A9AAFE"/>
<path opacity="0.7521" d="M60.3881 -1.52734C61.8693 -1.52734 63.2634 -0.96081 64.309 0.0850385L74.0242 9.80269C75.0698 10.8485 75.6362 12.243 75.6362 13.7246V70.2441C75.6362 77.26 69.929 82.925 62.9584 82.925H18.8261C11.8119 82.925 6.14844 77.2164 6.14844 70.2441V11.1536C6.14844 4.13771 11.8555 -1.52734 18.8261 -1.52734H60.3881Z" fill="#A8A9FD"/>
<path opacity="0.7607" d="M60.3914 -1.44141C61.8727 -1.44141 63.2232 -0.874926 64.2688 0.170923L73.984 9.88862C75.0296 10.9345 75.5959 12.3289 75.5959 13.767V70.2864C75.5959 77.2587 69.9323 82.9237 62.9618 82.9237H18.8294C11.8589 82.9237 6.19531 77.2587 6.19531 70.2864V11.1959C6.19531 4.22361 11.8589 -1.44141 18.8294 -1.44141H60.3914Z" fill="#A7A8FD"/>
<path opacity="0.7692" d="M60.3947 -1.39844C61.8324 -1.39844 63.2265 -0.831957 64.2285 0.213892L73.9437 9.93159C74.9892 10.9774 75.5557 12.3284 75.5557 13.7664V70.2858C75.5557 77.2581 69.9356 82.8796 62.9651 82.8796H18.8327C11.8622 82.8796 6.24219 77.2581 6.24219 70.2858V11.1953C6.24219 4.22301 11.8622 -1.39844 18.8327 -1.39844H60.3947Z" fill="#A6A7FD"/>
<path opacity="0.7778" d="M60.3947 -1.35487C61.8324 -1.35487 63.1829 -0.78838 64.1849 0.213892L73.9001 9.93159C74.9022 10.9339 75.4685 12.3283 75.4685 13.7228V70.2422C75.4685 77.171 69.8485 82.7924 62.9215 82.7924H18.7892C11.8622 82.7924 6.24219 77.171 6.24219 70.2422V11.1518C6.24219 4.22302 11.8622 -1.39844 18.7892 -1.39844H60.3947V-1.35487Z" fill="#A5A6FD"/>
<path opacity="0.7863" d="M60.3935 -1.30859C61.8312 -1.30859 63.1817 -0.74205 64.1838 0.260222L73.899 9.97787C74.901 10.9801 75.4673 12.3311 75.4673 13.7691V70.2885C75.4673 77.1737 69.8909 82.7951 62.9639 82.7951H18.8315C11.9481 82.7951 6.32812 77.2173 6.32812 70.2885V11.198C6.32812 4.31288 11.9045 -1.30859 18.8315 -1.30859H60.3935Z" fill="#A4A5FD"/>
<path opacity="0.7949" d="M60.3956 -1.26562C61.7897 -1.26562 63.1402 -0.699134 64.1422 0.303138L73.8575 10.0208C74.8595 11.0231 75.4259 12.374 75.4259 13.7685V70.2878C75.4259 77.173 69.8494 82.7073 63.0096 82.7073H18.8772C11.9938 82.7073 6.46094 77.1294 6.46094 70.2878V11.1974C6.46094 4.31223 12.0374 -1.22206 18.8772 -1.22206H60.3956V-1.26562Z" fill="#A3A4FD"/>
<path opacity="0.8034" d="M60.3956 -1.17969C61.7897 -1.17969 63.0967 -0.613186 64.0987 0.345509L73.814 10.0632C74.816 11.0655 75.3388 12.3728 75.3388 13.7673V70.2866C75.3388 77.1282 69.8058 82.6625 62.966 82.6625H18.8336C11.9938 82.6625 6.46094 77.1282 6.46094 70.2866V11.1962C6.46094 4.35461 11.9938 -1.17969 18.8336 -1.17969H60.3956Z" fill="#A2A3FD"/>
<path opacity="0.812" d="M60.3911 -1.13672C61.7852 -1.13672 63.0921 -0.613794 64.0506 0.388478L73.7658 10.1062C74.7243 11.0649 75.2906 12.3722 75.2906 13.7667V70.2861C75.2906 77.0841 69.7577 82.6184 62.9614 82.6184H18.8291C12.0328 82.6184 6.5 77.0841 6.5 70.2861V11.1956C6.5 4.39759 12.0328 -1.13672 18.8291 -1.13672H60.3911Z" fill="#A1A2FD"/>
<path opacity="0.8205" d="M60.3911 -1.09315C61.7416 -1.09315 63.0486 -0.570217 64.0071 0.388478L73.7222 10.1062C74.6806 11.0649 75.2035 12.3722 75.2035 13.723V70.2425C75.2035 77.0405 69.7142 82.5312 62.9179 82.5312H18.7856C11.9893 82.5312 6.5 77.0405 6.5 70.2425V11.152C6.5 4.35402 11.9893 -1.13672 18.7856 -1.13672H60.3911V-1.09315Z" fill="#A0A1FD"/>
<path opacity="0.8291" d="M60.3945 -1.04622C61.745 -1.04622 63.052 -0.523342 63.9668 0.435352L73.6821 10.1531C74.6405 11.1117 75.1633 12.3755 75.1633 13.7263V70.2458C75.1633 77.0002 69.674 82.4909 62.9213 82.4909H18.789C12.0362 82.4909 6.54688 77.0002 6.54688 70.2458V11.1553C6.54688 4.40091 12.0362 -1.08984 18.789 -1.08984H60.3945V-1.04622Z" fill="#9FA0FD"/>
<path opacity="0.8376" d="M60.392 -1.00391C61.7425 -1.00391 63.0059 -0.480971 63.9644 0.477723L73.6796 10.1954C74.6381 11.1541 75.1608 12.4178 75.1608 13.7687V70.2881C75.1608 76.999 69.7151 82.4461 63.006 82.4461H18.8736C12.1645 82.4461 6.71875 76.999 6.71875 70.2881V11.1977C6.71875 4.4868 12.1645 -0.96034 18.8736 -0.96034H60.392V-1.00391Z" fill="#9EA0FD"/>
<path opacity="0.8462" d="M60.392 -0.917969C61.699 -0.917969 62.9623 -0.395023 63.9208 0.520095L73.636 10.2377C74.5509 11.1529 75.0737 12.4166 75.0737 13.7675V70.2869C75.0737 76.9978 69.6279 82.4014 62.9623 82.4014H18.83C12.1208 82.4014 6.71875 76.9542 6.71875 70.2869V11.1965C6.71875 4.48561 12.1644 -0.917969 18.83 -0.917969H60.392Z" fill="#9D9FFD"/>
<path opacity="0.8547" d="M60.3954 -0.875C61.7024 -0.875 62.9658 -0.352054 63.8806 0.563063L73.5959 10.2808C74.5108 11.1959 75.0335 12.4596 75.0335 13.7669V70.2863C75.0335 76.9536 69.6313 82.3571 62.9657 82.3571H18.8334C12.1678 82.3571 6.76562 76.9536 6.76562 70.2863V11.1959C6.76562 4.52858 12.1678 -0.875 18.8334 -0.875H60.3954Z" fill="#9C9EFD"/>
<path opacity="0.8632" d="M60.3908 -0.828125C61.6978 -0.828125 62.9176 -0.305232 63.8325 0.609885L73.5477 10.3276C74.4626 11.2427 74.9854 12.4629 74.9854 13.7702V70.2896C74.9854 76.9133 69.5832 82.3168 62.9612 82.3168H18.8288C12.2068 82.3168 6.80469 76.9133 6.80469 70.2896V11.1991C6.80469 4.57542 12.2068 -0.828125 18.8288 -0.828125H60.3908Z" fill="#9B9DFD"/>
<path opacity="0.8718" d="M60.3908 -0.784559C61.6542 -0.784559 62.8741 -0.261655 63.789 0.609885L73.5041 10.3276C74.419 11.2427 74.8983 12.4628 74.8983 13.7266V70.246C74.8983 76.8697 69.5397 82.2297 62.9177 82.2297H18.7853C12.1633 82.2297 6.80469 76.8697 6.80469 70.246V11.1556C6.80469 4.53185 12.1633 -0.828125 18.7853 -0.828125H60.3908V-0.784559Z" fill="#9A9CFD"/>
<path opacity="0.8803" d="M60.3929 -0.742188C61.6563 -0.742188 62.8762 -0.262861 63.7475 0.652256L73.4627 10.37C74.3776 11.2851 74.8568 12.4616 74.8568 13.7254V70.2448C74.8568 76.825 69.5417 82.1413 62.9633 82.1413H18.8309C12.2525 82.1413 6.9375 76.825 6.9375 70.2448V11.1544C6.9375 4.57423 12.2525 -0.742188 18.8309 -0.742188H60.3929Z" fill="#999BFD"/>
<path opacity="0.8889" d="M60.3917 -0.699219C61.6552 -0.699219 62.8314 -0.219839 63.7463 0.695278L73.4615 10.4129C74.3329 11.2845 74.8556 12.5047 74.8556 13.7684V70.2878C74.8556 76.8243 69.5406 82.1407 63.0057 82.1407H18.8734C12.3385 82.1407 7.02344 76.8243 7.02344 70.2878V11.1973C7.02344 4.66078 12.3385 -0.655652 18.8734 -0.655652H60.3917V-0.699219Z" fill="#989AFD"/>
<path opacity="0.8974" d="M60.3917 -0.613281C61.6116 -0.613281 62.8314 -0.133944 63.7027 0.737596L73.4179 10.4552C74.2892 11.3268 74.7685 12.5034 74.7685 13.7671V70.2865C74.7685 76.8231 69.497 82.0959 62.9621 82.0959H18.8298C12.2949 82.0959 7.02344 76.8231 7.02344 70.2865V11.1961C7.02344 4.65953 12.2949 -0.613281 18.8298 -0.613281H60.3917Z" fill="#9799FD"/>
<path opacity="0.906" d="M60.3951 -0.570312C61.615 -0.570312 62.7912 -0.0909757 63.6626 0.780565L73.3778 10.4983C74.2491 11.3698 74.7283 12.5464 74.7283 13.7665V70.2859C74.7283 76.7789 69.4568 82.0517 62.9655 82.0517H18.8331C12.3418 82.0517 7.07031 76.7789 7.07031 70.2859V11.1955C7.07031 4.70251 12.3418 -0.570312 18.8331 -0.570312H60.3951Z" fill="#9698FD"/>
<path opacity="0.9145" d="M60.3906 -0.523438C61.6104 -0.523438 62.7431 -0.0441007 63.6144 0.82744L73.3296 10.5451C74.201 11.4167 74.6802 12.5497 74.6802 13.7699V70.2892C74.6802 76.7386 69.4522 82.0115 62.9609 82.0115H18.8286C12.3808 82.0115 7.10938 76.7822 7.10938 70.2892V11.1988C7.10938 4.74939 12.3372 -0.523438 18.8286 -0.523438H60.3906Z" fill="#9597FD"/>
<path opacity="0.9231" d="M60.3906 -0.479871C61.5669 -0.479871 62.7432 -0.000523686 63.5709 0.82744L73.286 10.5451C74.1138 11.3731 74.593 12.5497 74.593 13.7262V70.2457C74.593 76.6951 69.3652 81.9243 62.9174 81.9243H18.7851C12.3373 81.9243 7.10938 76.6951 7.10938 70.2457V11.1552C7.10938 4.70583 12.3373 -0.523438 18.7851 -0.523438H60.3906V-0.479871Z" fill="#9496FD"/>
<path opacity="0.9316" d="M60.3927 -0.4375C61.5689 -0.4375 62.7016 0.0418474 63.5294 0.869811L73.2446 10.5875C74.0724 11.4155 74.5516 12.5485 74.5516 13.725V70.2445C74.5516 76.6503 69.3672 81.836 62.963 81.836H18.8307C12.4265 81.836 7.24219 76.6503 7.24219 70.2445V11.154C7.24219 4.74821 12.4265 -0.4375 18.8307 -0.4375H60.3927Z" fill="#9395FD"/>
<path opacity="0.9402" d="M60.396 -0.351562C61.5723 -0.351562 62.6614 0.127785 63.4892 0.955749L73.2044 10.6734C74.0321 11.5014 74.5114 12.6344 74.5114 13.7674V70.2868C74.5114 76.649 69.327 81.8347 62.9664 81.8347H18.834C12.4734 81.8347 7.28906 76.649 7.28906 70.2868V11.1964C7.28906 4.8341 12.4734 -0.351562 18.834 -0.351562H60.396Z" fill="#9294FD"/>
<path opacity="0.9487" d="M60.3915 -0.308594C61.5678 -0.308594 62.6569 0.170764 63.4846 0.955151L73.1998 10.6728C74.0276 11.5008 74.4633 12.5902 74.4633 13.7668V70.2862C74.4633 76.6484 69.3225 81.7906 62.9618 81.7906H18.8295C12.4689 81.7906 7.32812 76.6484 7.32812 70.2862V11.1958C7.32812 4.83351 12.4689 -0.308594 18.8295 -0.308594H60.3915Z" fill="#9193FD"/>
<path opacity="0.9573" d="M60.3948 -0.261719C61.5275 -0.261719 62.6166 0.174062 63.4444 1.00203L73.1596 10.7197C73.9874 11.5477 74.423 12.6371 74.423 13.7701V70.2895C74.423 76.6082 69.2822 81.7503 62.9651 81.7503H18.8328C12.5157 81.7503 7.375 76.6082 7.375 70.2895V11.1991C7.375 4.88039 12.5157 -0.261719 18.8328 -0.261719H60.3948Z" fill="#9092FD"/>
<path opacity="0.9658" d="M60.3903 -0.21875C61.523 -0.21875 62.6121 0.217031 63.3963 1.04499L73.1116 10.7627C73.8958 11.5471 74.3749 12.6365 74.3749 13.7695V70.2889C74.3749 76.564 69.2777 81.7061 62.9607 81.7061H18.8283C12.5548 81.7061 7.41406 76.6076 7.41406 70.2889V11.1985C7.41406 4.92337 12.5113 -0.21875 18.8283 -0.21875H60.3903Z" fill="#8F91FD"/>
<path opacity="0.9744" d="M60.3891 -0.175781C61.5219 -0.175781 62.5675 0.259957 63.3517 1.04434L73.0668 10.762C73.851 11.5464 74.2866 12.6358 74.2866 13.7253V70.2447C74.2866 76.5198 69.1894 81.5747 62.9595 81.5747H18.8272C12.5537 81.5747 7.5 76.4762 7.5 70.2447V11.1542C7.5 4.87915 12.5972 -0.175781 18.8272 -0.175781H60.3891Z" fill="#8E90FD"/>
<path opacity="0.9829" d="M60.3924 -0.0898438C61.4816 -0.0898438 62.5271 0.345948 63.3113 1.13033L73.0265 10.848C73.8107 11.6324 74.2464 12.6783 74.2464 13.7677V70.2871C74.2464 76.5186 69.1927 81.5735 62.9628 81.5735H18.8304C12.6005 81.5735 7.54688 76.5186 7.54688 70.2871V11.1966C7.54688 4.9651 12.6005 -0.0898438 18.8304 -0.0898438H60.3924Z" fill="#8D8FFD"/>
<path opacity="0.9915" d="M60.3879 -0.046875C61.477 -0.046875 62.5225 0.388917 63.2632 1.1733L72.9784 10.8909C73.7626 11.6753 74.1982 12.6777 74.1982 13.7671V70.2865C74.1982 76.4744 69.1881 81.5294 62.9582 81.5294H18.8259C12.6395 81.5294 7.58594 76.518 7.58594 70.2865V11.196C7.58594 5.00808 12.5959 -0.046875 18.8259 -0.046875H60.3879Z" fill="#8C8EFD"/>
<path d="M60.3912 0H18.8292C12.6429 0 7.63281 5.01139 7.63281 11.1993V70.2898C7.63281 76.4777 12.6429 81.4891 18.8292 81.4891H62.9616C69.148 81.4891 74.158 76.4777 74.158 70.2898V13.7704C74.158 12.681 73.7224 11.6786 72.9818 10.8943L63.2665 1.17661C62.4823 0.435802 61.4368 0 60.3912 0Z" fill="#8B8DFD"/>
</g>
<g opacity="0.8">
<path opacity="0.8" d="M88.1424 28.1935V84.6257C88.1424 90.8137 83.1323 95.825 76.946 95.825H32.8136C26.6273 95.825 21.6172 90.8137 21.6172 84.6257V25.5353C21.6172 19.3473 26.6273 14.3359 32.8136 14.3359H74.2884C79.7341 19.7831 82.7402 22.7899 88.1424 28.1935Z" fill="url(#paint0_linear_1_74135)"/>
</g>
<path d="M63.834 31.81H34.4706C32.6408 31.81 31.2031 30.3284 31.2031 28.5417C31.2031 26.7115 32.6844 25.2734 34.4706 25.2734H63.834C65.6638 25.2734 67.1014 26.7551 67.1014 28.5417C67.145 30.3284 65.6638 31.81 63.834 31.81Z" fill="white"/>
<path d="M75.2919 44.0131H34.4706C32.6408 44.0131 31.2031 42.5315 31.2031 40.7448C31.2031 38.9146 32.6844 37.4766 34.4706 37.4766H75.2919C77.1216 37.4766 78.5593 38.9582 78.5593 40.7448C78.6029 42.5751 77.1216 44.0131 75.2919 44.0131Z" fill="white"/>
<path d="M75.2919 56.2553H34.4706C32.6408 56.2553 31.2031 54.7737 31.2031 52.987C31.2031 51.1568 32.6844 49.7188 34.4706 49.7188H75.2919C77.1216 49.7188 78.5593 51.2004 78.5593 52.987C78.6029 54.7737 77.1216 56.2553 75.2919 56.2553Z" fill="white"/>
<path d="M75.2919 68.5444H34.4706C32.6408 68.5444 31.2031 67.0627 31.2031 65.2761C31.2031 63.4459 32.6844 62.0078 34.4706 62.0078H75.2919C77.1216 62.0078 78.5593 63.4894 78.5593 65.2761C78.6029 67.0627 77.1216 68.5444 75.2919 68.5444Z" fill="white"/>
<path d="M75.2919 80.7905H34.4706C32.6408 80.7905 31.2031 79.3088 31.2031 77.5222C31.2031 75.6919 32.6844 74.2539 34.4706 74.2539H75.2919C77.1216 74.2539 78.5593 75.7355 78.5593 77.5222C78.6029 79.3088 77.1216 80.7905 75.2919 80.7905Z" fill="white"/>
<path d="M74.3281 14.3359L88.1385 28.1935H74.3281V14.3359Z" fill="#8B8DFD"/>
<path d="M76.9874 96.0018H32.8551C26.5816 96.0018 21.4844 90.9033 21.4844 84.6282V25.5377C21.4844 19.2626 26.5816 14.1641 32.8551 14.1641H74.417L74.4606 14.2077L88.3581 28.1087V84.6282C88.3146 90.9033 83.2173 96.0018 76.9874 96.0018ZM32.8551 14.5563C26.7995 14.5563 21.8329 19.4805 21.8329 25.5813V84.6717C21.8329 90.7289 26.7559 95.6967 32.8551 95.6967H76.9874C83.043 95.6967 88.0096 90.7725 88.0096 84.6717V28.283L74.2863 14.5563H32.8551Z" fill="url(#paint1_linear_1_74135)"/>
</g>
<defs>
<linearGradient id="paint0_linear_1_74135" x1="54.9058" y1="95.8442" x2="54.9058" y2="14.3574" gradientUnits="userSpaceOnUse">
<stop stop-color="#F2F8FF"/>
<stop offset="1" stop-color="#D9F0FF"/>
</linearGradient>
<linearGradient id="paint1_linear_1_74135" x1="54.9038" y1="96.0222" x2="54.9038" y2="14.1844" gradientUnits="userSpaceOnUse">
<stop stop-color="#E6F1FF"/>
<stop offset="1" stop-color="#F7FBFF"/>
</linearGradient>
<clipPath id="clip0_1_74135">
<rect width="96" height="96" fill="white"/>
</clipPath>
</defs>
</svg>
