<svg width="305" height="96" viewBox="0 0 305 96" fill="none" xmlns="http://www.w3.org/2000/svg">
<path d="M153.058 23.957C145.155 23.957 138.734 30.3782 138.734 38.2812V59.0618C138.734 59.7674 139.158 60.3672 139.757 60.6141V72.7861C139.757 77.6902 142.439 81.9945 146.39 84.2878V89.333C146.39 93.0022 149.389 96.0011 153.058 96.0011C156.728 96.0011 159.727 93.0022 159.727 89.333V84.3584C163.678 82.0651 166.359 77.7608 166.359 72.8567V60.6847C166.959 60.4377 167.383 59.838 167.383 59.1323V38.3517C167.383 30.3782 160.961 23.957 153.058 23.957Z" fill="#8B8DFD"/>
<mask id="mask0_340_3970" style="mask-type:luminance" maskUnits="userSpaceOnUse" x="117" y="0" width="72" height="78">
<path d="M188.119 61.9172L175.488 42.9359V25.3659C175.488 22.367 174.324 19.4739 172.278 17.3218L157.848 2.11561C155.237 -0.601037 150.897 -0.601037 148.322 2.11561L133.892 17.3218C131.81 19.5092 130.681 22.367 130.681 25.3659V42.9359L118.051 61.9172C115.934 65.0925 118.227 69.3262 122.002 69.3262H130.681V70.808C130.681 74.6183 133.786 77.7231 137.596 77.7231H168.644C172.454 77.7231 175.559 74.6183 175.559 70.808V69.3262H184.238C187.943 69.3262 190.236 65.0925 188.119 61.9172Z" fill="white"/>
</mask>
<g mask="url(#mask0_340_3970)">
<path opacity="0.052632" d="M134.039 38.3134C134.039 27.8349 142.577 19.2969 153.056 19.2969C163.534 19.2969 172.072 27.8349 172.072 38.3134V59.094C172.072 59.7644 171.966 60.3994 171.755 60.9992C171.578 61.5637 171.331 62.1635 171.049 62.6574V72.8537C171.049 77.5108 169.214 81.9209 166.11 85.1668C165.58 85.7313 165.016 86.4016 164.416 86.8956V89.3652C164.416 95.61 159.336 100.69 153.091 100.69C146.846 100.69 141.766 95.61 141.766 89.3652V86.8956C141.166 86.4016 140.601 85.7313 140.072 85.1668C136.967 81.8856 135.133 77.4755 135.133 72.8537V62.6574C134.815 62.1635 134.604 61.5637 134.427 60.9992C134.216 60.3994 134.11 59.7644 134.11 59.094V38.3134H134.039Z" fill="#F9F9FF"/>
<path opacity="0.1053" d="M134.281 38.3124C134.281 27.975 142.678 19.5781 153.016 19.5781C163.353 19.5781 171.75 27.975 171.75 38.3124V59.093C171.75 59.7633 171.609 60.3984 171.397 60.9629C171.256 61.4921 171.009 62.1625 170.727 62.6211V72.8174C170.727 77.4745 168.857 81.8846 165.681 85.0952C165.188 85.6244 164.658 86.4006 164.094 86.8592V89.3289C164.094 95.4326 159.119 100.407 153.016 100.407C146.912 100.407 141.937 95.4326 141.937 89.3289V86.8592C141.373 86.4006 140.843 85.6244 140.35 85.0952C137.174 81.8846 135.304 77.4745 135.304 72.8174V62.6211C135.022 62.1625 134.775 61.4921 134.634 60.9629C134.387 60.3984 134.281 59.7281 134.281 59.093V38.3124Z" fill="#F3F3FF"/>
<path opacity="0.1579" d="M134.562 38.3155C134.562 28.1192 142.854 19.8281 153.05 19.8281C163.246 19.8281 171.537 28.1192 171.537 38.3155V59.0961C171.537 59.7664 171.396 60.4014 171.149 60.9659C171.008 61.4599 170.796 62.2008 170.514 62.6242V72.8204C170.514 77.5128 168.574 81.8877 165.363 85.063C164.904 85.5569 164.41 86.4389 163.881 86.8623V89.332C163.881 95.2945 159.048 100.163 153.05 100.163C147.087 100.163 142.219 95.3298 142.219 89.332V86.8623C141.689 86.4036 141.195 85.5569 140.737 85.063C137.526 81.8877 135.621 77.5128 135.621 72.8204V62.6242C135.339 62.2008 135.127 61.4599 134.986 60.9659C134.739 60.4014 134.598 59.7664 134.598 59.0961V38.3155H134.562Z" fill="#EDEDFF"/>
<path opacity="0.2105" d="M134.812 38.3146C134.812 28.2594 142.998 20.0742 153.053 20.0742C163.108 20.0742 171.293 28.2594 171.293 38.3146V59.0952C171.293 59.7655 171.117 60.4006 170.87 60.9298C170.729 61.3884 170.517 62.1999 170.27 62.6233V72.8195C170.27 77.5119 168.294 81.8868 165.048 85.0268C164.625 85.4855 164.131 86.4733 163.637 86.8967V89.4017C163.637 95.2231 158.909 99.9507 153.088 99.9507C147.267 99.9507 142.539 95.2231 142.539 89.4017V86.8967C142.045 86.4733 141.586 85.5208 141.128 85.0268C137.882 81.9221 135.906 77.5472 135.906 72.8548V62.6586C135.659 62.2705 135.448 61.4237 135.306 60.9651C135.024 60.4359 134.848 59.8008 134.848 59.1304V38.3146H134.812Z" fill="#E7E7FF"/>
<path opacity="0.2632" d="M135.055 38.3136C135.055 28.3996 143.099 20.3555 153.013 20.3555C162.927 20.3555 170.971 28.3996 170.971 38.3136V59.0942C170.971 59.7645 170.795 60.3996 170.477 60.9288C170.336 61.3522 170.16 62.2342 169.913 62.6223V72.8538C169.913 77.5462 167.902 81.9563 164.585 84.9905C164.162 85.4139 163.738 86.5076 163.28 86.8957V89.4007C163.28 95.0809 158.658 99.7028 152.978 99.7028C147.297 99.7028 142.676 95.0809 142.676 89.4007V86.8957C142.217 86.5076 141.758 85.4492 141.37 84.9905C138.054 81.9211 136.043 77.5462 136.043 72.8538V62.6223C135.796 62.2342 135.619 61.3522 135.478 60.9288C135.196 60.3996 134.984 59.7645 134.984 59.0942V38.3136H135.055Z" fill="#E0E1FE"/>
<path opacity="0.3158" d="M135.344 38.3127C135.344 28.5398 143.282 20.6016 153.055 20.6016C162.828 20.6016 170.766 28.5398 170.766 38.3127V59.0933C170.766 59.7636 170.555 60.3987 170.237 60.8926C170.131 61.2807 169.955 62.2686 169.708 62.5861V72.8176C169.708 77.5453 167.662 81.9202 164.275 84.9191C163.887 85.3425 163.498 86.5067 163.075 86.8595V89.3645C163.075 94.9036 158.559 99.4196 153.02 99.4196C147.481 99.4196 142.965 94.9036 142.965 89.3645V86.8595C142.541 86.5067 142.118 85.3425 141.73 84.9191C138.378 81.9202 136.332 77.5453 136.332 72.8176V62.5861C136.12 62.2333 135.944 61.2807 135.803 60.8926C135.485 60.3987 135.273 59.7636 135.273 59.0933V38.3127H135.344Z" fill="#DADBFE"/>
<path opacity="0.3684" d="M135.586 38.3157C135.586 28.684 143.418 20.8516 153.05 20.8516C162.682 20.8516 170.514 28.684 170.514 38.3157V59.0963C170.514 59.7667 170.303 60.4017 169.95 60.8957C169.844 61.2485 169.668 62.3069 169.456 62.6244V72.856C169.456 77.5836 167.339 81.9585 163.952 84.9221C163.599 85.3102 163.246 86.5803 162.823 86.8979V89.4028C162.823 94.8008 158.448 99.1757 153.05 99.1757C147.652 99.1757 143.277 94.8008 143.277 89.4028V86.8979C142.889 86.5803 142.501 85.2749 142.148 84.9221C138.761 81.9585 136.644 77.6189 136.644 72.856V62.6244C136.433 62.3069 136.292 61.2837 136.186 60.9309C135.833 60.437 135.621 59.8372 135.621 59.1316V38.3157H135.586Z" fill="#D4D5FE"/>
<path opacity="0.4211" d="M135.867 38.3147C135.867 28.8241 143.558 21.1328 153.049 21.1328C162.54 21.1328 170.231 28.8241 170.231 38.3147V59.0953C170.231 59.7657 169.984 60.4007 169.631 60.8594C169.525 61.2122 169.384 62.3059 169.208 62.5882V72.8197C169.208 77.5826 167.056 81.9222 163.598 84.8153C163.281 85.1681 162.928 86.5441 162.575 86.8263V89.3313C162.575 94.5882 158.306 98.8572 153.049 98.8572C147.792 98.8572 143.523 94.5882 143.523 89.3313V86.8263C143.17 86.5088 142.818 85.1328 142.5 84.8153C139.042 81.9222 136.89 77.5474 136.89 72.8197V62.5882C136.714 62.3059 136.573 61.2122 136.467 60.8594C136.114 60.4007 135.867 59.7657 135.867 59.0953V38.3147Z" fill="#CECFFE"/>
<path opacity="0.4737" d="M136.117 38.3139C136.117 28.9644 143.703 21.3789 153.052 21.3789C162.402 21.3789 169.987 28.9644 169.987 38.3139V59.0945C169.987 59.7648 169.74 60.3998 169.352 60.8232C169.246 61.1407 169.14 62.305 168.964 62.552V72.8188C168.964 77.5818 166.777 81.9566 163.284 84.7791C163.001 85.0966 162.684 86.5784 162.366 86.8607V89.3657C162.366 94.4814 158.203 98.6093 153.123 98.6093C148.042 98.6093 143.879 94.4462 143.879 89.3657V86.8607C143.562 86.5784 143.244 85.0966 142.927 84.7791C139.434 81.9213 137.246 77.5818 137.246 72.8188V62.552C137.07 62.2698 136.929 61.1407 136.858 60.8232C136.47 60.3646 136.223 59.7648 136.223 59.0592V38.3139H136.117Z" fill="#C8C9FE"/>
<path opacity="0.5263" d="M136.367 38.3129C136.367 29.1045 143.847 21.6602 153.02 21.6602C162.193 21.6602 169.673 29.1398 169.673 38.3129V59.0935C169.673 59.7638 169.39 60.3988 169.002 60.8222C168.932 61.1045 168.791 62.3393 168.649 62.5863V72.8531C168.649 77.6513 166.391 81.9909 162.863 84.7781C162.616 85.0604 162.334 86.648 162.017 86.895V89.3999C162.017 94.3746 157.995 98.3966 153.02 98.3966C148.045 98.3966 144.023 94.3746 144.023 89.3999V86.895C143.706 86.648 143.459 85.0604 143.176 84.7781C139.648 81.9909 137.39 77.6513 137.39 72.8531V62.5863C137.249 62.3393 137.108 61.1045 137.037 60.8575C136.614 60.4341 136.367 59.7991 136.367 59.1287V38.3129Z" fill="#C2C3FE"/>
<path opacity="0.5789" d="M136.648 38.3159C136.648 29.2486 143.987 21.9102 153.054 21.9102C162.121 21.9102 169.46 29.2486 169.46 38.3159V59.0965C169.46 59.7668 169.178 60.4019 168.754 60.79C168.684 61.0369 168.578 62.3423 168.437 62.554V72.8208C168.437 77.6191 166.144 81.9587 162.545 84.6753C162.298 84.9223 162.051 86.6158 161.804 86.8275V89.3324C161.804 94.1659 157.888 98.0821 153.054 98.0821C148.221 98.0821 144.305 94.1659 144.305 89.3324V86.8275C144.022 86.6158 143.775 84.9223 143.564 84.6753C139.965 81.9587 137.672 77.6191 137.672 72.8208V62.554C137.531 62.3423 137.425 61.0369 137.354 60.79C136.931 60.4019 136.648 59.7668 136.648 59.0612V38.3159Z" fill="#BCBDFE"/>
<path opacity="0.6316" d="M136.891 38.315C136.891 29.3889 144.123 22.1562 153.049 22.1562C161.975 22.1562 169.208 29.3889 169.208 38.315V59.0956C169.208 59.7659 168.891 60.401 168.432 60.7891C168.361 61.0008 168.291 62.3768 168.15 62.5532V72.82C168.15 77.6182 165.821 81.9578 162.187 84.6391C161.976 84.8508 161.764 86.6502 161.517 86.8266V89.3315C161.517 94.0239 157.706 97.799 153.049 97.799C148.392 97.799 144.582 93.9886 144.582 89.3315V86.8266C144.335 86.6502 144.123 84.8508 143.912 84.6391C140.278 81.9578 137.949 77.6182 137.949 72.82V62.5532C137.843 62.3768 137.737 61.0008 137.667 60.7891C137.208 60.401 136.891 59.8012 136.891 59.0956V38.315Z" fill="#B6B7FE"/>
<path opacity="0.6842" d="M137.141 38.314C137.141 29.529 144.268 22.4375 153.017 22.4375C161.767 22.4375 168.894 29.5643 168.894 38.314V59.0946C168.894 59.8002 168.576 60.4 168.082 60.7528C168.012 60.9292 167.941 62.3757 167.836 62.5169V72.7837C167.836 77.6172 165.436 81.9215 161.767 84.5676C161.591 84.744 161.414 86.6492 161.203 86.7903V89.2953C161.203 93.8465 157.533 97.5158 152.982 97.5158C148.431 97.5158 144.762 93.8465 144.762 89.2953V86.7903C144.55 86.6139 144.374 84.744 144.197 84.5323C140.528 81.9215 138.129 77.5819 138.129 72.7484V62.4463C138.023 62.2699 137.952 60.8587 137.882 60.6823C137.423 60.3295 137.07 59.6944 137.07 59.024V38.314H137.141Z" fill="#B0B1FE"/>
<path opacity="0.7368" d="M137.422 38.3131C137.422 29.6693 144.408 22.6836 153.052 22.6836C161.696 22.6836 168.681 29.6693 168.681 38.3131V59.0937C168.681 59.7994 168.329 60.3991 167.835 60.7519C167.799 60.8931 167.729 62.4102 167.623 62.5513V72.8534C167.623 77.6869 165.188 82.0265 161.449 84.602C161.308 84.7431 161.131 86.7541 160.99 86.8953V89.4002C160.99 93.8104 157.427 97.3738 153.017 97.3738C148.606 97.3738 145.043 93.8104 145.043 89.4002V86.8953C144.867 86.7541 144.725 84.7784 144.584 84.602C140.844 82.0265 138.41 77.7222 138.41 72.8534V62.5513C138.339 62.4102 138.269 60.9283 138.198 60.7872C137.705 60.4344 137.352 59.8346 137.352 59.129V38.3131H137.422Z" fill="#AAABFE"/>
<path opacity="0.7895" d="M137.672 38.3162C137.672 29.8134 144.552 22.9336 153.054 22.9336C161.557 22.9336 168.437 29.8134 168.437 38.3162V59.0968C168.437 59.8024 168.084 60.4022 167.555 60.7197C167.52 60.8255 167.449 62.4132 167.378 62.519V72.8211C167.378 77.6899 164.909 81.9942 161.134 84.4992C161.028 84.6403 160.887 86.7219 160.746 86.8277V89.368C160.746 93.637 157.288 97.0593 153.054 97.0593C148.785 97.0593 145.363 93.6017 145.363 89.368V86.863C145.222 86.7572 145.116 84.6756 144.975 84.5345C141.2 82.0295 138.73 77.6899 138.73 72.8564V62.5543C138.66 62.4485 138.624 60.8961 138.589 60.755C138.06 60.4374 137.707 59.8024 137.707 59.132V38.3162H137.672Z" fill="#A3A5FD"/>
<path opacity="0.8421" d="M137.914 38.3152C137.914 29.9535 144.688 23.2148 153.014 23.2148C161.341 23.2148 168.115 29.9888 168.115 38.3152V59.0958C168.115 59.8014 167.727 60.4012 167.197 60.7187C167.162 60.8245 167.127 62.4475 167.092 62.518V72.8201C167.092 77.6889 164.551 81.9932 160.741 84.4629C160.67 84.5687 160.565 86.7562 160.459 86.8267V89.367C160.459 93.4596 157.107 96.8113 153.014 96.8113C148.922 96.8113 145.57 93.4596 145.57 89.367V86.862C145.464 86.7914 145.394 84.604 145.288 84.4982C141.477 82.0285 138.937 77.7242 138.937 72.8554V62.5533C138.902 62.4828 138.831 60.8598 138.831 60.754C138.302 60.4364 137.914 59.8367 137.914 59.131V38.3152Z" fill="#9D9FFD"/>
<path opacity="0.8947" d="M138.195 38.3143C138.195 30.1291 144.863 23.4609 153.049 23.4609C161.234 23.4609 167.902 30.1291 167.902 38.3143V59.0949C167.902 59.8005 167.514 60.4003 166.949 60.6825C166.914 60.7531 166.914 62.4466 166.879 62.5171V72.8192C166.879 77.688 164.303 81.9923 160.422 84.4267C160.352 84.4973 160.317 86.7906 160.246 86.8259V89.3661C160.246 93.3176 157.035 96.5634 153.049 96.5634C149.062 96.5634 145.851 93.3529 145.851 89.3661V86.8259C145.781 86.7553 145.71 84.462 145.675 84.4267C141.794 82.0276 139.218 77.7233 139.218 72.8192V62.4819C139.183 62.4113 139.148 60.7178 139.148 60.6825C138.583 60.4003 138.195 59.8005 138.195 59.0949V38.3143Z" fill="#9799FD"/>
<path opacity="0.9474" d="M138.445 38.3134C138.445 30.2693 144.972 23.707 153.052 23.707C161.096 23.707 167.658 30.2341 167.658 38.3134V59.094C167.658 59.7997 167.235 60.3994 166.67 60.6817C166.67 60.717 166.635 62.481 166.635 62.5163V72.8537C166.635 77.7578 164.024 82.062 160.108 84.3906C160.073 84.4259 160.037 86.825 160.002 86.825V89.3652C160.002 93.1756 156.897 96.2803 153.087 96.2803C149.277 96.2803 146.172 93.1756 146.172 89.3652V86.825C146.137 86.7897 146.101 84.3906 146.066 84.3553C142.15 81.9915 139.539 77.6872 139.539 72.8184V62.481C139.539 62.4457 139.504 60.6817 139.504 60.6464C138.904 60.3641 138.516 59.7644 138.516 59.0587V38.3134H138.445Z" fill="#9193FD"/>
<path d="M153.051 23.9531C145.148 23.9531 138.727 30.3743 138.727 38.2773V59.0579C138.727 59.7635 139.15 60.3633 139.75 60.6102V72.7822C139.75 77.6863 142.431 81.9906 146.382 84.2839V89.3291C146.382 92.9983 149.381 95.9972 153.051 95.9972C156.72 95.9972 159.719 92.9983 159.719 89.3291V84.3544C163.67 82.0612 166.352 77.7569 166.352 72.8528V60.6808C166.951 60.4338 167.375 59.8341 167.375 59.1284V38.3478C167.375 30.3743 160.954 23.9531 153.051 23.9531Z" fill="#8B8DFD"/>
</g>
<g opacity="0.8">
<path opacity="0.8" d="M188.127 61.9172L175.496 42.9359V25.3659C175.496 22.367 174.332 19.4739 172.285 17.3218L157.855 2.11561C155.245 -0.601037 150.905 -0.601037 148.33 2.11561L133.9 17.3218C131.818 19.5092 130.689 22.367 130.689 25.3659V42.9359L118.058 61.9172C115.941 65.0925 118.235 69.3262 122.01 69.3262H130.689V70.808C130.689 74.6183 133.794 77.7231 137.604 77.7231H168.651C172.462 77.7231 175.567 74.6183 175.567 70.808V69.3262H184.246C187.95 69.3262 190.244 65.0925 188.127 61.9172Z" fill="url(#paint0_linear_340_3970)"/>
</g>
<path d="M155.698 47.6312V68.306C155.698 69.7878 154.499 70.952 153.052 70.952C151.571 70.952 150.406 69.7525 150.406 68.306V47.6312C150.406 46.1494 151.606 44.9851 153.052 44.9851C154.499 44.9499 155.698 46.1494 155.698 47.6312Z" fill="white"/>
<path d="M153.228 35.6765C157.086 35.6137 160.162 32.4355 160.099 28.5778C160.037 24.7202 156.858 21.6438 153.001 21.7066C149.143 21.7694 146.067 24.9476 146.129 28.8053C146.192 32.663 149.37 35.7393 153.228 35.6765Z" fill="white"/>
<path d="M168.578 77.9008H137.531C133.65 77.9008 130.475 74.7255 130.475 70.8445V69.5039H121.937C120.102 69.5039 118.479 68.5512 117.597 66.9283C116.715 65.3054 116.821 63.4355 117.844 61.8831L130.475 42.9371V25.4377C130.475 22.4035 131.639 19.5105 133.721 17.2878L148.151 2.08159C149.421 0.740902 151.15 0 153.019 0C154.889 0 156.618 0.740902 157.888 2.08159L172.318 17.2878C174.435 19.5105 175.564 22.4035 175.564 25.4377V42.9371L188.195 61.8831C189.218 63.4002 189.288 65.3054 188.442 66.9283C187.56 68.5512 185.972 69.5039 184.102 69.5039H175.564V70.8445C175.599 74.7255 172.459 77.9008 168.578 77.9008ZM153.055 0.246972C151.291 0.246972 149.632 0.952589 148.398 2.25799L133.968 17.4642C131.921 19.6163 130.792 22.4388 130.792 25.4377V43.043L130.757 43.0783L118.126 62.0595C117.174 63.5061 117.068 65.2701 117.915 66.8225C118.726 68.3396 120.243 69.2569 122.007 69.2569H130.827V70.8798C130.827 74.6196 133.862 77.6538 137.602 77.6538H168.649C172.389 77.6538 175.423 74.6196 175.423 70.8798V69.1863H184.243C185.972 69.1863 187.489 68.269 188.336 66.7519C189.182 65.2348 189.077 63.4355 188.124 61.989L175.458 42.9724V25.3671C175.458 22.4035 174.329 19.581 172.283 17.3936L157.853 2.18743C156.477 0.952595 154.819 0.246972 153.055 0.246972Z" fill="url(#paint1_linear_340_3970)"/>
<defs>
<linearGradient id="paint0_linear_340_3970" x1="153.046" y1="77.7468" x2="153.046" y2="0.100071" gradientUnits="userSpaceOnUse">
<stop stop-color="#F2F8FF"/>
<stop offset="1" stop-color="#D9F0FF"/>
</linearGradient>
<linearGradient id="paint1_linear_340_3970" x1="153.044" y1="77.8902" x2="153.044" y2="-0.0409276" gradientUnits="userSpaceOnUse">
<stop stop-color="#E6F1FF"/>
<stop offset="1" stop-color="#F7FBFF"/>
</linearGradient>
</defs>
</svg>
