<svg width="305" height="96" viewBox="0 0 305 96" fill="none" xmlns="http://www.w3.org/2000/svg">
<path d="M86.8203 37.0898C86.8203 32.6716 90.402 29.0898 94.8203 29.0898H210.82C215.239 29.0898 218.82 32.6716 218.82 37.0898V78.5444C218.82 82.9627 215.239 86.5444 210.82 86.5444H94.8203C90.402 86.5444 86.8203 82.9627 86.8203 78.5444L86.8203 37.0898Z" fill="#8B8DFD"/>
<g filter="url(#filter0_b_416_6646)">
<path d="M108.633 12.3611C108.633 7.41512 113.076 3.65415 117.954 4.47096L152.996 10.3387L188.039 4.47096C192.917 3.65414 197.36 7.41514 197.36 12.3611V68.7098C197.36 72.6182 194.536 75.9545 190.681 76.5999L152.996 82.9102L115.312 76.5999C111.457 75.9545 108.633 72.6182 108.633 68.7098V12.3611Z" fill="url(#paint0_linear_416_6646)" fill-opacity="0.4"/>
<path d="M152.955 10.5853L152.996 10.5922L153.038 10.5853L188.08 4.71753C192.806 3.92624 197.11 7.5697 197.11 12.3611V68.7098C197.11 72.4961 194.374 75.7281 190.64 76.3534L152.996 82.6567L115.353 76.3534C111.619 75.7281 108.883 72.4961 108.883 68.7098V12.3611C108.883 7.56969 113.187 3.92624 117.913 4.71753L152.955 10.5853Z" stroke="#FAFAFA" stroke-opacity="0.2" stroke-width="0.5"/>
</g>
<path d="M125.985 21.8145C124.388 21.8145 123.094 23.1091 123.094 24.7061C123.094 26.3031 124.388 27.5977 125.985 27.5977H143.421C145.018 27.5977 146.312 26.3031 146.312 24.7061C146.312 23.1091 145.018 21.8145 143.421 21.8145H125.985Z" fill="white"/>
<path d="M164.876 21.8145C163.279 21.8145 161.984 23.1091 161.984 24.7061C161.984 26.3031 163.279 27.5977 164.876 27.5977H182.311C183.908 27.5977 185.203 26.3031 185.203 24.7061C185.203 23.1091 183.908 21.8145 182.311 21.8145H164.876Z" fill="white"/>
<path d="M164.876 35.6973C163.279 35.6973 161.984 36.9919 161.984 38.5889C161.984 40.1859 163.279 41.4805 164.876 41.4805H182.311C183.908 41.4805 185.203 40.1859 185.203 38.5889C185.203 36.9919 183.908 35.6973 182.311 35.6973H164.876Z" fill="white"/>
<path d="M125.985 35.6973C124.388 35.6973 123.094 36.9919 123.094 38.5889C123.094 40.1859 124.388 41.4805 125.985 41.4805H143.421C145.018 41.4805 146.312 40.1859 146.312 38.5889C146.312 36.9919 145.018 35.6973 143.421 35.6973H125.985Z" fill="white"/>
<path d="M125.985 48.9981C124.388 48.9981 123.094 50.2927 123.094 51.8897C123.094 53.4867 124.388 54.7812 125.985 54.7812H143.421C145.018 54.7812 146.312 53.4867 146.312 51.8897C146.312 50.2927 145.018 48.9981 143.421 48.9981H125.985Z" fill="white"/>
<defs>
<filter id="filter0_b_416_6646" x="48.6328" y="-55.6406" width="208.727" height="198.551" filterUnits="userSpaceOnUse" color-interpolation-filters="sRGB">
<feFlood flood-opacity="0" result="BackgroundImageFix"/>
<feGaussianBlur in="BackgroundImageFix" stdDeviation="30"/>
<feComposite in2="SourceAlpha" operator="in" result="effect1_backgroundBlur_416_6646"/>
<feBlend mode="normal" in="SourceGraphic" in2="effect1_backgroundBlur_416_6646" result="shape"/>
</filter>
<linearGradient id="paint0_linear_416_6646" x1="153.036" y1="82.8852" x2="153.036" y2="2.89853" gradientUnits="userSpaceOnUse">
<stop stop-color="#D9F0FF"/>
<stop offset="1" stop-color="#F2F8FF"/>
</linearGradient>
</defs>
</svg>
