<svg width="87" height="51" viewBox="0 0 87 51" fill="none" xmlns="http://www.w3.org/2000/svg">
<path d="M87.0005 17.7557C87.0005 7.84554 79.126 0 64.2782 0C49.4304 0 41.5078 7.84554 41.5078 17.7557C41.5078 27.6222 49.3302 35.5114 64.2782 35.5114C69.0485 35.5114 73.0819 34.7134 76.3623 33.3078L78.5091 35.5114H87.0005L81.6854 29.9647C85.2101 26.7963 87.0005 22.5043 87.0005 17.7557ZM64.2782 29.258C53.7642 29.258 48.385 24.1084 48.385 17.7557C48.385 11.3554 53.8643 6.15812 64.2782 6.15812C74.6921 6.15812 80.1233 11.3554 80.1233 17.7557C80.1233 20.5548 79.0859 23.1197 77.0312 25.1129L72.389 20.2729L72.2889 20.269L69.1887 17.0569H60.5372L71.4557 28.2694C69.421 28.9046 67.0258 29.258 64.2782 29.258Z" fill="#350587"/>
<path d="M40.3658 12.1977C40.3658 5.97205 35.3311 0.933594 29.0027 0.933594H0V35.512H6.72897V23.561H25.518L37.1055 35.5159H45.5968L33.3204 22.7113C37.474 21.004 40.3658 16.9145 40.3658 12.1977ZM6.72897 7.35773H28.4579C31.1976 7.35773 33.3925 9.58116 33.3925 12.2493C33.3925 14.965 31.2016 17.1408 28.4579 17.1408H6.72897V7.35773Z" fill="#350587"/>
<g opacity="0.5">
<path d="M37.9309 48.1763V49.2444H37.0938V41.375H37.9309V44.7935C38.3875 44.1265 39.0524 43.5548 40.0857 43.5548C41.4355 43.5548 42.7733 44.6109 42.7733 46.4452V46.4651C42.7733 48.2875 41.4476 49.3635 40.0857 49.3635C39.0403 49.3635 38.3674 48.7997 37.9309 48.1763ZM41.9122 46.473V46.4532C41.9122 45.139 40.999 44.2972 39.9335 44.2972C38.8881 44.2972 37.8988 45.1707 37.8988 46.4413V46.4611C37.8988 47.7555 38.8881 48.617 39.9335 48.617C41.019 48.617 41.9122 47.819 41.9122 46.473Z" fill="#350587"/>
<path d="M48.2547 43.668H49.1479L46.7888 49.4251C46.3121 50.5805 45.7674 50.9974 44.9183 50.9974C44.4497 50.9974 44.1012 50.9021 43.7207 50.7155L44.0051 50.0564C44.2774 50.1953 44.5258 50.2628 44.8862 50.2628C45.3869 50.2628 45.7033 50.0048 46.0398 49.2186L43.4844 43.668H44.4096L46.4523 48.3134L48.2547 43.668Z" fill="#350587"/>
<path d="M56.6874 41.6406H57.4924L60.9611 49.24H60.0358L59.1426 47.2469H55.0011L54.0999 49.24H53.2188L56.6874 41.6406ZM58.8062 46.4845L57.0759 42.6372L55.3376 46.4845H58.8062Z" fill="#350587"/>
<path d="M62.4688 41.6953H63.3379L66.1096 45.8126L68.8813 41.6953H69.7505V49.2431H68.8933V43.1286L66.1216 47.1705H66.0776L63.3059 43.1405V49.2431H62.4688V41.6953Z" fill="#350587"/>
<path d="M71.9062 41.6953H74.5498C76.941 41.6953 78.5952 43.3232 78.5952 45.4474V45.4672C78.5952 47.5914 76.941 49.2391 74.5498 49.2391H71.9062V41.6953ZM72.7674 42.4815V48.453H74.5498C76.4763 48.453 77.702 47.1586 77.702 45.4871V45.4672C77.702 43.7957 76.4723 42.4815 74.5498 42.4815H72.7674Z" fill="#350587"/>
<path d="M80.0703 45.4931V45.4732C80.0703 43.4046 81.6044 41.5703 83.8874 41.5703C85.1691 41.5703 85.9662 41.9356 86.7272 42.5748L86.1745 43.222C85.5857 42.7138 84.9328 42.3604 83.8594 42.3604C82.1731 42.3604 80.9675 43.7739 80.9675 45.4534V45.4732C80.9675 47.2718 82.1331 48.6099 83.9795 48.6099C84.8487 48.6099 85.6538 48.2763 86.1745 47.8555V45.9775H83.8594V45.2112H87.0036V48.2208C86.2986 48.8441 85.2292 49.3762 83.9475 49.3762C81.5523 49.3722 80.0703 47.649 80.0703 45.4931Z" fill="#350587"/>
</g>
</svg>
