<svg width="82" height="103" viewBox="0 0 82 103" fill="none" xmlns="http://www.w3.org/2000/svg">
<path d="M34.7267 102.999C20.6964 102.999 9.43852 97.7777 0.953125 87.3358L11.7909 77.1485C18.344 84.9587 26.0733 88.8639 34.9787 88.8639C39.4315 88.8639 43.0861 87.6329 45.9425 85.171C48.799 82.6242 50.2272 79.2709 50.2272 75.1111C50.2272 70.7815 48.3789 67.4282 44.6823 65.0511C41.0697 62.5892 36.1549 61.3582 29.9379 61.3582H22.7547L20.2343 51.553L44.0522 25.9575H5.86793V12.332H64.2155V24.0474L39.6415 49.5156C47.3708 50.6192 53.6298 53.2509 58.4186 57.4107C63.2074 61.4856 65.6018 67.3008 65.6018 74.8564C65.6018 83.0911 62.7033 89.8401 56.9063 95.1036C51.1934 100.367 43.8002 102.999 34.7267 102.999Z" fill="#8B8DFD"/>
<g filter="url(#filter0_b_1_61406)">
<path d="M42.8204 92.375C28.6375 92.375 17.2573 87.1132 8.67969 76.5897L19.6353 66.3229C26.2596 74.1941 34.0729 78.1297 43.0751 78.1297C47.5763 78.1297 51.2706 76.8892 54.1581 74.408C57.0456 71.8413 58.4894 68.4618 58.4894 64.2695C58.4894 59.9061 56.621 56.5266 52.8842 54.131C49.2323 51.6498 44.2641 50.4092 37.9795 50.4092H30.7183L28.1704 40.5274L52.2472 14.7319H13.6479V1H72.6297V12.8069L47.7886 38.474C55.6019 39.5863 61.9289 42.2385 66.7698 46.4308C71.6106 50.5376 74.031 56.3982 74.031 64.0128C74.031 72.3119 71.101 79.1136 65.2411 84.4182C59.466 89.7227 51.9925 92.375 42.8204 92.375Z" fill="url(#paint0_linear_1_61406)" fill-opacity="0.4"/>
<path d="M8.33779 76.2249L7.99732 76.5439L8.29212 76.9056C16.9695 87.5515 28.495 92.875 42.8204 92.875C52.0944 92.875 59.6954 90.1903 65.578 84.7877C71.5475 79.3833 74.531 72.4445 74.531 64.0128C74.531 56.2846 72.0691 50.2719 67.0952 46.0512C62.369 41.9589 56.2687 39.3242 48.8222 38.125L72.989 13.1546L73.1297 13.0092V12.8069V1V0.5H72.6297H13.6479H13.1479V1V14.7319V15.2319H13.6479H51.0966L27.8049 40.1862L27.6178 40.3867L27.6863 40.6522L30.2341 50.5341L30.3308 50.9092H30.7183H37.9795C44.2046 50.9092 49.0625 52.1389 52.6032 54.5445L52.6031 54.5447L52.6143 54.5519C56.2107 56.8575 57.9894 60.08 57.9894 64.2695C57.9894 68.3312 56.5979 71.5688 53.8289 74.0316C51.0486 76.4192 47.4779 77.6297 43.0751 77.6297C34.2424 77.6297 26.5623 73.7773 20.0178 66.0009L19.6782 65.5974L19.2934 65.958L8.33779 76.2249Z" stroke="#FAFAFA" stroke-opacity="0.2"/>
</g>
<defs>
<filter id="filter0_b_1_61406" x="-22.6875" y="-30" width="127.719" height="153.375" filterUnits="userSpaceOnUse" color-interpolation-filters="sRGB">
<feFlood flood-opacity="0" result="BackgroundImageFix"/>
<feGaussianBlur in="BackgroundImageFix" stdDeviation="15"/>
<feComposite in2="SourceAlpha" operator="in" result="effect1_backgroundBlur_1_61406"/>
<feBlend mode="normal" in="SourceGraphic" in2="effect1_backgroundBlur_1_61406" result="shape"/>
</filter>
<linearGradient id="paint0_linear_1_61406" x1="41.3846" y1="92.3465" x2="41.3846" y2="0.986719" gradientUnits="userSpaceOnUse">
<stop stop-color="#D9F0FF"/>
<stop offset="1" stop-color="#F2F8FF"/>
</linearGradient>
</defs>
</svg>
