<svg width="81" height="103" viewBox="0 0 81 103" fill="none" xmlns="http://www.w3.org/2000/svg">
<path d="M0.453125 103.001V90.7112L30.9096 64.7373C37.1441 59.5003 41.4409 55.1925 43.7999 51.8137C46.2431 48.3506 47.4648 44.6762 47.4648 40.7907C47.4648 36.5673 46.1168 33.2308 43.4208 30.7812C40.7248 28.2472 37.3126 26.9802 33.1844 26.9802C29.3088 26.9802 25.8125 28.036 22.6952 30.1477C19.6622 32.2594 16.3343 35.6381 12.7115 40.2839L1.71688 31.6681C6.26639 25.2486 10.9423 20.5606 15.7445 17.6042C20.6311 14.5634 26.8235 13.043 34.3217 13.043C42.9995 13.043 50.0344 15.4925 55.4264 20.3917C60.8184 25.2908 63.5145 31.7526 63.5145 39.7771C63.5145 43.2403 63.0932 46.3656 62.2507 49.153C61.4082 51.856 59.8917 54.6434 57.7012 57.5153C55.5949 60.3028 53.278 62.879 50.7505 65.2441C48.3073 67.5248 44.8951 70.4812 40.5141 74.1133L22.3161 89.3175H64.3991V103.001H0.453125Z" fill="#8B8DFD"/>
<g filter="url(#filter0_b_1_61401)">
<path d="M10.9922 92.375V79.8914L41.7833 53.5085C48.0864 48.189 52.4304 43.8133 54.8153 40.3813C57.2854 36.8636 58.5204 33.1314 58.5204 29.1847C58.5204 24.8948 57.1576 21.5058 54.432 19.0176C51.7064 16.4437 48.2567 15.1567 44.0831 15.1567C40.165 15.1567 36.6302 16.2292 33.4787 18.3741C30.4123 20.5191 27.0479 23.951 23.3853 28.6699L12.2698 19.9185C16.8693 13.3978 21.5966 8.63603 26.4516 5.6331C31.3919 2.54437 37.6523 1 45.233 1C54.0061 1 61.1183 3.48815 66.5696 8.46444C72.0209 13.4407 74.7465 20.0043 74.7465 28.1551C74.7465 31.6728 74.3206 34.8474 73.4689 37.6787C72.6171 40.4242 71.0839 43.2556 68.8693 46.1727C66.7399 49.0041 64.3976 51.6209 61.8423 54.0232C59.3722 56.3398 55.9226 59.3427 51.4934 63.032L33.0954 78.4757H75.6408V92.375H10.9922Z" fill="url(#paint0_linear_1_61401)" fill-opacity="0.4"/>
<path d="M10.4922 92.375V92.875H10.9922H75.6408H76.1408V92.375V78.4757V77.9757H75.6408H34.4687L51.8134 63.4162C56.2457 59.7243 59.7039 56.7142 62.1844 54.388L62.1848 54.3875C64.7609 51.9656 67.1221 49.3277 69.2683 46.4741C71.5085 43.523 73.0735 40.6406 73.9464 37.8269L73.9477 37.8227C74.8158 34.9368 75.2465 31.7127 75.2465 28.1551C75.2465 19.8801 72.4732 13.1767 66.9067 8.09516C61.3464 3.01937 54.1059 0.5 45.233 0.5C37.5868 0.5 31.2278 2.05761 26.1876 5.2085C21.2577 8.25798 16.4849 13.0754 11.8612 19.6303L11.5878 20.0179L11.9605 20.3113L23.076 29.0627L23.4716 29.3742L23.7803 28.9765C27.4271 24.2779 30.7551 20.8901 33.7627 18.7856C36.8281 16.7 40.2635 15.6567 44.0831 15.6567C48.1448 15.6567 51.4667 16.905 54.0887 19.3811L54.0886 19.3812L54.0949 19.3869C56.6996 21.7646 58.0204 25.0103 58.0204 29.1847C58.0204 33.0193 56.8226 36.6526 54.4061 40.094L54.4047 40.096C52.0586 43.472 47.7562 47.8133 41.4609 53.1263L41.458 53.1288L10.6669 79.5117L10.4922 79.6614V79.8914V92.375Z" stroke="#FAFAFA" stroke-opacity="0.2"/>
</g>
<defs>
<filter id="filter0_b_1_61401" x="-20.0078" y="-30" width="126.648" height="153.375" filterUnits="userSpaceOnUse" color-interpolation-filters="sRGB">
<feFlood flood-opacity="0" result="BackgroundImageFix"/>
<feGaussianBlur in="BackgroundImageFix" stdDeviation="15"/>
<feComposite in2="SourceAlpha" operator="in" result="effect1_backgroundBlur_1_61401"/>
<feBlend mode="normal" in="SourceGraphic" in2="effect1_backgroundBlur_1_61401" result="shape"/>
</filter>
<linearGradient id="paint0_linear_1_61401" x1="43.3454" y1="92.3465" x2="43.3454" y2="0.986719" gradientUnits="userSpaceOnUse">
<stop stop-color="#D9F0FF"/>
<stop offset="1" stop-color="#F2F8FF"/>
</linearGradient>
</defs>
</svg>
