<svg width="33" height="32" viewBox="0 0 33 32" fill="none" xmlns="http://www.w3.org/2000/svg">
<path d="M16.5312 32C25.3678 32 32.5312 24.8366 32.5312 16C32.5312 7.16344 25.3678 0 16.5312 0C7.69469 0 0.53125 7.16344 0.53125 16C0.53125 24.8366 7.69469 32 16.5312 32Z" fill="white"/>
<path d="M6.80871 15.0212C8.68805 13.9942 10.7859 13.137 12.746 12.2754C16.1182 10.8643 19.5038 9.47758 22.9235 8.18658C23.5889 7.96662 24.7844 7.75154 24.9016 8.72975C24.8374 10.1145 24.5733 11.491 24.3922 12.8676C23.9326 15.8949 23.4012 18.9118 22.8831 21.9291C22.7045 22.9342 21.4355 23.4544 20.6235 22.8112C18.6721 21.5036 16.7057 20.2085 14.7792 18.8705C14.1481 18.2343 14.7333 17.3207 15.2969 16.8664C16.9041 15.2949 18.6087 13.9598 20.1319 12.3071C20.5428 11.3228 19.3287 12.1524 18.9283 12.4066C16.7279 13.9109 14.5815 15.5071 12.2616 16.8292C11.0766 17.4763 9.69554 16.9233 8.5111 16.5622C7.44913 16.126 5.89291 15.6864 6.8086 15.0213L6.80871 15.0212Z" fill="#350587"/>
</svg>
