<svg width="33" height="32" viewBox="0 0 33 32" fill="none" xmlns="http://www.w3.org/2000/svg">
<path fill-rule="evenodd" clip-rule="evenodd" d="M3.07812 2.25C0.859375 4.5 0.859375 8.12109 0.859375 15.3594V16.6406C0.859375 23.8789 0.859375 27.5 3.07812 29.75C5.30469 32 8.88281 32 16.0312 32H17.2969C24.4531 32 28.0312 32 30.25 29.75C32.4688 27.5 32.4688 23.8789 32.4688 16.6406V15.3594C32.4688 8.12109 32.4688 4.5 30.25 2.25C28.0312 0 24.4531 0 17.2969 0H16.0312C8.88281 0 5.30469 0 3.07812 2.25ZM17.7734 17V18.5117H19.1172V18.9102L19.125 22.4609C19.125 22.793 19.1484 23.125 19.2109 23.4492C19.4375 24.7773 20.3438 25.668 21.7031 25.9336C23.0312 26.1914 24.2031 25.707 24.9531 24.5938C24.9922 24.5273 25.0469 24.4648 25.1328 24.3633L25.2422 25.1602L25.3047 25.5C25.3281 25.5898 25.4375 25.7344 25.5078 25.7344L27.3906 25.7461H27.7734V24.2852H26.5469V17.0234H23.3828V18.5117H24.9297L24.9375 19.6367C24.9453 20.5156 24.9531 21.3789 24.9141 22.2422C24.875 23.1328 24.4141 23.8398 23.6016 24.293C23.3516 24.4336 23.1016 24.5234 22.8594 24.5664C22.6562 24.6055 22.4531 24.6094 22.2656 24.582C21.5703 24.4805 21.0078 23.9609 20.8203 23.1211C20.75 22.8203 20.7344 22.5078 20.7344 22.1992L20.7266 20.5234V17.418V17H19.25H17.7734ZM25.5 12.3359L26.7734 13.2109C25.9609 14.1875 24.9062 14.7617 23.5859 14.9453C21.1406 15.2852 18.7812 13.9766 18.0234 11.8672C16.9766 8.96875 19.375 6 22.7734 6C24.0469 6 25.2188 6.28906 26.2344 7.00391C26.3594 7.09375 26.4609 7.28125 26.4688 7.42578C26.4922 7.88281 26.4922 8.34375 26.4844 8.81641V9.29688H24.8438C24.8438 8.88281 24.8594 8.47656 24.8359 8.06641C24.8359 8.01562 24.8125 7.95703 24.7812 7.90234L24.7031 7.80078L24.6328 7.74609C23.2344 7.08984 21.1641 7.18359 20.1016 8.76172C19.1016 10.2344 19.5469 12.1914 21.0625 13.0781C21.3984 13.2734 21.7734 13.4062 22.1562 13.4766C22.3281 13.5078 22.5 13.5273 22.6797 13.5312C23.0078 13.5391 23.3359 13.5039 23.6562 13.4297C24.25 13.2891 24.8125 13.0039 25.2578 12.5781L25.5 12.3359ZM17.7734 7.51172V6.00781C17 6.00781 16.2422 6.01953 15.4844 6C15.2266 5.99609 15.1172 6.07812 15.0312 6.31641L12.9922 12.1992L12.8438 12.5664L12.7266 12.2422L12.2109 10.7812L10.6953 6.39062L10.6172 6.21484L10.5625 6.13281C10.4609 6.02734 10.3281 5.99609 10.125 6L9.36719 6.00781H8.64062H8.05469L7.77344 6.02734V7.51172C8.15625 7.51172 8.52344 7.53906 8.88281 7.50781C9.125 7.48438 9.26562 7.54688 9.36719 7.69141C9.40625 7.75391 9.44531 7.83203 9.47656 7.92578C10.2734 10.1836 11.1094 12.4375 11.9141 14.6953C12 14.9219 12.1016 15.0195 12.3516 14.9961C12.6094 14.9727 12.875 14.9688 13.1328 14.9961C13.4062 15.0234 13.5234 14.9141 13.6172 14.6641L16.1875 7.83203C16.2422 7.67969 16.3125 7.58594 16.4141 7.53906C16.4844 7.50781 16.5703 7.5 16.6797 7.50781L16.8906 7.51953L17.4219 7.51562L17.7734 7.51172ZM14.0938 18.418C13.4297 18.4375 12.8125 18.6562 12.3281 19.0117C11.7031 19.4727 11.2891 20.1602 11.25 20.9375C11.2109 21.7305 11.2188 22.5234 11.2266 23.3203L11.2422 24.4219L11.2656 24.4883L11.2891 24.5508H15.5312V26H7.80469V24.5508H9.42188V18.4453H9.02344C8.71875 18.4414 8.40625 18.4375 8.10156 18.4492C7.84375 18.457 7.76562 18.375 7.77344 18.1523L7.78125 17.332V17.0352H8.46094H8.85156L10.7578 17.0469C10.7812 17.0469 10.8125 17.0703 10.8438 17.1016L10.9219 17.2031L10.9531 17.3008C11 17.7617 11.0156 18.2227 11.0781 18.7109C12.1953 17.1172 13.875 16.8555 15.7734 17.0586V19.7383H14.0938V18.418ZM4.77344 26H6.77344V24H4.77344V26Z" fill="white"/>
</svg>
