<svg width="32" height="32" viewBox="0 0 32 32" fill="none" xmlns="http://www.w3.org/2000/svg">
<g clip-path="url(#clip0_307_10360)">
<mask id="mask0_307_10360" style="mask-type:luminance" maskUnits="userSpaceOnUse" x="0" y="0" width="32" height="32">
<path d="M31.7687 0H0.15625V32H31.7687V0Z" fill="white"/>
</mask>
<g mask="url(#mask0_307_10360)">
<path d="M0.15625 15.36C0.15625 8.11923 0.15625 4.49885 2.37843 2.24942C4.60061 0 8.17715 0 15.3302 0H16.5947C23.7478 0 27.3243 0 29.5465 2.24942C31.7687 4.49885 31.7687 8.11923 31.7687 15.36V16.64C31.7687 23.8808 31.7687 27.5012 29.5465 29.7506C27.3243 32 23.7478 32 16.5947 32H15.3302C8.17715 32 4.60061 32 2.37843 29.7506C0.15625 27.5012 0.15625 23.8808 0.15625 16.64V15.36Z" fill="white"/>
<path d="M16.978 23.0544C9.77302 23.0544 5.66343 18.0544 5.49219 9.73438H9.10129C9.21983 15.841 11.8805 18.4277 13.988 18.961V9.73438H17.3864V15.001C19.4676 14.7743 21.6538 12.3744 22.3915 9.73438H25.7899C25.2235 12.9877 22.8526 15.3877 21.1666 16.3743C22.8526 17.1743 25.5529 19.2677 26.5803 23.0544H22.8394C22.0359 20.521 20.034 18.561 17.3864 18.2943V23.0544H16.978Z" fill="#350587"/>
</g>
</g>
<defs>
<clipPath id="clip0_307_10360">
<rect width="31.9286" height="32" fill="white"/>
</clipPath>
</defs>
</svg>
