<svg width="32" height="32" viewBox="0 0 32 32" fill="none" xmlns="http://www.w3.org/2000/svg">
<g clip-path="url(#clip0_1_56504)">
<path d="M0.15625 15.36C0.15625 8.11923 0.15625 4.49885 2.37843 2.24942C4.60061 0 8.17715 0 15.3302 0H16.5947C23.7478 0 27.3243 0 29.5465 2.24942C31.7687 4.49885 31.7687 8.11923 31.7687 15.36V16.64C31.7687 23.8808 31.7687 27.5012 29.5465 29.7506C27.3243 32 23.7478 32 16.5947 32H15.3302C8.17715 32 4.60061 32 2.37843 29.7506C0.15625 27.5012 0.15625 23.8808 0.15625 16.64V15.36Z" fill="white"/>
<path fill-rule="evenodd" clip-rule="evenodd" d="M2.81251 15.7758C2.8151 8.54602 8.72548 2.6641 15.9932 2.6641C17.7241 2.66002 19.4386 2.99779 21.0375 3.65784C22.6364 4.3179 24.088 5.28714 25.3081 6.50945C26.535 7.72511 27.5075 9.17099 28.1693 10.7634C28.831 12.3557 29.169 14.063 29.1635 15.7863C29.1607 23.0165 23.2503 28.8991 15.9882 28.8991H15.9833C13.6185 28.8978 11.2996 28.2659 9.27724 27.071L8.79571 26.787L3.80896 28.0887L5.14021 23.2503L4.82673 22.7542C3.50725 20.6639 2.80893 18.2445 2.81251 15.7758ZM11.1354 8.49821C11.4174 8.50957 11.7298 8.52287 12.0267 9.17942C12.2289 9.62738 12.5689 10.4615 12.8404 11.1277C13.0416 11.6214 13.2052 12.0229 13.2474 12.1068C13.3465 12.3039 13.4122 12.5347 13.2804 12.7974C13.2601 12.8378 13.2414 12.8759 13.2236 12.9122C13.1253 13.1123 13.0527 13.2601 12.8848 13.4548C12.8177 13.5326 12.7484 13.6166 12.6791 13.7004C12.5434 13.8646 12.408 14.0285 12.2904 14.1455C12.0917 14.3419 11.8849 14.5556 12.1163 14.95C12.3477 15.3445 13.1425 16.6353 14.3199 17.6805C15.5872 18.8054 16.6877 19.2804 17.2448 19.5209C17.353 19.5676 17.4406 19.6054 17.5051 19.6375C17.9015 19.8346 18.1322 19.8015 18.3634 19.5384C18.5946 19.2752 19.3528 18.3874 19.6171 17.9928C19.8815 17.5981 20.1454 17.6635 20.5084 17.7952C20.8714 17.9269 22.8184 18.8807 23.2149 19.0781C23.2928 19.1169 23.3657 19.1519 23.4332 19.1842C23.7088 19.3165 23.8949 19.4059 23.9743 19.5384C24.0732 19.7033 24.073 20.4922 23.7431 21.413C23.4133 22.3338 21.7964 23.222 21.0699 23.2876C20.9999 23.2939 20.9304 23.3021 20.8589 23.3104C20.1876 23.389 19.3405 23.4881 16.3169 22.301C12.5927 20.8389 10.1381 17.2142 9.63441 16.4703C9.59358 16.41 9.56557 16.3687 9.55074 16.3489L9.54605 16.3427C9.33157 16.0572 7.93359 14.1962 7.93359 12.2708C7.93359 10.4558 8.82951 9.504 9.24208 9.06569C9.27049 9.0355 9.29662 9.00774 9.32 8.98231C9.68281 8.58765 10.112 8.48898 10.3761 8.48898L11.1354 8.49821Z" fill="url(#paint0_linear_1_56504)"/>
</g>
<defs>
<linearGradient id="paint0_linear_1_56504" x1="15.7198" y1="4.23844" x2="15.8522" y2="26.6579" gradientUnits="userSpaceOnUse">
<stop stop-color="#350587"/>
<stop offset="1" stop-color="#350587"/>
</linearGradient>
<clipPath id="clip0_1_56504">
<rect width="31.9286" height="32" fill="white"/>
</clipPath>
</defs>
</svg>
