<svg width="33" height="32" viewBox="0 0 33 32" fill="none" xmlns="http://www.w3.org/2000/svg">
<g clip-path="url(#clip0_307_10367)">
<path d="M1.08594 15.36C1.08594 8.11923 1.08594 4.49885 3.30812 2.24942C5.5303 0 9.10684 0 16.2599 0H17.5244C24.6775 0 28.254 0 30.4762 2.24942C32.6984 4.49885 32.6984 8.11923 32.6984 15.36V16.64C32.6984 23.8808 32.6984 27.5012 30.4762 29.7506C28.254 32 24.6775 32 17.5244 32H16.2599C9.10684 32 5.5303 32 3.30812 29.7506C1.08594 27.5012 1.08594 23.8808 1.08594 16.64V15.36Z" fill="white"/>
<g clip-path="url(#clip1_307_10367)">
<path d="M26.4806 11.6501C26.3715 11.2388 26.1566 10.8634 25.8573 10.5615C25.558 10.2596 25.1848 10.0418 24.7752 9.92988C23.267 9.52344 17.2388 9.52344 17.2388 9.52344C17.2388 9.52344 11.2107 9.52344 9.70252 9.92988C9.29284 10.0418 8.91968 10.2596 8.62038 10.5615C8.32108 10.8634 8.10615 11.2388 7.99709 11.6501C7.59375 13.1682 7.59375 16.334 7.59375 16.334C7.59375 16.334 7.59375 19.4999 7.99709 21.018C8.10615 21.4293 8.32108 21.8047 8.62038 22.1066C8.91968 22.4085 9.29284 22.6263 9.70252 22.7382C11.2107 23.1446 17.2388 23.1446 17.2388 23.1446C17.2388 23.1446 23.267 23.1446 24.7752 22.7382C25.1848 22.6263 25.558 22.4085 25.8573 22.1066C26.1566 21.8047 26.3715 21.4293 26.4806 21.018C26.8839 19.4999 26.8839 16.334 26.8839 16.334C26.8839 16.334 26.8839 13.1682 26.4806 11.6501Z" fill="#350587"/>
<path d="M15.2656 19.2104V13.4609L20.3074 16.3357L15.2656 19.2104Z" fill="white"/>
</g>
</g>
<defs>
<clipPath id="clip0_307_10367">
<rect width="31.9286" height="32" fill="white" transform="translate(0.929688)"/>
</clipPath>
<clipPath id="clip1_307_10367">
<rect width="19.2902" height="19.3333" fill="white" transform="translate(7.57812 6.66797)"/>
</clipPath>
</defs>
</svg>
