<svg width="33" height="32" viewBox="0 0 33 32" fill="none" xmlns="http://www.w3.org/2000/svg">
<g clip-path="url(#clip0_307_10375)">
<path d="M15.5437 0.0437498C12.6313 0.33125 10.2625 1.15625 7.96875 2.6875C5.6 4.25625 3.7625 6.3625 2.48125 8.96875C1.56875 10.8187 1.05 12.7375 0.88125 14.8875L0.84375 15.4375H1.8C5.2625 15.4375 8.38125 15.0625 10.2063 14.4312C11.4688 14 12.3625 13.4688 13.25 12.625C14.9187 11.05 15.7688 8.79375 16.1062 5.0625C16.2 3.975 16.2937 2.01875 16.2937 0.95V0L16.0312 0.0124998C15.8813 0.0124998 15.6625 0.03125 15.5437 0.0437498Z" fill="white"/>
<path d="M17.2969 0.819531C17.2969 3.61328 17.5906 6.69453 18.0219 8.38828C18.4594 10.132 19.2781 11.632 20.3469 12.6383C22.3781 14.5508 25.1719 15.2758 31.0406 15.4195L32.7531 15.457L32.7094 14.8695C32.4156 10.9633 30.8344 7.48203 28.1094 4.74453C26.7344 3.36328 25.4781 2.46328 23.7656 1.61953C21.8969 0.707031 20.0219 0.200781 17.8469 0.0320311L17.2969 -0.0117188V0.819531Z" fill="white"/>
<path d="M0.88125 16.982C1.1125 19.8695 1.98125 22.4445 3.51875 24.7508C4.7 26.5258 6.3875 28.2008 8.1375 29.3258C10.3875 30.7758 13 31.6445 15.7188 31.8508L16.2937 31.8945V30.932C16.2937 27.5758 15.9438 24.532 15.35 22.7258C14.25 19.3633 11.95 17.5633 7.8875 16.882C6.44375 16.6383 3.64375 16.4383 1.675 16.4383H0.84375L0.88125 16.982Z" fill="white"/>
<path d="M29.5109 16.507C24.6109 16.7445 22.0359 17.5445 20.1984 19.407C18.2109 21.4195 17.4672 24.2133 17.3109 30.2445L17.2734 31.8945L17.8609 31.8508C21.7172 31.5633 25.1422 30.032 27.8797 27.3758C30.5859 24.7445 32.1984 21.4758 32.6359 17.7133C32.6859 17.2695 32.7297 16.8008 32.7297 16.6758V16.4383L31.6547 16.4445C31.0609 16.4508 30.0984 16.482 29.5109 16.507Z" fill="white"/>
</g>
<defs>
<clipPath id="clip0_307_10375">
<rect width="32" height="32" fill="white" transform="translate(0.859375)"/>
</clipPath>
</defs>
</svg>
