<svg width="420" height="257" viewBox="0 0 420 257" fill="none" xmlns="http://www.w3.org/2000/svg">
<path d="M-2 293V1.88333C3.20446 -1.34524 42.6592 -6.00238 112.25 41.0135C199.239 99.7834 398 91.1492 453.514 159.838C509.028 228.527 270.089 244.086 372.721 285.313C406.674 298.951 420.057 287.297 456.488 293H-2Z" fill="#5912D1"/>
<path d="M-2 285.751V9.99102C3.03769 6.51547 42.6455 2.09644 112.215 49.1653C199.177 108.001 196.452 60.3366 251.949 129.103C307.446 197.869 229.373 230.824 331.974 272.097C365.917 285.751 540.089 284.857 534.886 293L-2 285.751Z" fill="#350587"/>
<path d="M-0.520325 293L-3 34.9298C2.04201 31.4658 33.9967 27.3584 103.626 74.2712C190.663 132.912 187.935 85.4055 243.48 153.944C299.024 222.482 223.364 238.255 326.053 279.391C359.436 292.764 436.398 292.757 482.586 292.753L485 292.752L-0.520325 293Z" fill="#D9D9D9"/>
<path d="M-0.520325 293L-3 34.9298C2.04201 31.4658 33.9967 27.3584 103.626 74.2712C190.663 132.912 187.935 85.4055 243.48 153.944C299.024 222.482 223.364 238.255 326.053 279.391C359.436 292.764 436.398 292.757 482.586 292.753L485 292.752L-0.520325 293Z" fill="url(#paint0_linear_307_10316)"/>
<defs>
<linearGradient id="paint0_linear_307_10316" x1="241.63" y1="40.2289" x2="241.63" y2="290.893" gradientUnits="userSpaceOnUse">
<stop offset="0.0141403" stop-color="#5812D0"/>
<stop offset="0.484375" stop-color="#4E19A9"/>
<stop offset="1" stop-color="#2A0071"/>
</linearGradient>
</defs>
</svg>
