<svg width="175" height="89" viewBox="0 0 175 89" fill="none" xmlns="http://www.w3.org/2000/svg">
<path d="M41.5 34.5C31.5 18.1 9.66667 2.16667 0 0V89H174.5C134.333 78.1667 51.5 50.9 41.5 34.5Z" fill="url(#paint0_linear_307_9830)"/>
<path d="M26 71.5C26 59.5 24 47 0 29V89H62.5C62.5 84 49.5 74.5 43.5 74.5C37.5 74.5 26 76 26 71.5Z" fill="#D9D9D9"/>
<path d="M26 71.5C26 59.5 24 47 0 29V89H62.5C62.5 84 49.5 74.5 43.5 74.5C37.5 74.5 26 76 26 71.5Z" fill="url(#paint1_linear_307_9830)"/>
<defs>
<linearGradient id="paint0_linear_307_9830" x1="87.25" y1="7.5" x2="87.25" y2="88.3209" gradientUnits="userSpaceOnUse">
<stop offset="0.0141403" stop-color="#5812D0"/>
<stop offset="0.484375" stop-color="#4E19A9"/>
<stop offset="1" stop-color="#2A0071"/>
</linearGradient>
<linearGradient id="paint1_linear_307_9830" x1="31.25" y1="29" x2="31.25" y2="88.5" gradientUnits="userSpaceOnUse">
<stop offset="0.0141403" stop-color="#5812D0"/>
<stop offset="0.484375" stop-color="#350587"/>
<stop offset="1" stop-color="#28016A"/>
</linearGradient>
</defs>
</svg>
