<svg width="299" height="172" viewBox="0 0 299 172" fill="none" xmlns="http://www.w3.org/2000/svg">
<path d="M221.854 66.6742C241.166 34.9798 283.331 4.18727 302 0V172H-35C42.5712 151.064 202.542 98.3685 221.854 66.6742Z" fill="url(#paint0_linear_901_2166)"/>
<path d="M251.664 138.167C251.664 114.967 255.536 90.8 302 56V172H181C181 162.333 206.168 143.967 217.784 143.967C229.4 143.967 251.664 146.867 251.664 138.167Z" fill="#D9D9D9"/>
<path d="M251.664 138.167C251.664 114.967 255.536 90.8 302 56V172H181C181 162.333 206.168 143.967 217.784 143.967C229.4 143.967 251.664 146.867 251.664 138.167Z" fill="url(#paint1_linear_901_2166)"/>
<defs>
<linearGradient id="paint0_linear_901_2166" x1="133.5" y1="14.4944" x2="133.5" y2="170.688" gradientUnits="userSpaceOnUse">
<stop offset="0.0141403" stop-color="#5812D0"/>
<stop offset="0.484375" stop-color="#4E19A9"/>
<stop offset="1" stop-color="#2A0071"/>
</linearGradient>
<linearGradient id="paint1_linear_901_2166" x1="241.5" y1="56" x2="241.5" y2="171.033" gradientUnits="userSpaceOnUse">
<stop offset="0.0141403" stop-color="#5812D0"/>
<stop offset="0.484375" stop-color="#350587"/>
<stop offset="1" stop-color="#28016A"/>
</linearGradient>
</defs>
</svg>
