<svg width="299" height="172" viewBox="0 0 299 172" fill="none" xmlns="http://www.w3.org/2000/svg">
<path d="M80.1461 66.6742C60.8338 34.9798 18.6686 4.18727 0 0V172H337.5C259.929 151.064 99.4585 98.3685 80.1461 66.6742Z" fill="url(#paint0_linear_901_2167)"/>
<path d="M50.336 138.167C50.336 114.967 46.464 90.8 0 56V172H121C121 162.333 95.832 143.967 84.216 143.967C72.6 143.967 50.336 146.867 50.336 138.167Z" fill="#D9D9D9"/>
<path d="M50.336 138.167C50.336 114.967 46.464 90.8 0 56V172H121C121 162.333 95.832 143.967 84.216 143.967C72.6 143.967 50.336 146.867 50.336 138.167Z" fill="url(#paint1_linear_901_2167)"/>
<defs>
<linearGradient id="paint0_linear_901_2167" x1="168.5" y1="14.4944" x2="168.5" y2="170.688" gradientUnits="userSpaceOnUse">
<stop offset="0.0141403" stop-color="#5812D0"/>
<stop offset="0.484375" stop-color="#4E19A9"/>
<stop offset="1" stop-color="#2A0071"/>
</linearGradient>
<linearGradient id="paint1_linear_901_2167" x1="60.5" y1="56" x2="60.5" y2="171.033" gradientUnits="userSpaceOnUse">
<stop offset="0.0141403" stop-color="#5812D0"/>
<stop offset="0.484375" stop-color="#350587"/>
<stop offset="1" stop-color="#28016A"/>
</linearGradient>
</defs>
</svg>
