<svg width="1920" height="498" viewBox="0 0 1920 498" fill="none" xmlns="http://www.w3.org/2000/svg">
<path d="M1920 88.5889L1920 466C1920 483.673 1905.67 498 1888 498L35.3251 498C17.652 498 3.32507 483.673 3.32508 466L3.32513 -3.90592e-06L894.884 5.46931e-05C918.747 5.62615e-05 942.135 6.67086 962.408 19.2594L1043.04 69.3296C1063.31 81.9181 1086.7 88.5889 1110.56 88.5889L1920 88.5889Z" fill="#350587"/>
<path d="M305.918 82.9081C539.351 201.408 1072.72 183.999 1221.69 322.499C1316.34 410.491 1091.81 455.743 986.265 497.998H3.32031V2.70587C27.7011 -3.28893 131.562 -5.60223 305.918 82.9081Z" fill="#5912D1"/>
<path d="M306.588 99.3981C540.021 217.898 532.705 121.898 681.676 260.398C799.378 369.826 693.259 434.229 779.36 497.444L779.434 497.499H3.32525V19.271C26.2427 12.8118 130.771 10.1462 306.588 99.3981Z" fill="#350587"/>
<path d="M282.641 149.501C516.074 268.001 508.759 172.001 657.73 310.501C761.057 406.565 695.093 451.333 736.871 497.485H3.32031V67.8804C29.2378 62.3932 115.439 64.6226 282.641 149.501Z" fill="#D9D9D9"/>
<path d="M282.641 149.501C516.074 268.001 508.759 172.001 657.73 310.501C761.057 406.565 695.093 451.333 736.871 497.485H3.32031V67.8804C29.2378 62.3932 115.439 64.6226 282.641 149.501Z" fill="url(#paint0_linear_510_3945)"/>
<defs>
<linearGradient id="paint0_linear_510_3945" x1="652.769" y1="80.7095" x2="652.769" y2="587.245" gradientUnits="userSpaceOnUse">
<stop offset="0.0141403" stop-color="#5812D0"/>
<stop offset="0.484375" stop-color="#4E19A9"/>
<stop offset="1" stop-color="#2A0071"/>
</linearGradient>
</defs>
</svg>
