<svg width="375" height="346" viewBox="0 0 375 346" fill="none" xmlns="http://www.w3.org/2000/svg">
<g clip-path="url(#clip0_1_75948)">
<path d="M1441 73L1441 496.5C1441 514.173 1426.67 528.5 1409 528.5L32 528.5C14.3269 528.5 1.2525e-06 514.173 2.79753e-06 496.5L4.62029e-05 -3.90591e-06L396.816 3.07849e-05C422.505 3.30306e-05 447.599 7.72947 468.835 22.1831L510.907 50.8169C532.143 65.2706 557.237 73 582.926 73L1441 73Z" fill="#350587"/>
<path d="M-3.57812 444.621V3.06749C3.89406 -1.82947 60.5403 -8.89321 160.454 62.4185C285.346 151.558 570.712 138.462 650.416 242.646C730.119 346.831 387.067 370.43 534.419 432.961C583.166 453.648 602.38 435.97 654.685 444.621H-3.57812Z" fill="#5912D1"/>
<path d="M-3.21875 433.264V15.4735C4.01622 10.2079 60.8997 3.51284 160.813 74.8245C285.706 163.964 281.792 91.7497 361.495 195.934C441.198 300.118 329.072 350.047 476.424 412.577C525.171 433.264 775.311 431.91 767.839 444.247L-3.21875 433.264Z" fill="#350587"/>
<path d="M-1.44182 445.001L-5 52.7108C2.23497 47.4451 48.0881 41.2016 148.002 112.513C272.894 201.653 268.98 129.438 348.683 233.623C428.387 337.807 319.818 361.783 467.171 424.314C515.073 444.642 625.509 444.631 691.785 444.625L695.25 444.624L-1.44182 445.001Z" fill="#D9D9D9"/>
<path d="M-1.44182 445.001L-5 52.7108C2.23497 47.4451 48.0881 41.2016 148.002 112.513C272.894 201.653 268.98 129.438 348.683 233.623C428.387 337.807 319.818 361.783 467.171 424.314C515.073 444.642 625.509 444.631 691.785 444.625L695.25 444.624L-1.44182 445.001Z" fill="url(#paint0_linear_1_75948)"/>
</g>
<defs>
<linearGradient id="paint0_linear_1_75948" x1="346.029" y1="60.7659" x2="346.029" y2="441.799" gradientUnits="userSpaceOnUse">
<stop offset="0.0141403" stop-color="#5812D0"/>
<stop offset="0.484375" stop-color="#4E19A9"/>
<stop offset="1" stop-color="#2A0071"/>
</linearGradient>
<clipPath id="clip0_1_75948">
<path d="M0 0H375V346H0V0Z" fill="white"/>
</clipPath>
</defs>
</svg>
