<svg width="1440" height="757" viewBox="0 0 1440 757" fill="none" xmlns="http://www.w3.org/2000/svg">
<path d="M297.595 85.8009C553.875 258.901 1139.45 233.47 1303 435.786C1443.05 609.025 947.025 667.525 991.4 757H0V0H142.142C186.322 18.3735 238.238 45.7087 297.595 85.8009Z" fill="#5912D1"/>
<path d="M297.478 110.185C553.668 283.39 545.639 143.072 709.133 345.51C868.362 542.665 654.36 639.827 922.295 757H0V0H71.3827C127.041 14.5455 202.852 46.2101 297.478 110.185Z" fill="#350587"/>
<path d="M271.979 183.592C528.273 356.357 520.241 216.395 683.802 418.319C832.726 602.174 661.349 657.151 857.737 757.001H0V62.4531C47.367 65.9593 134.868 91.1667 271.979 183.592Z" fill="#D9D9D9"/>
<path d="M271.979 183.592C528.273 356.357 520.241 216.395 683.802 418.319C832.726 602.174 661.349 657.151 857.737 757.001H0V62.4531C47.367 65.9593 134.868 91.1667 271.979 183.592Z" fill="url(#paint0_linear_1_74058)"/>
<defs>
<linearGradient id="paint0_linear_1_74058" x1="678.355" y1="83.2984" x2="678.355" y2="821.795" gradientUnits="userSpaceOnUse">
<stop offset="0.0141403" stop-color="#5812D0"/>
<stop offset="0.484375" stop-color="#4E19A9"/>
<stop offset="1" stop-color="#2A0071"/>
</linearGradient>
</defs>
</svg>
