<svg width="375" height="444" viewBox="0 0 375 444" fill="none" xmlns="http://www.w3.org/2000/svg">
<path d="M0 1V487.85C8.70401 493.25 74.6887 501.038 191.074 422.411C336.555 324.127 668.966 338.566 761.808 223.694C854.651 108.822 455.045 82.8013 626.689 13.8557C683.472 -8.95282 705.854 10.5381 766.782 1H0Z" fill="#5912D1"/>
<path d="M0 13.0005V475.001C8.4243 480.818 76.6586 487.881 192.997 409.103C338.419 310.63 333.862 390.406 426.667 275.313C519.473 160.22 388.914 105.064 560.489 35.9858C617.25 13.1334 908.51 14.6286 899.809 1.00058L0 13.0005Z" fill="#350587"/>
<path d="M0 0V432.771C8.42056 438.567 61.7876 445.439 178.074 366.95C323.432 268.839 318.877 348.322 411.641 233.652C504.405 118.982 378.046 92.5928 549.545 23.7687C605.297 1.39496 733.831 1.40683 810.967 1.41397L815 1.41422L0 0Z" fill="#D9D9D9"/>
<path d="M0 0V432.771C8.42056 438.567 61.7876 445.439 178.074 366.95C323.432 268.839 318.877 348.322 411.641 233.652C504.405 118.982 378.046 92.5928 549.545 23.7687C605.297 1.39496 733.831 1.40683 810.967 1.41397L815 1.41422L0 0Z" fill="url(#paint0_linear_906_4340)"/>
<defs>
<linearGradient id="paint0_linear_906_4340" x1="408.552" y1="423.905" x2="408.552" y2="4.52433" gradientUnits="userSpaceOnUse">
<stop offset="0.0141403" stop-color="#5812D0"/>
<stop offset="0.484375" stop-color="#4E19A9"/>
<stop offset="1" stop-color="#2A0071"/>
</linearGradient>
</defs>
</svg>
