<svg width="1440" height="266" viewBox="0 0 1440 266" fill="none" xmlns="http://www.w3.org/2000/svg">
<path d="M1440 347C1294.57 106.942 761.625 -119.951 646.562 -134.283C625.94 -134.442 620.585 -134.672 635.495 -134.989C638.578 -135.055 642.281 -134.816 646.562 -134.283C744.789 -133.523 1189.4 -134.36 1440 -134.989V347Z" fill="#5812D0"/>
<path d="M622.214 -135C673.526 -135 1279.65 107.533 1440 286V-135H622.214Z" fill="#350587"/>
<path d="M747 -135C849.158 -133.474 1130.78 -64.9366 1440 197V-135H747Z" fill="#D9D9D9"/>
<path d="M747 -135C849.158 -133.474 1130.78 -64.9366 1440 197V-135H747Z" fill="#5812D0"/>
<path d="M0 -135V351.85C8.70401 357.25 74.6887 365.038 191.074 286.411C336.555 188.127 668.966 202.566 761.808 87.6941C854.651 -27.178 455.045 -53.1987 626.689 -122.144C683.472 -144.953 705.854 -125.462 766.782 -135H0Z" fill="#5912D1"/>
<path d="M0 -123.001V338.999C8.4243 344.816 76.6586 351.879 192.997 273.101C338.419 174.628 333.862 254.404 426.667 139.311C519.473 24.2179 388.914 -30.9381 560.489 -100.016C617.25 -122.869 908.51 -121.373 899.809 -135.001L0 -123.001Z" fill="#350587"/>
<path d="M0 -136V296.771C8.42056 302.567 61.7876 309.439 178.074 230.95C323.432 132.839 318.877 212.322 411.641 97.6518C504.405 -17.0179 378.046 -43.4072 549.545 -112.231C605.297 -134.605 733.831 -134.593 810.967 -134.586L815 -134.586L0 -136Z" fill="#D9D9D9"/>
<path d="M0 -136V296.771C8.42056 302.567 61.7876 309.439 178.074 230.95C323.432 132.839 318.877 212.322 411.641 97.6518C504.405 -17.0179 378.046 -43.4072 549.545 -112.231C605.297 -134.605 733.831 -134.593 810.967 -134.586L815 -134.586L0 -136Z" fill="url(#paint0_linear_506_3932)"/>
<defs>
<linearGradient id="paint0_linear_506_3932" x1="408.552" y1="287.905" x2="408.552" y2="-131.476" gradientUnits="userSpaceOnUse">
<stop offset="0.0141403" stop-color="#5812D0"/>
<stop offset="0.484375" stop-color="#4E19A9"/>
<stop offset="1" stop-color="#2A0071"/>
</linearGradient>
</defs>
</svg>
