<svg width="270" height="184" viewBox="0 0 270 184" fill="none" xmlns="http://www.w3.org/2000/svg">
<path d="M273 184V1.1827C270.084 -0.844793 247.975 -3.76941 208.98 25.7559C160.237 62.6626 48.8621 57.2404 17.755 100.376C-13.3521 143.512 120.537 153.283 63.0269 179.173C44.0016 187.737 36.5025 180.418 16.0885 184H273Z" fill="#5912D1"/>
<path d="M273 184V21.2145C270.179 19.0345 252.303 16.4496 213.351 45.9729C164.66 82.877 166.186 52.98 135.113 96.1126C104.04 139.245 146.366 149.172 88.9192 175.059C70.244 183.475 27.1893 183.471 1.3508 183.468L0 183.468L273 184Z" fill="#D9D9D9"/>
<path d="M273 184V21.2145C270.179 19.0345 252.303 16.4496 213.351 45.9729C164.66 82.877 166.186 52.98 135.113 96.1126C104.04 139.245 146.366 149.172 88.9192 175.059C70.244 183.475 27.1893 183.471 1.3508 183.468L0 183.468L273 184Z" fill="url(#paint0_linear_905_2169)"/>
<defs>
<linearGradient id="paint0_linear_905_2169" x1="136.148" y1="24.5493" x2="136.148" y2="182.298" gradientUnits="userSpaceOnUse">
<stop offset="0.0141403" stop-color="#5812D0"/>
<stop offset="0.484375" stop-color="#4E19A9"/>
<stop offset="1" stop-color="#2A0071"/>
</linearGradient>
</defs>
</svg>
