<svg width="645" height="346" viewBox="0 0 645 346" fill="none" xmlns="http://www.w3.org/2000/svg">
<path d="M656 352V-30.5253C649.158 -34.7676 597.289 -40.8871 505.8 20.8915C391.44 98.1147 130.138 86.7694 57.1559 177.026C-15.8262 267.283 298.297 287.728 163.371 341.899C118.734 359.82 101.141 344.506 53.2461 352H656Z" fill="#5912D1"/>
<path d="M656 342.487V-19.3872C649.377 -23.9481 597.304 -29.7471 505.84 32.0204C391.51 109.23 395.093 46.6803 322.13 136.921C249.167 227.161 351.811 270.407 216.92 324.569C172.296 342.487 -56.6901 341.315 -49.8499 352L656 342.487Z" fill="#350587"/>
<path d="M653.743 352L657 12.5384C650.377 7.98187 608.404 2.57913 516.944 64.2875C402.619 141.423 406.202 78.9334 333.243 169.088C260.284 259.242 359.666 279.989 224.781 334.099C180.932 351.689 79.8399 351.68 19.1714 351.675L16 351.674L653.743 352Z" fill="#D9D9D9"/>
<path d="M653.743 352L657 12.5384C650.377 7.98187 608.404 2.57913 516.944 64.2875C402.619 141.423 406.202 78.9334 333.243 169.088C260.284 259.242 359.666 279.989 224.781 334.099C180.932 351.689 79.8399 351.68 19.1714 351.675L16 351.674L653.743 352Z" fill="url(#paint0_linear_1_58264)"/>
<defs>
<linearGradient id="paint0_linear_1_58264" x1="335.673" y1="19.5088" x2="335.673" y2="349.229" gradientUnits="userSpaceOnUse">
<stop offset="0.0141403" stop-color="#5812D0"/>
<stop offset="0.484375" stop-color="#4E19A9"/>
<stop offset="1" stop-color="#2A0071"/>
</linearGradient>
</defs>
</svg>
