<svg width="636" height="346" viewBox="0 0 636 346" fill="none" xmlns="http://www.w3.org/2000/svg">
<path d="M-70 -6V376.525C-63.1579 380.768 -11.2885 386.887 80.1998 325.109C194.56 247.885 455.862 259.231 528.844 168.974C601.826 78.7173 287.703 58.2724 422.629 4.10092C467.266 -13.8201 484.859 1.49423 532.754 -6H-70Z" fill="#5912D1"/>
<path d="M-70 3.51297V365.387C-63.3769 369.948 -11.304 375.747 80.16 313.98C194.49 236.77 190.907 299.32 263.87 209.079C336.833 118.839 234.189 75.5926 369.08 21.4308C413.704 3.51297 642.69 4.68524 635.85 -6L-70 3.51297Z" fill="#350587"/>
<path d="M-67.7429 -6L-71 333.462C-64.3772 338.018 -22.4039 343.421 69.0559 281.712C183.381 204.577 179.798 267.067 252.757 176.912C325.716 86.7583 226.334 66.0109 361.219 11.9009C405.068 -5.68948 506.16 -5.68015 566.829 -5.67453L570 -5.67435L-67.7429 -6Z" fill="#D9D9D9"/>
<path d="M-67.7429 -6L-71 333.462C-64.3772 338.018 -22.4039 343.421 69.0559 281.712C183.381 204.577 179.798 267.067 252.757 176.912C325.716 86.7583 226.334 66.0109 361.219 11.9009C405.068 -5.68948 506.16 -5.68015 566.829 -5.67453L570 -5.67435L-67.7429 -6Z" fill="url(#paint0_linear_1_58342)"/>
<defs>
<linearGradient id="paint0_linear_1_58342" x1="250.327" y1="326.491" x2="250.327" y2="-3.22913" gradientUnits="userSpaceOnUse">
<stop offset="0.0141403" stop-color="#5812D0"/>
<stop offset="0.484375" stop-color="#4E19A9"/>
<stop offset="1" stop-color="#2A0071"/>
</linearGradient>
</defs>
</svg>
