<svg width="900" height="436" viewBox="0 0 900 436" fill="none" xmlns="http://www.w3.org/2000/svg">
<path d="M900 490V3.14959C891.296 -2.24972 825.311 -10.0381 708.926 68.5892C563.445 166.873 231.034 152.434 138.192 267.306C45.3489 382.178 444.955 408.199 273.311 477.144C216.528 499.953 194.146 480.462 133.218 490H900Z" fill="#5912D1"/>
<path d="M900 478.001V16.0014C891.576 10.1844 823.341 3.12068 707.003 81.8991C561.581 180.372 566.138 100.596 473.333 215.689C380.527 330.782 511.086 385.938 339.511 455.016C282.75 477.869 -8.50964 476.373 0.190857 490.001L900 478.001Z" fill="#350587"/>
<path d="M900 491V58.2287C891.579 52.4331 838.212 45.5612 721.926 124.05C576.568 222.161 581.764 143.33 489 258C396.236 372.67 522.595 399.059 351.096 467.883C294.361 490.651 161.613 489.586 85 489.586L900 491Z" fill="#D9D9D9"/>
<path d="M900 491V58.2287C891.579 52.4331 838.212 45.5612 721.926 124.05C576.568 222.161 581.764 143.33 489 258C396.236 372.67 522.595 399.059 351.096 467.883C294.361 490.651 161.613 489.586 85 489.586L900 491Z" fill="url(#paint0_linear_803_2175)"/>
<defs>
<linearGradient id="paint0_linear_803_2175" x1="491.448" y1="67.0945" x2="491.448" y2="486.476" gradientUnits="userSpaceOnUse">
<stop offset="0.0141403" stop-color="#5812D0"/>
<stop offset="0.562623" stop-color="#4E19A9"/>
</linearGradient>
</defs>
</svg>
